<svg id="Group_2368" data-name="Group 2368" xmlns="http://www.w3.org/2000/svg" xmlns:xlink="http://www.w3.org/1999/xlink" width="96.059" height="117.359" viewBox="0 0 96.059 117.359">
  <defs>
    <clipPath id="clip-path">
      <rect id="Rectangle_1513" data-name="Rectangle 1513" width="96.059" height="117.36" fill="none"/>
    </clipPath>
  </defs>
  <g id="Group_2367" data-name="Group 2367" clipPath="url(#clip-path)">
    <path id="Path_2742" data-name="Path 2742" d="M5.915,0H73.141L96,22.507v88.937a5.934,5.934,0,0,1-5.915,5.916H5.915A5.933,5.933,0,0,1,0,111.444V5.916A5.933,5.933,0,0,1,5.915,0" fill="#a5c765" fillRule="evenodd"/>
    <path id="Path_2743" data-name="Path 2743" d="M96.06,22.547l-18.335.023a4.6,4.6,0,0,1-4.587-4.584V0Z" fill="#fff" fillRule="evenodd"/>
    <path id="Path_2744" data-name="Path 2744" d="M25.8,90.334H22.565l-.743,2.5H20.587l3.084-9.574H24.7l3.091,9.574H26.557ZM22.881,89.3h2.611l-1.309-4.35Zm12.465,3.541H34.137L30.3,85.462v7.377h-1.21V83.265H30.3l3.846,7.411V83.265h1.2Zm3.345,0H37.486V83.265h1.205Zm3.661-9.574,2.5,7.812,2.5-7.812H48.9v9.574H47.7V89.112l.112-3.738-2.505,7.465h-.92L41.891,85.4,42,89.112v3.727H40.8V83.265Zm13.2,7.069H52.319l-.743,2.5H50.342l3.084-9.574h1.03l3.09,9.574H56.312ZM52.636,89.3h2.61l-1.309-4.35Zm10.961-5V83.265H57.365V84.3h2.511v8.537h1.2V84.3Zm6,4.12H66.214V91.8H70.16v1.036H65.011V83.265H70.1V84.3H66.214v3.083H69.6Zm2.1,4.417V83.265H73.98a3.289,3.289,0,0,1,2.6,1.048,4.3,4.3,0,0,1,.927,2.949v1.6a4.21,4.21,0,0,1-.94,2.938,3.5,3.5,0,0,1-2.727,1.034ZM72.9,84.3v7.5h.965a2.237,2.237,0,0,0,1.853-.727,3.422,3.422,0,0,0,.6-2.153v-1.7a3.458,3.458,0,0,0-.581-2.217,2.147,2.147,0,0,0-1.76-.707ZM30,103.295a3.561,3.561,0,0,1-.864,2.36,2.932,2.932,0,0,1-2.22.821,2.741,2.741,0,0,1-2.287-1.1,4.741,4.741,0,0,1-.849-2.972v-1.736a4.581,4.581,0,0,1,.872-2.954,2.879,2.879,0,0,1,2.377-1.087,2.757,2.757,0,0,1,2.145.831A3.638,3.638,0,0,1,30,99.839H28.787a2.941,2.941,0,0,0-.493-1.67,1.538,1.538,0,0,0-1.261-.5,1.72,1.72,0,0,0-1.507.766A3.973,3.973,0,0,0,25,100.678v1.756a4.17,4.17,0,0,0,.49,2.228,1.583,1.583,0,0,0,1.429.777,1.728,1.728,0,0,0,1.356-.467,2.94,2.94,0,0,0,.511-1.677Zm7.86-.9a4.78,4.78,0,0,1-.835,3.021,2.847,2.847,0,0,1-2.374,1.06,2.884,2.884,0,0,1-2.339-1.03,4.575,4.575,0,0,1-.891-2.911v-1.8a4.793,4.793,0,0,1,.848-3.013,2.836,2.836,0,0,1,2.368-1.089A2.867,2.867,0,0,1,37,97.675a4.7,4.7,0,0,1,.866,2.977Zm-1.2-1.676a4.091,4.091,0,0,0-.5-2.258,1.909,1.909,0,0,0-3.024.011,3.967,3.967,0,0,0-.516,2.209v1.714a4.04,4.04,0,0,0,.51,2.234,1.913,1.913,0,0,0,3.021.06,3.981,3.981,0,0,0,.505-2.175Zm9.314,5.622h-1.21L40.93,98.963v7.378H39.72V96.767h1.21l3.847,7.41v-7.41h1.2ZM53.465,97.8H50.947v8.538h-1.2V97.8H47.233V96.767h6.232Zm6,4.121H56.082v3.38h3.946v1.037H54.879V96.767h5.084V97.8H56.082v3.084h3.387Zm8.347,4.417h-1.21l-3.833-7.378v7.378h-1.21V96.767h1.21l3.846,7.41v-7.41h1.2ZM75.308,97.8H72.79v8.538h-1.2V97.8H69.075V96.767h6.233Z" fill="#2b2a29" fillRule="evenodd"/>
    <path id="Path_2745" data-name="Path 2745" d="M25.8,90.334H22.565l-.743,2.5H20.587l3.084-9.574H24.7l3.091,9.574H26.557ZM22.881,89.3h2.611l-1.309-4.35Zm12.465,3.541H34.137L30.3,85.462v7.377h-1.21V83.265H30.3l3.846,7.411V83.265h1.2Zm3.345,0H37.486V83.265h1.205Zm3.661-9.574,2.5,7.812,2.5-7.812H48.9v9.574H47.7V89.112l.112-3.738-2.505,7.465h-.92L41.891,85.4,42,89.112v3.727H40.8V83.265Zm13.2,7.069H52.319l-.743,2.5H50.342l3.084-9.574h1.03l3.09,9.574H56.312ZM52.636,89.3h2.61l-1.309-4.35Zm10.961-5V83.265H57.365V84.3h2.511v8.537h1.2V84.3Zm6,4.12H66.214V91.8H70.16v1.036H65.011V83.265H70.1V84.3H66.214v3.083H69.6Zm2.1,4.417V83.265H73.98a3.289,3.289,0,0,1,2.6,1.048,4.3,4.3,0,0,1,.927,2.949v1.6a4.21,4.21,0,0,1-.94,2.938,3.5,3.5,0,0,1-2.727,1.034ZM72.9,84.3v7.5h.965a2.237,2.237,0,0,0,1.853-.727,3.422,3.422,0,0,0,.6-2.153v-1.7a3.458,3.458,0,0,0-.581-2.217,2.147,2.147,0,0,0-1.76-.707ZM30,103.295a3.561,3.561,0,0,1-.864,2.36,2.932,2.932,0,0,1-2.22.821,2.741,2.741,0,0,1-2.287-1.1,4.741,4.741,0,0,1-.849-2.972v-1.736a4.581,4.581,0,0,1,.872-2.954,2.879,2.879,0,0,1,2.377-1.087,2.757,2.757,0,0,1,2.145.831A3.638,3.638,0,0,1,30,99.839H28.787a2.941,2.941,0,0,0-.493-1.67,1.538,1.538,0,0,0-1.261-.5,1.72,1.72,0,0,0-1.507.766A3.973,3.973,0,0,0,25,100.678v1.756a4.17,4.17,0,0,0,.49,2.228,1.583,1.583,0,0,0,1.429.777,1.728,1.728,0,0,0,1.356-.467,2.94,2.94,0,0,0,.511-1.677Zm7.86-.9a4.78,4.78,0,0,1-.835,3.021,2.847,2.847,0,0,1-2.374,1.06,2.884,2.884,0,0,1-2.339-1.03,4.575,4.575,0,0,1-.891-2.911v-1.8a4.793,4.793,0,0,1,.848-3.013,2.836,2.836,0,0,1,2.368-1.089A2.867,2.867,0,0,1,37,97.675a4.7,4.7,0,0,1,.866,2.977Zm-1.2-1.676a4.091,4.091,0,0,0-.5-2.258,1.909,1.909,0,0,0-3.024.011,3.967,3.967,0,0,0-.516,2.209v1.714a4.04,4.04,0,0,0,.51,2.234,1.913,1.913,0,0,0,3.021.06,3.981,3.981,0,0,0,.505-2.175Zm9.314,5.622h-1.21L40.93,98.963v7.378H39.72V96.767h1.21l3.847,7.41v-7.41h1.2ZM53.465,97.8H50.947v8.538h-1.2V97.8H47.233V96.767h6.232Zm6,4.121H56.082v3.38h3.946v1.037H54.879V96.767h5.084V97.8H56.082v3.084h3.387Zm8.347,4.417h-1.21l-3.833-7.378v7.378h-1.21V96.767h1.21l3.846,7.41v-7.41h1.2ZM75.308,97.8H72.79v8.538h-1.2V97.8H69.075V96.767h6.233Z" fill="none" stroke="#000" strokeMiterlimit="10" strokeWidth="0.5"/>
    <line id="Line_113" data-name="Line 113" x1="13.208" y1="13.208" transform="translate(56.998 34.066)" fill="none" stroke="#fff" strokeLinecap="round" strokeLinejoin="round" strokeWidth="2"/>
    <line id="Line_114" data-name="Line 114" x1="7.947" y1="7.946" transform="translate(45.437 55.197)" fill="none" stroke="#fff" strokeLinecap="round" strokeLinejoin="round" strokeWidth="2"/>
    <line id="Line_115" data-name="Line 115" x1="18.126" y1="18.126" transform="translate(25.334 34.232)" fill="none" stroke="#fff" strokeLinecap="round" strokeLinejoin="round" strokeWidth="2.5"/>
    <line id="Line_116" data-name="Line 116" x1="14.202" y1="14.203" transform="translate(36.773 34.729)" fill="none" stroke="#fff" strokeLinecap="round" strokeLinejoin="round" strokeWidth="2"/>
    <line id="Line_117" data-name="Line 117" x1="12.379" y1="12.378" transform="translate(21.465 19.643)" fill="none" stroke="#fff" strokeLinecap="round" strokeLinejoin="round" strokeWidth="2"/>
    <line id="Line_118" data-name="Line 118" x1="17.297" y1="17.298" transform="translate(32.573 20.471)" fill="none" stroke="#fff" strokeLinecap="round" strokeLinejoin="round" strokeWidth="2.5"/>
    <line id="Line_119" data-name="Line 119" x1="1.216" y1="1.216" transform="translate(52.191 40.311)" fill="none" stroke="#fff" strokeLinecap="round" strokeLinejoin="round" strokeWidth="2"/>
    <line id="Line_120" data-name="Line 120" x1="1.713" y1="1.713" transform="translate(51.362 29.204)" fill="none" stroke="#fff" strokeLinecap="round" strokeLinejoin="round" strokeWidth="2"/>
    <path id="Path_2746" data-name="Path 2746" d="M60.149,49.263a2.985,2.985,0,1,0-2.984-2.984A2.99,2.99,0,0,0,60.149,49.263Z" fill="none" stroke="#fff" strokeLinecap="round" strokeLinejoin="round" strokeWidth="2"/>
    <path id="Path_2747" data-name="Path 2747" d="M56.668,58.437a1.051,1.051,0,1,0-1.05-1.05A1.052,1.052,0,0,0,56.668,58.437Z" fill="none" stroke="#fff" strokeLinecap="round" strokeLinejoin="round" strokeWidth="2"/>
    <circle id="Ellipse_321" data-name="Ellipse 321" cx="1.05" cy="1.05" r="1.05" transform="translate(62.36 58.105)" fill="none" stroke="#fff" strokeLinecap="round" strokeLinejoin="round" strokeWidth="2"/>
    <circle id="Ellipse_322" data-name="Ellipse 322" cx="0.829" cy="0.829" r="0.829" transform="translate(66.67 49.374)" fill="none" stroke="#fff" strokeLinecap="round" strokeLinejoin="round" strokeWidth="2"/>
    <path id="Path_2748" data-name="Path 2748" d="M61.034,65.841A11.494,11.494,0,1,0,49.539,54.347,11.516,11.516,0,0,0,61.034,65.841Z" fill="none" stroke="#fff" strokeLinecap="round" strokeLinejoin="round" strokeWidth="2"/>
  </g>
</svg>
