<?xml version="1.0" encoding="UTF-8"?><svg id="uuid-8e2dfa96-6676-43f9-a2bc-19aafe66107d" xmlns="http://www.w3.org/2000/svg" width="99.838" height="120.54" viewBox="0 0 96.06 116.7"><g id="uuid-91419d14-fc4d-455c-8cad-351cf31e2464"><g><g><path d="M5.91,0H73.14l22.86,22.51V110.78c0,3.25-2.66,5.91-5.92,5.91H5.91c-3.25,0-5.91-2.66-5.91-5.91V5.92C0,2.66,2.66,0,5.91,0Z" style="fill:#c38f68; fill-rule:evenodd;"/><path d="M96.06,22.55l-18.33,.02c-2.52,0-4.59-2.06-4.59-4.59V0l22.92,22.55Z" style="fill:#fff; fill-rule:evenodd;"/></g>
<path d="M55.48,103.49v-1.62h.02c.5,0,.88-.19,1.12-.58,.25-.39,.37-.99,.37-1.81v-1.67c0-.86-.12-1.51-.37-1.93-.25-.42-.63-.63-1.14-.63h0v-1.62h0c1.07,0,1.91,.36,2.52,1.09,.62,.73,.92,1.75,.93,3.06v1.64c0,1.29-.3,2.28-.91,2.99-.61,.71-1.45,1.07-2.53,1.07h-.02Zm0-21.59v-1.62h4.87v1.62h-2.37v7.96h-1.94v-7.96h-.56Zm11.53,21.46h-1.93l-2.83-6.28v6.28h-1.93v-9.57h1.93l2.83,6.29v-6.29h1.93v9.57h0Zm5.6-2.51c0-.39-.1-.69-.3-.88-.2-.2-.56-.41-1.09-.62-.96-.36-1.65-.79-2.07-1.28-.42-.49-.63-1.07-.63-1.74,0-.81,.29-1.45,.86-1.94,.57-.49,1.3-.73,2.18-.73,.59,0,1.11,.12,1.57,.37s.81,.6,1.06,1.05c.25,.45,.37,.97,.37,1.54h-1.93c0-.45-.09-.79-.29-1.02-.19-.24-.47-.35-.83-.35-.34,0-.6,.1-.79,.3-.19,.2-.28,.47-.28,.81,0,.26,.11,.5,.32,.71,.21,.21,.58,.43,1.12,.66,.93,.34,1.61,.75,2.04,1.24,.42,.49,.64,1.12,.64,1.88,0,.83-.27,1.48-.8,1.95-.53,.47-1.25,.7-2.16,.7-.62,0-1.18-.13-1.69-.38-.51-.26-.91-.62-1.19-1.1-.29-.47-.43-1.03-.43-1.68h1.94c0,.55,.11,.95,.32,1.2,.22,.25,.57,.38,1.05,.38,.68,0,1.01-.36,1.01-1.07Zm-17.13-20.57v1.62h-1.77v-1.62h1.77Zm0,13.37v1.62c-.51,0-.89,.2-1.13,.61-.25,.41-.37,1.02-.38,1.85v1.7c0,.84,.13,1.46,.37,1.85,.25,.39,.63,.59,1.14,.59v1.62c-1.07,0-1.91-.36-2.51-1.06-.61-.7-.92-1.69-.93-2.96v-1.64c0-1.32,.31-2.35,.91-3.08,.61-.74,1.46-1.11,2.54-1.11h0Zm-5.39,9.16v-4.05c.07,.06,.13,.13,.19,.2,.42,.49,.63,1.12,.63,1.88,0,.83-.27,1.48-.8,1.95l-.03,.02h0Zm0-6.2v-2.15c.18,.18,.33,.38,.46,.61,.25,.45,.37,.97,.37,1.54h-.83Zm0-9.84v-2.02c.37,0,.65-.13,.84-.38,.19-.26,.29-.6,.29-1.03,0-.96-.37-1.44-1.12-1.44h0v-1.62h.02c.97,0,1.72,.25,2.24,.75,.53,.5,.79,1.22,.79,2.14,0,1.27-.46,2.17-1.39,2.68l1.68,3.91v.09h-2.08l-1.27-3.08Zm-6.54,1.13h-1.32v-1.62h.89l-.89-3.42h0s0-2.59,0-2.59h.89l3.01,9.57h-2.07l-.51-1.95h0Zm6.54-7.62v1.62h-1.13v2.85h1.13s0,2.02,0,2.02l-.17-.4h-.96v3.49h-1.93v-9.57h3.06Zm0,14.18v2.15h-1.1c0-.45-.09-.79-.29-1.02-.19-.24-.47-.35-.83-.35-.34,0-.6,.1-.79,.3-.19,.2-.28,.47-.28,.81,0,.26,.11,.5,.32,.71,.21,.21,.58,.43,1.12,.66,.81,.29,1.42,.64,1.85,1.05v4.05c-.53,.45-1.24,.68-2.14,.68-.62,0-1.18-.13-1.69-.38-.51-.26-.91-.62-1.19-1.1-.29-.47-.43-1.03-.43-1.68h1.94c0,.55,.11,.95,.32,1.2,.22,.25,.57,.38,1.05,.38,.67,0,1.01-.36,1.01-1.07,0-.39-.1-.69-.3-.88-.2-.2-.56-.41-1.09-.62-.96-.36-1.65-.79-2.07-1.28-.42-.49-.63-1.07-.63-1.74,0-.81,.29-1.45,.86-1.94,.57-.49,1.3-.73,2.18-.73,.59,0,1.11,.12,1.57,.37,.23,.12,.43,.27,.6,.44h0Zm-7.86,8.73v-4.88c.32,.2,.58,.42,.78,.65,.42,.49,.64,1.12,.64,1.88,0,.83-.27,1.48-.8,1.95-.18,.16-.39,.3-.62,.4h0Zm0-6.58v-2.58c.46,.25,.81,.6,1.05,1.04,.25,.45,.37,.97,.37,1.54h-1.42Zm0-8.71h-1.31l-.51,1.95h-2.04l2.99-9.57h.88v2.59l-.89,3.41h.89v1.62h0Zm0,6.12v2.58h-.5c0-.45-.09-.79-.29-1.02-.19-.24-.47-.35-.83-.35-.34,0-.6,.1-.79,.3-.19,.2-.28,.47-.28,.81,0,.26,.11,.5,.32,.71,.21,.21,.58,.43,1.12,.66,.49,.18,.91,.37,1.25,.59v4.88c-.43,.2-.95,.3-1.54,.3s-1.18-.13-1.69-.38c-.51-.26-.91-.62-1.19-1.1-.29-.47-.43-1.03-.43-1.68h1.94c0,.55,.11,.95,.32,1.2,.22,.25,.57,.38,1.05,.38,.68,0,1.01-.36,1.01-1.07,0-.39-.1-.69-.3-.88-.2-.2-.56-.41-1.09-.62-.96-.36-1.65-.79-2.07-1.28-.42-.49-.63-1.07-.63-1.74,0-.81,.29-1.45,.86-1.94,.57-.49,1.3-.73,2.18-.73,.59,0,1.11,.12,1.57,.37h.01Zm-15.69,7.73h3.39v1.6h-5.33v-9.57h1.93v7.97h0Zm9.46-2.53h-3.01v2.53h3.56v1.6h-5.5v-9.57h5.48v1.62h-3.55v2.26h3.01v1.56Z" style="fill:#2b2a29; fill-rule:evenodd;"/>
<path d="M36.03,39.32c.09-.19,.36-.65,.77-.8,.3-.11,.68-.05,1.13,.18l.19,.09c.14,.08,.28,.15,.42,.21l1.31,.66-.05-.17c3.15,.95,6.65,.12,9.04-2.27,2.69-2.69,3.41-6.69,1.88-10.12l.07-.12-.37-.47c-.03-.06-.06-.11-.1-.16l-.04-.06c-.28-.53-.38-1.05-.27-1.34,.08-.2,.3-.36,.66-.49,.97-.19,1.98-.31,3.01-.34,5.22-.19,10.12,1.75,13.8,5.42,3.52,3.52,5.46,8.19,5.46,13.17s-1.94,9.65-5.46,13.17c-3.69,3.68-8.59,5.62-13.8,5.44-4.74-.16-9.19-2.09-12.54-5.44-4.33-4.33-6.24-10.51-5.13-16.55h0Zm3.78,17.9c3.69,3.69,8.6,5.82,13.83,6,.23,0,.46,.01,.69,.01,5.43,0,10.69-2.17,14.53-6.01,3.88-3.88,6.02-9.03,6.02-14.52,0-5.49-2.14-10.64-6.02-14.52-4.06-4.06-9.46-6.18-15.22-5.99-1.15,.04-2.29,.17-3.38,.39l-.11,.03c-1.17,.39-1.67,1.09-1.88,1.61-.45,1.12,.02,2.33,.37,2.98l.07,.12s.06,.09,.08,.14l.03,.07,.02,.02c1.4,2.78,.87,6.11-1.34,8.31-2.29,2.29-5.85,2.76-8.66,1.14l-1.43-.83v.39c-.43-.04-.86,.01-1.26,.16-1.2,.44-1.77,1.59-1.91,1.93l-.06,.19c-1.28,6.7,.83,13.57,5.63,18.37Z" style="fill:#fff; fill-rule:evenodd;"/><path d="M40.18,49.15c-.78-.45-1.33-1.17-1.57-2.04-.23-.87-.11-1.78,.33-2.55,.45-.78,1.17-1.33,2.04-1.57,1.79-.48,3.64,.59,4.12,2.38,.23,.87,.11,1.77-.34,2.55-.45,.78-1.17,1.34-2.04,1.57-.87,.23-1.77,.11-2.55-.34h0Zm2.8,1.26c1.11-.3,2.05-1.01,2.62-2.01,.58-1,.73-2.16,.43-3.28-.62-2.3-2.99-3.67-5.29-3.05h0c-1.12,.3-2.05,1.01-2.62,2.01-.58,1-.73,2.16-.43,3.28,.3,1.11,1.01,2.05,2.01,2.62,.67,.39,1.4,.58,2.15,.58,.37,0,.75-.05,1.12-.15Z" style="fill:#fff; fill-rule:evenodd;"/><path d="M47.16,54.12c.48-1.79,2.33-2.86,4.12-2.38,.54,.14,1.02,.41,1.42,.79,.91,.85,1.28,2.13,.96,3.33-.16,.6-.49,1.15-.96,1.58-.86,.8-2.04,1.1-3.16,.79-.87-.23-1.59-.79-2.04-1.57-.45-.78-.57-1.68-.34-2.55h0Zm-.49,3.03c.58,1,1.51,1.71,2.62,2.01,.37,.1,.75,.15,1.12,.15,1.08,0,2.12-.41,2.94-1.17,.59-.55,1.02-1.26,1.23-2.04,.41-1.54-.06-3.18-1.23-4.28-.51-.48-1.15-.83-1.83-1.01-2.3-.62-4.67,.75-5.29,3.05h0c-.3,1.11-.15,2.28,.43,3.28Z" style="fill:#fff; fill-rule:evenodd;"/><path d="M64.61,54.72c-.63,.64-1.48,.99-2.38,.99-.9,0-1.74-.35-2.38-.98-1.31-1.31-1.31-3.44,0-4.76h0c.63-.63,1.48-.98,2.38-.98,.9,0,1.74,.35,2.38,.98,.63,.64,.98,1.48,.98,2.38s-.35,1.74-.98,2.38h0Zm-2.38-6.7c-1.16,0-2.24,.45-3.06,1.27-1.68,1.68-1.68,4.43,0,6.11,.82,.82,1.9,1.27,3.06,1.27,1.15,0,2.24-.45,3.05-1.27,.82-.82,1.27-1.9,1.27-3.05s-.45-2.24-1.27-3.06c-.82-.81-1.9-1.26-3.05-1.27Z" style="fill:#fff; fill-rule:evenodd;"/><path d="M65.2,37.75c1.79-.48,3.64,.59,4.12,2.38,.23,.87,.11,1.77-.34,2.55-.45,.78-1.17,1.33-2.04,1.57-1.79,.48-3.64-.59-4.12-2.38-.48-1.79,.59-3.64,2.38-4.12h0Zm-3.3,4.37c.52,1.93,2.27,3.2,4.17,3.2,.37,0,.74-.05,1.12-.15,1.11-.3,2.04-1.01,2.62-2.01,.58-1,.73-2.17,.43-3.28-.62-2.3-2.99-3.67-5.29-3.05h0c-2.3,.62-3.67,2.99-3.05,5.29Z" style="fill:#fff; fill-rule:evenodd;"/><path d="M54.29,31.23c.48-1.79,2.33-2.86,4.12-2.38,1.79,.48,2.86,2.33,2.38,4.12-.23,.87-.79,1.59-1.57,2.04-.78,.45-1.68,.57-2.55,.34-.87-.23-1.59-.79-2.04-1.57-.45-.78-.57-1.68-.33-2.55h0Zm2.13,5.04c.37,.1,.75,.15,1.12,.15,.75,0,1.49-.2,2.15-.58,1-.58,1.71-1.51,2.01-2.62,.62-2.3-.75-4.67-3.06-5.29-2.3-.62-4.67,.75-5.29,3.06-.3,1.11-.15,2.28,.43,3.28,.58,1,1.51,1.71,2.62,2.01Z" style="fill:#fff; fill-rule:evenodd;"/><path d="M30.38,26.53c.23,.84,.59,2.12,.33,2.54-.03,.05-.07,.1-.19,.12-.64,.13-1.22-1.45-1.66-2.6-.51-1.36-.92-2.44-1.73-2.44-.01,0-.03,0-.04,0-.83,.04-1.13,.86-1.37,1.51-.33,.88-.54,1.3-1.11,1.28-.43-.01-.78-.24-1.05-.69,1.01-2.62,3.28-4.69,4.08-5.36,.57,.47,1.87,1.64,2.94,3.22-.11,.03-.21,.09-.29,.18-.41,.4-.2,1.13,.1,2.24h0Zm1.14,3.04c-.18,.29-.46,.49-.81,.56-.1,.02-.2,.03-.3,.03-1.24,0-1.88-1.71-2.45-3.24-.25-.68-.64-1.71-.88-1.83-.15,.02-.32,.48-.47,.9-.29,.77-.72,1.94-2.03,1.9-.34-.01-.65-.1-.93-.25-.07,.38-.12,.76-.12,1.15,0,3.77,1.38,4.46,4.1,4.46,2.72,0,4.09-.7,4.1-4.42-.02,.27-.08,.53-.21,.73h0Zm-1.99,18.3c-.31,4.97-.86,13.95-1.84,15.84-1.04-2.16-1.71-11.56-2.01-15.74-.29-4.04-.13-8.32,.43-12.06,.04-.27,.08-.54,.13-.81,.47,.06,.95,.08,1.42,.08h0c.45,0,.91-.02,1.36-.08,.04,.23,.07,.46,.1,.7l.11,.83h0c.42,3.55,.52,7.51,.28,11.26h0Zm-1.29-28.33l-.3,.37h-.02s.29-.39,.29-.39l-.58-.44-.58,.44c-.22,.17-5.44,4.16-5.44,9.28,0,3.45,1.2,5.06,2.78,5.79-.06,.35-.12,.7-.17,1.03-.58,3.87-.74,8.31-.44,12.48,.99,13.93,1.76,17.59,3.78,17.81l1.06,.12v-.49c1.55-1.12,2.09-5.77,2.82-17.55,.26-4.16,.12-8.58-.4-12.46l-.12-.83h0s-.01-.08-.02-.12c1.56-.73,2.76-2.34,2.76-5.79,0-4.94-4.84-8.82-5.4-9.25Z" style="fill:#fff; fill-rule:evenodd;"/></g></g></svg>