<?xml version="1.0" encoding="UTF-8"?><svg id="uuid-6f220cc8-05f4-4d3d-afb1-57047630314b" xmlns="http://www.w3.org/2000/svg"  width="99.838" height="120.54" viewBox="0 0 96.06 117.06"><g id="uuid-024234c5-5ef5-4ff8-ba8f-19102c092f43"><g><g><path d="M5.91,0H73.14l22.86,22.51V111.14c0,3.25-2.66,5.92-5.91,5.92H5.91c-3.25,0-5.91-2.66-5.91-5.92V5.92C0,2.66,2.66,0,5.91,0Z" style="fill:#a5c765; fill-rule:evenodd;"/><path d="M96.06,22.55l-18.34,.02c-2.52,0-4.59-2.06-4.59-4.59V0l22.92,22.55Z" style="fill:#fff; fill-rule:evenodd;"/></g>
<path d="M77.21,84.18v-2.02c.37,0,.65-.13,.84-.38,.19-.26,.29-.6,.29-1.03,0-.96-.37-1.44-1.12-1.44h0v-1.62h.02c.97,0,1.72,.25,2.24,.75,.53,.5,.79,1.22,.79,2.14,0,1.28-.46,2.17-1.39,2.68l1.68,3.91v.09h-2.08l-1.27-3.08Zm0-6.49v1.62h-1.13v2.85h1.13s0,2.02,0,2.02l-.17-.41h-.96v3.49h-1.93v-9.57h3.06Zm-21.73,23.21v-1.62h.02c.5,0,.88-.19,1.12-.58s.37-.99,.37-1.81v-1.67c0-.86-.12-1.51-.37-1.93-.24-.42-.63-.63-1.14-.63h0v-1.62h0c1.07,0,1.91,.36,2.52,1.09,.61,.73,.92,1.75,.93,3.06v1.64c0,1.29-.3,2.28-.91,2.99-.61,.71-1.45,1.07-2.53,1.07h-.02Zm0-13.5v-1.6s.08,0,.12,0c.46,0,.78-.11,.95-.35,.17-.23,.26-.61,.26-1.14v-6.63h1.93v6.63c0,1-.28,1.76-.82,2.29-.54,.53-1.31,.79-2.32,.79h-.12Zm10.94-8.09h-2.37v7.96h-1.94v-7.96h-2.33v-1.62h6.63v1.62h0Zm6.06,3.82h-3.01v2.53h3.56v1.6h-5.5v-9.57h5.48v1.62h-3.55v2.26h3.01v1.56h0Zm-5.46,17.64h-1.93l-2.83-6.28v6.28h-1.93v-9.57h1.93l2.83,6.29v-6.29h1.93v9.57h0Zm5.6-2.51c0-.39-.1-.69-.3-.88-.2-.2-.56-.41-1.09-.62-.96-.36-1.65-.79-2.07-1.28-.42-.49-.63-1.07-.63-1.73,0-.81,.29-1.45,.86-1.94,.57-.49,1.3-.73,2.18-.73,.59,0,1.11,.12,1.57,.37,.46,.25,.81,.6,1.06,1.05,.25,.45,.37,.97,.37,1.54h-1.93c0-.45-.09-.79-.29-1.02-.19-.24-.47-.35-.83-.35-.34,0-.6,.1-.79,.3-.19,.2-.28,.47-.28,.81,0,.26,.11,.5,.32,.71,.21,.21,.58,.43,1.12,.66,.93,.34,1.61,.75,2.04,1.24,.42,.49,.64,1.12,.64,1.88,0,.83-.27,1.48-.8,1.95-.53,.47-1.25,.7-2.16,.7-.62,0-1.18-.13-1.69-.38-.51-.26-.91-.62-1.19-1.1-.29-.47-.43-1.03-.43-1.68h1.94c0,.55,.11,.95,.32,1.2,.22,.25,.57,.38,1.05,.38,.68,0,1.01-.36,1.01-1.07Zm-17.13-12.46v1.6c-.96-.02-1.71-.29-2.23-.8-.54-.53-.81-1.31-.81-2.32v-6.58h1.95v6.59c0,.54,.09,.93,.26,1.16,.16,.21,.44,.33,.83,.34h0Zm0,5.26v1.62c-.51,0-.89,.2-1.13,.61-.24,.41-.37,1.02-.38,1.85v1.7c0,.84,.13,1.46,.37,1.85,.25,.39,.63,.59,1.14,.59v1.62c-1.07,0-1.91-.36-2.52-1.06-.61-.7-.92-1.69-.93-2.96v-1.64c0-1.32,.31-2.35,.91-3.08,.61-.74,1.45-1.11,2.54-1.11h0Zm-7.44,9.84v-1.58c.62-.03,.92-.39,.92-1.07,0-.39-.1-.69-.3-.88-.13-.13-.34-.27-.62-.41v-1.92c.06,.03,.13,.06,.2,.09,.93,.34,1.61,.75,2.04,1.24,.42,.49,.64,1.12,.64,1.88,0,.83-.27,1.48-.8,1.95-.51,.45-1.21,.69-2.07,.7h0Zm0-8.25v-1.6c.53,.02,1.02,.14,1.44,.37,.46,.25,.81,.6,1.06,1.05,.25,.45,.37,.97,.37,1.54h-1.93c0-.45-.09-.79-.29-1.02-.16-.2-.38-.31-.66-.34h0Zm0-8.76v-1.62h.08c.37,0,.65-.12,.85-.36,.2-.24,.3-.59,.3-1.05s-.1-.86-.31-1.14c-.2-.28-.48-.42-.83-.43h-.1v-1.62h.08c.95,0,1.7,.29,2.27,.88,.56,.59,.84,1.35,.84,2.29s-.28,1.68-.83,2.22c-.56,.54-1.33,.81-2.31,.81h-.05Zm0-6.21v1.62h-1.24v2.98h1.24v1.62h-1.24v3.37h-1.93v-9.57h3.18Zm0,13.37v1.6c-.05,0-.1,0-.16,0-.34,0-.6,.1-.79,.3-.19,.2-.28,.47-.28,.81,0,.26,.11,.5,.32,.71,.18,.18,.49,.38,.92,.57v1.92c-.14-.07-.29-.14-.46-.21-.96-.36-1.65-.79-2.07-1.28-.42-.49-.63-1.07-.63-1.73,0-.81,.29-1.45,.86-1.94,.57-.49,1.3-.73,2.18-.73h.13Zm0,8.27v1.58h-.09c-.62,0-1.18-.13-1.69-.38-.51-.26-.91-.62-1.19-1.1-.29-.47-.43-1.03-.43-1.68h1.94c0,.55,.11,.95,.32,1.2,.22,.25,.57,.38,1.05,.38h.09Zm-18.23,1.44v-1.6h.11v1.6h-.11Zm0-13.37v-1.62h.02c.5,0,.88-.19,1.12-.58,.24-.39,.37-.99,.37-1.81v-1.66c0-.86-.12-1.51-.37-1.93-.24-.42-.63-.63-1.14-.63h0v-1.62h0c1.07,0,1.91,.36,2.52,1.09,.61,.73,.92,1.75,.93,3.06v1.64c0,1.29-.3,2.28-.91,2.99-.61,.71-1.45,1.07-2.53,1.07h-.02Zm7.36-9.71l1.81,6.92,1.8-6.92h2.52v9.57h-1.94v-2.59l.18-3.99-1.91,6.58h-1.32l-1.91-6.58,.18,3.99v2.59h-1.93v-9.57h2.52Zm-1.19,18.94h-3.01v2.53h3.56v1.6h-5.5v-9.57h5.48v1.62h-3.55v2.26h3.01v1.56h0Zm5.7,1.62c0-.39-.1-.69-.3-.88-.2-.2-.56-.41-1.09-.62-.96-.36-1.65-.79-2.07-1.28-.42-.49-.63-1.07-.63-1.73,0-.81,.29-1.45,.86-1.94,.57-.49,1.3-.73,2.18-.73,.59,0,1.11,.12,1.57,.37,.46,.25,.81,.6,1.06,1.05,.25,.45,.37,.97,.37,1.54h-1.93c0-.45-.09-.79-.29-1.02-.19-.24-.47-.35-.83-.35-.34,0-.6,.1-.79,.3-.19,.2-.28,.47-.28,.81,0,.26,.11,.5,.32,.71,.21,.21,.58,.43,1.12,.66,.93,.34,1.61,.75,2.04,1.24,.42,.49,.64,1.12,.64,1.88,0,.83-.27,1.48-.8,1.95-.53,.47-1.25,.7-2.16,.7-.62,0-1.18-.13-1.69-.38-.51-.26-.91-.62-1.19-1.1-.29-.47-.43-1.03-.43-1.68h1.94c0,.55,.11,.95,.32,1.2,.22,.25,.57,.38,1.05,.38,.68,0,1.01-.36,1.01-1.07Zm-16.36-14.18c-.05,1.09-.35,1.92-.92,2.48-.57,.56-1.36,.84-2.39,.84-1.08,0-1.91-.36-2.49-1.07-.58-.71-.86-1.73-.86-3.05v-1.61c0-1.32,.3-2.33,.89-3.04,.6-.71,1.43-1.07,2.49-1.07s1.84,.29,2.38,.87c.54,.58,.85,1.42,.92,2.51h-1.94c-.02-.68-.12-1.14-.31-1.4-.19-.26-.54-.38-1.05-.38s-.88,.18-1.1,.54c-.21,.36-.33,.96-.34,1.79v1.81c0,.95,.11,1.61,.32,1.96,.21,.36,.58,.53,1.1,.53s.86-.12,1.05-.37c.19-.25,.3-.7,.33-1.34h1.93Zm4.48-6.52v1.62c-.51,0-.89,.2-1.13,.61-.24,.41-.37,1.02-.38,1.85v1.7c0,.84,.13,1.46,.37,1.85,.25,.39,.63,.59,1.14,.59v1.62c-1.07,0-1.91-.36-2.52-1.06-.61-.7-.92-1.69-.93-2.96v-1.64c0-1.32,.31-2.35,.91-3.08,.61-.74,1.45-1.11,2.54-1.11h0Zm0,21.61v1.6h-5.21v-9.57h1.93v7.97h3.28Z" style="fill:#2b2a29; fill-rule:evenodd;"/>
<g><path d="M22.2,21.18V56.46c1.06,1.53,.95,2.55,3.27,2.96l16.82,.09c.28,3.95-3.6,3.96-4.84,4.74-.26,1.14-.12,1.72,.27,2.44h19.14c.39-.73,.52-1.31,.27-2.44-1.25-.78-5.13-.79-4.84-4.74l16.82-.09c2.32-.41,2.21-1.43,3.27-2.96V21.18c-1.65-2.5-.45-1.21-2.78-2.99H24.98c-2.33,1.78-1.13,.48-2.78,2.99h0Zm26.54,32.29c1.03,3.37-1.39,4.42-2.77,2.99-1.33-1.38-.53-4.24,2.77-2.99h0ZM25.54,23.3c0-1.26,.24-1.52,1.41-1.52h40.66c1.17,0,1.41,.26,1.41,1.52v25.53c0,1.57,.16,1.7-1.41,1.7H27.84c-2.5,0-2.3,.13-2.3-1.7V23.3Z" style="fill:#fff; fill-rule:evenodd;"/><path d="M30.9,38.66c-.36,3.06-.22,6.58-.22,9.84h11.31c0-1.53-.54-6.53,.5-7.7,.95,.11,0-.13,.34,.56,.22,1.18,1.21,2.86,1.91,3.56,1.67,.35,5.14,.43,6.76-.07,1.01-1.16,.39-1.52,1.43-2.57l4.16-3.82c1.62-1.49,2.15-1.3,1.53-2.01-.31-.35-4.28,2.9-4.77,3.3-3.03,2.46-2.79,1.82-7.34,1.78-.25-.87-1.35-3.02-1.83-3.77-.8-1.25-1.88-1.67-3.76-1.55-1.25,1.21-1.75,3.11-2.99,3.95-.37-.66-.76-1.28-1.15-1.9l-1.48-2.01c-2.02-.43-4.13,.28-4.38,2.4Z" style="fill:#fff; fill-rule:evenodd;"/><path d="M36.68,25.71c-5.1,2.19-2.42,10.11,2.66,8.39,5.42-1.83,2.42-10.57-2.66-8.39Z" style="fill:#fff; fill-rule:evenodd;"/><path d="M45.62,25.85v.96c.98,.67,16.42,.68,18.3,.18l.08-1.41c-.38-.1-15.66-.57-17.45-.17-.1,.02-.17,.04-.26,.07l-.67,.37Z" style="fill:#fff; fill-rule:evenodd;"/><path d="M50.66,34.14c1.15,.45,9.01,.2,11.34,.23,1.72,.02,2.28,.23,1.87-1.59-1.66-.66-10.69-.37-13.12-.16l-.09,1.51Z" style="fill:#fff; fill-rule:evenodd;"/><path d="M50.66,29.36l.43,1.21c1.51,.5,12.04,.22,12.88,0v-1.41c-1.65-.43-7.53-.17-10.01-.19-1.16,0-2.49-.2-3.3,.39Z" style="fill:#fff; fill-rule:evenodd;"/><path d="M42.83,41.37c-.34-.69,.61-.45-.34-.56-1.05,1.17-.5,6.17-.5,7.7h-11.31c0-3.26-.13-6.78,.22-9.84-.82,.62-.51,8.75-.34,10.1l11.7,.04c.12-1.33,.08-2.58,.07-3.81,0-1.93-.29-2.8,.49-3.63Z" style="fill:#fff; fill-rule:evenodd;"/></g></g></g></svg>