<?xml version="1.0" encoding="UTF-8"?><svg id="uuid-4582e3f1-9de1-4d43-92c2-11c82fba1e5e" xmlns="http://www.w3.org/2000/svg" viewBox="0 0 96.06 117.36"><g id="uuid-d031ff69-8484-4075-924a-4f5908450436"><g><g><path d="M5.91,0H73.14l22.86,22.51V111.44c0,3.25-2.66,5.92-5.91,5.92H5.91c-3.25,0-5.91-2.66-5.91-5.92V5.92C0,2.66,2.66,0,5.91,0Z" style="fill:#d4bb4e; fill-rule:evenodd;"/><path d="M96.06,22.55l-18.34,.02c-2.52,0-4.59-2.06-4.59-4.59V0l22.92,22.55Z" style="fill:#fff; fill-rule:evenodd;"/></g>
<path d="M86.2,89.76v-2.02c.37,0,.65-.13,.84-.38,.19-.26,.29-.6,.29-1.03,0-.96-.37-1.44-1.12-1.44h0v-1.62h.02c.97,0,1.72,.25,2.24,.75,.53,.5,.79,1.22,.79,2.14,0,1.27-.46,2.17-1.39,2.68l1.68,3.91v.09h-2.08l-1.27-3.08Zm0-6.49v1.62h-1.13v2.86h1.13s0,2.02,0,2.02l-.17-.41h-.96v3.49h-1.93v-9.57h3.06Zm-20.67,6.49v-2.02c.37,0,.65-.13,.84-.38,.19-.26,.29-.6,.29-1.03,0-.96-.37-1.44-1.12-1.44h0v-1.62h.02c.97,0,1.72,.25,2.24,.75,.53,.5,.79,1.22,.79,2.14,0,1.27-.46,2.17-1.39,2.68l1.68,3.91v.09h-2.08l-1.27-3.08h0Zm9.33-1.05h-3.01v2.53h3.56v1.6h-5.5v-9.57h5.48v1.62h-3.55v2.26h3.01v1.56h0Zm6.61,0h-3.01v2.53h3.56v1.6h-5.5v-9.57h5.48v1.62h-3.55v2.26h3.01v1.56Zm-15.94-5.44v1.62h-1.13v2.86h1.13s0,2.02,0,2.02l-.17-.41h-.96v3.49h-1.93v-9.57h3.06Zm-7.86,7.62v-1.62h.89l-.89-3.42h0s0-2.59,0-2.59h.89l3.01,9.57h-2.06l-.51-1.95h-1.32Zm0-7.62v2.59l-.89,3.41h.89v1.62h-1.31l-.51,1.95h-2.04l2.99-9.57h.88Zm-21.31,9.57v-1.6h.69v1.6h-.69Zm0-7.94l1.88,4.46v3.47h1.96v-3.47l2.57-6.1h-2.1l-1.44,4.3-1.45-4.3h-1.41v1.64h0Zm16.87,4.75c-.05,1.09-.35,1.92-.92,2.48-.57,.56-1.36,.84-2.39,.84-1.08,0-1.91-.36-2.49-1.07-.58-.71-.86-1.73-.86-3.05v-1.61c0-1.31,.3-2.33,.89-3.04,.6-.71,1.43-1.07,2.49-1.07s1.84,.29,2.38,.87c.54,.58,.85,1.42,.92,2.51h-1.94c-.02-.68-.12-1.14-.31-1.4-.19-.26-.54-.38-1.05-.38s-.88,.18-1.1,.54c-.21,.36-.33,.96-.34,1.79v1.81c0,.95,.11,1.61,.32,1.96,.21,.36,.58,.53,1.1,.53s.86-.12,1.05-.37c.19-.25,.3-.7,.33-1.34h1.93Zm-16.87-6.39v1.64l-.69-1.64h.69Zm0,7.97h-2.7v-7.97h-1.93v9.57h4.64v-1.6h0Zm-9.02-1.48v-2.02c.37,0,.65-.13,.84-.38,.19-.26,.29-.6,.29-1.03,0-.96-.37-1.44-1.12-1.44h0v-1.62h.02c.97,0,1.72,.25,2.24,.75,.53,.5,.79,1.22,.79,2.14,0,1.27-.46,2.17-1.39,2.68l1.68,3.91v.09h-2.08l-1.27-3.08Zm0-6.49v1.62h-1.13v2.86h1.13s0,2.02,0,2.02l-.17-.41h-.96v3.49h-1.93v-9.57h3.06Zm-7.86,7.62v-1.62h.89l-.89-3.42h0s0-2.59,0-2.59h.89l3.01,9.57h-2.07l-.51-1.95h-1.32Zm-4.91-2.18h-3.01v2.53h3.56v1.6h-5.5v-9.57h5.48v1.62h-3.55v2.26h3.01v1.56h0Zm4.91-5.44v2.59l-.89,3.41h.89v1.62h-1.31l-.51,1.95h-2.04l2.99-9.57h.88Z" style="fill:#2b2a29; fill-rule:evenodd;"/>
<g><path d="M23.62,50.5c-4.15-10.15-.47-21.82,8.76-27.75,10.57-6.79,24.64-3.72,31.43,6.85,6.79,10.57,3.72,24.64-6.85,31.43-7.15,4.59-16.26,4.82-23.63,.58" style="fill:none; fill-rule:evenodd; stroke:#fff; stroke-linecap:round; stroke-linejoin:round; stroke-width:3px;"/><g><line x1="31.03" y1="41.4" x2="53.22" y2="41.4" style="fill:none; stroke:#fff; stroke-linecap:round; stroke-linejoin:round; stroke-width:3px;"/><polyline points="50.38 50.11 58.32 41.54 50.2 32.68" style="fill:none; fill-rule:evenodd; stroke:#fff; stroke-linecap:round; stroke-linejoin:round; stroke-width:3px;"/></g></g></g></g></svg>