<?xml version="1.0" encoding="UTF-8"?><svg id="uuid-8483454b-971d-4eb2-a396-e780b1617712" xmlns="http://www.w3.org/2000/svg" width="99.838" height="120.54" viewBox="0 0 92.58 110.11"><g id="uuid-d97ff3e7-a39d-42eb-bd95-551560f84e36"><g><g><path d="M5.7,0H70.49l22.03,21.17V104.54c0,3.06-2.57,5.56-5.7,5.56H5.7c-3.13,0-5.7-2.5-5.7-5.56V5.56C0,2.5,2.56,0,5.7,0Z" style="fill:#d7854d; fill-rule:evenodd;"/><path d="M92.58,21.21l-17.67,.02c-2.43,0-4.42-1.94-4.42-4.31V0l22.09,21.21Z" style="fill:#fff; fill-rule:evenodd;"/></g>
<path d="M49.04,101.73v-3.06l.96,3.06h-.96Zm0-13.54v-1.62c.34-.08,.59-.23,.76-.45,.26-.34,.4-.92,.41-1.76v-1.66c0-.9-.13-1.52-.37-1.87-.18-.25-.45-.42-.8-.5v-1.64c.85,.1,1.55,.45,2.09,1.03,.66,.71,1,1.68,1.01,2.92v1.55c0,1.26-.33,2.25-.99,2.96-.54,.58-1.25,.93-2.12,1.04h0Zm10.72-9.54v6.63c0,1-.28,1.76-.82,2.29-.54,.53-1.31,.79-2.32,.79s-1.81-.27-2.35-.8c-.54-.53-.81-1.31-.81-2.32v-6.59h1.95v6.59c0,.54,.09,.93,.26,1.16,.18,.23,.49,.35,.95,.35s.78-.11,.95-.35c.17-.23,.26-.61,.26-1.14v-6.63h1.93Zm-6.86,21.47h3.95v1.6h-6.21v-1.16l3.91-6.8h-3.95v-1.62h6.17v1.14l-3.87,6.83h0Zm7.16,1.6h-1.93v-9.57h1.93v9.57h0Zm8.32,0h-1.93l-2.83-6.28v6.28h-1.93v-9.57h1.93l2.83,6.29v-6.29h1.93v9.57h0Zm6.5-4.13h-3.01v2.53h3.56v1.6h-5.5v-9.57h5.48v1.62h-3.55v2.26h3.01v1.56h0Zm5.71,1.62c0-.39-.1-.69-.3-.88-.2-.2-.56-.41-1.09-.62-.96-.36-1.65-.79-2.07-1.28-.42-.49-.63-1.07-.63-1.74,0-.81,.29-1.45,.86-1.94,.57-.49,1.3-.73,2.18-.73,.59,0,1.11,.12,1.57,.37,.46,.25,.81,.6,1.06,1.05,.25,.45,.37,.96,.37,1.54h-1.93c0-.45-.09-.79-.29-1.02-.19-.24-.47-.35-.83-.35-.34,0-.6,.1-.79,.3-.19,.2-.28,.47-.28,.81,0,.26,.11,.5,.32,.71,.21,.21,.58,.43,1.12,.66,.93,.34,1.61,.75,2.04,1.24,.42,.49,.64,1.12,.64,1.88,0,.83-.27,1.48-.8,1.95-.53,.47-1.25,.7-2.16,.7-.62,0-1.18-.13-1.69-.38-.51-.26-.91-.62-1.19-1.1-.29-.47-.43-1.03-.43-1.68h1.94c0,.55,.11,.95,.32,1.2,.22,.25,.57,.38,1.05,.38,.68,0,1.01-.36,1.01-1.07Zm-31.54-20.53v1.64c-.14-.03-.3-.05-.47-.06h-.71v6.36h.58c.22,0,.42-.02,.6-.06v1.62c-.2,.02-.41,.04-.63,.04h-2.3v-9.57h2.36c.2,0,.39,.01,.58,.03h0Zm0,19.98v3.06h-1.1l-.51-1.95h-1.32v-1.62h.89l-.89-3.42h0s0-2.59,0-2.59h.89l2.05,6.51Zm-4.77-14.57h-3.01v2.53h3.56v1.6h-5.5v-9.57h5.48v1.62h-3.55v2.26h3.01v1.56h0Zm1.84-5.44v9.57h-.17v-9.57h.17Zm0,13.5v2.59l-.89,3.41h.89v1.62h-1.31l-.51,1.95h-2.04l2.99-9.57h.88Zm-15.78,7.62v-1.62h.89l-.89-3.42h0s0-2.59,0-2.59h.89l3.01,9.57h-2.06l-.51-1.95h-1.32Zm11.17,.87c-.37,.4-.83,.71-1.37,.91-.54,.2-1.13,.31-1.78,.31-1.1,0-1.95-.34-2.56-1.02-.61-.68-.92-1.67-.94-2.98v-1.72c0-1.32,.29-2.34,.87-3.05,.58-.71,1.42-1.07,2.52-1.07,1.04,0,1.82,.26,2.35,.77,.53,.51,.83,1.32,.92,2.41h-1.88c-.05-.61-.18-1.03-.38-1.25-.2-.22-.52-.33-.94-.33-.52,0-.9,.19-1.14,.57-.24,.38-.36,.99-.37,1.82v1.74c0,.87,.13,1.51,.39,1.91,.26,.4,.69,.6,1.29,.6,.38,0,.69-.08,.93-.23l.17-.12v-1.76h-1.35v-1.45h3.29v3.95Zm-11.17-8.49v2.59l-.89,3.41h.89v1.62h-1.31l-.51,1.95h-2.04l2.99-9.57h.88Zm-11.05,0l1.81,6.92,1.8-6.92h2.53v9.57h-1.94v-2.59l.18-3.99-1.91,6.58h-1.32l-1.91-6.58,.18,3.99v2.59h-1.93v-9.57h2.53Z" style="fill:#2b2a29; fill-rule:evenodd;"/>
<path d="M61.12,50.79c-3.23,0-10.98,2.65-13.18,3.43-1.7-.6-6.71-2.32-10.39-3.07v-.65c0-.81-.66-1.46-1.46-1.46-.81,0-1.47,.66-1.47,1.46v3.86l-.8-.8c-.57-.57-1.5-.57-2.07,0l-.74,.75v-3.81c0-.81-.66-1.46-1.47-1.46-.81,0-1.46,.66-1.46,1.46v1.63c-1.87,.54-3.69,1.13-5.02,1.58v-3.55c3.17-1.1,9.39-3.09,11.71-3.09,2.59,0,10.03,2.48,12.68,3.43l.06,.02,.09,.03,.08,.02h.09s.09,.02,.09,.02h.09s.09,0,.09,0h.09s.09-.02,.09-.02l.08-.02,.09-.03,.06-.02c2.65-.96,10.09-3.43,12.68-3.43,2.32,0,8.54,1.99,11.71,3.09v3.54c-3.13-1.06-9.01-2.92-11.71-2.92h0ZM23.05,18.21c3.17-1.1,9.39-3.09,11.71-3.09s8.54,1.99,11.71,3.09v28.86c-3.13-1.06-9.01-2.92-11.71-2.92s-8.58,1.86-11.71,2.93V18.21h0Zm49.78,0v28.86c-3.13-1.06-9.01-2.92-11.71-2.92s-8.58,1.86-11.71,2.93V18.21c3.17-1.1,9.39-3.09,11.71-3.09s8.54,1.99,11.71,3.09h0Zm1.96-2.41c-1.02-.37-10.11-3.61-13.67-3.61-3.22,0-10.98,2.65-13.18,3.43-2.2-.78-9.95-3.43-13.18-3.43-3.56,0-12.65,3.24-13.67,3.61-.58,.21-.97,.76-.97,1.38V55.78c0,.48,.23,.93,.62,1.2,.25,.18,.54,.27,.84,.27,.17,0,.33-.03,.5-.09,1.26-.45,3.6-1.25,5.99-1.96v2.65c0,.59,.36,1.13,.9,1.35,.55,.23,1.18,.1,1.6-.32l2.21-2.21,2.26,2.26c.28,.28,.65,.43,1.04,.43,.19,0,.38-.04,.56-.11,.55-.23,.9-.76,.9-1.35v-3.75c3.3,.75,7.92,2.3,9.9,3.01,.32,.12,.67,.12,.99,0,2.65-.95,10.09-3.43,12.68-3.43,2.59,0,10.03,2.48,12.68,3.43,.45,.16,.95,.09,1.34-.18,.39-.27,.62-.72,.62-1.2V17.17c0-.62-.39-1.17-.97-1.38Z" style="fill:#fff; fill-rule:evenodd;"/></g></g></svg>