<svg id="Group_2408" data-name="Group 2408" xmlns="http://www.w3.org/2000/svg" xmlns:xlink="http://www.w3.org/1999/xlink" width="96.06" height="117.061" viewBox="0 0 96.06 117.061">
  <defs>
    <clipPath id="clip-path">
      <rect id="Rectangle_1541" data-name="Rectangle 1541" width="96.06" height="117.06" fill="none"/>
    </clipPath>
  </defs>
  <g id="Group_2407" data-name="Group 2407" clipPath="url(#clip-path)">
    <path id="Path_2838" data-name="Path 2838" d="M5.915,0H73.141L96,22.507v88.638a5.933,5.933,0,0,1-5.916,5.915H5.915A5.933,5.933,0,0,1,0,111.145V5.915A5.932,5.932,0,0,1,5.915,0" fill="#8e9ade" fillRule="evenodd"/>
    <path id="Path_2839" data-name="Path 2839" d="M96.06,22.546l-18.336.024a4.6,4.6,0,0,1-4.585-4.586V0Z" fill="#fff" fillRule="evenodd"/>
    <path id="Path_2840" data-name="Path 2840" d="M16.791,89.235H13.554v4.228h-1.2V83.889h4.984v1.037H13.554V88.2h3.237Zm3.241,3.192h3.754v1.036H18.822V83.889h1.21Zm9.777-1.468H26.572l-.743,2.5H24.595l3.084-9.574h1.029L31.8,93.463H30.565Zm-2.92-1.037H29.5l-1.307-4.35Zm10.4,1.12a1.479,1.479,0,0,0-.387-1.1,4.017,4.017,0,0,0-1.4-.743,6.062,6.062,0,0,1-1.548-.758,2.664,2.664,0,0,1-.8-.909,2.691,2.691,0,0,1,.494-3.044,2.728,2.728,0,0,1,1.988-.736,2.962,2.962,0,0,1,1.5.377,2.581,2.581,0,0,1,1.013,1.048,3.119,3.119,0,0,1,.354,1.472h-1.21a2.015,2.015,0,0,0-.425-1.373,1.553,1.553,0,0,0-1.231-.487A1.514,1.514,0,0,0,34.5,85.2a1.562,1.562,0,0,0-.4,1.144,1.333,1.333,0,0,0,.436,1.014,3.8,3.8,0,0,0,1.339.732,4.623,4.623,0,0,1,2.023,1.152,2.589,2.589,0,0,1,.608,1.791,2.414,2.414,0,0,1-.757,1.865,2.9,2.9,0,0,1-2.057.7,3.29,3.29,0,0,1-1.542-.366,2.777,2.777,0,0,1-1.112-1.027,2.863,2.863,0,0,1-.4-1.518h1.209a1.857,1.857,0,0,0,.5,1.38,1.831,1.831,0,0,0,1.352.495,1.61,1.61,0,0,0,1.2-.409,1.517,1.517,0,0,0,.4-1.111m9.059,2.421h-1.21V89.046H41.282v4.417H40.076V83.889h1.206V88.01h3.851V83.889h1.21Zm11.175-3.045a3.565,3.565,0,0,1-.863,2.359,2.932,2.932,0,0,1-2.221.821,2.744,2.744,0,0,1-2.287-1.1,4.737,4.737,0,0,1-.848-2.972V87.794a4.582,4.582,0,0,1,.87-2.953,2.881,2.881,0,0,1,2.377-1.087,2.761,2.761,0,0,1,2.147.83,3.637,3.637,0,0,1,.825,2.377H56.3a2.954,2.954,0,0,0-.494-1.67,1.541,1.541,0,0,0-1.262-.5,1.721,1.721,0,0,0-1.506.765,3.983,3.983,0,0,0-.524,2.245v1.755A4.184,4.184,0,0,0,53,91.785a1.588,1.588,0,0,0,1.43.777,1.73,1.73,0,0,0,1.356-.468,2.932,2.932,0,0,0,.512-1.676Zm6.094.541H60.375l-.743,2.5H58.4l3.084-9.574h1.03L65.6,93.463H64.368Zm-2.92-1.037H63.3l-1.309-4.35ZM69.8,89.6H68.118v3.864h-1.21V83.889h2.683a2.862,2.862,0,0,1,2.13.734,2.942,2.942,0,0,1,.725,2.15,2.989,2.989,0,0,1-.393,1.551,2.484,2.484,0,0,1-1.106,1L72.8,93.385v.078H71.5Zm-1.684-1.037h1.459a1.564,1.564,0,0,0,1.208-.487,1.846,1.846,0,0,0,.449-1.3q0-1.847-1.67-1.845H68.118Zm5.937,4.9V83.889h2.283a3.294,3.294,0,0,1,2.6,1.048,4.3,4.3,0,0,1,.927,2.949v1.6a4.216,4.216,0,0,1-.94,2.938A3.5,3.5,0,0,1,76.2,93.463Zm1.205-8.537v7.5h.966a2.237,2.237,0,0,0,1.853-.727,3.427,3.427,0,0,0,.6-2.153v-1.7a3.451,3.451,0,0,0-.582-2.217,2.144,2.144,0,0,0-1.759-.707Zm10.664,6.116a1.48,1.48,0,0,0-.389-1.1,3.982,3.982,0,0,0-1.4-.743,6.071,6.071,0,0,1-1.549-.758,2.682,2.682,0,0,1-.8-.909,2.691,2.691,0,0,1,.494-3.044,2.728,2.728,0,0,1,1.989-.736,2.972,2.972,0,0,1,1.5.377,2.592,2.592,0,0,1,1.012,1.048,3.119,3.119,0,0,1,.354,1.472H85.924a2.011,2.011,0,0,0-.427-1.373,1.549,1.549,0,0,0-1.229-.487,1.518,1.518,0,0,0-1.132.409,1.562,1.562,0,0,0-.4,1.144,1.332,1.332,0,0,0,.435,1.014,3.805,3.805,0,0,0,1.34.732,4.624,4.624,0,0,1,2.022,1.152,2.589,2.589,0,0,1,.608,1.791,2.416,2.416,0,0,1-.756,1.865,2.907,2.907,0,0,1-2.059.7,3.3,3.3,0,0,1-1.542-.366,2.778,2.778,0,0,1-1.11-1.027,2.864,2.864,0,0,1-.4-1.518h1.21a1.857,1.857,0,0,0,.5,1.38,1.827,1.827,0,0,0,1.35.495,1.608,1.608,0,0,0,1.2-.409,1.518,1.518,0,0,0,.4-1.111" fill="#2b2a29" fillRule="evenodd"/>
    <path id="Path_2841" data-name="Path 2841" d="M16.791,89.235H13.554v4.228h-1.2V83.889h4.984v1.037H13.554V88.2h3.237Zm3.241,3.192h3.754v1.036H18.822V83.889h1.21Zm9.777-1.468H26.572l-.743,2.5H24.595l3.084-9.574h1.029L31.8,93.463H30.565Zm-2.92-1.037H29.5l-1.307-4.35Zm10.4,1.12a1.479,1.479,0,0,0-.387-1.1,4.017,4.017,0,0,0-1.4-.743,6.062,6.062,0,0,1-1.548-.758,2.664,2.664,0,0,1-.8-.909,2.691,2.691,0,0,1,.494-3.044,2.728,2.728,0,0,1,1.988-.736,2.962,2.962,0,0,1,1.5.377,2.581,2.581,0,0,1,1.013,1.048,3.119,3.119,0,0,1,.354,1.472h-1.21a2.015,2.015,0,0,0-.425-1.373,1.553,1.553,0,0,0-1.231-.487A1.514,1.514,0,0,0,34.5,85.2a1.562,1.562,0,0,0-.4,1.144,1.333,1.333,0,0,0,.436,1.014,3.8,3.8,0,0,0,1.339.732,4.623,4.623,0,0,1,2.023,1.152,2.589,2.589,0,0,1,.608,1.791,2.414,2.414,0,0,1-.757,1.865,2.9,2.9,0,0,1-2.057.7,3.29,3.29,0,0,1-1.542-.366,2.777,2.777,0,0,1-1.112-1.027,2.863,2.863,0,0,1-.4-1.518h1.209a1.857,1.857,0,0,0,.5,1.38,1.831,1.831,0,0,0,1.352.495,1.61,1.61,0,0,0,1.2-.409A1.517,1.517,0,0,0,37.284,91.042Zm9.059,2.421h-1.21V89.046H41.282v4.417H40.076V83.889h1.206V88.01h3.851V83.889h1.21Zm11.175-3.045a3.565,3.565,0,0,1-.863,2.359,2.932,2.932,0,0,1-2.221.821,2.744,2.744,0,0,1-2.287-1.1,4.737,4.737,0,0,1-.848-2.972V87.794a4.582,4.582,0,0,1,.87-2.953,2.881,2.881,0,0,1,2.377-1.087,2.761,2.761,0,0,1,2.147.83,3.637,3.637,0,0,1,.825,2.377H56.3a2.954,2.954,0,0,0-.494-1.67,1.541,1.541,0,0,0-1.262-.5,1.721,1.721,0,0,0-1.506.765,3.983,3.983,0,0,0-.524,2.245v1.755A4.184,4.184,0,0,0,53,91.785a1.588,1.588,0,0,0,1.43.777,1.73,1.73,0,0,0,1.356-.468,2.932,2.932,0,0,0,.512-1.676Zm6.094.541H60.375l-.743,2.5H58.4l3.084-9.574h1.03L65.6,93.463H64.368Zm-2.92-1.037H63.3l-1.309-4.35ZM69.8,89.6H68.118v3.864h-1.21V83.889h2.683a2.862,2.862,0,0,1,2.13.734,2.942,2.942,0,0,1,.725,2.15,2.989,2.989,0,0,1-.393,1.551,2.484,2.484,0,0,1-1.106,1L72.8,93.385v.078H71.5Zm-1.684-1.037h1.459a1.564,1.564,0,0,0,1.208-.487,1.846,1.846,0,0,0,.449-1.3q0-1.847-1.67-1.845H68.118Zm5.937,4.9V83.889h2.283a3.294,3.294,0,0,1,2.6,1.048,4.3,4.3,0,0,1,.927,2.949v1.6a4.216,4.216,0,0,1-.94,2.938A3.5,3.5,0,0,1,76.2,93.463Zm1.205-8.537v7.5h.966a2.237,2.237,0,0,0,1.853-.727,3.427,3.427,0,0,0,.6-2.153v-1.7a3.451,3.451,0,0,0-.582-2.217,2.144,2.144,0,0,0-1.759-.707Zm10.664,6.116a1.48,1.48,0,0,0-.389-1.1,3.982,3.982,0,0,0-1.4-.743,6.071,6.071,0,0,1-1.549-.758,2.682,2.682,0,0,1-.8-.909,2.691,2.691,0,0,1,.494-3.044,2.728,2.728,0,0,1,1.989-.736,2.972,2.972,0,0,1,1.5.377,2.592,2.592,0,0,1,1.012,1.048,3.119,3.119,0,0,1,.354,1.472H85.924a2.011,2.011,0,0,0-.427-1.373,1.549,1.549,0,0,0-1.229-.487,1.518,1.518,0,0,0-1.132.409,1.562,1.562,0,0,0-.4,1.144,1.332,1.332,0,0,0,.435,1.014,3.805,3.805,0,0,0,1.34.732,4.624,4.624,0,0,1,2.022,1.152,2.589,2.589,0,0,1,.608,1.791,2.416,2.416,0,0,1-.756,1.865,2.907,2.907,0,0,1-2.059.7,3.3,3.3,0,0,1-1.542-.366,2.778,2.778,0,0,1-1.11-1.027,2.864,2.864,0,0,1-.4-1.518h1.21a1.857,1.857,0,0,0,.5,1.38,1.827,1.827,0,0,0,1.35.495,1.608,1.608,0,0,0,1.2-.409A1.518,1.518,0,0,0,85.924,91.042Z" fill="none" stroke="#000" strokeMiterlimit="10" strokeWidth="0.5"/>
    <rect id="Rectangle_1540" data-name="Rectangle 1540" width="30.829" height="44.102" rx="2.372" transform="translate(27.268 16.634)" fill="none" stroke="#fff" strokeLinecap="round" strokeLinejoin="round" strokeWidth="2"/>
    <path id="Path_2842" data-name="Path 2842" d="M58.181,20.666h1.24a2.378,2.378,0,0,1,2.372,2.372V62.4a2.379,2.379,0,0,1-2.372,2.372H33.335A2.38,2.38,0,0,1,30.964,62.4V60.651" fill="none" stroke="#fff" strokeLinecap="round" strokeLinejoin="round" strokeWidth="2"/>
    <path id="Path_2843" data-name="Path 2843" d="M61.877,24.362H63.2a2.378,2.378,0,0,1,2.372,2.372V66.092A2.379,2.379,0,0,1,63.2,68.464H37.115a2.38,2.38,0,0,1-2.371-2.372V64.768" fill="none" stroke="#fff" strokeLinecap="round" strokeLinejoin="round" strokeWidth="2"/>
    <line id="Line_129" data-name="Line 129" x2="13.776" transform="translate(27.268 47.631)" fill="none" stroke="#fff" strokeLinecap="round" strokeLinejoin="round" strokeWidth="2"/>
    <line id="Line_130" data-name="Line 130" x2="13.776" transform="translate(44.32 47.631)" fill="none" stroke="#fff" strokeLinecap="round" strokeLinejoin="round" strokeWidth="2"/>
    <line id="Line_131" data-name="Line 131" x2="9.408" transform="translate(31.972 52.167)" fill="none" stroke="#fff" strokeLinecap="round" strokeLinejoin="round" strokeWidth="2"/>
    <line id="Line_132" data-name="Line 132" x2="9.408" transform="translate(44.488 52.167)" fill="none" stroke="#fff" strokeLinecap="round" strokeLinejoin="round" strokeWidth="2"/>
    <line id="Line_133" data-name="Line 133" x2="21.757" transform="translate(32.056 56.284)" fill="none" stroke="#fff" strokeLinecap="round" strokeLinejoin="round" strokeWidth="2"/>
    <line id="Line_134" data-name="Line 134" x2="3.622" transform="translate(58.139 51.243)" fill="none" stroke="#fff" strokeLinecap="round" strokeLinejoin="round" strokeWidth="2"/>
    <line id="Line_135" data-name="Line 135" x2="3.654" transform="translate(61.919 55.191)" fill="none" stroke="#fff" strokeLinecap="round" strokeLinejoin="round" strokeWidth="2"/>
    <path id="Path_2844" data-name="Path 2844" d="M34.223,35.091h5.935L37.2,26.8h-.043Zm-.577,1.628-1.007,2.764a.893.893,0,0,1-.965.663.927.927,0,0,1-.6-.2.782.782,0,0,1-.275-.554c.019-.082.039-.175.065-.279s.046-.178.06-.231l4.928-13.175a1.817,1.817,0,0,1,.546-.84,1.169,1.169,0,0,1,.761-.3,1.235,1.235,0,0,1,.8.286,1.758,1.758,0,0,1,.535.807l5,13.218a2.6,2.6,0,0,1,.081.553.668.668,0,0,1-.246.553.974.974,0,0,1-.632.2,1.046,1.046,0,0,1-.588-.179.939.939,0,0,1-.375-.528l-1.008-2.764Z" fill="#fff" fillRule="evenodd"/>
    <path id="Path_2845" data-name="Path 2845" d="M34.223,35.091h5.935L37.2,26.8h-.043Zm-.577,1.628-1.007,2.764a.893.893,0,0,1-.965.663.927.927,0,0,1-.6-.2.782.782,0,0,1-.275-.554c.019-.082.039-.175.065-.279s.046-.178.06-.231l4.928-13.175a1.817,1.817,0,0,1,.546-.84,1.169,1.169,0,0,1,.761-.3,1.235,1.235,0,0,1,.8.286,1.758,1.758,0,0,1,.535.807l5,13.218a2.6,2.6,0,0,1,.081.553.668.668,0,0,1-.246.553.974.974,0,0,1-.632.2,1.046,1.046,0,0,1-.588-.179.939.939,0,0,1-.375-.528l-1.008-2.764Z" fill="none" stroke="#fff" strokeMiterlimit="22.926" strokeWidth="0.216"/>
    <path id="Path_2846" data-name="Path 2846" d="M45.861,34.316A6.18,6.18,0,0,0,46.2,36.38a3.568,3.568,0,0,0,1.017,1.546,2.448,2.448,0,0,0,1.66.592,2.671,2.671,0,0,0,2.471-1.228,5.642,5.642,0,0,0,.746-2.974,6,6,0,0,0-.386-2.243,3.269,3.269,0,0,0-1.092-1.467,2.665,2.665,0,0,0-1.607-.507h-.043a2.71,2.71,0,0,0-2.3,1.218,5.453,5.453,0,0,0-.806,3m6.276-4.306v-.622a.89.89,0,0,1,.257-.664.867.867,0,0,1,.622-.253.842.842,0,0,1,.624.257.972.972,0,0,1,.254.711v9.74a.967.967,0,0,1-.25.725.875.875,0,0,1-.628.242.891.891,0,0,1-.618-.235.819.819,0,0,1-.261-.643v-.832h-.043a3.721,3.721,0,0,1-2.98,1.71,4.977,4.977,0,0,1-2.619-.714A4.874,4.874,0,0,1,44.643,37.4a6.605,6.605,0,0,1-.668-3.034A6.684,6.684,0,0,1,44.71,31.1a5,5,0,0,1,1.875-1.981,4.607,4.607,0,0,1,2.292-.65,4,4,0,0,1,1.768.361,4.762,4.762,0,0,1,1.449,1.178Z" fill="#fff" fillRule="evenodd"/>
    <path id="Path_2847" data-name="Path 2847" d="M45.861,34.316A6.18,6.18,0,0,0,46.2,36.38a3.568,3.568,0,0,0,1.017,1.546,2.448,2.448,0,0,0,1.66.592,2.671,2.671,0,0,0,2.471-1.228,5.642,5.642,0,0,0,.746-2.974,6,6,0,0,0-.386-2.243,3.269,3.269,0,0,0-1.092-1.467,2.665,2.665,0,0,0-1.607-.507h-.043a2.71,2.71,0,0,0-2.3,1.218A5.453,5.453,0,0,0,45.861,34.316Zm6.276-4.306v-.622a.89.89,0,0,1,.257-.664.867.867,0,0,1,.622-.253.842.842,0,0,1,.624.257.972.972,0,0,1,.254.711v9.74a.967.967,0,0,1-.25.725.875.875,0,0,1-.628.242.891.891,0,0,1-.618-.235.819.819,0,0,1-.261-.643v-.832h-.043a3.721,3.721,0,0,1-2.98,1.71,4.977,4.977,0,0,1-2.619-.714A4.874,4.874,0,0,1,44.643,37.4a6.605,6.605,0,0,1-.668-3.034A6.684,6.684,0,0,1,44.71,31.1a5,5,0,0,1,1.875-1.981,4.607,4.607,0,0,1,2.292-.65,4,4,0,0,1,1.768.361,4.762,4.762,0,0,1,1.449,1.178Z" fill="none" stroke="#fff" strokeMiterlimit="22.926" strokeWidth="0.216"/>
  </g>
</svg>
