<?xml version="1.0" encoding="UTF-8"?><svg id="uuid-394ccb54-ca1f-42c0-9597-2a695b1cffe6" xmlns="http://www.w3.org/2000/svg" viewBox="0 0 96.06 116.76"><g id="uuid-db9d2886-bd90-4b59-b7b9-2c8a9a2d3246"><g><g><path d="M5.92,0H73.14l22.86,22.51V110.84c0,3.25-2.66,5.92-5.92,5.92H5.92c-3.25,0-5.92-2.66-5.92-5.92V5.92C0,2.66,2.66,0,5.92,0Z" style="fill:#d76b9f; fill-rule:evenodd;"/><path d="M96.06,22.55l-18.33,.02c-2.52,0-4.59-2.06-4.59-4.59V0l22.92,22.55Z" style="fill:#fff; fill-rule:evenodd;"/></g>
<path d="M66.84,101.09v-1.6c.41-.01,.7-.13,.86-.34,.17-.23,.26-.61,.26-1.14v-6.63h1.93v6.63c0,1-.28,1.76-.82,2.29-.52,.51-1.27,.78-2.23,.79h0Zm0-13.64v-1.2l.38,1.2h-.38Zm0-8.68l2.19,5.21v3.47h1.96v-3.47l2.56-6.1h-2.1l-1.44,4.3-1.45-4.3h-1.73v.9h0Zm11.21,22.18h-1.93l-2.83-6.28v6.28h-1.93v-9.57h1.93l2.83,6.29v-6.29h1.93v9.57Zm-11.21-23.08v.9l-.38-.9h.38Zm0,8.38l-2.64-8.38h-.89v2.59h0s.89,3.41,.89,3.41h-.89v1.62h1.32l.51,1.95h1.69v-1.2h0Zm0,13.23v1.6h-.09c-1.03,0-1.81-.27-2.35-.8-.54-.53-.81-1.31-.81-2.32v-6.58h1.95v6.59c0,.54,.09,.93,.26,1.16,.18,.23,.49,.35,.95,.35h.09Zm-3.52-21.61v2.59l-.89,3.41h.89v1.62h-1.31l-.51,1.95h-2.04l2.99-9.57h.88Zm-7.61,9.54v-1.62c.34-.08,.59-.23,.76-.45,.26-.34,.4-.92,.41-1.76v-1.66c0-.9-.13-1.52-.37-1.87-.18-.25-.45-.42-.8-.5v-1.64c.85,.1,1.55,.45,2.09,1.03,.66,.71,1,1.68,1.01,2.92v1.55c0,1.26-.33,2.25-.99,2.96-.54,.58-1.24,.93-2.12,1.04h0Zm6.49,9.63h-3.01v3.91h-1.93v-9.57h5.3v1.62h-3.37v2.45h3.01v1.6Zm-6.49-19.14v1.64c-.14-.03-.3-.05-.47-.06h-.7v6.36h.58c.22,0,.42-.02,.6-.06v1.62c-.2,.02-.41,.04-.63,.04h-2.48v-9.57h2.53c.2,0,.39,.01,.58,.03h0Zm-18.04,23.04v-9.57h2.19l1.81,6.92,1.8-6.92h2.53v9.57h-1.94v-2.59l.18-3.99-1.91,6.58h-1.32l-1.91-6.58,.18,3.99v2.59h-1.6Zm0-13.37v-1.62h.02c.5,0,.88-.19,1.12-.58,.24-.39,.37-.99,.37-1.81v-1.67c0-.86-.12-1.51-.37-1.93-.24-.42-.63-.63-1.14-.63h0v-1.62h0c1.07,0,1.91,.36,2.52,1.09,.61,.73,.92,1.75,.93,3.06v1.64c0,1.29-.3,2.28-.91,2.99-.61,.71-1.45,1.07-2.53,1.07h-.02Zm6.77-1.74h3.39v1.6h-5.33v-9.57h1.93v7.97h0Zm6.53,1.6h-1.93v-9.57h1.93v9.57h0Zm1.52,9.37h-3.01v2.53h3.56v1.6h-5.5v-9.57h5.48v1.62h-3.55v2.26h3.01v1.56Zm-19.66-9.37h-.33v-9.57h.33v9.57h0Zm4.84-9.71v1.62c-.51,0-.89,.2-1.13,.61-.24,.41-.37,1.02-.38,1.85v1.7c0,.84,.13,1.46,.37,1.85,.25,.39,.63,.59,1.14,.59v1.62c-1.07,0-1.91-.36-2.52-1.06-.61-.7-.92-1.69-.93-2.96v-1.64c0-1.32,.31-2.35,.91-3.08,.61-.74,1.45-1.11,2.54-1.11h0Zm0,13.64v9.57h-.34v-9.57h.34Zm-5.18,9.71v-1.62h.02c.5,0,.88-.19,1.12-.58,.24-.39,.37-.99,.38-1.81v-1.66c0-.86-.12-1.51-.37-1.93-.24-.42-.63-.63-1.14-.63h0v-1.62h0c1.07,0,1.91,.36,2.52,1.09,.62,.73,.92,1.75,.93,3.06v1.64c0,1.29-.3,2.28-.91,2.99-.61,.71-1.45,1.07-2.53,1.07h-.02Zm0-13.64h-1.59v-4.09h-2.85v4.09h-1.93v-9.57h1.93v3.88h2.85v-3.88h1.59v9.57h0Zm0,3.79v1.62c-.51,0-.89,.2-1.13,.61-.24,.41-.37,1.02-.38,1.85v1.7c0,.84,.13,1.46,.37,1.85,.25,.39,.63,.59,1.14,.59v1.62c-1.07,0-1.91-.36-2.51-1.06-.61-.7-.93-1.69-.93-2.96v-1.64c0-1.32,.31-2.35,.91-3.08,.61-.74,1.46-1.11,2.54-1.11h0Zm-4.84,9.71h-1.93v-4.09h-2.85v4.09h-1.93v-9.57h1.93v3.88h2.85v-3.88h1.93v9.57Z" style="fill:#2b2a29; fill-rule:evenodd;"/>
<g><path d="M66.49,63.68h-15.74v-20.63h15.74v20.63h0Zm-17.7,0H26.73V20.73h22.05V63.68h0Zm19.4-22.32h-17.7V19.03H25.04v45.38H12.23v1.69H77.64v-1.69h-9.46v-23.05Z" style="fill:#fff; fill-rule:evenodd;"/><path d="M35.73,29.27h-3.75v-2.98h3.75v2.98h0Zm.85-3.83h-5.45v4.67h5.45v-4.67Z" style="fill:#fff; fill-rule:evenodd;"/><path d="M43.55,29.27h-3.75v-2.98h3.75v2.98h0Zm.85-3.83h-5.45v4.67h5.45v-4.67Z" style="fill:#fff; fill-rule:evenodd;"/><path d="M43.55,35.35h-3.75v-2.98h3.75v2.98h0Zm.85-3.82h-5.45v4.67h5.45v-4.67Z" style="fill:#fff; fill-rule:evenodd;"/><path d="M43.55,46.09h-3.75v-2.98h3.75v2.98h0Zm.85-3.82h-5.45v4.67h5.45v-4.67Z" style="fill:#fff; fill-rule:evenodd;"/><path d="M43.55,56.76h-3.75v-2.98h3.75v2.98h0Zm.85-3.83h-5.45v4.67h5.45v-4.67Z" style="fill:#fff; fill-rule:evenodd;"/><path d="M35.73,56.76h-3.75v-2.98h3.75v2.98h0Zm.85-3.83h-5.45v4.67h5.45v-4.67Z" style="fill:#fff; fill-rule:evenodd;"/><path d="M57.45,48.71h-3.75v-2.98h3.75v2.98h0Zm.85-3.82h-5.45v4.67h5.45v-4.67Z" style="fill:#fff; fill-rule:evenodd;"/><path d="M64.28,56.26h-3.75v-2.98h3.75v2.98h0Zm.85-3.83h-5.45v4.67h5.45v-4.67Z" style="fill:#fff; fill-rule:evenodd;"/></g></g></g></svg>