<svg id="Group_2397" data-name="Group 2397" xmlns="http://www.w3.org/2000/svg" xmlns:xlink="http://www.w3.org/1999/xlink" width="96.06" height="117.061" viewBox="0 0 96.06 117.061">
  <defs>
    <clipPath id="clip-path">
      <rect id="Rectangle_1534" data-name="Rectangle 1534" width="96.06" height="117.06" fill="none"/>
    </clipPath>
  </defs>
  <g id="Group_2396" data-name="Group 2396" clipPath="url(#clip-path)">
    <path id="Path_2813" data-name="Path 2813" d="M5.916,0H73.142L96,22.507v88.638a5.933,5.933,0,0,1-5.915,5.915H5.916A5.933,5.933,0,0,1,0,111.145V5.915A5.933,5.933,0,0,1,5.916,0" fill="#d76b9f" fillRule="evenodd"/>
    <path id="Path_2814" data-name="Path 2814" d="M96.06,22.546l-18.335.024a4.6,4.6,0,0,1-4.586-4.586V0Z" fill="#fff" fillRule="evenodd"/>
    <path id="Path_2815" data-name="Path 2815" d="M16.812,93.011h-1.2V83.438h1.2Zm3.66-9.573,2.5,7.812,2.5-7.812h1.551v9.573h-1.2V89.283l.113-3.737-2.5,7.465h-.92l-2.494-7.438.112,3.71v3.728h-1.2V83.438Zm13.2,7.069H30.44l-.744,2.5H28.463l3.083-9.573h1.03l3.091,9.573H34.433Zm-2.92-1.037h2.609l-1.308-4.35ZM42.89,91.824l-.209.263a3.3,3.3,0,0,1-2.657,1.059,3.035,3.035,0,0,1-2.435-1.03,4.4,4.4,0,0,1-.905-2.911V87.322a4.744,4.744,0,0,1,.805-3.016,3.392,3.392,0,0,1,4.55-.243,3.177,3.177,0,0,1,.851,2.177h-1.2a2.4,2.4,0,0,0-.5-1.4,1.587,1.587,0,0,0-1.286-.5,1.726,1.726,0,0,0-1.51.673,3.853,3.853,0,0,0-.5,2.152v1.954a3.78,3.78,0,0,0,.552,2.219,1.829,1.829,0,0,0,1.584.772,2.093,2.093,0,0,0,1.479-.471l.178-.162V89.281H39.939V88.244H42.89ZM49.445,88.6H46.059v3.379h3.946v1.037H44.856V83.438H49.94v1.035H46.059v3.084h3.386Zm5.181,4.416V83.438h2.729a2.734,2.734,0,0,1,1.968.636,2.53,2.53,0,0,1,.662,1.912,2.112,2.112,0,0,1-.336,1.183,2.247,2.247,0,0,1-.907.795,1.82,1.82,0,0,1,1.041.807,2.7,2.7,0,0,1,.386,1.475,2.812,2.812,0,0,1-.706,2.029,2.665,2.665,0,0,1-2.016.736Zm1.2-4.484v3.447h1.645a1.375,1.375,0,0,0,1.084-.451,1.842,1.842,0,0,0,.4-1.266q0-1.73-1.461-1.73Zm0-1.01h1.546a1.3,1.3,0,0,0,1.008-.42,1.925,1.925,0,0,0,.036-2.264,1.416,1.416,0,0,0-1.064-.36H55.829Zm10.6,2.99H63.2l-.743,2.5H61.22L64.3,83.438h1.03l3.091,9.573H67.19Zm-2.92-1.037h2.61l-1.309-4.35ZM75.98,93.011H74.77l-3.833-7.377v7.377h-1.21V83.438h1.21l3.846,7.409V83.438h1.2ZM80.21,88.6l-.94,1.138v3.274h-1.2V83.438h1.2V88.06l.79-1.046,2.577-3.576h1.447l-3.11,4.214,3.352,5.359H82.888Z" fill="#2b2a29" fillRule="evenodd"/>
    <path id="Path_2816" data-name="Path 2816" d="M16.812,93.011h-1.2V83.438h1.2Zm3.66-9.573,2.5,7.812,2.5-7.812h1.551v9.573h-1.2V89.283l.113-3.737-2.5,7.465h-.92l-2.494-7.438.112,3.71v3.728h-1.2V83.438Zm13.2,7.069H30.44l-.744,2.5H28.463l3.083-9.573h1.03l3.091,9.573H34.433Zm-2.92-1.037h2.609l-1.308-4.35ZM42.89,91.824l-.209.263a3.3,3.3,0,0,1-2.657,1.059,3.035,3.035,0,0,1-2.435-1.03,4.4,4.4,0,0,1-.905-2.911V87.322a4.744,4.744,0,0,1,.805-3.016,3.392,3.392,0,0,1,4.55-.243,3.177,3.177,0,0,1,.851,2.177h-1.2a2.4,2.4,0,0,0-.5-1.4,1.587,1.587,0,0,0-1.286-.5,1.726,1.726,0,0,0-1.51.673,3.853,3.853,0,0,0-.5,2.152v1.954a3.78,3.78,0,0,0,.552,2.219,1.829,1.829,0,0,0,1.584.772,2.093,2.093,0,0,0,1.479-.471l.178-.162V89.281H39.939V88.244H42.89ZM49.445,88.6H46.059v3.379h3.946v1.037H44.856V83.438H49.94v1.035H46.059v3.084h3.386Zm5.181,4.416V83.438h2.729a2.734,2.734,0,0,1,1.968.636,2.53,2.53,0,0,1,.662,1.912,2.112,2.112,0,0,1-.336,1.183,2.247,2.247,0,0,1-.907.795,1.82,1.82,0,0,1,1.041.807,2.7,2.7,0,0,1,.386,1.475,2.812,2.812,0,0,1-.706,2.029,2.665,2.665,0,0,1-2.016.736Zm1.2-4.484v3.447h1.645a1.375,1.375,0,0,0,1.084-.451,1.842,1.842,0,0,0,.4-1.266q0-1.73-1.461-1.73Zm0-1.01h1.546a1.3,1.3,0,0,0,1.008-.42,1.925,1.925,0,0,0,.036-2.264,1.416,1.416,0,0,0-1.064-.36H55.829Zm10.6,2.99H63.2l-.743,2.5H61.22L64.3,83.438h1.03l3.091,9.573H67.19Zm-2.92-1.037h2.61l-1.309-4.35ZM75.98,93.011H74.77l-3.833-7.377v7.377h-1.21V83.438h1.21l3.846,7.409V83.438h1.2ZM80.21,88.6l-.94,1.138v3.274h-1.2V83.438h1.2V88.06l.79-1.046,2.577-3.576h1.447l-3.11,4.214,3.352,5.359H82.888Z" fill="none" stroke="#000" strokeMiterlimit="10" strokeWidth="0.5"/>
    <path id="Path_2817" data-name="Path 2817" d="M53.122,56.714H22.54a3.354,3.354,0,0,1-3.345-3.344V23.135a3.354,3.354,0,0,1,3.345-3.344H65.453A3.354,3.354,0,0,1,68.8,23.135V34.422" fill="none" stroke="#fff" strokeLinecap="round" strokeLinejoin="round" strokeWidth="2"/>
    <path id="Path_2818" data-name="Path 2818" d="M54.725,33.027a2.368,2.368,0,1,0-2.368-2.369,2.372,2.372,0,0,0,2.368,2.369" fill="#fff" fillRule="evenodd"/>
    <path id="Path_2819" data-name="Path 2819" d="M54.725,33.027a2.368,2.368,0,1,0-2.368-2.369A2.372,2.372,0,0,0,54.725,33.027Z" fill="none" stroke="#fff" strokeLinecap="round" strokeLinejoin="round" strokeWidth="2"/>
    <path id="Path_2820" data-name="Path 2820" d="M37.239,31.355l3.689,7.2,2.369,4.5,2.151-2.832L49.535,34.7l3.131,4.23a12.65,12.65,0,0,0-2.575,6.742l-.556,0-4.851.022.008.014L43.3,45.7l-2.017.008.017-.021-4.057-.026-7.455.047,3.765-7.151Z" fill="#fff" fillRule="evenodd"/>
    <path id="Path_2821" data-name="Path 2821" d="M37.239,31.355l3.689,7.2,2.369,4.5,2.151-2.832L49.535,34.7l3.131,4.23a12.65,12.65,0,0,0-2.575,6.742l-.556,0-4.851.022.008.014L43.3,45.7l-2.017.008.017-.021-4.057-.026-7.455.047,3.765-7.151Z" fill="none" stroke="#fff" strokeLinecap="round" strokeLinejoin="round" strokeWidth="2"/>
    <path id="Path_2822" data-name="Path 2822" d="M57.894,38.348a9.544,9.544,0,1,1-3.5,13.038,9.544,9.544,0,0,1,3.5-13.038" fill="#fff" fillRule="evenodd"/>
    <path id="Path_2823" data-name="Path 2823" d="M57.894,38.348a9.544,9.544,0,1,1-3.5,13.038A9.544,9.544,0,0,1,57.894,38.348Z" fill="none" stroke="#fff" strokeLinecap="round" strokeLinejoin="round" strokeWidth="2"/>
    <rect id="Rectangle_1532" data-name="Rectangle 1532" width="4.597" height="7.943" transform="matrix(0.866, -0.5, 0.5, 0.866, 66.575, 57.846)" fill="#fff"/>
    <rect id="Rectangle_1533" data-name="Rectangle 1533" width="4.597" height="7.943" transform="matrix(0.866, -0.5, 0.5, 0.866, 66.575, 57.846)" fill="none" stroke="#fff" strokeLinecap="round" strokeLinejoin="round" strokeWidth="2"/>
    <path id="Path_2824" data-name="Path 2824" d="M73.669,65.387l2.112-1.219a2.438,2.438,0,0,1-4.223,2.438Z" fill="#fff" fillRule="evenodd"/>
    <path id="Path_2825" data-name="Path 2825" d="M73.669,65.387l2.112-1.219a2.438,2.438,0,0,1-4.223,2.438Z" fill="none" stroke="#fff" strokeLinecap="round" strokeLinejoin="round" strokeWidth="2"/>
  </g>
</svg>
