<svg id="Group_2441" data-name="Group 2441" xmlns="http://www.w3.org/2000/svg" xmlns:xlink="http://www.w3.org/1999/xlink" width="96.06" height="116.686" viewBox="0 0 96.06 116.686">
  <defs>
    <clipPath id="clip-path">
      <rect id="Rectangle_1560" data-name="Rectangle 1560" width="96.06" height="116.685" fill="none"/>
    </clipPath>
  </defs>
  <g id="Group_2440" data-name="Group 2440" clipPath="url(#clip-path)">
    <path id="Path_2974" data-name="Path 2974" d="M5.915,0H73.141L96,22.507V110.77a5.933,5.933,0,0,1-5.916,5.915H5.915A5.933,5.933,0,0,1,0,110.77V5.916A5.932,5.932,0,0,1,5.915,0" fill="#72b579" fillRule="evenodd"/>
    <path id="Path_2975" data-name="Path 2975" d="M96.06,22.546l-18.335.024a4.6,4.6,0,0,1-4.586-4.586V0Z" fill="#fff" fillRule="evenodd"/>
    <path id="Path_2976" data-name="Path 2976" d="M21.528,86.918h3.755v1.037H20.318V78.38h1.21Zm9.777-1.468H28.068l-.743,2.505H26.091l3.084-9.575H30.2l3.09,9.575H32.061Zm-2.92-1.037H31l-1.308-4.349ZM40.85,87.955H39.641l-3.834-7.377v7.377H34.6V78.38h1.209l3.847,7.411V78.38h1.2Zm8.078-1.188-.208.263a3.309,3.309,0,0,1-2.658,1.06,3.035,3.035,0,0,1-2.435-1.031,4.4,4.4,0,0,1-.9-2.911V82.265a4.741,4.741,0,0,1,.806-3.016,3.389,3.389,0,0,1,4.549-.242,3.175,3.175,0,0,1,.851,2.176h-1.2a2.406,2.406,0,0,0-.5-1.4,1.586,1.586,0,0,0-1.286-.5,1.724,1.724,0,0,0-1.509.674,3.844,3.844,0,0,0-.5,2.152v1.953a3.789,3.789,0,0,0,.552,2.22,1.833,1.833,0,0,0,1.584.772,2.093,2.093,0,0,0,1.48-.472l.177-.161V84.225H45.977V83.188h2.951ZM56.6,78.38v6.807a2.908,2.908,0,0,1-.787,2.133,2.928,2.928,0,0,1-5.1-2.133V78.38h1.2v6.754a2.172,2.172,0,0,0,.413,1.443,2.089,2.089,0,0,0,2.655,0,2.166,2.166,0,0,0,.411-1.443V78.38Zm6.173,7.07H59.539L58.8,87.955H57.562l3.084-9.575h1.03l3.091,9.575H63.532Zm-2.92-1.037h2.611l-1.309-4.349Zm12.133,2.354-.208.263a3.306,3.306,0,0,1-2.658,1.06,3.033,3.033,0,0,1-2.434-1.031,4.406,4.406,0,0,1-.906-2.911V82.265a4.741,4.741,0,0,1,.807-3.016,3.389,3.389,0,0,1,4.549-.242,3.179,3.179,0,0,1,.85,2.176h-1.2a2.413,2.413,0,0,0-.5-1.4,1.587,1.587,0,0,0-1.286-.5,1.725,1.725,0,0,0-1.51.674,3.861,3.861,0,0,0-.5,2.152v1.953a3.788,3.788,0,0,0,.553,2.22,1.832,1.832,0,0,0,1.584.772,2.089,2.089,0,0,0,1.479-.472l.177-.161V84.225H69.038V83.188h2.951Zm6.556-3.229H75.158v3.38h3.947v1.037H73.956V78.38h5.083v1.037H75.158V82.5h3.387Zm-41.85,16.731-.208.263a3.3,3.3,0,0,1-2.657,1.059,3.037,3.037,0,0,1-2.436-1.03,4.411,4.411,0,0,1-.9-2.911V95.767a4.739,4.739,0,0,1,.806-3.016,2.9,2.9,0,0,1,2.407-1,2.919,2.919,0,0,1,2.142.761,3.177,3.177,0,0,1,.85,2.177h-1.2a2.41,2.41,0,0,0-.5-1.4,1.59,1.59,0,0,0-1.285-.5,1.728,1.728,0,0,0-1.511.673,3.862,3.862,0,0,0-.5,2.153v1.953a3.785,3.785,0,0,0,.553,2.219,1.829,1.829,0,0,0,1.584.773,2.1,2.1,0,0,0,1.479-.472l.177-.162V97.726H33.744V96.69h2.951Zm6.431-1.317H39.89l-.744,2.5H37.912L41,91.882h1.03l3.091,9.574H43.883Zm-2.92-1.037h2.61l-1.308-4.35Zm7.766-6.033,2.5,7.813,2.5-7.813h1.551v9.574h-1.2V97.728l.113-3.736-2.505,7.464h-.921l-2.493-7.438.112,3.71v3.728h-1.2V91.882ZM61.183,97.04H57.8v3.38h3.945v1.036H56.593V91.882h5.083v1.037H57.8V96h3.387Zm6.277,2a1.476,1.476,0,0,0-.389-1.1,3.986,3.986,0,0,0-1.4-.742,6.069,6.069,0,0,1-1.549-.759,2.686,2.686,0,0,1-.8-.909,2.695,2.695,0,0,1,.494-3.043,2.73,2.73,0,0,1,1.989-.737,2.967,2.967,0,0,1,1.5.377,2.6,2.6,0,0,1,1.012,1.048,3.11,3.11,0,0,1,.355,1.473H67.46a2.012,2.012,0,0,0-.427-1.374,1.547,1.547,0,0,0-1.229-.487,1.51,1.51,0,0,0-1.131.409,1.558,1.558,0,0,0-.4,1.144,1.334,1.334,0,0,0,.435,1.014,3.8,3.8,0,0,0,1.34.732,4.624,4.624,0,0,1,2.022,1.152,2.584,2.584,0,0,1,.609,1.791,2.414,2.414,0,0,1-.757,1.865,2.906,2.906,0,0,1-2.058.7,3.293,3.293,0,0,1-1.542-.366,2.767,2.767,0,0,1-1.111-1.027,2.853,2.853,0,0,1-.4-1.517h1.209a1.856,1.856,0,0,0,.5,1.379,1.83,1.83,0,0,0,1.351.5,1.611,1.611,0,0,0,1.2-.409,1.521,1.521,0,0,0,.4-1.111" fill="#2b2a29" fillRule="evenodd"/>
    <path id="Path_2977" data-name="Path 2977" d="M21.528,86.918h3.755v1.037H20.318V78.38h1.21Zm9.777-1.468H28.068l-.743,2.505H26.091l3.084-9.575H30.2l3.09,9.575H32.061Zm-2.92-1.037H31l-1.308-4.349ZM40.85,87.955H39.641l-3.834-7.377v7.377H34.6V78.38h1.209l3.847,7.411V78.38h1.2Zm8.078-1.188-.208.263a3.309,3.309,0,0,1-2.658,1.06,3.035,3.035,0,0,1-2.435-1.031,4.4,4.4,0,0,1-.9-2.911V82.265a4.741,4.741,0,0,1,.806-3.016,3.389,3.389,0,0,1,4.549-.242,3.175,3.175,0,0,1,.851,2.176h-1.2a2.406,2.406,0,0,0-.5-1.4,1.586,1.586,0,0,0-1.286-.5,1.724,1.724,0,0,0-1.509.674,3.844,3.844,0,0,0-.5,2.152v1.953a3.789,3.789,0,0,0,.552,2.22,1.833,1.833,0,0,0,1.584.772,2.093,2.093,0,0,0,1.48-.472l.177-.161V84.225H45.977V83.188h2.951ZM56.6,78.38v6.807a2.908,2.908,0,0,1-.787,2.133,2.928,2.928,0,0,1-5.1-2.133V78.38h1.2v6.754a2.172,2.172,0,0,0,.413,1.443,2.089,2.089,0,0,0,2.655,0,2.166,2.166,0,0,0,.411-1.443V78.38Zm6.173,7.07H59.539L58.8,87.955H57.562l3.084-9.575h1.03l3.091,9.575H63.532Zm-2.92-1.037h2.611l-1.309-4.349Zm12.133,2.354-.208.263a3.306,3.306,0,0,1-2.658,1.06,3.033,3.033,0,0,1-2.434-1.031,4.406,4.406,0,0,1-.906-2.911V82.265a4.741,4.741,0,0,1,.807-3.016,3.389,3.389,0,0,1,4.549-.242,3.179,3.179,0,0,1,.85,2.176h-1.2a2.413,2.413,0,0,0-.5-1.4,1.587,1.587,0,0,0-1.286-.5,1.725,1.725,0,0,0-1.51.674,3.861,3.861,0,0,0-.5,2.152v1.953a3.788,3.788,0,0,0,.553,2.22,1.832,1.832,0,0,0,1.584.772,2.089,2.089,0,0,0,1.479-.472l.177-.161V84.225H69.038V83.188h2.951Zm6.556-3.229H75.158v3.38h3.947v1.037H73.956V78.38h5.083v1.037H75.158V82.5h3.387Zm-41.85,16.731-.208.263a3.3,3.3,0,0,1-2.657,1.059,3.037,3.037,0,0,1-2.436-1.03,4.411,4.411,0,0,1-.9-2.911V95.767a4.739,4.739,0,0,1,.806-3.016,2.9,2.9,0,0,1,2.407-1,2.919,2.919,0,0,1,2.142.761,3.177,3.177,0,0,1,.85,2.177h-1.2a2.41,2.41,0,0,0-.5-1.4,1.59,1.59,0,0,0-1.285-.5,1.728,1.728,0,0,0-1.511.673,3.862,3.862,0,0,0-.5,2.153v1.953a3.785,3.785,0,0,0,.553,2.219,1.829,1.829,0,0,0,1.584.773,2.1,2.1,0,0,0,1.479-.472l.177-.162V97.726H33.744V96.69h2.951Zm6.431-1.317H39.89l-.744,2.5H37.912L41,91.882h1.03l3.091,9.574H43.883Zm-2.92-1.037h2.61l-1.308-4.35Zm7.766-6.033,2.5,7.813,2.5-7.813h1.551v9.574h-1.2V97.728l.113-3.736-2.505,7.464h-.921l-2.493-7.438.112,3.71v3.728h-1.2V91.882ZM61.183,97.04H57.8v3.38h3.945v1.036H56.593V91.882h5.083v1.037H57.8V96h3.387Zm6.277,2a1.476,1.476,0,0,0-.389-1.1,3.986,3.986,0,0,0-1.4-.742,6.069,6.069,0,0,1-1.549-.759,2.686,2.686,0,0,1-.8-.909,2.695,2.695,0,0,1,.494-3.043,2.73,2.73,0,0,1,1.989-.737,2.967,2.967,0,0,1,1.5.377,2.6,2.6,0,0,1,1.012,1.048,3.11,3.11,0,0,1,.355,1.473H67.46a2.012,2.012,0,0,0-.427-1.374,1.547,1.547,0,0,0-1.229-.487,1.51,1.51,0,0,0-1.131.409,1.558,1.558,0,0,0-.4,1.144,1.334,1.334,0,0,0,.435,1.014,3.8,3.8,0,0,0,1.34.732,4.624,4.624,0,0,1,2.022,1.152,2.584,2.584,0,0,1,.609,1.791,2.414,2.414,0,0,1-.757,1.865,2.906,2.906,0,0,1-2.058.7,3.293,3.293,0,0,1-1.542-.366,2.767,2.767,0,0,1-1.111-1.027,2.853,2.853,0,0,1-.4-1.517h1.209a1.856,1.856,0,0,0,.5,1.379,1.83,1.83,0,0,0,1.351.5,1.611,1.611,0,0,0,1.2-.409A1.521,1.521,0,0,0,67.46,99.035Z" fill="none" stroke="#000" strokeMiterlimit="10" strokeWidth="0.5"/>
    <path id="Path_2978" data-name="Path 2978" d="M24.66,54.857H72.774q-5.319,5.4,0,12.451H24.66a2.955,2.955,0,0,1-3.143-2.7V57.555A2.955,2.955,0,0,1,24.66,54.857Z" fill="none" stroke="#fff" strokeLinecap="round" strokeLinejoin="round" strokeWidth="2"/>
    <line id="Line_153" data-name="Line 153" x2="46.18" transform="translate(24.177 58.8)" fill="none" stroke="#fff" strokeLinecap="round" strokeLinejoin="round" strokeWidth="2"/>
    <line id="Line_154" data-name="Line 154" x2="46.18" transform="translate(24.177 63.365)" fill="none" stroke="#fff" strokeLinecap="round" strokeLinejoin="round" strokeWidth="2"/>
    <path id="Path_2979" data-name="Path 2979" d="M36.909,26.6l.006-.013a6.258,6.258,0,0,1,3.634-1.245c.036,0,.071,0,.106,0s.043,0,.063,0a6.434,6.434,0,0,1,2.463.485c.15.061.293.134.434.2a6.016,6.016,0,0,1,.638.369l.121.065c.163.066.327.14.492.214a6.045,6.045,0,0,0,2.256.656h.048a3.982,3.982,0,0,0,.465-.047l-.032.139,1.2-.483c.206-.083.41-.173.612-.263.168-.074.334-.148.5-.215l.123-.067a6.038,6.038,0,0,1,1.07-.573,6.436,6.436,0,0,1,2.462-.485c.022,0,.044,0,.065,0l.1,0a6.267,6.267,0,0,1,3.639,1.245l0,.014a.749.749,0,0,0,.4.332,8.346,8.346,0,0,1,2.783,5.14,6.073,6.073,0,0,1,.04.826c0,.1-.009.206-.017.321l-.005.071c0,.053-.008.107-.013.16-.016.135-.035.27-.06.4-.01.066-.023.131-.041.208-.031.15-.064.3-.113.471a12.733,12.733,0,0,1-.815,2.1c-.235.489-.522,1.037-.874,1.671-.38.677-.745,1.4-1.131,2.16A37.236,37.236,0,0,1,54.2,46.118c-1.494,1.684-2.956,2.495-4.352,2.4a4.376,4.376,0,0,1-2.3-.951l-.407-.305-.4.305a4.379,4.379,0,0,1-2.3.951c-1.287.088-2.542-.668-4.188-2.525a78.434,78.434,0,0,1-4.215-6.954l-.413-.738c-.346-.621-.633-1.167-.876-1.672a12.825,12.825,0,0,1-.808-2.076l-.012-.041c-.044-.152-.078-.3-.109-.448-.015-.072-.028-.14-.041-.214-.023-.134-.045-.266-.06-.4,0-.052-.007-.1-.011-.152l-.007-.1c-.007-.1-.015-.2-.017-.3a6.288,6.288,0,0,1,.043-.828,8.341,8.341,0,0,1,2.781-5.138.749.749,0,0,0,.4-.333m6.736-6.261a4.28,4.28,0,0,0,.221,3.9,4.234,4.234,0,0,0,.474.639c.065.034.123.069.183.1.036.019.075.04.111.061.111.064.217.128.316.193.056.023.109.048.164.071.1.044.2.087.3.133.22.1.437.195.652.279a3.4,3.4,0,0,0,1.075.259c.014,0,.028,0,.041,0l.121-.009a4.249,4.249,0,0,0-3.661-5.625m7.188-.1.053.064a.375.375,0,0,1-.027.031,13.621,13.621,0,0,0-2.062,3.2c-.009-.044-.018-.088-.028-.133a13.666,13.666,0,0,1,2.064-3.164M36.149,25.44l-.318.279-.02.016-.759.644.053.029a9.5,9.5,0,0,0-2.724,5.51,7.538,7.538,0,0,0-.05,1c0,.124.011.248.021.4l0,.064c.005.073.01.143.018.214.017.164.042.329.072.489.013.082.028.164.048.254.04.183.081.366.126.518l.01.034a14.136,14.136,0,0,0,.9,2.322c.255.528.555,1.1.915,1.745l.411.736a79.466,79.466,0,0,0,4.31,7.1l.048.06c1.388,1.571,3.109,3.156,5.319,3.007a5.434,5.434,0,0,0,2.613-.934,5.47,5.47,0,0,0,2.616.934c.106.008.211.01.318.01,1.733,0,3.467-.968,5.156-2.881l.034-.042a37.941,37.941,0,0,0,3.476-5.883c.381-.749.739-1.459,1.1-2.111s.666-1.231.913-1.746a14,14,0,0,0,.9-2.321l.005-.019c.051-.18.09-.359.127-.528.019-.085.036-.17.05-.257.029-.163.053-.326.071-.488.007-.071.014-.141.019-.213l.006-.09c.008-.126.017-.25.02-.374a7.561,7.561,0,0,0-.049-1,9.515,9.515,0,0,0-2.727-5.513l.052-.028-.757-.643-.006,0-.331-.29-.02.011a7.633,7.633,0,0,0-4.349-1.465l-.055,0c-.049,0-.1-.006-.147-.006a7.755,7.755,0,0,0-2.977.588,7.52,7.52,0,0,0-.963.481,12.289,12.289,0,0,1,2.249-3.834c.128-.147.258-.289.392-.431l.415-.434-.383-.463c-.344-.417-.655-.781-.951-1.115l-.483-.546-.508.522a14.822,14.822,0,0,0-2.244,2.983l0,0a5.617,5.617,0,0,0-4.885-2.758l-.392,0-.192.341a5.632,5.632,0,0,0-.323,4.836,7.835,7.835,0,0,0-1.607-.17c-.048,0-.1,0-.144.006l-.058,0a7.622,7.622,0,0,0-4.346,1.466Z" fill="#fff" fillRule="evenodd"/>
    <path id="Path_2980" data-name="Path 2980" d="M36.909,26.6l.006-.013a6.258,6.258,0,0,1,3.634-1.245c.036,0,.071,0,.106,0s.043,0,.063,0a6.434,6.434,0,0,1,2.463.485c.15.061.293.134.434.2a6.016,6.016,0,0,1,.638.369l.121.065c.163.066.327.14.492.214a6.045,6.045,0,0,0,2.256.656h.048a3.982,3.982,0,0,0,.465-.047l-.032.139,1.2-.483c.206-.083.41-.173.612-.263.168-.074.334-.148.5-.215l.123-.067a6.038,6.038,0,0,1,1.07-.573,6.436,6.436,0,0,1,2.462-.485c.022,0,.044,0,.065,0l.1,0a6.267,6.267,0,0,1,3.639,1.245l0,.014a.749.749,0,0,0,.4.332,8.346,8.346,0,0,1,2.783,5.14,6.073,6.073,0,0,1,.04.826c0,.1-.009.206-.017.321l-.005.071c0,.053-.008.107-.013.16-.016.135-.035.27-.06.4-.01.066-.023.131-.041.208-.031.15-.064.3-.113.471a12.733,12.733,0,0,1-.815,2.1c-.235.489-.522,1.037-.874,1.671-.38.677-.745,1.4-1.131,2.16A37.236,37.236,0,0,1,54.2,46.118c-1.494,1.684-2.956,2.495-4.352,2.4a4.376,4.376,0,0,1-2.3-.951l-.407-.305-.4.305a4.379,4.379,0,0,1-2.3.951c-1.287.088-2.542-.668-4.188-2.525a78.434,78.434,0,0,1-4.215-6.954l-.413-.738c-.346-.621-.633-1.167-.876-1.672a12.825,12.825,0,0,1-.808-2.076l-.012-.041c-.044-.152-.078-.3-.109-.448-.015-.072-.028-.14-.041-.214-.023-.134-.045-.266-.06-.4,0-.052-.007-.1-.011-.152l-.007-.1c-.007-.1-.015-.2-.017-.3a6.288,6.288,0,0,1,.043-.828,8.341,8.341,0,0,1,2.781-5.138A.749.749,0,0,0,36.909,26.6Zm6.736-6.261a4.28,4.28,0,0,0,.221,3.9,4.234,4.234,0,0,0,.474.639c.065.034.123.069.183.1.036.019.075.04.111.061.111.064.217.128.316.193.056.023.109.048.164.071.1.044.2.087.3.133.22.1.437.195.652.279a3.4,3.4,0,0,0,1.075.259c.014,0,.028,0,.041,0l.121-.009a4.249,4.249,0,0,0-3.661-5.625Zm7.188-.1.053.064a.375.375,0,0,1-.027.031,13.621,13.621,0,0,0-2.062,3.2c-.009-.044-.018-.088-.028-.133A13.666,13.666,0,0,1,50.833,20.232ZM36.149,25.44l-.318.279-.02.016-.759.644.053.029a9.5,9.5,0,0,0-2.724,5.51,7.538,7.538,0,0,0-.05,1c0,.124.011.248.021.4l0,.064c.005.073.01.143.018.214.017.164.042.329.072.489.013.082.028.164.048.254.04.183.081.366.126.518l.01.034a14.136,14.136,0,0,0,.9,2.322c.255.528.555,1.1.915,1.745l.411.736a79.466,79.466,0,0,0,4.31,7.1l.048.06c1.388,1.571,3.109,3.156,5.319,3.007a5.434,5.434,0,0,0,2.613-.934,5.47,5.47,0,0,0,2.616.934c.106.008.211.01.318.01,1.733,0,3.467-.968,5.156-2.881l.034-.042a37.941,37.941,0,0,0,3.476-5.883c.381-.749.739-1.459,1.1-2.111s.666-1.231.913-1.746a14,14,0,0,0,.9-2.321l.005-.019c.051-.18.09-.359.127-.528.019-.085.036-.17.05-.257.029-.163.053-.326.071-.488.007-.071.014-.141.019-.213l.006-.09c.008-.126.017-.25.02-.374a7.561,7.561,0,0,0-.049-1,9.515,9.515,0,0,0-2.727-5.513l.052-.028-.757-.643-.006,0-.331-.29-.02.011a7.633,7.633,0,0,0-4.349-1.465l-.055,0c-.049,0-.1-.006-.147-.006a7.755,7.755,0,0,0-2.977.588,7.52,7.52,0,0,0-.963.481,12.289,12.289,0,0,1,2.249-3.834c.128-.147.258-.289.392-.431l.415-.434-.383-.463c-.344-.417-.655-.781-.951-1.115l-.483-.546-.508.522a14.822,14.822,0,0,0-2.244,2.983l0,0a5.617,5.617,0,0,0-4.885-2.758l-.392,0-.192.341a5.632,5.632,0,0,0-.323,4.836,7.835,7.835,0,0,0-1.607-.17c-.048,0-.1,0-.144.006l-.058,0a7.622,7.622,0,0,0-4.346,1.466Z" fill="none" stroke="#fff" strokeMiterlimit="22.926" strokeWidth="0.5"/>
  </g>
</svg>
