<?xml version="1.0" encoding="UTF-8"?><svg id="uuid-7aba4c03-ac0f-4fe3-8c6c-8c09d2be0fee" xmlns="http://www.w3.org/2000/svg" viewBox="0 0 96.06 116.31"><g id="uuid-90a00e41-6598-4ee7-ac78-bbc482448f9f"><g><path d="M5.91,0H73.14l22.86,22.51V110.39c0,3.25-2.66,5.92-5.92,5.92H5.91c-3.25,0-5.91-2.66-5.91-5.92V5.92C0,2.66,2.66,0,5.91,0Z" style="fill:#53add3; fill-rule:evenodd;"/><path d="M96.06,22.55l-18.34,.02c-2.52,0-4.58-2.06-4.58-4.59V0l22.92,22.55Z" style="fill:#fff; fill-rule:evenodd;"/><path d="M69.62,104.49v-1.62h.02c.5,0,.88-.19,1.12-.58,.24-.39,.37-.99,.37-1.81v-1.67c0-.86-.12-1.51-.37-1.93-.24-.42-.63-.63-1.14-.63h0v-1.62h0c1.07,0,1.91,.36,2.52,1.09,.62,.73,.92,1.75,.93,3.06v1.64c0,1.29-.3,2.28-.91,2.99-.61,.71-1.45,1.07-2.53,1.07h-.02Zm11.53-.13h-1.93l-2.83-6.28v6.28h-1.93v-9.57h1.93l2.83,6.29v-6.29h1.93v9.57Zm-11.53-9.71v1.62c-.51,0-.89,.2-1.13,.61-.24,.41-.37,1.02-.38,1.85v1.7c0,.84,.13,1.46,.37,1.85,.25,.39,.63,.59,1.14,.59v1.62c-1.07,0-1.91-.36-2.51-1.06-.61-.7-.92-1.69-.93-2.96v-1.64c0-1.32,.3-2.35,.91-3.08,.61-.74,1.46-1.11,2.54-1.11h0Zm-14.51,9.71v-.52l.16,.52h-.16Zm0-7.96h2.16v7.96h1.94v-7.96h2.37v-1.62h-6.47v1.62h0Zm0-8.78v-9h1.04v6.59c0,.54,.09,.93,.26,1.17,.18,.23,.49,.35,.95,.35s.78-.11,.95-.35c.17-.23,.26-.61,.26-1.14v-6.63h1.93v6.63c0,1-.28,1.76-.82,2.29-.54,.53-1.31,.79-2.32,.79s-1.72-.24-2.25-.71h0Zm11.81-3.56h-3.01v2.53h3.56v1.6h-5.5v-9.57h5.48v1.62h-3.55v2.26h3.01v1.56h0Zm-2.21,20.3h-1.93v-9.57h1.93v9.57Zm-9.6-25.74v9s-.07-.06-.1-.09c-.54-.53-.81-1.31-.81-2.32v-6.58h.91Zm0,16.16v1.62h-.17v-1.62h.17Zm0,9.05l-2.85-9.05h-.89v2.59h0s.89,3.41,.89,3.41h-.89v1.62h1.32l.51,1.95h1.9v-.52h0Zm-3.73-15.64v-1.6h1.95v1.6h-1.95Zm0-1.6v1.6h-3.38v-9.57h1.93v7.97h1.45Zm0,8.19v2.59l-.89,3.41h.89v1.62h-1.31l-.51,1.95h-2.04l2.99-9.57h.88Zm-8.17,9.69v-1.63c.13,.03,.27,.05,.42,.05,.51,0,.86-.12,1.05-.37,.19-.25,.3-.7,.33-1.34h1.93c-.05,1.09-.35,1.92-.92,2.48-.57,.56-1.36,.84-2.39,.84-.14,0-.29,0-.42-.02h0Zm0-8.17v-1.64c.14-.01,.29-.02,.45-.02,1.04,0,1.84,.29,2.38,.87,.54,.58,.85,1.42,.92,2.51h-1.94c-.02-.68-.12-1.14-.31-1.4-.19-.26-.54-.38-1.05-.38-.16,0-.31,.02-.45,.06h0Zm0-10.06v-1.62h.89l-.89-3.42h0s0-2.59,0-2.59h.89l3.01,9.57h-2.07l-.51-1.95h-1.32Zm-3.76-7.62h.11l-.11,.38v-.38h0Zm3.76,0h-.88l-2.88,9.23v.35h1.94l.51-1.95h1.31v-1.62h-.89l.89-3.41v-2.59h0Zm0,16.05v1.64c-.29,.08-.5,.24-.65,.49-.21,.36-.33,.96-.34,1.79v1.81c0,.95,.11,1.61,.32,1.96,.15,.25,.37,.41,.67,.49v1.63c-.88-.08-1.57-.43-2.07-1.05-.58-.71-.87-1.73-.87-3.05v-1.61c0-1.32,.3-2.33,.89-3.04,.51-.61,1.19-.96,2.04-1.05Zm-7.42-9.11l1.61-6.94h2.05v.38l-2.65,9.2h-2.01l-2.74-9.57h2.14l1.6,6.94h0Zm3.66,2.28l-.11,.35h.11v-.35h0Zm-11.18,16.47v-1.62c.34-.08,.59-.23,.76-.45,.26-.34,.4-.92,.41-1.76v-1.66c0-.9-.13-1.52-.37-1.87-.18-.25-.45-.42-.8-.5v-1.64c.85,.1,1.55,.45,2.1,1.03,.66,.71,1,1.68,1.01,2.92v1.55c0,1.26-.33,2.25-.99,2.96-.54,.58-1.25,.93-2.12,1.04h0Zm10.72-9.54v6.63c0,1-.28,1.76-.82,2.29-.54,.53-1.31,.79-2.32,.79s-1.81-.27-2.35-.8c-.54-.53-.81-1.31-.81-2.32v-6.58h1.95v6.59c0,.54,.09,.93,.26,1.16,.17,.23,.49,.35,.95,.35s.78-.11,.95-.35c.17-.23,.26-.61,.26-1.14v-6.63h1.93Zm-10.72,.03v1.64c-.14-.03-.3-.05-.47-.06h-.7v6.36h.58c.22,0,.42-.02,.6-.06v1.62c-.2,.02-.41,.04-.63,.04h-2.48v-9.57h2.53c.2,0,.39,.01,.58,.03h0Zm-4.77,5.41h-3.01v2.53h3.56v1.6h-5.5v-9.57h5.48v1.62h-3.55v2.26h3.01v1.56Z" style="fill:#1a1a18; fill-rule:evenodd;"/><path d="M43.96,45.88c.08,.02,.16,.02,.24,.02,.56,0,1.05-.39,1.17-.95,.13-.65-.28-1.28-.93-1.41-3.07-.63-5.57-2.87-6.54-5.85-.2-.63-.88-.97-1.5-.77-.63,.2-.97,.88-.77,1.5,1.23,3.8,4.42,6.66,8.33,7.46Z" style="fill:#fff; fill-rule:evenodd;"/><path d="M68.76,28.69c0,2.01-.83,3.86-2.2,5.19v3.01c2.78-1.71,4.58-4.79,4.58-8.2v-5.1c0-.66-.54-1.19-1.19-1.19h-3.39v2.39h2.2v3.9Zm-2.2,5.19c-.63,.61-1.37,1.11-2.2,1.47v-10.56h2.2v-2.39h-2.34v-1.3c0-.66-.54-1.19-1.19-1.19h-15.83v2.39h14.64v14.3c0,6.79-5.53,12.32-12.32,12.32h-2.32v14.56h8.72v1.29h-8.72v2.39h9.91c.66,0,1.19-.53,1.19-1.19v-3.68c0-.66-.53-1.19-1.19-1.19h-8.72v-9.79h1.12c7.65,0,13.96-5.87,14.65-13.35,.86-.24,1.66-.6,2.4-1.06v-3.01Zm-19.37-13.98v2.39h-14.64v14.3c0,6.79,5.53,12.32,12.32,12.32h2.32v14.56h-8.72v1.29h8.72v2.39h-9.91c-.66,0-1.19-.53-1.19-1.19v-3.68c0-.66,.54-1.19,1.19-1.19h8.72v-9.79h-1.12c-7.67,0-13.98-5.9-14.65-13.39-.8-.24-1.56-.59-2.26-1.02v-3.01c.63,.61,1.37,1.11,2.2,1.47v-10.56h-2.2v-2.39h2.2v-1.3c0-.66,.54-1.19,1.19-1.19h15.83Zm-19.23,2.5v2.39h-2.2v3.9c0,2.01,.83,3.86,2.2,5.19v3.01c-2.78-1.71-4.58-4.79-4.58-8.2v-5.09c0-.66,.53-1.2,1.19-1.2h3.39Z" style="fill:#fff; fill-rule:evenodd;"/></g></g></svg>