<svg id="Group_2456" data-name="Group 2456" xmlns="http://www.w3.org/2000/svg" xmlns:xlink="http://www.w3.org/1999/xlink" width="96.06" height="116.871" viewBox="0 0 96.06 116.871">
  <defs>
    <clipPath id="clip-path">
      <rect id="Rectangle_1568" data-name="Rectangle 1568" width="96.06" height="116.872" transform="translate(0 0)" fill="none"/>
    </clipPath>
  </defs>
  <g id="Group_2455" data-name="Group 2455" clipPath="url(#clip-path)">
    <path id="Path_3013" data-name="Path 3013" d="M5.916,0H73.141L96,22.507v88.449a5.934,5.934,0,0,1-5.916,5.916H5.916A5.933,5.933,0,0,1,0,110.956V5.915A5.932,5.932,0,0,1,5.916,0" fill="#8994CA" fillRule="evenodd"/>
    <path id="Path_3014" data-name="Path 3014" d="M96.06,22.546l-18.335.024a4.6,4.6,0,0,1-4.585-4.586V0Z" fill="#fff" fillRule="evenodd"/>
    <path id="Path_3015" data-name="Path 3015" d="M41,86.986h3.754v1.036H39.79V78.448H41Zm7.332-3.376-.94,1.138v3.274h-1.2V78.448h1.2v4.623l.79-1.046,2.576-3.577h1.448L49.1,82.663l3.353,5.359H51.01Zm10.982,3.224-.208.263a3.306,3.306,0,0,1-2.658,1.06,3.034,3.034,0,0,1-2.435-1.031,4.409,4.409,0,0,1-.9-2.911V82.332a4.749,4.749,0,0,1,.806-3.016,3.392,3.392,0,0,1,4.549-.242,3.172,3.172,0,0,1,.851,2.176h-1.2a2.423,2.423,0,0,0-.5-1.4,1.592,1.592,0,0,0-1.286-.5,1.725,1.725,0,0,0-1.51.674,3.853,3.853,0,0,0-.5,2.152v1.953a3.789,3.789,0,0,0,.551,2.22,1.831,1.831,0,0,0,1.585.772,2.1,2.1,0,0,0,1.479-.471l.178-.162V84.292H56.363V83.255h2.951ZM20.978,97.659H19.3v3.865h-1.21V91.95h2.682a2.865,2.865,0,0,1,2.131.733,2.943,2.943,0,0,1,.724,2.151,3,3,0,0,1-.392,1.55,2.475,2.475,0,0,1-1.107,1l1.854,4.062v.079h-1.3ZM19.3,96.622h1.459a1.566,1.566,0,0,0,1.208-.487,1.845,1.845,0,0,0,.448-1.3q0-1.847-1.67-1.846H19.3Zm10.526.485H26.434v3.38H30.38v1.037H25.232V91.95h5.083v1.036H26.434V96.07h3.387ZM36.1,99.1a1.479,1.479,0,0,0-.388-1.1,4.024,4.024,0,0,0-1.4-.743,6.005,6.005,0,0,1-1.549-.758,2.662,2.662,0,0,1-.8-.909,2.691,2.691,0,0,1,.494-3.044,2.732,2.732,0,0,1,1.988-.736,2.959,2.959,0,0,1,1.5.378,2.585,2.585,0,0,1,1.012,1.048,3.1,3.1,0,0,1,.355,1.472H36.1a2.013,2.013,0,0,0-.427-1.374,1.548,1.548,0,0,0-1.23-.487,1.515,1.515,0,0,0-1.131.409,1.566,1.566,0,0,0-.4,1.145,1.339,1.339,0,0,0,.435,1.014,3.812,3.812,0,0,0,1.34.732A4.608,4.608,0,0,1,36.707,97.3a2.591,2.591,0,0,1,.609,1.791,2.419,2.419,0,0,1-.757,1.866,2.912,2.912,0,0,1-2.058.7,3.279,3.279,0,0,1-1.542-.367,2.761,2.761,0,0,1-1.111-1.027,2.858,2.858,0,0,1-.4-1.517h1.209a1.86,1.86,0,0,0,.5,1.379,1.834,1.834,0,0,0,1.352.5,1.6,1.6,0,0,0,1.2-.409,1.516,1.516,0,0,0,.4-1.111m9.025-1.524a4.786,4.786,0,0,1-.835,3.021,2.846,2.846,0,0,1-2.375,1.06,2.881,2.881,0,0,1-2.338-1.031,4.56,4.56,0,0,1-.891-2.911v-1.8a4.789,4.789,0,0,1,.848-3.013A2.836,2.836,0,0,1,41.9,91.814a2.865,2.865,0,0,1,2.356,1.044,4.7,4.7,0,0,1,.867,2.976ZM43.919,95.9a4.09,4.09,0,0,0-.5-2.258,1.908,1.908,0,0,0-3.023.011,3.957,3.957,0,0,0-.516,2.209v1.714a4.034,4.034,0,0,0,.51,2.234,1.913,1.913,0,0,0,3.021.06,3.99,3.99,0,0,0,.5-2.175Zm8.773-3.952v6.806A3.1,3.1,0,0,1,47.57,100.9a2.953,2.953,0,0,1-.763-2.149V91.95H48V98.7a2.166,2.166,0,0,0,.413,1.443,2.088,2.088,0,0,0,2.654,0,2.166,2.166,0,0,0,.411-1.443V91.95Zm4.747,5.709H55.756v3.865h-1.21V91.95h2.682a2.863,2.863,0,0,1,2.13.733,2.943,2.943,0,0,1,.725,2.151,3,3,0,0,1-.393,1.55,2.467,2.467,0,0,1-1.106,1l1.854,4.062v.079H59.143Zm-1.683-1.037h1.458a1.564,1.564,0,0,0,1.208-.487,1.841,1.841,0,0,0,.449-1.3q0-1.847-1.67-1.846H55.756ZM67.7,98.478a3.56,3.56,0,0,1-.864,2.359,2.928,2.928,0,0,1-2.22.822,2.744,2.744,0,0,1-2.287-1.1,4.735,4.735,0,0,1-.848-2.972V95.855a4.585,4.585,0,0,1,.87-2.954,2.881,2.881,0,0,1,2.377-1.087,2.754,2.754,0,0,1,2.146.831,3.638,3.638,0,0,1,.826,2.377H66.48a2.94,2.94,0,0,0-.5-1.67,1.535,1.535,0,0,0-1.261-.5,1.719,1.719,0,0,0-1.506.766,3.971,3.971,0,0,0-.525,2.244v1.756a4.172,4.172,0,0,0,.49,2.228,1.583,1.583,0,0,0,1.429.777,1.735,1.735,0,0,0,1.356-.467,2.947,2.947,0,0,0,.512-1.677Zm6.219-1.371H70.528v3.38h3.946v1.037H69.325V91.95h5.084v1.036H70.528V96.07h3.387ZM80.193,99.1a1.479,1.479,0,0,0-.388-1.1,4.015,4.015,0,0,0-1.4-.743,6,6,0,0,1-1.548-.758,2.676,2.676,0,0,1-.8-.909,2.691,2.691,0,0,1,.494-3.044,2.733,2.733,0,0,1,1.989-.736,2.957,2.957,0,0,1,1.5.378,2.579,2.579,0,0,1,1.012,1.048,3.1,3.1,0,0,1,.355,1.472h-1.21a2.018,2.018,0,0,0-.426-1.374,1.551,1.551,0,0,0-1.23-.487,1.516,1.516,0,0,0-1.132.409A1.566,1.566,0,0,0,77,94.4a1.335,1.335,0,0,0,.435,1.014,3.812,3.812,0,0,0,1.34.732A4.614,4.614,0,0,1,80.8,97.3a2.59,2.59,0,0,1,.608,1.791,2.419,2.419,0,0,1-.756,1.866,2.909,2.909,0,0,1-2.058.7,3.279,3.279,0,0,1-1.542-.367,2.774,2.774,0,0,1-1.111-1.027,2.858,2.858,0,0,1-.4-1.517h1.21a1.856,1.856,0,0,0,.5,1.379,1.828,1.828,0,0,0,1.351.5,1.6,1.6,0,0,0,1.2-.409,1.516,1.516,0,0,0,.4-1.111" fill="#2b2a29" fillRule="evenodd"/>
    <path id="Path_3016" data-name="Path 3016" d="M41,86.986h3.754v1.036H39.79V78.448H41Zm7.332-3.376-.94,1.138v3.274h-1.2V78.448h1.2v4.623l.79-1.046,2.576-3.577h1.448L49.1,82.663l3.353,5.359H51.01Zm10.982,3.224-.208.263a3.306,3.306,0,0,1-2.658,1.06,3.034,3.034,0,0,1-2.435-1.031,4.409,4.409,0,0,1-.9-2.911V82.332a4.749,4.749,0,0,1,.806-3.016,3.392,3.392,0,0,1,4.549-.242,3.172,3.172,0,0,1,.851,2.176h-1.2a2.423,2.423,0,0,0-.5-1.4,1.592,1.592,0,0,0-1.286-.5,1.725,1.725,0,0,0-1.51.674,3.853,3.853,0,0,0-.5,2.152v1.953a3.789,3.789,0,0,0,.551,2.22,1.831,1.831,0,0,0,1.585.772,2.1,2.1,0,0,0,1.479-.471l.178-.162V84.292H56.363V83.255h2.951ZM20.978,97.659H19.3v3.865h-1.21V91.95h2.682a2.865,2.865,0,0,1,2.131.733,2.943,2.943,0,0,1,.724,2.151,3,3,0,0,1-.392,1.55,2.475,2.475,0,0,1-1.107,1l1.854,4.062v.079h-1.3ZM19.3,96.622h1.459a1.566,1.566,0,0,0,1.208-.487,1.845,1.845,0,0,0,.448-1.3q0-1.847-1.67-1.846H19.3Zm10.526.485H26.434v3.38H30.38v1.037H25.232V91.95h5.083v1.036H26.434V96.07h3.387ZM36.1,99.1a1.479,1.479,0,0,0-.388-1.1,4.024,4.024,0,0,0-1.4-.743,6.005,6.005,0,0,1-1.549-.758,2.662,2.662,0,0,1-.8-.909,2.691,2.691,0,0,1,.494-3.044,2.732,2.732,0,0,1,1.988-.736,2.959,2.959,0,0,1,1.5.378,2.585,2.585,0,0,1,1.012,1.048,3.1,3.1,0,0,1,.355,1.472H36.1a2.013,2.013,0,0,0-.427-1.374,1.548,1.548,0,0,0-1.23-.487,1.515,1.515,0,0,0-1.131.409,1.566,1.566,0,0,0-.4,1.145,1.339,1.339,0,0,0,.435,1.014,3.812,3.812,0,0,0,1.34.732A4.608,4.608,0,0,1,36.707,97.3a2.591,2.591,0,0,1,.609,1.791,2.419,2.419,0,0,1-.757,1.866,2.912,2.912,0,0,1-2.058.7,3.279,3.279,0,0,1-1.542-.367,2.761,2.761,0,0,1-1.111-1.027,2.858,2.858,0,0,1-.4-1.517h1.209a1.86,1.86,0,0,0,.5,1.379,1.834,1.834,0,0,0,1.352.5,1.6,1.6,0,0,0,1.2-.409A1.516,1.516,0,0,0,36.1,99.1Zm9.025-1.524a4.786,4.786,0,0,1-.835,3.021,2.846,2.846,0,0,1-2.375,1.06,2.881,2.881,0,0,1-2.338-1.031,4.56,4.56,0,0,1-.891-2.911v-1.8a4.789,4.789,0,0,1,.848-3.013A2.836,2.836,0,0,1,41.9,91.814a2.865,2.865,0,0,1,2.356,1.044,4.7,4.7,0,0,1,.867,2.976ZM43.919,95.9a4.09,4.09,0,0,0-.5-2.258,1.908,1.908,0,0,0-3.023.011,3.957,3.957,0,0,0-.516,2.209v1.714a4.034,4.034,0,0,0,.51,2.234,1.913,1.913,0,0,0,3.021.06,3.99,3.99,0,0,0,.5-2.175Zm8.773-3.952v6.806A3.1,3.1,0,0,1,47.57,100.9a2.953,2.953,0,0,1-.763-2.149V91.95H48V98.7a2.166,2.166,0,0,0,.413,1.443,2.088,2.088,0,0,0,2.654,0,2.166,2.166,0,0,0,.411-1.443V91.95Zm4.747,5.709H55.756v3.865h-1.21V91.95h2.682a2.863,2.863,0,0,1,2.13.733,2.943,2.943,0,0,1,.725,2.151,3,3,0,0,1-.393,1.55,2.467,2.467,0,0,1-1.106,1l1.854,4.062v.079H59.143Zm-1.683-1.037h1.458a1.564,1.564,0,0,0,1.208-.487,1.841,1.841,0,0,0,.449-1.3q0-1.847-1.67-1.846H55.756ZM67.7,98.478a3.56,3.56,0,0,1-.864,2.359,2.928,2.928,0,0,1-2.22.822,2.744,2.744,0,0,1-2.287-1.1,4.735,4.735,0,0,1-.848-2.972V95.855a4.585,4.585,0,0,1,.87-2.954,2.881,2.881,0,0,1,2.377-1.087,2.754,2.754,0,0,1,2.146.831,3.638,3.638,0,0,1,.826,2.377H66.48a2.94,2.94,0,0,0-.5-1.67,1.535,1.535,0,0,0-1.261-.5,1.719,1.719,0,0,0-1.506.766,3.971,3.971,0,0,0-.525,2.244v1.756a4.172,4.172,0,0,0,.49,2.228,1.583,1.583,0,0,0,1.429.777,1.735,1.735,0,0,0,1.356-.467,2.947,2.947,0,0,0,.512-1.677Zm6.219-1.371H70.528v3.38h3.946v1.037H69.325V91.95h5.084v1.036H70.528V96.07h3.387ZM80.193,99.1a1.479,1.479,0,0,0-.388-1.1,4.015,4.015,0,0,0-1.4-.743,6,6,0,0,1-1.548-.758,2.676,2.676,0,0,1-.8-.909,2.691,2.691,0,0,1,.494-3.044,2.733,2.733,0,0,1,1.989-.736,2.957,2.957,0,0,1,1.5.378,2.579,2.579,0,0,1,1.012,1.048,3.1,3.1,0,0,1,.355,1.472h-1.21a2.018,2.018,0,0,0-.426-1.374,1.551,1.551,0,0,0-1.23-.487,1.516,1.516,0,0,0-1.132.409A1.566,1.566,0,0,0,77,94.4a1.335,1.335,0,0,0,.435,1.014,3.812,3.812,0,0,0,1.34.732A4.614,4.614,0,0,1,80.8,97.3a2.59,2.59,0,0,1,.608,1.791,2.419,2.419,0,0,1-.756,1.866,2.909,2.909,0,0,1-2.058.7,3.279,3.279,0,0,1-1.542-.367,2.774,2.774,0,0,1-1.111-1.027,2.858,2.858,0,0,1-.4-1.517h1.21a1.856,1.856,0,0,0,.5,1.379,1.828,1.828,0,0,0,1.351.5,1.6,1.6,0,0,0,1.2-.409A1.516,1.516,0,0,0,80.193,99.1Z" fill="none" stroke="#000" strokeMiterlimit="10" strokeWidth="0.5"/>
    <path id="Path_3017" data-name="Path 3017" d="M40.623,32.1c1,0,1.508-.755,2.764-1.006,2.765-.754,6.786-.251,9.048,1.76,8.043,6.283,4.776,6.786,15.081,7.791,2.261.251,4.272.754,3.518,4.02-.251,1.258-6.032,6.284-7.289,7.792,0,1.005,2.566,5.3-.952,7.308-2.262,1.508-4.359.394-6.085-.271-.754.754-5.53,5.781-6.535,6.535-1.508,1.005-3.77.5-4.272-1.256-.5-1.257-.5-4.273-.754-6.033-1.006-4.524-2.514-5.026-5.027-8.042-3.267-3.77-4.524-4.524-4.524-9.8,0-3.519,2.011-3.016-.5-5.278L25.218,24.4c-1.633-3.275,2.406-5.772,5.106-3.908l6.78,7.586A28.6,28.6,0,0,1,40.623,32.1ZM55.429,60.8l9.212-9.212" fill="none" stroke="#fff" strokeMiterlimit="22.926" strokeWidth="2"/>
  </g>
</svg>
