<svg id="Group_2417" data-name="Group 2417" xmlns="http://www.w3.org/2000/svg" xmlns:xlink="http://www.w3.org/1999/xlink" width="96.06" height="117.061" viewBox="0 0 96.06 117.061">
  <defs>
    <clipPath id="clip-path">
      <rect id="Rectangle_1547" data-name="Rectangle 1547" width="96.06" height="117.06" fill="none"/>
    </clipPath>
  </defs>
  <g id="Group_2416" data-name="Group 2416" clipPath="url(#clip-path)">
    <path id="Path_2863" data-name="Path 2863" d="M5.915,0H73.141L96,22.507v88.638a5.933,5.933,0,0,1-5.915,5.915H5.915A5.933,5.933,0,0,1,0,111.145V5.916A5.933,5.933,0,0,1,5.915,0" fill="#74b8aa" fillRule="evenodd"/>
    <path id="Path_2864" data-name="Path 2864" d="M96.06,22.547l-18.335.023a4.6,4.6,0,0,1-4.586-4.585V0Z" fill="#fff" fillRule="evenodd"/>
    <path id="Path_2865" data-name="Path 2865" d="M23.006,76.547l2.5,7.814L28,76.547h1.551v9.575h-1.2V82.395l.113-3.738L25.96,86.122h-.921l-2.493-7.438.112,3.711v3.727h-1.2V76.547Zm9.878,9.575H31.678V76.548h1.206Zm8.36,0H40.035L36.2,78.744v7.378h-1.21V76.547H36.2l3.847,7.411V76.547h1.2Zm2.088,0V76.547h2.283a3.3,3.3,0,0,1,2.6,1.049,4.3,4.3,0,0,1,.927,2.948v1.605a4.21,4.21,0,0,1-.941,2.938,3.494,3.494,0,0,1-2.726,1.035Zm1.2-8.538v7.5H45.5a2.236,2.236,0,0,0,1.854-.727,3.42,3.42,0,0,0,.6-2.153v-1.7a3.46,3.46,0,0,0-.581-2.217,2.144,2.144,0,0,0-1.759-.708Zm11.117-1.037,2.5,7.814,2.5-7.814H62.2v9.575H61V82.395l.113-3.738-2.506,7.465h-.92l-2.493-7.438.112,3.711v3.727H54.1V76.547Zm13.2,7.071H65.621l-.743,2.5H63.644l3.084-9.575h1.03l3.09,9.575H69.614Zm-2.92-1.038h2.61L67.24,78.231Zm7.415-.2v3.744h-1.2V76.547H75.2a2.76,2.76,0,0,1,2.1.8,2.962,2.962,0,0,1,.763,2.13,2.921,2.921,0,0,1-.727,2.128,2.806,2.806,0,0,1-2.047.774Zm0-1.037H75.2a1.559,1.559,0,0,0,1.23-.48,2.019,2.019,0,0,0,.426-1.375,2.058,2.058,0,0,0-.44-1.381,1.5,1.5,0,0,0-1.21-.521H73.353ZM10.333,99.624h-1.2V90.049h1.2Zm8.36,0H17.484L13.65,92.246v7.378H12.44V90.049h1.21L17.5,97.46V90.049h1.2Zm6.527-4.229H21.984v4.229h-1.2V90.049h4.985v1.037H21.984v3.272H25.22Zm8.262.283a4.786,4.786,0,0,1-.835,3.021,2.845,2.845,0,0,1-2.374,1.059,2.881,2.881,0,0,1-2.339-1.03,4.567,4.567,0,0,1-.891-2.911v-1.8A4.788,4.788,0,0,1,27.891,91a3.149,3.149,0,0,1,4.724-.045,4.693,4.693,0,0,1,.867,2.976ZM32.277,94a4.089,4.089,0,0,0-.5-2.257,1.907,1.907,0,0,0-3.023.011,3.946,3.946,0,0,0-.517,2.208v1.715a4.032,4.032,0,0,0,.51,2.234,1.914,1.914,0,0,0,3.021.06,3.993,3.993,0,0,0,.505-2.175Zm9.054,4.435-.209.263a3.3,3.3,0,0,1-2.657,1.059,3.033,3.033,0,0,1-2.435-1.03,4.4,4.4,0,0,1-.9-2.911V93.934a4.739,4.739,0,0,1,.806-3.016,3.391,3.391,0,0,1,4.549-.243,3.184,3.184,0,0,1,.851,2.177h-1.2a2.42,2.42,0,0,0-.5-1.4,1.591,1.591,0,0,0-1.287-.5,1.727,1.727,0,0,0-1.51.674,3.853,3.853,0,0,0-.5,2.152V95.73a3.785,3.785,0,0,0,.552,2.219,1.83,1.83,0,0,0,1.584.773,2.093,2.093,0,0,0,1.479-.472l.178-.162V95.894H38.379V94.857h2.952Zm4.861-2.677H44.509v3.865H43.3V90.049h2.682a2.862,2.862,0,0,1,2.13.734,2.94,2.94,0,0,1,.725,2.15,3,3,0,0,1-.392,1.551,2.486,2.486,0,0,1-1.107,1l1.854,4.062v.079H47.9Zm-1.683-1.037h1.459a1.564,1.564,0,0,0,1.207-.487,1.844,1.844,0,0,0,.449-1.3q0-1.845-1.67-1.845H44.509Zm10.4,2.4H51.673l-.743,2.5H49.7l3.084-9.575h1.03l3.09,9.575H55.666ZM51.99,96.082H54.6l-1.309-4.35Zm7.415-.2v3.744H58.2V90.049h3.053a2.762,2.762,0,0,1,2.1.8,2.959,2.959,0,0,1,.763,2.13,2.923,2.923,0,0,1-.728,2.128,2.806,2.806,0,0,1-2.046.774Zm0-1.037h1.85a1.56,1.56,0,0,0,1.23-.48,2.02,2.02,0,0,0,.426-1.376,2.062,2.062,0,0,0-.44-1.381,1.5,1.5,0,0,0-1.21-.52H59.4Zm12.526,4.781h-1.21V95.207H66.87v4.417H65.665V90.049H66.87V94.17h3.851V90.049h1.21Zm3.344,0H74.07V90.049h1.205Zm8.114-3.046a3.558,3.558,0,0,1-.864,2.359,2.924,2.924,0,0,1-2.22.821,2.744,2.744,0,0,1-2.287-1.1,4.74,4.74,0,0,1-.848-2.971V93.955A4.585,4.585,0,0,1,78.04,91a2.884,2.884,0,0,1,2.377-1.087,2.757,2.757,0,0,1,2.146.83,3.634,3.634,0,0,1,.826,2.377H82.173a2.954,2.954,0,0,0-.494-1.67,1.541,1.541,0,0,0-1.262-.5,1.719,1.719,0,0,0-1.506.766,3.968,3.968,0,0,0-.525,2.244v1.755a4.173,4.173,0,0,0,.49,2.229,1.585,1.585,0,0,0,1.429.777,1.731,1.731,0,0,0,1.356-.467,2.939,2.939,0,0,0,.512-1.677ZM89.2,97.2a1.475,1.475,0,0,0-.388-1.1,3.981,3.981,0,0,0-1.4-.743,6.077,6.077,0,0,1-1.548-.759,2.686,2.686,0,0,1-.8-.909,2.69,2.69,0,0,1,.494-3.043,2.73,2.73,0,0,1,1.989-.737,2.967,2.967,0,0,1,1.5.377,2.591,2.591,0,0,1,1.012,1.048,3.112,3.112,0,0,1,.355,1.473H89.2a2.017,2.017,0,0,0-.426-1.374,1.55,1.55,0,0,0-1.23-.487,1.516,1.516,0,0,0-1.132.409,1.563,1.563,0,0,0-.4,1.145,1.337,1.337,0,0,0,.435,1.014,3.828,3.828,0,0,0,1.34.732A4.608,4.608,0,0,1,89.808,95.4a2.588,2.588,0,0,1,.609,1.791,2.417,2.417,0,0,1-.757,1.865,2.908,2.908,0,0,1-2.058.7,3.281,3.281,0,0,1-1.542-.366,2.774,2.774,0,0,1-1.111-1.027,2.864,2.864,0,0,1-.4-1.518h1.21a1.86,1.86,0,0,0,.5,1.381,1.833,1.833,0,0,0,1.351.494,1.606,1.606,0,0,0,1.2-.409,1.518,1.518,0,0,0,.4-1.111" fill="#2b2a29" fillRule="evenodd"/>
    <path id="Path_2866" data-name="Path 2866" d="M23.006,76.547l2.5,7.814L28,76.547h1.551v9.575h-1.2V82.395l.113-3.738L25.96,86.122h-.921l-2.493-7.438.112,3.711v3.727h-1.2V76.547Zm9.878,9.575H31.678V76.548h1.206Zm8.36,0H40.035L36.2,78.744v7.378h-1.21V76.547H36.2l3.847,7.411V76.547h1.2Zm2.088,0V76.547h2.283a3.3,3.3,0,0,1,2.6,1.049,4.3,4.3,0,0,1,.927,2.948v1.605a4.21,4.21,0,0,1-.941,2.938,3.494,3.494,0,0,1-2.726,1.035Zm1.2-8.538v7.5H45.5a2.236,2.236,0,0,0,1.854-.727,3.42,3.42,0,0,0,.6-2.153v-1.7a3.46,3.46,0,0,0-.581-2.217,2.144,2.144,0,0,0-1.759-.708Zm11.117-1.037,2.5,7.814,2.5-7.814H62.2v9.575H61V82.395l.113-3.738-2.506,7.465h-.92l-2.493-7.438.112,3.711v3.727H54.1V76.547Zm13.2,7.071H65.621l-.743,2.5H63.644l3.084-9.575h1.03l3.09,9.575H69.614Zm-2.92-1.038h2.61L67.24,78.231Zm7.415-.2v3.744h-1.2V76.547H75.2a2.76,2.76,0,0,1,2.1.8,2.962,2.962,0,0,1,.763,2.13,2.921,2.921,0,0,1-.727,2.128,2.806,2.806,0,0,1-2.047.774Zm0-1.037H75.2a1.559,1.559,0,0,0,1.23-.48,2.019,2.019,0,0,0,.426-1.375,2.058,2.058,0,0,0-.44-1.381,1.5,1.5,0,0,0-1.21-.521H73.353ZM10.333,99.624h-1.2V90.049h1.2Zm8.36,0H17.484L13.65,92.246v7.378H12.44V90.049h1.21L17.5,97.46V90.049h1.2Zm6.527-4.229H21.984v4.229h-1.2V90.049h4.985v1.037H21.984v3.272H25.22Zm8.262.283a4.786,4.786,0,0,1-.835,3.021,2.845,2.845,0,0,1-2.374,1.059,2.881,2.881,0,0,1-2.339-1.03,4.567,4.567,0,0,1-.891-2.911v-1.8A4.788,4.788,0,0,1,27.891,91a3.149,3.149,0,0,1,4.724-.045,4.693,4.693,0,0,1,.867,2.976ZM32.277,94a4.089,4.089,0,0,0-.5-2.257,1.907,1.907,0,0,0-3.023.011,3.946,3.946,0,0,0-.517,2.208v1.715a4.032,4.032,0,0,0,.51,2.234,1.914,1.914,0,0,0,3.021.06,3.993,3.993,0,0,0,.505-2.175Zm9.054,4.435-.209.263a3.3,3.3,0,0,1-2.657,1.059,3.033,3.033,0,0,1-2.435-1.03,4.4,4.4,0,0,1-.9-2.911V93.934a4.739,4.739,0,0,1,.806-3.016,3.391,3.391,0,0,1,4.549-.243,3.184,3.184,0,0,1,.851,2.177h-1.2a2.42,2.42,0,0,0-.5-1.4,1.591,1.591,0,0,0-1.287-.5,1.727,1.727,0,0,0-1.51.674,3.853,3.853,0,0,0-.5,2.152V95.73a3.785,3.785,0,0,0,.552,2.219,1.83,1.83,0,0,0,1.584.773,2.093,2.093,0,0,0,1.479-.472l.178-.162V95.894H38.379V94.857h2.952Zm4.861-2.677H44.509v3.865H43.3V90.049h2.682a2.862,2.862,0,0,1,2.13.734,2.94,2.94,0,0,1,.725,2.15,3,3,0,0,1-.392,1.551,2.486,2.486,0,0,1-1.107,1l1.854,4.062v.079H47.9Zm-1.683-1.037h1.459a1.564,1.564,0,0,0,1.207-.487,1.844,1.844,0,0,0,.449-1.3q0-1.845-1.67-1.845H44.509Zm10.4,2.4H51.673l-.743,2.5H49.7l3.084-9.575h1.03l3.09,9.575H55.666ZM51.99,96.082H54.6l-1.309-4.35Zm7.415-.2v3.744H58.2V90.049h3.053a2.762,2.762,0,0,1,2.1.8,2.959,2.959,0,0,1,.763,2.13,2.923,2.923,0,0,1-.728,2.128,2.806,2.806,0,0,1-2.046.774Zm0-1.037h1.85a1.56,1.56,0,0,0,1.23-.48,2.02,2.02,0,0,0,.426-1.376,2.062,2.062,0,0,0-.44-1.381,1.5,1.5,0,0,0-1.21-.52H59.4Zm12.526,4.781h-1.21V95.207H66.87v4.417H65.665V90.049H66.87V94.17h3.851V90.049h1.21Zm3.344,0H74.07V90.049h1.205Zm8.114-3.046a3.558,3.558,0,0,1-.864,2.359,2.924,2.924,0,0,1-2.22.821,2.744,2.744,0,0,1-2.287-1.1,4.74,4.74,0,0,1-.848-2.971V93.955A4.585,4.585,0,0,1,78.04,91a2.884,2.884,0,0,1,2.377-1.087,2.757,2.757,0,0,1,2.146.83,3.634,3.634,0,0,1,.826,2.377H82.173a2.954,2.954,0,0,0-.494-1.67,1.541,1.541,0,0,0-1.262-.5,1.719,1.719,0,0,0-1.506.766,3.968,3.968,0,0,0-.525,2.244v1.755a4.173,4.173,0,0,0,.49,2.229,1.585,1.585,0,0,0,1.429.777,1.731,1.731,0,0,0,1.356-.467,2.939,2.939,0,0,0,.512-1.677ZM89.2,97.2a1.475,1.475,0,0,0-.388-1.1,3.981,3.981,0,0,0-1.4-.743,6.077,6.077,0,0,1-1.548-.759,2.686,2.686,0,0,1-.8-.909,2.69,2.69,0,0,1,.494-3.043,2.73,2.73,0,0,1,1.989-.737,2.967,2.967,0,0,1,1.5.377,2.591,2.591,0,0,1,1.012,1.048,3.112,3.112,0,0,1,.355,1.473H89.2a2.017,2.017,0,0,0-.426-1.374,1.55,1.55,0,0,0-1.23-.487,1.516,1.516,0,0,0-1.132.409,1.563,1.563,0,0,0-.4,1.145,1.337,1.337,0,0,0,.435,1.014,3.828,3.828,0,0,0,1.34.732A4.608,4.608,0,0,1,89.808,95.4a2.588,2.588,0,0,1,.609,1.791,2.417,2.417,0,0,1-.757,1.865,2.908,2.908,0,0,1-2.058.7,3.281,3.281,0,0,1-1.542-.366,2.774,2.774,0,0,1-1.111-1.027,2.864,2.864,0,0,1-.4-1.518h1.21a1.86,1.86,0,0,0,.5,1.381,1.833,1.833,0,0,0,1.351.494,1.606,1.606,0,0,0,1.2-.409A1.518,1.518,0,0,0,89.2,97.2Z" fill="none" stroke="#000" strokeMiterlimit="10" strokeWidth="0.5"/>
    <path id="Path_2867" data-name="Path 2867" d="M69.592,48.6a4.476,4.476,0,0,1-4.16,2.98A1.1,1.1,0,0,0,64.4,53.065a4.866,4.866,0,0,1,.277,2.06,3.924,3.924,0,0,1-2.145,3.4,2.776,2.776,0,0,1-3.243-.848c-.013-.013-.028-.024-.041-.037a1.564,1.564,0,0,0-.115-.128c-.123-.089-2.985-2.236-2.309-5.357a1.1,1.1,0,0,0-2.144-.466A7.58,7.58,0,0,0,57.269,58.8c-.374,1.6-1.886,6.09-7.043,5.718a2.449,2.449,0,0,1-1.927-2.6V58.587c1.594-.285,3.6-1.466,4.128-4.692a1.1,1.1,0,0,0-.9-1.26,1.086,1.086,0,0,0-1.26.9c-.308,1.86-1.22,2.552-1.963,2.8V46c1.394-.474,7.246-2.165,9.882,1.791a1.1,1.1,0,0,0,.915.487,1.1,1.1,0,0,0,.909-1.7C56.841,41.831,50.8,42.976,48.3,43.7V31.6a9.236,9.236,0,0,1,6.592,2.962,1.1,1.1,0,1,0,1.691-1.4A11.362,11.362,0,0,0,48.3,29.4V23.83a3.389,3.389,0,0,1,1.824-3.193,5.825,5.825,0,0,1,2.165-.443c3.436,0,5.342,3.533,5.7,4.258.012.735-.085,3.172-1.886,4.235a1.1,1.1,0,0,0,1.117,1.891A6.68,6.68,0,0,0,60.169,25c.074-.007.146-.023.221-.023,1.777,0,3.225,1.788,3.225,3.987a4.848,4.848,0,0,1-.41,1.96,1.1,1.1,0,0,0,.157,1.135,1.086,1.086,0,0,0,1.078.376,2.339,2.339,0,0,1,.471-.045c1.779,0,3.224,1.8,3.224,4.009a4.546,4.546,0,0,1-.626,2.327c-1.76-.252-6.125-.516-8.659,2.461a1.1,1.1,0,0,0,1.67,1.425c2.029-2.383,6.116-1.822,7.064-1.653A6.309,6.309,0,0,1,69.592,48.6M44.161,64.52c-5.129.361-6.656-4.092-7.039-5.7a7.6,7.6,0,0,0,2.6-7.13,1.1,1.1,0,0,0-2.144.466c.675,3.113-2.171,5.257-2.307,5.357a.943.943,0,0,0-.091.1c-.027.026-.064.038-.089.067a2.775,2.775,0,0,1-3.243.848,3.922,3.922,0,0,1-2.143-3.4,4.866,4.866,0,0,1,.275-2.06,1.1,1.1,0,0,0-.144-1.012,1.136,1.136,0,0,0-.922-.471A4.463,4.463,0,0,1,24.8,48.6a6.313,6.313,0,0,1,2-7.643c.884-.161,5.037-.763,7.092,1.648a1.1,1.1,0,0,0,1.67-1.425c-2.542-2.984-6.928-2.71-8.678-2.459a4.546,4.546,0,0,1-.627-2.329c0-2.211,1.447-4.009,3.224-4.009a2.311,2.311,0,0,1,.471.045,1.1,1.1,0,0,0,1.234-1.514,4.833,4.833,0,0,1-.408-1.957c0-2.2,1.448-3.987,3.225-3.987A2.01,2.01,0,0,1,34.24,25a6.668,6.668,0,0,0,2.953,5.58,1.1,1.1,0,0,0,1.116-1.891c-1.832-1.081-1.9-3.589-1.885-4.278.483-.966,3.108-5.663,7.84-3.772a3.387,3.387,0,0,1,1.821,3.193V29.4a11.355,11.355,0,0,0-8.262,3.764,1.1,1.1,0,0,0,.148,1.545,1.094,1.094,0,0,0,1.543-.149,9.239,9.239,0,0,1,6.57-2.959V43.7c-2.509-.727-8.53-1.854-11.685,2.88a1.1,1.1,0,0,0,.3,1.519,1.084,1.084,0,0,0,.608.185,1.1,1.1,0,0,0,.913-.487c2.61-3.915,8.418-2.28,9.859-1.8V56.317a3.15,3.15,0,0,1-1.939-2.778,1.1,1.1,0,0,0-2.165.356c.528,3.213,2.515,4.4,4.1,4.689v3.331a2.447,2.447,0,0,1-1.925,2.6M69.513,39.658a6.819,6.819,0,0,0,.817-3.264,6,6,0,0,0-4.64-6.139,7.265,7.265,0,0,0,.118-1.3c0-3.407-2.431-6.18-5.418-6.18a4.513,4.513,0,0,0-.767.065c-1.555-2.737-5.173-6.293-10.312-4.244a4.8,4.8,0,0,0-2.119,1.733A4.782,4.782,0,0,0,45.076,18.6c-5.143-2.054-8.757,1.507-10.311,4.244-3.279-.552-6.186,2.418-6.186,6.115a7,7,0,0,0,.119,1.3,6,6,0,0,0-4.64,6.139,6.794,6.794,0,0,0,.817,3.262,8.657,8.657,0,0,0-2.127,9.733,6.716,6.716,0,0,0,4.833,4.24,7.48,7.48,0,0,0-.063,1.647,6.079,6.079,0,0,0,3.529,5.288,4.914,4.914,0,0,0,4.209-.24c.955,2.876,3.416,6.412,8.318,6.412.24,0,.486-.007.738-.025a4.037,4.037,0,0,0,2.88-1.6,4.045,4.045,0,0,0,2.883,1.6c.251.018.5.025.737.025,4.9,0,7.364-3.535,8.32-6.412a4.918,4.918,0,0,0,4.209.24,6.083,6.083,0,0,0,3.528-5.288,7.5,7.5,0,0,0-.062-1.642,6.726,6.726,0,0,0,4.833-4.245,8.655,8.655,0,0,0-2.127-9.731" fill="#fff" fillRule="evenodd"/>
  </g>
</svg>
