<svg id="Group_2454" data-name="Group 2454" xmlns="http://www.w3.org/2000/svg" xmlns:xlink="http://www.w3.org/1999/xlink" width="96.06" height="116.311" viewBox="0 0 96.06 116.311">
  <defs>
    <clipPath id="clip-path">
      <rect id="Rectangle_1567" data-name="Rectangle 1567" width="96.06" height="116.31" fill="none"/>
    </clipPath>
  </defs>
  <g id="Group_2453" data-name="Group 2453" clipPath="url(#clip-path)">
    <path id="Path_3008" data-name="Path 3008" d="M5.916,0H73.141L96,22.507v87.887a5.933,5.933,0,0,1-5.916,5.916H5.916A5.933,5.933,0,0,1,0,110.394V5.915A5.931,5.931,0,0,1,5.916,0" fill="#8994CA" fillRule="evenodd"/>
    <path id="Path_3009" data-name="Path 3009" d="M96.06,22.546l-18.335.024a4.6,4.6,0,0,1-4.586-4.586V0Z" fill="#fff" fillRule="evenodd"/>
    <path id="Path_3010" data-name="Path 3010" d="M31.835,86.165H30.626l-3.834-7.377v7.377h-1.21V76.591h1.21L30.639,84V76.591h1.2Zm7.8-9.574V83.4a3.1,3.1,0,0,1-5.121,2.149,2.945,2.945,0,0,1-.763-2.149V76.591h1.2v6.753a2.165,2.165,0,0,0,.413,1.443,2.089,2.089,0,0,0,2.655,0,2.165,2.165,0,0,0,.411-1.443V76.591ZM44.379,82.3H42.7v3.865h-1.21V76.591h2.682a2.861,2.861,0,0,1,2.13.733,2.94,2.94,0,0,1,.725,2.15,3,3,0,0,1-.392,1.551,2.475,2.475,0,0,1-1.107,1l1.854,4.063v.078H46.083ZM42.7,81.264h1.459a1.563,1.563,0,0,0,1.207-.488,1.844,1.844,0,0,0,.45-1.3q0-1.847-1.67-1.845H42.7Zm10.118,2.479a1.479,1.479,0,0,0-.388-1.1,4.009,4.009,0,0,0-1.4-.742,6.027,6.027,0,0,1-1.548-.759,2.667,2.667,0,0,1-.8-.909,2.69,2.69,0,0,1,.494-3.043,2.729,2.729,0,0,1,1.989-.736,2.957,2.957,0,0,1,1.5.377,2.579,2.579,0,0,1,1.012,1.048,3.106,3.106,0,0,1,.355,1.472h-1.21a2.018,2.018,0,0,0-.426-1.374,1.549,1.549,0,0,0-1.23-.486,1.519,1.519,0,0,0-1.132.408,1.566,1.566,0,0,0-.4,1.145,1.336,1.336,0,0,0,.436,1.014,3.8,3.8,0,0,0,1.34.732,4.618,4.618,0,0,1,2.022,1.151,2.588,2.588,0,0,1,.609,1.791,2.416,2.416,0,0,1-.757,1.865,2.908,2.908,0,0,1-2.058.7,3.282,3.282,0,0,1-1.542-.367,2.767,2.767,0,0,1-1.111-1.027,2.858,2.858,0,0,1-.4-1.517h1.21a1.86,1.86,0,0,0,.5,1.38,1.829,1.829,0,0,0,1.351.494,1.6,1.6,0,0,0,1.2-.409,1.514,1.514,0,0,0,.4-1.111M60.2,81.748H56.811v3.38h3.946v1.037H55.608V76.591h5.084v1.037H56.811v3.084H60.2Zm4.991.552H63.506v3.865H62.3V76.591h2.682a2.864,2.864,0,0,1,2.13.733,2.944,2.944,0,0,1,.724,2.15,3,3,0,0,1-.392,1.551,2.469,2.469,0,0,1-1.107,1l1.854,4.063v.078H66.894Zm-1.683-1.036h1.459a1.567,1.567,0,0,0,1.208-.488,1.843,1.843,0,0,0,.449-1.3q0-1.847-1.67-1.845H63.506Zm8.112.134,1.959-4.807h1.362l-2.722,6v3.57h-1.2V82.6l-2.723-6h1.368ZM21.329,95.8H19.646v3.865h-1.21V90.093h2.682a2.861,2.861,0,0,1,2.13.733,2.938,2.938,0,0,1,.725,2.15,3,3,0,0,1-.392,1.551,2.474,2.474,0,0,1-1.107,1l1.854,4.063v.078H23.033Zm-1.683-1.037H21.1a1.562,1.562,0,0,0,1.207-.487,1.846,1.846,0,0,0,.449-1.3q0-1.845-1.67-1.845H19.646Zm10.526.485H26.785v3.38h3.946v1.037H25.582V90.093h5.084v1.036H26.785v3.084h3.387Zm6.278,2a1.479,1.479,0,0,0-.388-1.1,4,4,0,0,0-1.4-.742,6.036,6.036,0,0,1-1.549-.759,2.662,2.662,0,0,1-.8-.909,2.69,2.69,0,0,1,.494-3.043,2.729,2.729,0,0,1,1.988-.737,2.959,2.959,0,0,1,1.5.378,2.585,2.585,0,0,1,1.012,1.048,3.113,3.113,0,0,1,.355,1.471H36.45a2.007,2.007,0,0,0-.427-1.373,1.548,1.548,0,0,0-1.23-.487,1.519,1.519,0,0,0-1.131.409,1.564,1.564,0,0,0-.4,1.145,1.333,1.333,0,0,0,.435,1.013,3.8,3.8,0,0,0,1.34.733,4.614,4.614,0,0,1,2.022,1.151,2.59,2.59,0,0,1,.608,1.791A2.415,2.415,0,0,1,36.91,99.1a2.908,2.908,0,0,1-2.058.7,3.279,3.279,0,0,1-1.542-.367A2.761,2.761,0,0,1,32.2,98.408a2.859,2.859,0,0,1-.4-1.518H33a1.86,1.86,0,0,0,.5,1.38,1.834,1.834,0,0,0,1.352.5,1.6,1.6,0,0,0,1.2-.409,1.516,1.516,0,0,0,.4-1.111m9.025-1.524a4.786,4.786,0,0,1-.835,3.021,2.848,2.848,0,0,1-2.375,1.06,2.884,2.884,0,0,1-2.339-1.031,4.565,4.565,0,0,1-.89-2.911v-1.8a4.787,4.787,0,0,1,.848-3.011,2.835,2.835,0,0,1,2.368-1.089A2.865,2.865,0,0,1,44.608,91a4.7,4.7,0,0,1,.867,2.976Zm-1.2-1.676a4.1,4.1,0,0,0-.5-2.259,1.909,1.909,0,0,0-3.023.012,3.957,3.957,0,0,0-.516,2.209v1.714a4.026,4.026,0,0,0,.51,2.233,1.913,1.913,0,0,0,3.021.061,3.99,3.99,0,0,0,.505-2.175Zm8.773-3.952V96.9a3.1,3.1,0,0,1-5.122,2.149,2.953,2.953,0,0,1-.763-2.149V90.093h1.2v6.753a2.166,2.166,0,0,0,.413,1.443,2.088,2.088,0,0,0,2.654,0,2.166,2.166,0,0,0,.411-1.443V90.093ZM57.79,95.8H56.107v3.865H54.9V90.093h2.682a2.863,2.863,0,0,1,2.13.733,2.942,2.942,0,0,1,.725,2.15,3,3,0,0,1-.393,1.551,2.467,2.467,0,0,1-1.106,1l1.854,4.063v.078h-1.3Zm-1.683-1.037h1.458a1.566,1.566,0,0,0,1.208-.487,1.846,1.846,0,0,0,.449-1.3q0-1.845-1.67-1.845H56.107Zm11.94,1.856a3.558,3.558,0,0,1-.864,2.359,2.925,2.925,0,0,1-2.22.822,2.744,2.744,0,0,1-2.287-1.1,4.737,4.737,0,0,1-.848-2.972V94a4.585,4.585,0,0,1,.87-2.954,2.884,2.884,0,0,1,2.377-1.087,2.754,2.754,0,0,1,2.146.831,3.638,3.638,0,0,1,.826,2.377H66.831a2.94,2.94,0,0,0-.5-1.67,1.535,1.535,0,0,0-1.261-.5,1.718,1.718,0,0,0-1.506.766A3.969,3.969,0,0,0,63.044,94V95.76a4.172,4.172,0,0,0,.49,2.228,1.583,1.583,0,0,0,1.429.777,1.733,1.733,0,0,0,1.356-.467,2.947,2.947,0,0,0,.512-1.677Zm6.219-1.371H70.879v3.38h3.946v1.037H69.676V90.093H74.76v1.036H70.879v3.084h3.387Zm6.278,2a1.476,1.476,0,0,0-.389-1.1,3.967,3.967,0,0,0-1.4-.742,6.044,6.044,0,0,1-1.548-.759,2.666,2.666,0,0,1-.8-.909,2.69,2.69,0,0,1,.494-3.043,2.73,2.73,0,0,1,1.989-.737,2.957,2.957,0,0,1,1.5.378A2.579,2.579,0,0,1,81.4,91.383a3.1,3.1,0,0,1,.354,1.471H80.544a2.017,2.017,0,0,0-.426-1.373,1.552,1.552,0,0,0-1.23-.487,1.518,1.518,0,0,0-1.132.409,1.564,1.564,0,0,0-.4,1.145,1.33,1.33,0,0,0,.435,1.013,3.8,3.8,0,0,0,1.34.733,4.614,4.614,0,0,1,2.022,1.151,2.586,2.586,0,0,1,.608,1.791A2.415,2.415,0,0,1,81,99.1a2.908,2.908,0,0,1-2.058.7,3.279,3.279,0,0,1-1.542-.367,2.767,2.767,0,0,1-1.111-1.027,2.859,2.859,0,0,1-.4-1.518H77.1a1.856,1.856,0,0,0,.5,1.38,1.828,1.828,0,0,0,1.351.5,1.6,1.6,0,0,0,1.2-.409,1.516,1.516,0,0,0,.4-1.111" fill="#2b2a29" fillRule="evenodd"/>
    <path id="Path_3011" data-name="Path 3011" d="M31.835,86.165H30.626l-3.834-7.377v7.377h-1.21V76.591h1.21L30.639,84V76.591h1.2Zm7.8-9.574V83.4a3.1,3.1,0,0,1-5.121,2.149,2.945,2.945,0,0,1-.763-2.149V76.591h1.2v6.753a2.165,2.165,0,0,0,.413,1.443,2.089,2.089,0,0,0,2.655,0,2.165,2.165,0,0,0,.411-1.443V76.591ZM44.379,82.3H42.7v3.865h-1.21V76.591h2.682a2.861,2.861,0,0,1,2.13.733,2.94,2.94,0,0,1,.725,2.15,3,3,0,0,1-.392,1.551,2.475,2.475,0,0,1-1.107,1l1.854,4.063v.078H46.083ZM42.7,81.264h1.459a1.563,1.563,0,0,0,1.207-.488,1.844,1.844,0,0,0,.45-1.3q0-1.847-1.67-1.845H42.7Zm10.118,2.479a1.479,1.479,0,0,0-.388-1.1,4.009,4.009,0,0,0-1.4-.742,6.027,6.027,0,0,1-1.548-.759,2.667,2.667,0,0,1-.8-.909,2.69,2.69,0,0,1,.494-3.043,2.729,2.729,0,0,1,1.989-.736,2.957,2.957,0,0,1,1.5.377,2.579,2.579,0,0,1,1.012,1.048,3.106,3.106,0,0,1,.355,1.472h-1.21a2.018,2.018,0,0,0-.426-1.374,1.549,1.549,0,0,0-1.23-.486,1.519,1.519,0,0,0-1.132.408,1.566,1.566,0,0,0-.4,1.145,1.336,1.336,0,0,0,.436,1.014,3.8,3.8,0,0,0,1.34.732,4.618,4.618,0,0,1,2.022,1.151,2.588,2.588,0,0,1,.609,1.791,2.416,2.416,0,0,1-.757,1.865,2.908,2.908,0,0,1-2.058.7,3.282,3.282,0,0,1-1.542-.367,2.767,2.767,0,0,1-1.111-1.027,2.858,2.858,0,0,1-.4-1.517h1.21a1.86,1.86,0,0,0,.5,1.38,1.829,1.829,0,0,0,1.351.494,1.6,1.6,0,0,0,1.2-.409A1.514,1.514,0,0,0,52.814,83.743ZM60.2,81.748H56.811v3.38h3.946v1.037H55.608V76.591h5.084v1.037H56.811v3.084H60.2Zm4.991.552H63.506v3.865H62.3V76.591h2.682a2.864,2.864,0,0,1,2.13.733,2.944,2.944,0,0,1,.724,2.15,3,3,0,0,1-.392,1.551,2.469,2.469,0,0,1-1.107,1l1.854,4.063v.078H66.894Zm-1.683-1.036h1.459a1.567,1.567,0,0,0,1.208-.488,1.843,1.843,0,0,0,.449-1.3q0-1.847-1.67-1.845H63.506Zm8.112.134,1.959-4.807h1.362l-2.722,6v3.57h-1.2V82.6l-2.723-6h1.368ZM21.329,95.8H19.646v3.865h-1.21V90.093h2.682a2.861,2.861,0,0,1,2.13.733,2.938,2.938,0,0,1,.725,2.15,3,3,0,0,1-.392,1.551,2.474,2.474,0,0,1-1.107,1l1.854,4.063v.078H23.033Zm-1.683-1.037H21.1a1.562,1.562,0,0,0,1.207-.487,1.846,1.846,0,0,0,.449-1.3q0-1.845-1.67-1.845H19.646Zm10.526.485H26.785v3.38h3.946v1.037H25.582V90.093h5.084v1.036H26.785v3.084h3.387Zm6.278,2a1.479,1.479,0,0,0-.388-1.1,4,4,0,0,0-1.4-.742,6.036,6.036,0,0,1-1.549-.759,2.662,2.662,0,0,1-.8-.909,2.69,2.69,0,0,1,.494-3.043,2.729,2.729,0,0,1,1.988-.737,2.959,2.959,0,0,1,1.5.378,2.585,2.585,0,0,1,1.012,1.048,3.113,3.113,0,0,1,.355,1.471H36.45a2.007,2.007,0,0,0-.427-1.373,1.548,1.548,0,0,0-1.23-.487,1.519,1.519,0,0,0-1.131.409,1.564,1.564,0,0,0-.4,1.145,1.333,1.333,0,0,0,.435,1.013,3.8,3.8,0,0,0,1.34.733,4.614,4.614,0,0,1,2.022,1.151,2.59,2.59,0,0,1,.608,1.791A2.415,2.415,0,0,1,36.91,99.1a2.908,2.908,0,0,1-2.058.7,3.279,3.279,0,0,1-1.542-.367A2.761,2.761,0,0,1,32.2,98.408a2.859,2.859,0,0,1-.4-1.518H33a1.86,1.86,0,0,0,.5,1.38,1.834,1.834,0,0,0,1.352.5,1.6,1.6,0,0,0,1.2-.409A1.516,1.516,0,0,0,36.45,97.245Zm9.025-1.524a4.786,4.786,0,0,1-.835,3.021,2.848,2.848,0,0,1-2.375,1.06,2.884,2.884,0,0,1-2.339-1.031,4.565,4.565,0,0,1-.89-2.911v-1.8a4.787,4.787,0,0,1,.848-3.011,2.835,2.835,0,0,1,2.368-1.089A2.865,2.865,0,0,1,44.608,91a4.7,4.7,0,0,1,.867,2.976Zm-1.2-1.676a4.1,4.1,0,0,0-.5-2.259,1.909,1.909,0,0,0-3.023.012,3.957,3.957,0,0,0-.516,2.209v1.714a4.026,4.026,0,0,0,.51,2.233,1.913,1.913,0,0,0,3.021.061,3.99,3.99,0,0,0,.505-2.175Zm8.773-3.952V96.9a3.1,3.1,0,0,1-5.122,2.149,2.953,2.953,0,0,1-.763-2.149V90.093h1.2v6.753a2.166,2.166,0,0,0,.413,1.443,2.088,2.088,0,0,0,2.654,0,2.166,2.166,0,0,0,.411-1.443V90.093ZM57.79,95.8H56.107v3.865H54.9V90.093h2.682a2.863,2.863,0,0,1,2.13.733,2.942,2.942,0,0,1,.725,2.15,3,3,0,0,1-.393,1.551,2.467,2.467,0,0,1-1.106,1l1.854,4.063v.078h-1.3Zm-1.683-1.037h1.458a1.566,1.566,0,0,0,1.208-.487,1.846,1.846,0,0,0,.449-1.3q0-1.845-1.67-1.845H56.107Zm11.94,1.856a3.558,3.558,0,0,1-.864,2.359,2.925,2.925,0,0,1-2.22.822,2.744,2.744,0,0,1-2.287-1.1,4.737,4.737,0,0,1-.848-2.972V94a4.585,4.585,0,0,1,.87-2.954,2.884,2.884,0,0,1,2.377-1.087,2.754,2.754,0,0,1,2.146.831,3.638,3.638,0,0,1,.826,2.377H66.831a2.94,2.94,0,0,0-.5-1.67,1.535,1.535,0,0,0-1.261-.5,1.718,1.718,0,0,0-1.506.766A3.969,3.969,0,0,0,63.044,94V95.76a4.172,4.172,0,0,0,.49,2.228,1.583,1.583,0,0,0,1.429.777,1.733,1.733,0,0,0,1.356-.467,2.947,2.947,0,0,0,.512-1.677Zm6.219-1.371H70.879v3.38h3.946v1.037H69.676V90.093H74.76v1.036H70.879v3.084h3.387Zm6.278,2a1.476,1.476,0,0,0-.389-1.1,3.967,3.967,0,0,0-1.4-.742,6.044,6.044,0,0,1-1.548-.759,2.666,2.666,0,0,1-.8-.909,2.69,2.69,0,0,1,.494-3.043,2.73,2.73,0,0,1,1.989-.737,2.957,2.957,0,0,1,1.5.378A2.579,2.579,0,0,1,81.4,91.383a3.1,3.1,0,0,1,.354,1.471H80.544a2.017,2.017,0,0,0-.426-1.373,1.552,1.552,0,0,0-1.23-.487,1.518,1.518,0,0,0-1.132.409,1.564,1.564,0,0,0-.4,1.145,1.33,1.33,0,0,0,.435,1.013,3.8,3.8,0,0,0,1.34.733,4.614,4.614,0,0,1,2.022,1.151,2.586,2.586,0,0,1,.608,1.791A2.415,2.415,0,0,1,81,99.1a2.908,2.908,0,0,1-2.058.7,3.279,3.279,0,0,1-1.542-.367,2.767,2.767,0,0,1-1.111-1.027,2.859,2.859,0,0,1-.4-1.518H77.1a1.856,1.856,0,0,0,.5,1.38,1.828,1.828,0,0,0,1.351.5,1.6,1.6,0,0,0,1.2-.409A1.516,1.516,0,0,0,80.544,97.245Z" fill="none" stroke="#000" strokeMiterlimit="10" strokeWidth="0.5"/>
    <path id="Path_3012" data-name="Path 3012" d="M69.4,63.046a2.748,2.748,0,0,1-2.743,2.744H28.852a2.745,2.745,0,1,1,0-5.489H66.658A2.748,2.748,0,0,1,69.4,63.046M28.309,23.039a1.277,1.277,0,0,1,2.554,0V58.451H28.852a4.87,4.87,0,0,0-.543.034Zm7.333,24.6a2.929,2.929,0,1,1-2.928,2.928,2.932,2.932,0,0,1,2.928-2.928m0-21.654a2.934,2.934,0,0,1,2.929,2.926v.005a2.928,2.928,0,1,1-2.929-2.931M59.5,42.118a2.928,2.928,0,1,1,2.929-2.929A2.932,2.932,0,0,1,59.5,42.118m-11.368-2.93a2.928,2.928,0,1,1,2.928,2.93,2.931,2.931,0,0,1-2.928-2.93M55.814,50.1h6.614V42.959a4.766,4.766,0,0,1-7.149-1.532,4.775,4.775,0,0,1-8.956-1.621H32.714V46.8A4.771,4.771,0,0,1,40.4,50.1h5.9a4.779,4.779,0,0,1,9.512,0m-7.683.463a2.928,2.928,0,1,1,2.928,2.93,2.931,2.931,0,0,1-2.928-2.93m2.928,4.781A4.784,4.784,0,0,1,46.3,51.03H40.4a4.771,4.771,0,0,1-7.685,3.307v4.114H62.428V51.03H55.814a4.786,4.786,0,0,1-4.755,4.317M39.5,31.727a4.757,4.757,0,0,1-6.782.955v6.2h13.58a4.775,4.775,0,0,1,8.985-1.931,4.766,4.766,0,0,1,7.149-1.531V32.681a4.767,4.767,0,0,1-7.664-3.151H48.085a4.77,4.77,0,0,1-8.589,2.2m3.854-5.743a2.929,2.929,0,1,1-2.928,2.928,2.931,2.931,0,0,1,2.928-2.928m16.149,0a2.929,2.929,0,1,1-2.927,2.928A2.932,2.932,0,0,1,59.5,25.984m4.781,13.2V23.039a1.277,1.277,0,0,1,2.553,0V58.458c-.059,0-.118-.007-.175-.007H64.28Zm1.276-19.277a3.131,3.131,0,0,0-3.128,3.128v2.1A4.769,4.769,0,0,0,54.735,28.6h-6.62A4.771,4.771,0,0,0,39.5,26.1a4.759,4.759,0,0,0-6.782-.955v-2.1a3.128,3.128,0,0,0-6.256,0V59.131a4.591,4.591,0,0,0,2.394,8.511H66.658a4.591,4.591,0,0,0,2.026-8.713V23.039a3.133,3.133,0,0,0-3.129-3.128" fill="#fff" fillRule="evenodd"/>
  </g>
</svg>
