<svg id="Group_2435" data-name="Group 2435" xmlns="http://www.w3.org/2000/svg" xmlns:xlink="http://www.w3.org/1999/xlink" width="96.06" height="116.311" viewBox="0 0 96.06 116.311">
  <defs>
    <clipPath id="clip-path">
      <rect id="Rectangle_1557" data-name="Rectangle 1557" width="96.06" height="116.31" fill="none"/>
    </clipPath>
  </defs>
  <g id="Group_2434" data-name="Group 2434" clipPath="url(#clip-path)">
    <path id="Path_2946" data-name="Path 2946" d="M5.915,0H73.141L96,22.507v87.888a5.933,5.933,0,0,1-5.916,5.915H5.915A5.933,5.933,0,0,1,0,110.395V5.915A5.932,5.932,0,0,1,5.915,0" fill="#d76b9f" fillRule="evenodd"/>
    <path id="Path_2947" data-name="Path 2947" d="M96.06,22.546l-18.335.024a4.6,4.6,0,0,1-4.586-4.586V0Z" fill="#fff" fillRule="evenodd"/>
    <path id="Path_2948" data-name="Path 2948" d="M23.1,84.824v3.744H21.9V78.993h3.052a2.764,2.764,0,0,1,2.1.8,2.959,2.959,0,0,1,.763,2.13,2.921,2.921,0,0,1-.728,2.128,2.811,2.811,0,0,1-2.047.774Zm0-1.037h1.849a1.559,1.559,0,0,0,1.23-.48,2.015,2.015,0,0,0,.427-1.376,2.059,2.059,0,0,0-.44-1.38,1.5,1.5,0,0,0-1.21-.521H23.1Zm7.519,4.781H29.411V78.993h1.206Zm8.113-3.045a3.55,3.55,0,0,1-.864,2.358,2.923,2.923,0,0,1-2.22.822,2.744,2.744,0,0,1-2.287-1.1,4.743,4.743,0,0,1-.848-2.972V82.9a4.581,4.581,0,0,1,.871-2.954,2.88,2.88,0,0,1,2.376-1.086,2.757,2.757,0,0,1,2.146.83,3.63,3.63,0,0,1,.826,2.377H37.514a2.948,2.948,0,0,0-.494-1.67,1.541,1.541,0,0,0-1.262-.5,1.716,1.716,0,0,0-1.505.765,3.965,3.965,0,0,0-.525,2.244V84.66a4.174,4.174,0,0,0,.489,2.229,1.585,1.585,0,0,0,1.429.777A1.73,1.73,0,0,0,37,87.2a2.946,2.946,0,0,0,.512-1.676Zm7.034-5.493H43.246v8.538h-1.2V80.03H39.532V78.993h6.232Zm7.461,4.592a4.784,4.784,0,0,1-.835,3.021,2.847,2.847,0,0,1-2.374,1.06,2.885,2.885,0,0,1-2.34-1.031,4.571,4.571,0,0,1-.89-2.911v-1.8a4.788,4.788,0,0,1,.848-3.012A2.834,2.834,0,0,1,50,78.859,2.864,2.864,0,0,1,52.358,79.9a4.7,4.7,0,0,1,.867,2.976Zm-1.2-1.676a4.094,4.094,0,0,0-.5-2.258A1.906,1.906,0,0,0,48.5,80.7a3.948,3.948,0,0,0-.517,2.208v1.715a4.029,4.029,0,0,0,.51,2.234,1.913,1.913,0,0,0,3.021.06,3.99,3.99,0,0,0,.505-2.175ZM57.979,84.7H56.295v3.865h-1.21V78.993h2.683a2.865,2.865,0,0,1,2.13.734,2.945,2.945,0,0,1,.724,2.151,3,3,0,0,1-.392,1.55,2.48,2.48,0,0,1-1.107,1l1.854,4.062v.079h-1.3Zm-1.684-1.037h1.459a1.559,1.559,0,0,0,1.207-.487,1.845,1.845,0,0,0,.45-1.3q0-1.845-1.67-1.845H56.295Zm7.193,4.9h-1.2V78.993h1.2Zm6.693-2.5H66.945l-.743,2.5H64.968l3.083-9.575h1.031l3.09,9.575H70.938Zm-2.92-1.038h2.611l-1.309-4.349Zm7.425,2.5H78.44v1.037H73.476V78.993h1.21ZM32.034,99.648a1.476,1.476,0,0,0-.389-1.1,3.993,3.993,0,0,0-1.4-.742,6.036,6.036,0,0,1-1.549-.759,2.672,2.672,0,0,1-.8-.909,2.69,2.69,0,0,1,.494-3.043,2.73,2.73,0,0,1,1.989-.737,2.97,2.97,0,0,1,1.5.377,2.592,2.592,0,0,1,1.012,1.048,3.121,3.121,0,0,1,.355,1.473h-1.21a2.007,2.007,0,0,0-.427-1.374,1.547,1.547,0,0,0-1.229-.487,1.516,1.516,0,0,0-1.132.409,1.562,1.562,0,0,0-.4,1.144,1.334,1.334,0,0,0,.435,1.015,3.812,3.812,0,0,0,1.34.731,4.624,4.624,0,0,1,2.022,1.152,2.593,2.593,0,0,1,.609,1.791,2.417,2.417,0,0,1-.757,1.865,2.906,2.906,0,0,1-2.058.7,3.29,3.29,0,0,1-1.542-.366,2.761,2.761,0,0,1-1.111-1.027,2.863,2.863,0,0,1-.4-1.517h1.209a1.856,1.856,0,0,0,.5,1.379,1.83,1.83,0,0,0,1.351.5,1.607,1.607,0,0,0,1.2-.409,1.518,1.518,0,0,0,.4-1.111m8.389-6.116H37.9v8.538H36.7V93.532H34.191V92.5h6.232Zm7.461,4.592a4.786,4.786,0,0,1-.835,3.021,2.845,2.845,0,0,1-2.374,1.059,2.881,2.881,0,0,1-2.339-1.03,4.568,4.568,0,0,1-.891-2.911v-1.8a4.788,4.788,0,0,1,.848-3.012,3.15,3.15,0,0,1,4.725-.045,4.7,4.7,0,0,1,.866,2.976Zm-1.2-1.677a4.089,4.089,0,0,0-.5-2.257,1.907,1.907,0,0,0-3.023.011,3.946,3.946,0,0,0-.517,2.208v1.715a4.042,4.042,0,0,0,.51,2.234,1.914,1.914,0,0,0,3.021.06,3.993,3.993,0,0,0,.505-2.175Zm5.959,1.758H50.955v3.865h-1.21V92.5h2.682a2.865,2.865,0,0,1,2.13.734,2.942,2.942,0,0,1,.725,2.15,3,3,0,0,1-.393,1.551,2.486,2.486,0,0,1-1.107,1l1.854,4.062v.079h-1.3Zm-1.683-1.037h1.458a1.564,1.564,0,0,0,1.208-.487,1.849,1.849,0,0,0,.449-1.3q0-1.845-1.67-1.845H50.955Zm7.193,4.9h-1.2V92.5h1.2Zm6.7-4.417H61.46v3.38h3.946v1.037H60.257V92.5h5.084v1.037H61.46v3.084h3.387Zm6.278,2a1.476,1.476,0,0,0-.389-1.1,3.983,3.983,0,0,0-1.4-.742,6.044,6.044,0,0,1-1.548-.759,2.686,2.686,0,0,1-.8-.909A2.69,2.69,0,0,1,67.48,93.1a2.73,2.73,0,0,1,1.989-.737,2.967,2.967,0,0,1,1.5.377,2.585,2.585,0,0,1,1.012,1.048,3.109,3.109,0,0,1,.355,1.473h-1.21a2.016,2.016,0,0,0-.426-1.374,1.55,1.55,0,0,0-1.23-.487,1.518,1.518,0,0,0-1.132.409,1.562,1.562,0,0,0-.4,1.144,1.338,1.338,0,0,0,.435,1.015,3.812,3.812,0,0,0,1.34.731,4.618,4.618,0,0,1,2.022,1.152,2.588,2.588,0,0,1,.609,1.791,2.417,2.417,0,0,1-.757,1.865,2.9,2.9,0,0,1-2.058.7,3.293,3.293,0,0,1-1.542-.366,2.774,2.774,0,0,1-1.111-1.027,2.863,2.863,0,0,1-.4-1.517h1.21a1.856,1.856,0,0,0,.5,1.379,1.83,1.83,0,0,0,1.351.5,1.607,1.607,0,0,0,1.2-.409,1.518,1.518,0,0,0,.4-1.111" fill="#2b2a29" fillRule="evenodd"/>
    <path id="Path_2949" data-name="Path 2949" d="M23.1,84.824v3.744H21.9V78.993h3.052a2.764,2.764,0,0,1,2.1.8,2.959,2.959,0,0,1,.763,2.13,2.921,2.921,0,0,1-.728,2.128,2.811,2.811,0,0,1-2.047.774Zm0-1.037h1.849a1.559,1.559,0,0,0,1.23-.48,2.015,2.015,0,0,0,.427-1.376,2.059,2.059,0,0,0-.44-1.38,1.5,1.5,0,0,0-1.21-.521H23.1Zm7.519,4.781H29.411V78.993h1.206Zm8.113-3.045a3.55,3.55,0,0,1-.864,2.358,2.923,2.923,0,0,1-2.22.822,2.744,2.744,0,0,1-2.287-1.1,4.743,4.743,0,0,1-.848-2.972V82.9a4.581,4.581,0,0,1,.871-2.954,2.88,2.88,0,0,1,2.376-1.086,2.757,2.757,0,0,1,2.146.83,3.63,3.63,0,0,1,.826,2.377H37.514a2.948,2.948,0,0,0-.494-1.67,1.541,1.541,0,0,0-1.262-.5,1.716,1.716,0,0,0-1.505.765,3.965,3.965,0,0,0-.525,2.244V84.66a4.174,4.174,0,0,0,.489,2.229,1.585,1.585,0,0,0,1.429.777A1.73,1.73,0,0,0,37,87.2a2.946,2.946,0,0,0,.512-1.676Zm7.034-5.493H43.246v8.538h-1.2V80.03H39.532V78.993h6.232Zm7.461,4.592a4.784,4.784,0,0,1-.835,3.021,2.847,2.847,0,0,1-2.374,1.06,2.885,2.885,0,0,1-2.34-1.031,4.571,4.571,0,0,1-.89-2.911v-1.8a4.788,4.788,0,0,1,.848-3.012A2.834,2.834,0,0,1,50,78.859,2.864,2.864,0,0,1,52.358,79.9a4.7,4.7,0,0,1,.867,2.976Zm-1.2-1.676a4.094,4.094,0,0,0-.5-2.258A1.906,1.906,0,0,0,48.5,80.7a3.948,3.948,0,0,0-.517,2.208v1.715a4.029,4.029,0,0,0,.51,2.234,1.913,1.913,0,0,0,3.021.06,3.99,3.99,0,0,0,.505-2.175ZM57.979,84.7H56.295v3.865h-1.21V78.993h2.683a2.865,2.865,0,0,1,2.13.734,2.945,2.945,0,0,1,.724,2.151,3,3,0,0,1-.392,1.55,2.48,2.48,0,0,1-1.107,1l1.854,4.062v.079h-1.3Zm-1.684-1.037h1.459a1.559,1.559,0,0,0,1.207-.487,1.845,1.845,0,0,0,.45-1.3q0-1.845-1.67-1.845H56.295Zm7.193,4.9h-1.2V78.993h1.2Zm6.693-2.5H66.945l-.743,2.5H64.968l3.083-9.575h1.031l3.09,9.575H70.938Zm-2.92-1.038h2.611l-1.309-4.349Zm7.425,2.5H78.44v1.037H73.476V78.993h1.21ZM32.034,99.648a1.476,1.476,0,0,0-.389-1.1,3.993,3.993,0,0,0-1.4-.742,6.036,6.036,0,0,1-1.549-.759,2.672,2.672,0,0,1-.8-.909,2.69,2.69,0,0,1,.494-3.043,2.73,2.73,0,0,1,1.989-.737,2.97,2.97,0,0,1,1.5.377,2.592,2.592,0,0,1,1.012,1.048,3.121,3.121,0,0,1,.355,1.473h-1.21a2.007,2.007,0,0,0-.427-1.374,1.547,1.547,0,0,0-1.229-.487,1.516,1.516,0,0,0-1.132.409,1.562,1.562,0,0,0-.4,1.144,1.334,1.334,0,0,0,.435,1.015,3.812,3.812,0,0,0,1.34.731,4.624,4.624,0,0,1,2.022,1.152,2.593,2.593,0,0,1,.609,1.791,2.417,2.417,0,0,1-.757,1.865,2.906,2.906,0,0,1-2.058.7,3.29,3.29,0,0,1-1.542-.366,2.761,2.761,0,0,1-1.111-1.027,2.863,2.863,0,0,1-.4-1.517h1.209a1.856,1.856,0,0,0,.5,1.379,1.83,1.83,0,0,0,1.351.5,1.607,1.607,0,0,0,1.2-.409A1.518,1.518,0,0,0,32.034,99.648Zm8.389-6.116H37.9v8.538H36.7V93.532H34.191V92.5h6.232Zm7.461,4.592a4.786,4.786,0,0,1-.835,3.021,2.845,2.845,0,0,1-2.374,1.059,2.881,2.881,0,0,1-2.339-1.03,4.568,4.568,0,0,1-.891-2.911v-1.8a4.788,4.788,0,0,1,.848-3.012,3.15,3.15,0,0,1,4.725-.045,4.7,4.7,0,0,1,.866,2.976Zm-1.2-1.677a4.089,4.089,0,0,0-.5-2.257,1.907,1.907,0,0,0-3.023.011,3.946,3.946,0,0,0-.517,2.208v1.715a4.042,4.042,0,0,0,.51,2.234,1.914,1.914,0,0,0,3.021.06,3.993,3.993,0,0,0,.505-2.175Zm5.959,1.758H50.955v3.865h-1.21V92.5h2.682a2.865,2.865,0,0,1,2.13.734,2.942,2.942,0,0,1,.725,2.15,3,3,0,0,1-.393,1.551,2.486,2.486,0,0,1-1.107,1l1.854,4.062v.079h-1.3Zm-1.683-1.037h1.458a1.564,1.564,0,0,0,1.208-.487,1.849,1.849,0,0,0,.449-1.3q0-1.845-1.67-1.845H50.955Zm7.193,4.9h-1.2V92.5h1.2Zm6.7-4.417H61.46v3.38h3.946v1.037H60.257V92.5h5.084v1.037H61.46v3.084h3.387Zm6.278,2a1.476,1.476,0,0,0-.389-1.1,3.983,3.983,0,0,0-1.4-.742,6.044,6.044,0,0,1-1.548-.759,2.686,2.686,0,0,1-.8-.909A2.69,2.69,0,0,1,67.48,93.1a2.73,2.73,0,0,1,1.989-.737,2.967,2.967,0,0,1,1.5.377,2.585,2.585,0,0,1,1.012,1.048,3.109,3.109,0,0,1,.355,1.473h-1.21a2.016,2.016,0,0,0-.426-1.374,1.55,1.55,0,0,0-1.23-.487,1.518,1.518,0,0,0-1.132.409,1.562,1.562,0,0,0-.4,1.144,1.338,1.338,0,0,0,.435,1.015,3.812,3.812,0,0,0,1.34.731,4.618,4.618,0,0,1,2.022,1.152,2.588,2.588,0,0,1,.609,1.791,2.417,2.417,0,0,1-.757,1.865,2.9,2.9,0,0,1-2.058.7,3.293,3.293,0,0,1-1.542-.366,2.774,2.774,0,0,1-1.111-1.027,2.863,2.863,0,0,1-.4-1.517h1.21a1.856,1.856,0,0,0,.5,1.379,1.83,1.83,0,0,0,1.351.5,1.607,1.607,0,0,0,1.2-.409A1.518,1.518,0,0,0,71.125,99.648Z" fill="none" stroke="#000" strokeMiterlimit="10" strokeWidth="0.5"/>
    <path id="Path_2950" data-name="Path 2950" d="M29.99,40.525H52.964a.719.719,0,0,0,0-1.436H29.99a.719.719,0,0,0,0,1.436" fill="#fff" fillRule="evenodd"/>
    <path id="Path_2951" data-name="Path 2951" d="M29.99,40.525H52.964a.719.719,0,0,0,0-1.436H29.99a.719.719,0,0,0,0,1.436Z" fill="none" stroke="#fff" strokeMiterlimit="22.926" strokeWidth="1"/>
    <path id="Path_2952" data-name="Path 2952" d="M52.964,58.9H29.99a.72.72,0,0,0,0,1.437H52.964a.719.719,0,0,0,0-1.437" fill="#fff" fillRule="evenodd"/>
    <path id="Path_2953" data-name="Path 2953" d="M52.964,58.9H29.99a.72.72,0,0,0,0,1.437H52.964a.719.719,0,0,0,0-1.437Z" fill="none" stroke="#fff" strokeMiterlimit="22.926" strokeWidth="1"/>
    <path id="Path_2954" data-name="Path 2954" d="M75.833,31.866l-8.267,8.708L63.649,36.45l8.385-8.831,0,0a3,3,0,0,1,1.906-.867,2.684,2.684,0,0,1,1.928.967c.011.014.025.029.034.039a2.825,2.825,0,0,1,.869,1.961,3.522,3.522,0,0,1-.941,2.151M66.139,42.585l.452-.476-4.4-4.633-.452.476ZM57.194,51.5l7.981-8.4-3.916-4.125-7.981,8.405Zm-4.522,1.819-1.266.249-.088.018.237-1.444.295.311.636-3.88,3.592,3.782-3.684.67Zm6.292-1.651V68.679H23.993v-45.5H58.964V39.354l-7.616,8.019.547.576-.185,1.122H29.991a.72.72,0,0,0,0,1.437H51.477L50.9,54.026l5.769-1.052.526.556,1.77-1.865.682-.716Zm17.931-24.9-.045-.05a3.966,3.966,0,0,0-2.912-1.4A4.325,4.325,0,0,0,71.069,26.6L62.2,35.942a.737.737,0,0,0-.2.508.817.817,0,0,0,.026.184l-.528.555-.241-.253-.932.981V21.741h-37.7V70.117h37.7V50.23L67.1,43.093l-.242-.254.528-.556a.7.7,0,0,0,.175.025.661.661,0,0,0,.483-.209l8.739-9.2a5,5,0,0,0,1.35-3.146,4.231,4.231,0,0,0-1.242-2.985" fill="#fff" fillRule="evenodd"/>
    <path id="Path_2955" data-name="Path 2955" d="M75.833,31.866l-8.267,8.708L63.649,36.45l8.385-8.831,0,0a3,3,0,0,1,1.906-.867,2.684,2.684,0,0,1,1.928.967c.011.014.025.029.034.039a2.825,2.825,0,0,1,.869,1.961A3.522,3.522,0,0,1,75.833,31.866ZM66.139,42.585l.452-.476-4.4-4.633-.452.476ZM57.194,51.5l7.981-8.4-3.916-4.125-7.981,8.405Zm-4.522,1.819-1.266.249-.088.018.237-1.444.295.311.636-3.88,3.592,3.782-3.684.67Zm6.292-1.651V68.679H23.993v-45.5H58.964V39.354l-7.616,8.019.547.576-.185,1.122H29.991a.72.72,0,0,0,0,1.437H51.477L50.9,54.026l5.769-1.052.526.556,1.77-1.865.682-.716Zm17.931-24.9-.045-.05a3.966,3.966,0,0,0-2.912-1.4A4.325,4.325,0,0,0,71.069,26.6L62.2,35.942a.737.737,0,0,0-.2.508.817.817,0,0,0,.026.184l-.528.555-.241-.253-.932.981V21.741h-37.7V70.117h37.7V50.23L67.1,43.093l-.242-.254.528-.556a.7.7,0,0,0,.175.025.661.661,0,0,0,.483-.209l8.739-9.2a5,5,0,0,0,1.35-3.146A4.231,4.231,0,0,0,76.895,26.764Z" fill="none" stroke="#fff" strokeMiterlimit="22.926" strokeWidth="1"/>
    <path id="Path_2956" data-name="Path 2956" d="M62.176,34.1a.577.577,0,0,0,.847,0l6.288-6.623a.652.652,0,0,0,0-.891l-.007-.009a.579.579,0,0,0-.849,0L62.167,33.2a.652.652,0,0,0,0,.891Z" fill="#fff" fillRule="evenodd"/>
    <path id="Path_2957" data-name="Path 2957" d="M62.176,34.1a.577.577,0,0,0,.847,0l6.288-6.623a.652.652,0,0,0,0-.891l-.007-.009a.579.579,0,0,0-.849,0L62.167,33.2a.652.652,0,0,0,0,.891Z" fill="none" stroke="#fff" strokeMiterlimit="22.926" strokeWidth="1"/>
  </g>
</svg>
