<svg id="Group_2452" data-name="Group 2452" xmlns="http://www.w3.org/2000/svg" xmlns:xlink="http://www.w3.org/1999/xlink" width="96.06" height="116.686" viewBox="0 0 96.06 116.686">
  <defs>
    <clipPath id="clip-path">
      <rect id="Rectangle_1566" data-name="Rectangle 1566" width="96.06" height="116.685" fill="none"/>
    </clipPath>
  </defs>
  <g id="Group_2451" data-name="Group 2451" clipPath="url(#clip-path)">
    <path id="Path_3000" data-name="Path 3000" d="M5.916,0H73.141L96,22.507V110.77a5.933,5.933,0,0,1-5.915,5.915H5.916A5.933,5.933,0,0,1,0,110.77V5.915A5.932,5.932,0,0,1,5.916,0" fill="#8994CA" fillRule="evenodd"/>
    <path id="Path_3001" data-name="Path 3001" d="M96.06,22.546l-18.335.024a4.6,4.6,0,0,1-4.585-4.586V0Z" fill="#fff" fillRule="evenodd"/>
    <path id="Path_3002" data-name="Path 3002" d="M17.694,82.422v3.743h-1.2V76.591h3.053a2.759,2.759,0,0,1,2.1.8,2.956,2.956,0,0,1,.763,2.129,2.917,2.917,0,0,1-.728,2.128,2.814,2.814,0,0,1-2.047.775Zm0-1.037h1.85a1.561,1.561,0,0,0,1.23-.481,2.018,2.018,0,0,0,.426-1.376,2.059,2.059,0,0,0-.44-1.38,1.5,1.5,0,0,0-1.21-.52H17.694Zm7.472,3.744H28.92v1.036H23.956V76.591h1.21Zm9.776-1.468H31.706l-.743,2.5H29.729l3.084-9.574h1.03l3.09,9.574H35.7Zm-2.92-1.037h2.611l-1.309-4.35ZM40.111,81.4l-1.959-4.807H36.785l2.723,6v3.57h1.2V82.6l2.723-6H42.071Zm13.644,3.579-.208.264A3.306,3.306,0,0,1,50.889,86.3a3.032,3.032,0,0,1-2.435-1.031,4.4,4.4,0,0,1-.9-2.911V80.475a4.737,4.737,0,0,1,.806-3.016,3.392,3.392,0,0,1,4.549-.242,3.174,3.174,0,0,1,.85,2.176h-1.2a2.41,2.41,0,0,0-.5-1.4,1.587,1.587,0,0,0-1.286-.5,1.729,1.729,0,0,0-1.51.673,3.861,3.861,0,0,0-.5,2.152v1.953a3.783,3.783,0,0,0,.553,2.22,1.829,1.829,0,0,0,1.584.772,2.093,2.093,0,0,0,1.479-.471l.177-.162V82.435H50.8V81.4h2.951ZM58.617,82.3H56.934v3.865h-1.21V76.591h2.682a2.859,2.859,0,0,1,2.13.734,2.936,2.936,0,0,1,.725,2.149,2.994,2.994,0,0,1-.393,1.551,2.477,2.477,0,0,1-1.106,1l1.853,4.063v.078h-1.3Zm-1.683-1.036h1.459a1.566,1.566,0,0,0,1.207-.488,1.843,1.843,0,0,0,.449-1.3q0-1.847-1.67-1.845H56.934ZM69.1,82.22a4.788,4.788,0,0,1-.835,3.021A2.847,2.847,0,0,1,65.891,86.3a2.88,2.88,0,0,1-2.339-1.031,4.571,4.571,0,0,1-.891-2.911v-1.8a4.783,4.783,0,0,1,.849-3.011,2.831,2.831,0,0,1,2.368-1.089A2.862,2.862,0,0,1,68.234,77.5a4.7,4.7,0,0,1,.867,2.975Zm-1.206-1.677a4.086,4.086,0,0,0-.5-2.258,1.908,1.908,0,0,0-3.023.011A3.953,3.953,0,0,0,63.86,80.5V82.22a4.037,4.037,0,0,0,.509,2.233,1.913,1.913,0,0,0,3.021.061,3.984,3.984,0,0,0,.5-2.175Zm8.774-3.952V83.4a3.1,3.1,0,0,1-5.122,2.149,2.948,2.948,0,0,1-.763-2.149V76.591h1.2v6.753a2.17,2.17,0,0,0,.412,1.443,2.089,2.089,0,0,0,2.655,0,2.165,2.165,0,0,0,.411-1.443V76.591Zm3.052,5.831v3.743h-1.2V76.591h3.053a2.756,2.756,0,0,1,2.1.8,2.956,2.956,0,0,1,.763,2.129,2.921,2.921,0,0,1-.727,2.128,2.815,2.815,0,0,1-2.047.775Zm0-1.037h1.85A1.56,1.56,0,0,0,82.8,80.9a2.013,2.013,0,0,0,.426-1.376,2.059,2.059,0,0,0-.44-1.38,1.5,1.5,0,0,0-1.21-.52H79.721ZM21.682,95.8H20v3.865H18.789V90.093h2.682a2.864,2.864,0,0,1,2.13.733,2.944,2.944,0,0,1,.724,2.15,3,3,0,0,1-.392,1.551,2.474,2.474,0,0,1-1.107,1l1.854,4.063v.078h-1.3ZM20,94.765h1.459a1.566,1.566,0,0,0,1.208-.487,1.848,1.848,0,0,0,.448-1.3q0-1.845-1.669-1.844H20Zm10.526.485H27.138v3.38h3.945v1.037H25.935V90.093h5.083V91.13h-3.88v3.083h3.386Zm6.278,2a1.479,1.479,0,0,0-.388-1.1,4,4,0,0,0-1.4-.742,6.036,6.036,0,0,1-1.549-.759,2.65,2.65,0,0,1-.8-.909,2.686,2.686,0,0,1,.493-3.043,2.731,2.731,0,0,1,1.989-.736,2.957,2.957,0,0,1,1.5.377,2.579,2.579,0,0,1,1.012,1.048,3.1,3.1,0,0,1,.355,1.472H36.8a2.013,2.013,0,0,0-.426-1.374,1.55,1.55,0,0,0-1.23-.487,1.516,1.516,0,0,0-1.131.409,1.565,1.565,0,0,0-.4,1.145,1.337,1.337,0,0,0,.435,1.014,3.8,3.8,0,0,0,1.34.732,4.608,4.608,0,0,1,2.022,1.151,2.593,2.593,0,0,1,.609,1.791,2.416,2.416,0,0,1-.757,1.865,2.906,2.906,0,0,1-2.058.7,3.279,3.279,0,0,1-1.542-.367,2.767,2.767,0,0,1-1.111-1.027,2.859,2.859,0,0,1-.4-1.518h1.21a1.856,1.856,0,0,0,.5,1.38,1.83,1.83,0,0,0,1.351.5,1.6,1.6,0,0,0,1.2-.409,1.516,1.516,0,0,0,.4-1.111m9.025-1.523a4.785,4.785,0,0,1-.835,3.02,2.846,2.846,0,0,1-2.374,1.06,2.882,2.882,0,0,1-2.339-1.031,4.56,4.56,0,0,1-.891-2.911v-1.8a4.788,4.788,0,0,1,.848-3.012A3.151,3.151,0,0,1,44.96,91a4.7,4.7,0,0,1,.867,2.976Zm-1.2-1.677a4.091,4.091,0,0,0-.5-2.258A1.908,1.908,0,0,0,41.1,91.8a3.948,3.948,0,0,0-.516,2.209v1.715a4.039,4.039,0,0,0,.509,2.233,1.914,1.914,0,0,0,3.021.06,3.989,3.989,0,0,0,.505-2.174ZM53.4,90.093V96.9a3.1,3.1,0,0,1-5.121,2.149A2.95,2.95,0,0,1,47.51,96.9V90.093h1.2v6.753a2.165,2.165,0,0,0,.413,1.443,2.088,2.088,0,0,0,2.654,0,2.165,2.165,0,0,0,.412-1.443V90.093ZM58.142,95.8H56.459v3.865h-1.21V90.093h2.682a2.861,2.861,0,0,1,2.13.733,2.94,2.94,0,0,1,.725,2.15,3.006,3.006,0,0,1-.392,1.551,2.475,2.475,0,0,1-1.107,1l1.854,4.063v.078H59.846Zm-1.683-1.037h1.458a1.564,1.564,0,0,0,1.208-.487,1.844,1.844,0,0,0,.449-1.3q0-1.845-1.67-1.844H56.459ZM68.4,96.621a3.558,3.558,0,0,1-.864,2.359,2.923,2.923,0,0,1-2.22.822,2.745,2.745,0,0,1-2.287-1.1,4.74,4.74,0,0,1-.848-2.971V94a4.579,4.579,0,0,1,.871-2.954,2.88,2.88,0,0,1,2.376-1.086,2.753,2.753,0,0,1,2.146.83,3.627,3.627,0,0,1,.826,2.377H67.183a2.948,2.948,0,0,0-.494-1.67,1.542,1.542,0,0,0-1.262-.5,1.722,1.722,0,0,0-1.506.766A3.969,3.969,0,0,0,63.4,94V95.76a4.173,4.173,0,0,0,.489,2.228,1.583,1.583,0,0,0,1.429.777,1.731,1.731,0,0,0,1.356-.467,2.947,2.947,0,0,0,.512-1.677Zm6.22-1.371H71.232v3.38h3.945v1.037H70.028V90.093h5.084V91.13h-3.88v3.083h3.387Zm6.277,2a1.479,1.479,0,0,0-.388-1.1,4,4,0,0,0-1.4-.742,6.044,6.044,0,0,1-1.548-.759,2.667,2.667,0,0,1-.8-.909,2.69,2.69,0,0,1,.494-3.043,2.729,2.729,0,0,1,1.989-.736,2.957,2.957,0,0,1,1.5.377,2.573,2.573,0,0,1,1.012,1.048,3.1,3.1,0,0,1,.355,1.472H80.9a2.018,2.018,0,0,0-.426-1.374,1.55,1.55,0,0,0-1.23-.487,1.521,1.521,0,0,0-1.132.409,1.564,1.564,0,0,0-.4,1.145,1.337,1.337,0,0,0,.435,1.014,3.8,3.8,0,0,0,1.34.732A4.608,4.608,0,0,1,81.5,95.445a2.588,2.588,0,0,1,.609,1.791,2.416,2.416,0,0,1-.757,1.865,2.9,2.9,0,0,1-2.058.7,3.285,3.285,0,0,1-1.542-.367,2.774,2.774,0,0,1-1.111-1.027,2.859,2.859,0,0,1-.4-1.518h1.21a1.856,1.856,0,0,0,.5,1.38,1.83,1.83,0,0,0,1.351.5,1.6,1.6,0,0,0,1.2-.409,1.516,1.516,0,0,0,.4-1.111" fill="#2b2a29" fillRule="evenodd"/>
    <path id="Path_3003" data-name="Path 3003" d="M17.694,82.422v3.743h-1.2V76.591h3.053a2.759,2.759,0,0,1,2.1.8,2.956,2.956,0,0,1,.763,2.129,2.917,2.917,0,0,1-.728,2.128,2.814,2.814,0,0,1-2.047.775Zm0-1.037h1.85a1.561,1.561,0,0,0,1.23-.481,2.018,2.018,0,0,0,.426-1.376,2.059,2.059,0,0,0-.44-1.38,1.5,1.5,0,0,0-1.21-.52H17.694Zm7.472,3.744H28.92v1.036H23.956V76.591h1.21Zm9.776-1.468H31.706l-.743,2.5H29.729l3.084-9.574h1.03l3.09,9.574H35.7Zm-2.92-1.037h2.611l-1.309-4.35ZM40.111,81.4l-1.959-4.807H36.785l2.723,6v3.57h1.2V82.6l2.723-6H42.071Zm13.644,3.579-.208.264A3.306,3.306,0,0,1,50.889,86.3a3.032,3.032,0,0,1-2.435-1.031,4.4,4.4,0,0,1-.9-2.911V80.475a4.737,4.737,0,0,1,.806-3.016,3.392,3.392,0,0,1,4.549-.242,3.174,3.174,0,0,1,.85,2.176h-1.2a2.41,2.41,0,0,0-.5-1.4,1.587,1.587,0,0,0-1.286-.5,1.729,1.729,0,0,0-1.51.673,3.861,3.861,0,0,0-.5,2.152v1.953a3.783,3.783,0,0,0,.553,2.22,1.829,1.829,0,0,0,1.584.772,2.093,2.093,0,0,0,1.479-.471l.177-.162V82.435H50.8V81.4h2.951ZM58.617,82.3H56.934v3.865h-1.21V76.591h2.682a2.859,2.859,0,0,1,2.13.734,2.936,2.936,0,0,1,.725,2.149,2.994,2.994,0,0,1-.393,1.551,2.477,2.477,0,0,1-1.106,1l1.853,4.063v.078h-1.3Zm-1.683-1.036h1.459a1.566,1.566,0,0,0,1.207-.488,1.843,1.843,0,0,0,.449-1.3q0-1.847-1.67-1.845H56.934ZM69.1,82.22a4.788,4.788,0,0,1-.835,3.021A2.847,2.847,0,0,1,65.891,86.3a2.88,2.88,0,0,1-2.339-1.031,4.571,4.571,0,0,1-.891-2.911v-1.8a4.783,4.783,0,0,1,.849-3.011,2.831,2.831,0,0,1,2.368-1.089A2.862,2.862,0,0,1,68.234,77.5a4.7,4.7,0,0,1,.867,2.975Zm-1.206-1.677a4.086,4.086,0,0,0-.5-2.258,1.908,1.908,0,0,0-3.023.011A3.953,3.953,0,0,0,63.86,80.5V82.22a4.037,4.037,0,0,0,.509,2.233,1.913,1.913,0,0,0,3.021.061,3.984,3.984,0,0,0,.5-2.175Zm8.774-3.952V83.4a3.1,3.1,0,0,1-5.122,2.149,2.948,2.948,0,0,1-.763-2.149V76.591h1.2v6.753a2.17,2.17,0,0,0,.412,1.443,2.089,2.089,0,0,0,2.655,0,2.165,2.165,0,0,0,.411-1.443V76.591Zm3.052,5.831v3.743h-1.2V76.591h3.053a2.756,2.756,0,0,1,2.1.8,2.956,2.956,0,0,1,.763,2.129,2.921,2.921,0,0,1-.727,2.128,2.815,2.815,0,0,1-2.047.775Zm0-1.037h1.85A1.56,1.56,0,0,0,82.8,80.9a2.013,2.013,0,0,0,.426-1.376,2.059,2.059,0,0,0-.44-1.38,1.5,1.5,0,0,0-1.21-.52H79.721ZM21.682,95.8H20v3.865H18.789V90.093h2.682a2.864,2.864,0,0,1,2.13.733,2.944,2.944,0,0,1,.724,2.15,3,3,0,0,1-.392,1.551,2.474,2.474,0,0,1-1.107,1l1.854,4.063v.078h-1.3ZM20,94.765h1.459a1.566,1.566,0,0,0,1.208-.487,1.848,1.848,0,0,0,.448-1.3q0-1.845-1.669-1.844H20Zm10.526.485H27.138v3.38h3.945v1.037H25.935V90.093h5.083V91.13h-3.88v3.083h3.386Zm6.278,2a1.479,1.479,0,0,0-.388-1.1,4,4,0,0,0-1.4-.742,6.036,6.036,0,0,1-1.549-.759,2.65,2.65,0,0,1-.8-.909,2.686,2.686,0,0,1,.493-3.043,2.731,2.731,0,0,1,1.989-.736,2.957,2.957,0,0,1,1.5.377,2.579,2.579,0,0,1,1.012,1.048,3.1,3.1,0,0,1,.355,1.472H36.8a2.013,2.013,0,0,0-.426-1.374,1.55,1.55,0,0,0-1.23-.487,1.516,1.516,0,0,0-1.131.409,1.565,1.565,0,0,0-.4,1.145,1.337,1.337,0,0,0,.435,1.014,3.8,3.8,0,0,0,1.34.732,4.608,4.608,0,0,1,2.022,1.151,2.593,2.593,0,0,1,.609,1.791,2.416,2.416,0,0,1-.757,1.865,2.906,2.906,0,0,1-2.058.7,3.279,3.279,0,0,1-1.542-.367,2.767,2.767,0,0,1-1.111-1.027,2.859,2.859,0,0,1-.4-1.518h1.21a1.856,1.856,0,0,0,.5,1.38,1.83,1.83,0,0,0,1.351.5,1.6,1.6,0,0,0,1.2-.409A1.516,1.516,0,0,0,36.8,97.245Zm9.025-1.523a4.785,4.785,0,0,1-.835,3.02,2.846,2.846,0,0,1-2.374,1.06,2.882,2.882,0,0,1-2.339-1.031,4.56,4.56,0,0,1-.891-2.911v-1.8a4.788,4.788,0,0,1,.848-3.012A3.151,3.151,0,0,1,44.96,91a4.7,4.7,0,0,1,.867,2.976Zm-1.2-1.677a4.091,4.091,0,0,0-.5-2.258A1.908,1.908,0,0,0,41.1,91.8a3.948,3.948,0,0,0-.516,2.209v1.715a4.039,4.039,0,0,0,.509,2.233,1.914,1.914,0,0,0,3.021.06,3.989,3.989,0,0,0,.505-2.174ZM53.4,90.093V96.9a3.1,3.1,0,0,1-5.121,2.149A2.95,2.95,0,0,1,47.51,96.9V90.093h1.2v6.753a2.165,2.165,0,0,0,.413,1.443,2.088,2.088,0,0,0,2.654,0,2.165,2.165,0,0,0,.412-1.443V90.093ZM58.142,95.8H56.459v3.865h-1.21V90.093h2.682a2.861,2.861,0,0,1,2.13.733,2.94,2.94,0,0,1,.725,2.15,3.006,3.006,0,0,1-.392,1.551,2.475,2.475,0,0,1-1.107,1l1.854,4.063v.078H59.846Zm-1.683-1.037h1.458a1.564,1.564,0,0,0,1.208-.487,1.844,1.844,0,0,0,.449-1.3q0-1.845-1.67-1.844H56.459ZM68.4,96.621a3.558,3.558,0,0,1-.864,2.359,2.923,2.923,0,0,1-2.22.822,2.745,2.745,0,0,1-2.287-1.1,4.74,4.74,0,0,1-.848-2.971V94a4.579,4.579,0,0,1,.871-2.954,2.88,2.88,0,0,1,2.376-1.086,2.753,2.753,0,0,1,2.146.83,3.627,3.627,0,0,1,.826,2.377H67.183a2.948,2.948,0,0,0-.494-1.67,1.542,1.542,0,0,0-1.262-.5,1.722,1.722,0,0,0-1.506.766A3.969,3.969,0,0,0,63.4,94V95.76a4.173,4.173,0,0,0,.489,2.228,1.583,1.583,0,0,0,1.429.777,1.731,1.731,0,0,0,1.356-.467,2.947,2.947,0,0,0,.512-1.677Zm6.22-1.371H71.232v3.38h3.945v1.037H70.028V90.093h5.084V91.13h-3.88v3.083h3.387Zm6.277,2a1.479,1.479,0,0,0-.388-1.1,4,4,0,0,0-1.4-.742,6.044,6.044,0,0,1-1.548-.759,2.667,2.667,0,0,1-.8-.909,2.69,2.69,0,0,1,.494-3.043,2.729,2.729,0,0,1,1.989-.736,2.957,2.957,0,0,1,1.5.377,2.573,2.573,0,0,1,1.012,1.048,3.1,3.1,0,0,1,.355,1.472H80.9a2.018,2.018,0,0,0-.426-1.374,1.55,1.55,0,0,0-1.23-.487,1.521,1.521,0,0,0-1.132.409,1.564,1.564,0,0,0-.4,1.145,1.337,1.337,0,0,0,.435,1.014,3.8,3.8,0,0,0,1.34.732A4.608,4.608,0,0,1,81.5,95.445a2.588,2.588,0,0,1,.609,1.791,2.416,2.416,0,0,1-.757,1.865,2.9,2.9,0,0,1-2.058.7,3.285,3.285,0,0,1-1.542-.367,2.774,2.774,0,0,1-1.111-1.027,2.859,2.859,0,0,1-.4-1.518h1.21a1.856,1.856,0,0,0,.5,1.38,1.83,1.83,0,0,0,1.351.5,1.6,1.6,0,0,0,1.2-.409A1.516,1.516,0,0,0,80.9,97.245Z" fill="none" stroke="#000" strokeMiterlimit="10" strokeWidth="0.5"/>
    <path id="Path_3004" data-name="Path 3004" d="M55.684,41.411H37.258V40.5a8.141,8.141,0,0,1,8.131-8.133h2.162A8.142,8.142,0,0,1,55.684,40.5ZM47.551,30.17H45.389A10.339,10.339,0,0,0,35.063,40.5v2.011a1.1,1.1,0,0,0,1.1,1.1H56.781a1.1,1.1,0,0,0,1.1-1.1V40.5A10.337,10.337,0,0,0,47.551,30.17" fill="#fff" fillRule="evenodd"/>
    <path id="Path_3005" data-name="Path 3005" d="M26.5,51.868a.382.382,0,0,1,.382-.381h1.96V61.679A3.443,3.443,0,0,1,26.5,58.418Zm4.652-10.876a15.308,15.308,0,1,1,30.615,0v5.069H31.151ZM46.288,21.727h.318a2.679,2.679,0,0,1,2.582,2,16,16,0,0,0-5.482,0,2.676,2.676,0,0,1,2.582-2M64.1,51.487h1.959a.381.381,0,0,1,.382.381v6.55A3.443,3.443,0,0,1,64.1,61.679ZM61.766,62.681a2.59,2.59,0,0,1-2.588,2.585H33.739a2.59,2.59,0,0,1-2.588-2.585V48.253H61.766ZM29.158,63.972a4.771,4.771,0,0,0,4.581,3.486h25.44a4.774,4.774,0,0,0,4.58-3.483,5.625,5.625,0,0,0,4.878-5.557v-6.55a2.579,2.579,0,0,0-2.578-2.574h-2.1v-8.3a17.527,17.527,0,0,0-12.5-16.764,4.871,4.871,0,0,0-4.857-4.694h-.318a4.871,4.871,0,0,0-4.857,4.7A17.523,17.523,0,0,0,28.958,40.992v8.3H26.881A2.581,2.581,0,0,0,24.3,51.868v6.55a5.626,5.626,0,0,0,4.855,5.554" fill="#fff" fillRule="evenodd"/>
    <path id="Path_3006" data-name="Path 3006" d="M38.5,56.812h1.219v.326a1.1,1.1,0,0,0,2.195,0v-.326H54.442a1.1,1.1,0,0,0,0-2.195H38.5a1.1,1.1,0,0,0,0,2.195" fill="#fff" fillRule="evenodd"/>
    <path id="Path_3007" data-name="Path 3007" d="M35.992,53.029a.613.613,0,0,1,.612-.613H56.335a.613.613,0,0,1,.612.613v8.214a.615.615,0,0,1-.612.616H36.6a.616.616,0,0,1-.613-.616ZM36.6,64.051h19.73a2.812,2.812,0,0,0,2.808-2.808V53.029a2.813,2.813,0,0,0-2.808-2.808H36.6A2.812,2.812,0,0,0,33.8,53.029v8.214A2.811,2.811,0,0,0,36.6,64.051" fill="#fff" fillRule="evenodd"/>
  </g>
</svg>
