<svg id="Group_2437" data-name="Group 2437" xmlns="http://www.w3.org/2000/svg" xmlns:xlink="http://www.w3.org/1999/xlink" width="96.06" height="116.684" viewBox="0 0 96.06 116.684">
  <defs>
    <clipPath id="clip-path">
      <rect id="Rectangle_1558" data-name="Rectangle 1558" width="96.06" height="116.684" transform="translate(0 0)" fill="none"/>
    </clipPath>
  </defs>
  <g id="Group_2436" data-name="Group 2436" clipPath="url(#clip-path)">
    <path id="Path_2958" data-name="Path 2958" d="M5.915,0H73.141L96,22.507v88.262a5.934,5.934,0,0,1-5.916,5.916H5.915A5.933,5.933,0,0,1,0,110.769V5.916A5.933,5.933,0,0,1,5.915,0" fill="#a5c765" fillRule="evenodd"/>
    <path id="Path_2959" data-name="Path 2959" d="M96.06,22.546l-18.335.024a4.6,4.6,0,0,1-4.586-4.586V0Z" fill="#fff" fillRule="evenodd"/>
    <path id="Path_2960" data-name="Path 2960" d="M26.913,82.421v3.744h-1.2V76.59h3.053a2.762,2.762,0,0,1,2.1.8,2.959,2.959,0,0,1,.763,2.13,2.918,2.918,0,0,1-.727,2.127,2.807,2.807,0,0,1-2.047.775Zm0-1.037h1.85a1.559,1.559,0,0,0,1.23-.48,2.02,2.02,0,0,0,.426-1.376,2.062,2.062,0,0,0-.44-1.381,1.5,1.5,0,0,0-1.21-.52H26.913Zm9.157.916H34.387v3.865h-1.21V76.59h2.682a2.862,2.862,0,0,1,2.13.734,2.938,2.938,0,0,1,.725,2.15,3,3,0,0,1-.392,1.551,2.486,2.486,0,0,1-1.107,1l1.854,4.062v.079h-1.3Zm-1.683-1.037h1.459a1.566,1.566,0,0,0,1.208-.487,1.844,1.844,0,0,0,.448-1.3q0-1.845-1.669-1.845H34.387Zm12.167.956a4.78,4.78,0,0,1-.835,3.021A2.845,2.845,0,0,1,43.345,86.3a2.881,2.881,0,0,1-2.339-1.03,4.567,4.567,0,0,1-.891-2.911v-1.8a4.794,4.794,0,0,1,.848-3.012,3.15,3.15,0,0,1,4.725-.045,4.7,4.7,0,0,1,.866,2.976Zm-1.205-1.677a4.089,4.089,0,0,0-.5-2.257,1.907,1.907,0,0,0-3.023.011,3.947,3.947,0,0,0-.516,2.208v1.715a4.041,4.041,0,0,0,.509,2.234,1.914,1.914,0,0,0,3.021.06,3.984,3.984,0,0,0,.5-2.175Zm6.365-3.952h1.21v6.782a3.093,3.093,0,0,1-.7,2.151,2.413,2.413,0,0,1-1.886.776,2.438,2.438,0,0,1-1.892-.736,2.893,2.893,0,0,1-.677-2.038h1.2a2.024,2.024,0,0,0,.361,1.278,1.207,1.207,0,0,0,1.005.46,1.186,1.186,0,0,0,1-.5,2.294,2.294,0,0,0,.375-1.4Zm7.8,5.158H56.124v3.38H60.07v1.037H54.921V76.59h5.084v1.037H56.124v3.084h3.387Zm8.1,1.371a3.546,3.546,0,0,1-.864,2.359,2.924,2.924,0,0,1-2.22.821,2.742,2.742,0,0,1-2.287-1.1,4.739,4.739,0,0,1-.848-2.972V80.5a4.585,4.585,0,0,1,.871-2.954,2.883,2.883,0,0,1,2.377-1.087,2.757,2.757,0,0,1,2.146.831,3.634,3.634,0,0,1,.825,2.376H66.395a2.947,2.947,0,0,0-.494-1.669,1.538,1.538,0,0,0-1.261-.5,1.718,1.718,0,0,0-1.506.766,3.968,3.968,0,0,0-.526,2.244v1.755a4.183,4.183,0,0,0,.49,2.229,1.585,1.585,0,0,0,1.429.777,1.73,1.73,0,0,0,1.356-.467,2.939,2.939,0,0,0,.512-1.677Zm7.035-5.492H72.127v8.538h-1.2V77.627H68.413V76.59h6.233ZM34.709,96.621a3.555,3.555,0,0,1-.864,2.358,2.925,2.925,0,0,1-2.22.822,2.744,2.744,0,0,1-2.287-1.1,4.743,4.743,0,0,1-.848-2.972V94a4.587,4.587,0,0,1,.87-2.954,2.883,2.883,0,0,1,2.377-1.086,2.757,2.757,0,0,1,2.146.83,3.632,3.632,0,0,1,.826,2.377H33.493A2.948,2.948,0,0,0,33,91.494a1.541,1.541,0,0,0-1.262-.5,1.718,1.718,0,0,0-1.5.765A3.966,3.966,0,0,0,29.707,94v1.755a4.177,4.177,0,0,0,.489,2.229,1.584,1.584,0,0,0,1.429.776,1.731,1.731,0,0,0,1.356-.467,2.94,2.94,0,0,0,.512-1.676ZM42.6,99.666h-1.21V95.249H37.542v4.417H36.336V90.092h1.206v4.121h3.851V90.092H42.6Zm6.668-2.5H46.035l-.743,2.5H44.058l3.083-9.574h1.03l3.091,9.574H50.027Zm-2.92-1.037h2.61l-1.308-4.35Zm9.11-.323H53.778v3.864h-1.21V90.092H55.25a2.858,2.858,0,0,1,2.13.734,2.938,2.938,0,0,1,.725,2.15,2.989,2.989,0,0,1-.393,1.551,2.478,2.478,0,0,1-1.106,1l1.853,4.062v.078H57.165Zm-1.683-1.037h1.459a1.562,1.562,0,0,0,1.207-.487,1.847,1.847,0,0,0,.449-1.3q0-1.845-1.67-1.845H53.778Zm11-3.636H62.264v8.537h-1.2V91.129H58.55V90.092h6.232Zm5.49,6.116a1.479,1.479,0,0,0-.388-1.1,3.982,3.982,0,0,0-1.4-.743,6.079,6.079,0,0,1-1.548-.758,2.672,2.672,0,0,1-.8-.909,2.479,2.479,0,0,1-.268-1.167,2.5,2.5,0,0,1,.761-1.877,2.731,2.731,0,0,1,1.989-.736,2.967,2.967,0,0,1,1.5.377,2.579,2.579,0,0,1,1.012,1.048,3.108,3.108,0,0,1,.355,1.472h-1.21a2.009,2.009,0,0,0-.426-1.373,1.55,1.55,0,0,0-1.23-.487,1.516,1.516,0,0,0-1.132.409,1.566,1.566,0,0,0-.4,1.144,1.336,1.336,0,0,0,.435,1.014,3.805,3.805,0,0,0,1.34.732,4.618,4.618,0,0,1,2.022,1.152,2.584,2.584,0,0,1,.609,1.791,2.417,2.417,0,0,1-.757,1.865,2.9,2.9,0,0,1-2.058.7,3.293,3.293,0,0,1-1.542-.366,2.783,2.783,0,0,1-1.111-1.028,2.858,2.858,0,0,1-.4-1.517h1.21a1.856,1.856,0,0,0,.5,1.38,1.829,1.829,0,0,0,1.351.494,1.611,1.611,0,0,0,1.2-.408,1.517,1.517,0,0,0,.4-1.111" fill="#2b2a29" fillRule="evenodd"/>
    <path id="Path_2961" data-name="Path 2961" d="M26.913,82.421v3.744h-1.2V76.59h3.053a2.762,2.762,0,0,1,2.1.8,2.959,2.959,0,0,1,.763,2.13,2.918,2.918,0,0,1-.727,2.127,2.807,2.807,0,0,1-2.047.775Zm0-1.037h1.85a1.559,1.559,0,0,0,1.23-.48,2.02,2.02,0,0,0,.426-1.376,2.062,2.062,0,0,0-.44-1.381,1.5,1.5,0,0,0-1.21-.52H26.913Zm9.157.916H34.387v3.865h-1.21V76.59h2.682a2.862,2.862,0,0,1,2.13.734,2.938,2.938,0,0,1,.725,2.15,3,3,0,0,1-.392,1.551,2.486,2.486,0,0,1-1.107,1l1.854,4.062v.079h-1.3Zm-1.683-1.037h1.459a1.566,1.566,0,0,0,1.208-.487,1.844,1.844,0,0,0,.448-1.3q0-1.845-1.669-1.845H34.387Zm12.167.956a4.78,4.78,0,0,1-.835,3.021A2.845,2.845,0,0,1,43.345,86.3a2.881,2.881,0,0,1-2.339-1.03,4.567,4.567,0,0,1-.891-2.911v-1.8a4.794,4.794,0,0,1,.848-3.012,3.15,3.15,0,0,1,4.725-.045,4.7,4.7,0,0,1,.866,2.976Zm-1.205-1.677a4.089,4.089,0,0,0-.5-2.257,1.907,1.907,0,0,0-3.023.011,3.947,3.947,0,0,0-.516,2.208v1.715a4.041,4.041,0,0,0,.509,2.234,1.914,1.914,0,0,0,3.021.06,3.984,3.984,0,0,0,.5-2.175Zm6.365-3.952h1.21v6.782a3.093,3.093,0,0,1-.7,2.151,2.413,2.413,0,0,1-1.886.776,2.438,2.438,0,0,1-1.892-.736,2.893,2.893,0,0,1-.677-2.038h1.2a2.024,2.024,0,0,0,.361,1.278,1.207,1.207,0,0,0,1.005.46,1.186,1.186,0,0,0,1-.5,2.294,2.294,0,0,0,.375-1.4Zm7.8,5.158H56.124v3.38H60.07v1.037H54.921V76.59h5.084v1.037H56.124v3.084h3.387Zm8.1,1.371a3.546,3.546,0,0,1-.864,2.359,2.924,2.924,0,0,1-2.22.821,2.742,2.742,0,0,1-2.287-1.1,4.739,4.739,0,0,1-.848-2.972V80.5a4.585,4.585,0,0,1,.871-2.954,2.883,2.883,0,0,1,2.377-1.087,2.757,2.757,0,0,1,2.146.831,3.634,3.634,0,0,1,.825,2.376H66.395a2.947,2.947,0,0,0-.494-1.669,1.538,1.538,0,0,0-1.261-.5,1.718,1.718,0,0,0-1.506.766,3.968,3.968,0,0,0-.526,2.244v1.755a4.183,4.183,0,0,0,.49,2.229,1.585,1.585,0,0,0,1.429.777,1.73,1.73,0,0,0,1.356-.467,2.939,2.939,0,0,0,.512-1.677Zm7.035-5.492H72.127v8.538h-1.2V77.627H68.413V76.59h6.233ZM34.709,96.621a3.555,3.555,0,0,1-.864,2.358,2.925,2.925,0,0,1-2.22.822,2.744,2.744,0,0,1-2.287-1.1,4.743,4.743,0,0,1-.848-2.972V94a4.587,4.587,0,0,1,.87-2.954,2.883,2.883,0,0,1,2.377-1.086,2.757,2.757,0,0,1,2.146.83,3.632,3.632,0,0,1,.826,2.377H33.493A2.948,2.948,0,0,0,33,91.494a1.541,1.541,0,0,0-1.262-.5,1.718,1.718,0,0,0-1.5.765A3.966,3.966,0,0,0,29.707,94v1.755a4.177,4.177,0,0,0,.489,2.229,1.584,1.584,0,0,0,1.429.776,1.731,1.731,0,0,0,1.356-.467,2.94,2.94,0,0,0,.512-1.676ZM42.6,99.666h-1.21V95.249H37.542v4.417H36.336V90.092h1.206v4.121h3.851V90.092H42.6Zm6.668-2.5H46.035l-.743,2.5H44.058l3.083-9.574h1.03l3.091,9.574H50.027Zm-2.92-1.037h2.61l-1.308-4.35Zm9.11-.323H53.778v3.864h-1.21V90.092H55.25a2.858,2.858,0,0,1,2.13.734,2.938,2.938,0,0,1,.725,2.15,2.989,2.989,0,0,1-.393,1.551,2.478,2.478,0,0,1-1.106,1l1.853,4.062v.078H57.165Zm-1.683-1.037h1.459a1.562,1.562,0,0,0,1.207-.487,1.847,1.847,0,0,0,.449-1.3q0-1.845-1.67-1.845H53.778Zm11-3.636H62.264v8.537h-1.2V91.129H58.55V90.092h6.232Zm5.49,6.116a1.479,1.479,0,0,0-.388-1.1,3.982,3.982,0,0,0-1.4-.743,6.079,6.079,0,0,1-1.548-.758,2.672,2.672,0,0,1-.8-.909,2.479,2.479,0,0,1-.268-1.167,2.5,2.5,0,0,1,.761-1.877,2.731,2.731,0,0,1,1.989-.736,2.967,2.967,0,0,1,1.5.377,2.579,2.579,0,0,1,1.012,1.048,3.108,3.108,0,0,1,.355,1.472h-1.21a2.009,2.009,0,0,0-.426-1.373,1.55,1.55,0,0,0-1.23-.487,1.516,1.516,0,0,0-1.132.409,1.566,1.566,0,0,0-.4,1.144,1.336,1.336,0,0,0,.435,1.014,3.805,3.805,0,0,0,1.34.732,4.618,4.618,0,0,1,2.022,1.152,2.584,2.584,0,0,1,.609,1.791,2.417,2.417,0,0,1-.757,1.865,2.9,2.9,0,0,1-2.058.7,3.293,3.293,0,0,1-1.542-.366,2.783,2.783,0,0,1-1.111-1.028,2.858,2.858,0,0,1-.4-1.517h1.21a1.856,1.856,0,0,0,.5,1.38,1.829,1.829,0,0,0,1.351.494,1.611,1.611,0,0,0,1.2-.408A1.517,1.517,0,0,0,70.272,97.245Z" fill="none" stroke="#000" strokeMiterlimit="10" strokeWidth="0.5"/>
    <path id="Path_2962" data-name="Path 2962" d="M66.864,65.136l-39.593-.083V21.178l39.593.082ZM26.45,19.529h0a.823.823,0,0,0-.825.822V65.875a.822.822,0,0,0,.822.822l41.238.087h0a.825.825,0,0,0,.824-.824V20.438a.824.824,0,0,0-.821-.824Z" fill="#fff" fillRule="evenodd"/>
    <path id="Path_2963" data-name="Path 2963" d="M66.864,65.136l-39.593-.083V21.178l39.593.082ZM26.45,19.529h0a.823.823,0,0,0-.825.822V65.875a.822.822,0,0,0,.822.822l41.238.087h0a.825.825,0,0,0,.824-.824V20.438a.824.824,0,0,0-.821-.824Z" fill="none" stroke="#fff" strokeMiterlimit="22.926" strokeWidth="0.5"/>
    <path id="Path_2964" data-name="Path 2964" d="M44.706,32.225a2.366,2.366,0,0,1,2.364-2.359h0a2.362,2.362,0,0,1-.006,4.724h0a2.359,2.359,0,0,1-2.358-2.365m2.362,4.013a4.01,4.01,0,0,0,.007-8.019H47.07a4.01,4.01,0,0,0-.008,8.019Z" fill="#fff" fillRule="evenodd"/>
    <path id="Path_2965" data-name="Path 2965" d="M44.706,32.225a2.366,2.366,0,0,1,2.364-2.359h0a2.362,2.362,0,0,1-.006,4.724h0a2.359,2.359,0,0,1-2.358-2.365Zm2.362,4.013a4.01,4.01,0,0,0,.007-8.019H47.07a4.01,4.01,0,0,0-.008,8.019Z" fill="none" stroke="#fff" strokeMiterlimit="22.926" strokeWidth="0.5"/>
    <path id="Path_2966" data-name="Path 2966" d="M31.748,25.651h30.64V42.742l-9.175-8.9a.823.823,0,0,0-1.228.092L43.509,45.055,37.328,39.8a.822.822,0,0,0-1.174.11l-4.406,5.448Zm30.64,27.492V45.036l-9.655-9.368L44.292,46.744a.825.825,0,0,1-1.189.128L36.9,41.6,31.8,47.918v5.44H62.388ZM30.972,55.005H63.21a.824.824,0,0,0,.824-.824V24.826A.823.823,0,0,0,63.21,24H30.924a.824.824,0,0,0-.824.822v29.14a.778.778,0,0,0,.055.286.821.821,0,0,0,.816.752" fill="#fff" fillRule="evenodd"/>
    <path id="Path_2967" data-name="Path 2967" d="M31.748,25.651h30.64V42.742l-9.175-8.9a.823.823,0,0,0-1.228.092L43.509,45.055,37.328,39.8a.822.822,0,0,0-1.174.11l-4.406,5.448Zm30.64,27.492V45.036l-9.655-9.368L44.292,46.744a.825.825,0,0,1-1.189.128L36.9,41.6,31.8,47.918v5.44H62.388ZM30.972,55.005H63.21a.824.824,0,0,0,.824-.824V24.826A.823.823,0,0,0,63.21,24H30.924a.824.824,0,0,0-.824.822v29.14a.778.778,0,0,0,.055.286A.821.821,0,0,0,30.972,55.005Z" fill="none" stroke="#fff" strokeMiterlimit="22.926" strokeWidth="0.5"/>
  </g>
</svg>
