<svg id="Group_2423" data-name="Group 2423" xmlns="http://www.w3.org/2000/svg" xmlns:xlink="http://www.w3.org/1999/xlink" width="96.059" height="117.061" viewBox="0 0 96.059 117.061">
  <defs>
    <clipPath id="clip-path">
      <rect id="Rectangle_1550" data-name="Rectangle 1550" width="96.059" height="117.06" fill="none"/>
    </clipPath>
  </defs>
  <g id="Group_2422" data-name="Group 2422" clipPath="url(#clip-path)">
    <path id="Path_2885" data-name="Path 2885" d="M5.915,0H73.141L96,22.507v88.638a5.933,5.933,0,0,1-5.915,5.915H5.915A5.933,5.933,0,0,1,0,111.145V5.916A5.933,5.933,0,0,1,5.915,0" fill="#59add2" fillRule="evenodd"/>
    <path id="Path_2886" data-name="Path 2886" d="M96.06,22.546l-18.335.024a4.6,4.6,0,0,1-4.587-4.586V0Z" fill="#fff" fillRule="evenodd"/>
    <path id="Path_2887" data-name="Path 2887" d="M22.032,83.889l2.5,7.813,2.5-7.813h1.551v9.575h-1.2V89.736L27.491,86l-2.5,7.466h-.92l-2.494-7.438.113,3.71v3.728h-1.2V83.889Zm14.625,6.529a3.558,3.558,0,0,1-.864,2.359,2.928,2.928,0,0,1-2.22.821,2.744,2.744,0,0,1-2.287-1.1,4.743,4.743,0,0,1-.848-2.972V87.794a4.578,4.578,0,0,1,.871-2.953,2.879,2.879,0,0,1,2.377-1.087,2.757,2.757,0,0,1,2.146.831,3.632,3.632,0,0,1,.825,2.376H35.441a2.945,2.945,0,0,0-.494-1.669,1.538,1.538,0,0,0-1.261-.5,1.718,1.718,0,0,0-1.506.765,3.968,3.968,0,0,0-.526,2.245v1.755a4.17,4.17,0,0,0,.49,2.228,1.583,1.583,0,0,0,1.429.777,1.735,1.735,0,0,0,1.356-.466,2.949,2.949,0,0,0,.512-1.677Zm7.806-.907a5.918,5.918,0,0,1-.338,2.137,3.089,3.089,0,0,1-.963,1.358l1.427,1.284-.815.794-1.723-1.571a4.037,4.037,0,0,1-.8.085,2.872,2.872,0,0,1-2.352-1.05A4.613,4.613,0,0,1,38.02,89.6V87.855a4.79,4.79,0,0,1,.848-3.019,3.161,3.161,0,0,1,4.74-.025,4.738,4.738,0,0,1,.855,2.99Zm-1.2-1.67a4.113,4.113,0,0,0-.5-2.258,1.716,1.716,0,0,0-1.528-.738,1.694,1.694,0,0,0-1.5.75,3.964,3.964,0,0,0-.516,2.208v1.708a4.078,4.078,0,0,0,.509,2.24,1.913,1.913,0,0,0,3.01.074,3.877,3.877,0,0,0,.518-2.15Zm6.2,5.623V83.889h2.73a2.736,2.736,0,0,1,1.968.637,2.535,2.535,0,0,1,.662,1.913,2.1,2.1,0,0,1-.337,1.182,2.244,2.244,0,0,1-.906.795,1.821,1.821,0,0,1,1.041.808A2.7,2.7,0,0,1,55,90.7a2.808,2.808,0,0,1-.707,2.028,2.661,2.661,0,0,1-2.015.737Zm1.2-4.485v3.448h1.645a1.377,1.377,0,0,0,1.084-.452,1.839,1.839,0,0,0,.4-1.265q0-1.731-1.46-1.731Zm0-1.01h1.546a1.3,1.3,0,0,0,1.008-.419,1.924,1.924,0,0,0,.035-2.265,1.413,1.413,0,0,0-1.063-.359H50.663Zm10.605,2.99H58.031l-.743,2.5H56.054l3.084-9.575h1.03l3.09,9.575H62.024Zm-2.92-1.037h2.61l-1.309-4.35Zm12.465,3.542H69.6L65.77,86.086v7.378H64.56V83.889h1.21L69.617,91.3V83.889h1.2Zm4.231-4.413-.94,1.138v3.275H72.9V83.889h1.2v4.623l.79-1.046,2.576-3.577h1.448L75.807,88.1l3.353,5.36H77.722Z" fill="#2b2a29" fillRule="evenodd"/>
    <path id="Path_2888" data-name="Path 2888" d="M22.032,83.889l2.5,7.813,2.5-7.813h1.551v9.575h-1.2V89.736L27.491,86l-2.5,7.466h-.92l-2.494-7.438.113,3.71v3.728h-1.2V83.889Zm14.625,6.529a3.558,3.558,0,0,1-.864,2.359,2.928,2.928,0,0,1-2.22.821,2.744,2.744,0,0,1-2.287-1.1,4.743,4.743,0,0,1-.848-2.972V87.794a4.578,4.578,0,0,1,.871-2.953,2.879,2.879,0,0,1,2.377-1.087,2.757,2.757,0,0,1,2.146.831,3.632,3.632,0,0,1,.825,2.376H35.441a2.945,2.945,0,0,0-.494-1.669,1.538,1.538,0,0,0-1.261-.5,1.718,1.718,0,0,0-1.506.765,3.968,3.968,0,0,0-.526,2.245v1.755a4.17,4.17,0,0,0,.49,2.228,1.583,1.583,0,0,0,1.429.777,1.735,1.735,0,0,0,1.356-.466,2.949,2.949,0,0,0,.512-1.677Zm7.806-.907a5.918,5.918,0,0,1-.338,2.137,3.089,3.089,0,0,1-.963,1.358l1.427,1.284-.815.794-1.723-1.571a4.037,4.037,0,0,1-.8.085,2.872,2.872,0,0,1-2.352-1.05A4.613,4.613,0,0,1,38.02,89.6V87.855a4.79,4.79,0,0,1,.848-3.019,3.161,3.161,0,0,1,4.74-.025,4.738,4.738,0,0,1,.855,2.99Zm-1.2-1.67a4.113,4.113,0,0,0-.5-2.258,1.716,1.716,0,0,0-1.528-.738,1.694,1.694,0,0,0-1.5.75,3.964,3.964,0,0,0-.516,2.208v1.708a4.078,4.078,0,0,0,.509,2.24,1.913,1.913,0,0,0,3.01.074,3.877,3.877,0,0,0,.518-2.15Zm6.2,5.623V83.889h2.73a2.736,2.736,0,0,1,1.968.637,2.535,2.535,0,0,1,.662,1.913,2.1,2.1,0,0,1-.337,1.182,2.244,2.244,0,0,1-.906.795,1.821,1.821,0,0,1,1.041.808A2.7,2.7,0,0,1,55,90.7a2.808,2.808,0,0,1-.707,2.028,2.661,2.661,0,0,1-2.015.737Zm1.2-4.485v3.448h1.645a1.377,1.377,0,0,0,1.084-.452,1.839,1.839,0,0,0,.4-1.265q0-1.731-1.46-1.731Zm0-1.01h1.546a1.3,1.3,0,0,0,1.008-.419,1.924,1.924,0,0,0,.035-2.265,1.413,1.413,0,0,0-1.063-.359H50.663Zm10.605,2.99H58.031l-.743,2.5H56.054l3.084-9.575h1.03l3.09,9.575H62.024Zm-2.92-1.037h2.61l-1.309-4.35Zm12.465,3.542H69.6L65.77,86.086v7.378H64.56V83.889h1.21L69.617,91.3V83.889h1.2Zm4.231-4.413-.94,1.138v3.275H72.9V83.889h1.2v4.623l.79-1.046,2.576-3.577h1.448L75.807,88.1l3.353,5.36H77.722Z" fill="none" stroke="#000" strokeMiterlimit="10" strokeWidth="0.5"/>
    <path id="Path_2889" data-name="Path 2889" d="M52.82,60.429H41.984a11.3,11.3,0,0,0,1.587-5.718h7.662a11.291,11.291,0,0,0,1.587,5.719m6.063,2.92a.8.8,0,0,1-.8.8H36.722a.8.8,0,1,1,0-1.6h2.633a.736.736,0,0,0,.1.014c.023,0,.045-.012.068-.014H55.275c.022,0,.045.014.067.014a.732.732,0,0,0,.106-.014h2.633a.8.8,0,0,1,.8.8M27.862,51.222V47.335H66.943v3.887a1.376,1.376,0,0,1-1.375,1.372H29.234a1.374,1.374,0,0,1-1.372-1.372m1.372-30.466H65.568a1.376,1.376,0,0,1,1.375,1.373v23.09H27.862V22.129a1.375,1.375,0,0,1,1.372-1.373M69.059,51.222V22.129a3.492,3.492,0,0,0-3.491-3.488H29.234a3.493,3.493,0,0,0-3.489,3.489V51.222a3.493,3.493,0,0,0,3.489,3.489H41.456c-.187,3.915-1.725,5.336-2.267,5.72H36.722a2.919,2.919,0,1,0,0,5.838H58.081a2.918,2.918,0,1,0,0-5.837H55.612c-.517-.368-2.075-1.8-2.265-5.718H65.568a3.492,3.492,0,0,0,3.491-3.488" fill="#fff" fillRule="evenodd"/>
    <path id="Path_2890" data-name="Path 2890" d="M48.988,48.542H45.816a1.059,1.059,0,1,0,0,2.117h3.172a1.059,1.059,0,1,0,0-2.117" fill="#fff" fillRule="evenodd"/>
    <path id="Path_2891" data-name="Path 2891" d="M47.4,25.786l5.714,2.154H47.4a1.058,1.058,0,1,0,0,2.116h5.714L47.4,32.212,38.879,29Zm8.172,12.046V31.393l-7.114,2.681v3.419a1.059,1.059,0,0,1-2.119,0V34.074l-7.113-2.681v6.439l7.1,2.945a2.774,2.774,0,0,0,2.139,0ZM34.864,29.223a1.086,1.086,0,0,0,.024.148.261.261,0,0,0,.019.03,1.029,1.029,0,0,0,.123.2,1.12,1.12,0,0,0,.1.148.986.986,0,0,0,.148.105,1.206,1.206,0,0,0,.195.123c.011,0,.017.012.028.018l1.607.6v7.627a1.51,1.51,0,0,0,.917,1.4l7.492,3.1a4.855,4.855,0,0,0,3.761,0l7.491-3.1a1.511,1.511,0,0,0,.918-1.4V30.595l1.426-.539h1.662v1.718a.923.923,0,0,0,.02.1l-.683.769a1.056,1.056,0,0,0,.792,1.76,1.046,1.046,0,0,0,.791-.356l.138-.154.138.156a1.059,1.059,0,0,0,1.583-1.406l-.683-.769c0-.035.02-.062.02-.1V29a1.057,1.057,0,0,0-1.058-1.058h-2.72L47.774,23.665a1.043,1.043,0,0,0-.744,0L35.505,28.009c-.011,0-.018.012-.029.017a1.156,1.156,0,0,0-.186.116,1.113,1.113,0,0,0-.157.112,1.149,1.149,0,0,0-.1.14,1.053,1.053,0,0,0-.126.2c-.005.01-.014.018-.019.027a1.154,1.154,0,0,0-.024.151,1.048,1.048,0,0,0-.036.223.988.988,0,0,0,.036.225" fill="#fff" fillRule="evenodd"/>
  </g>
</svg>
