<svg id="Group_2443" data-name="Group 2443" xmlns="http://www.w3.org/2000/svg" xmlns:xlink="http://www.w3.org/1999/xlink" width="96.06" height="116.67" viewBox="0 0 96.06 116.67">
  <defs>
    <clipPath id="clip-path">
      <rect id="Rectangle_1561" data-name="Rectangle 1561" width="96.06" height="116.67" fill="none"/>
    </clipPath>
  </defs>
  <g id="Group_2442" data-name="Group 2442" clipPath="url(#clip-path)">
    <path id="Path_2981" data-name="Path 2981" d="M5.915,0H73.141L96,22.507v88.247a5.934,5.934,0,0,1-5.916,5.916H5.915A5.933,5.933,0,0,1,0,110.754V5.915A5.932,5.932,0,0,1,5.915,0" fill="#d7854d" fillRule="evenodd"/>
    <path id="Path_2982" data-name="Path 2982" d="M96.06,22.547l-18.335.024a4.6,4.6,0,0,1-4.586-4.586V0Z" fill="#fff" fillRule="evenodd"/>
    <path id="Path_2983" data-name="Path 2983" d="M31.058,84.233a1.476,1.476,0,0,0-.389-1.1,3.983,3.983,0,0,0-1.4-.742,6.086,6.086,0,0,1-1.549-.759,2.682,2.682,0,0,1-.8-.909,2.69,2.69,0,0,1,.494-3.043,2.73,2.73,0,0,1,1.989-.737,2.97,2.97,0,0,1,1.5.377,2.6,2.6,0,0,1,1.012,1.048,3.109,3.109,0,0,1,.355,1.473h-1.21a2.012,2.012,0,0,0-.427-1.374,1.547,1.547,0,0,0-1.229-.487,1.514,1.514,0,0,0-1.132.409,1.562,1.562,0,0,0-.4,1.144A1.338,1.338,0,0,0,28.3,80.55a3.828,3.828,0,0,0,1.34.732,4.614,4.614,0,0,1,2.022,1.151,2.588,2.588,0,0,1,.609,1.791,2.417,2.417,0,0,1-.757,1.865,2.908,2.908,0,0,1-2.058.7,3.292,3.292,0,0,1-1.542-.365A2.783,2.783,0,0,1,26.807,85.4a2.854,2.854,0,0,1-.4-1.517h1.21a1.86,1.86,0,0,0,.5,1.38,1.829,1.829,0,0,0,1.351.494,1.611,1.611,0,0,0,1.2-.409,1.521,1.521,0,0,0,.4-1.111m8.8-.624a3.558,3.558,0,0,1-.864,2.359,2.924,2.924,0,0,1-2.22.821,2.742,2.742,0,0,1-2.287-1.1,4.733,4.733,0,0,1-.848-2.972V80.986a4.583,4.583,0,0,1,.87-2.954,2.884,2.884,0,0,1,2.377-1.087,2.761,2.761,0,0,1,2.147.83,3.639,3.639,0,0,1,.825,2.377H38.64a2.947,2.947,0,0,0-.494-1.669,1.539,1.539,0,0,0-1.262-.5,1.72,1.72,0,0,0-1.506.766,3.977,3.977,0,0,0-.524,2.244v1.755a4.174,4.174,0,0,0,.489,2.229,1.585,1.585,0,0,0,1.429.777,1.73,1.73,0,0,0,1.356-.467,2.939,2.939,0,0,0,.512-1.677Zm2.887,3.045H41.538V77.08h1.205Zm6.7-4.416H46.055v3.38H50v1.036H44.852V77.08h5.084v1.037H46.055V81.2h3.387Zm8.347,4.416H56.58l-3.834-7.377v7.377H51.537V77.08h1.209l3.847,7.411V77.08h1.2Zm8.091-3.045a3.548,3.548,0,0,1-.864,2.359,2.923,2.923,0,0,1-2.22.821,2.743,2.743,0,0,1-2.287-1.1,4.739,4.739,0,0,1-.847-2.972V80.986a4.583,4.583,0,0,1,.87-2.954,2.884,2.884,0,0,1,2.377-1.087,2.76,2.76,0,0,1,2.146.83,3.634,3.634,0,0,1,.825,2.377H64.665a2.939,2.939,0,0,0-.5-1.669,1.538,1.538,0,0,0-1.261-.5,1.718,1.718,0,0,0-1.506.766,3.968,3.968,0,0,0-.526,2.244v1.755a4.174,4.174,0,0,0,.49,2.229,1.586,1.586,0,0,0,1.429.777,1.735,1.735,0,0,0,1.357-.467,2.954,2.954,0,0,0,.512-1.677Zm6.22-1.371H68.713v3.38h3.946v1.036H67.51V77.08h5.084v1.037H68.713V81.2H72.1ZM23.128,96.413v3.743h-1.2V90.582h3.053a2.767,2.767,0,0,1,2.1.8,2.964,2.964,0,0,1,.762,2.13,2.919,2.919,0,0,1-.727,2.128,2.811,2.811,0,0,1-2.047.775Zm0-1.037h1.85a1.559,1.559,0,0,0,1.23-.48,2.017,2.017,0,0,0,.426-1.376,2.06,2.06,0,0,0-.439-1.381,1.5,1.5,0,0,0-1.21-.52H23.128Zm9.158.915H30.6v3.865h-1.21V90.582h2.682a2.865,2.865,0,0,1,2.131.734,2.946,2.946,0,0,1,.724,2.15,3,3,0,0,1-.393,1.551,2.476,2.476,0,0,1-1.107,1l1.855,4.062v.078H33.99ZM30.6,95.255h1.458a1.564,1.564,0,0,0,1.208-.487,1.847,1.847,0,0,0,.449-1.3q0-1.845-1.67-1.845H30.6Zm12.167.956a4.782,4.782,0,0,1-.835,3.021,2.848,2.848,0,0,1-2.375,1.059,2.882,2.882,0,0,1-2.339-1.03,4.573,4.573,0,0,1-.891-2.911v-1.8a4.787,4.787,0,0,1,.849-3.011,2.835,2.835,0,0,1,2.367-1.089A2.866,2.866,0,0,1,41.9,91.491a4.708,4.708,0,0,1,.866,2.976Zm-1.206-1.677a4.086,4.086,0,0,0-.5-2.258,1.908,1.908,0,0,0-3.023.011,3.97,3.97,0,0,0-.516,2.209v1.715a4.046,4.046,0,0,0,.509,2.233,1.913,1.913,0,0,0,3.021.061,3.984,3.984,0,0,0,.505-2.175Zm6.365-3.952h1.21v6.782a3.09,3.09,0,0,1-.7,2.15,2.408,2.408,0,0,1-1.885.777,2.44,2.44,0,0,1-1.892-.736,2.889,2.889,0,0,1-.678-2.038h1.2a2.019,2.019,0,0,0,.361,1.277,1.2,1.2,0,0,0,1.006.46,1.19,1.19,0,0,0,1-.5,2.3,2.3,0,0,0,.374-1.4Zm7.8,5.157H52.34v3.38h3.946v1.037H51.137V90.582H56.22v1.037H52.34V94.7h3.387Zm8.1,1.372a3.55,3.55,0,0,1-.865,2.358,2.921,2.921,0,0,1-2.219.822,2.747,2.747,0,0,1-2.288-1.1,4.743,4.743,0,0,1-.847-2.972V94.487a4.587,4.587,0,0,1,.87-2.954,2.883,2.883,0,0,1,2.377-1.086,2.757,2.757,0,0,1,2.146.83,3.632,3.632,0,0,1,.826,2.377H62.611a2.951,2.951,0,0,0-.494-1.67,1.544,1.544,0,0,0-1.262-.5,1.721,1.721,0,0,0-1.506.765,3.975,3.975,0,0,0-.524,2.245v1.755a4.189,4.189,0,0,0,.488,2.229,1.587,1.587,0,0,0,1.43.776,1.73,1.73,0,0,0,1.356-.467,2.948,2.948,0,0,0,.512-1.676Zm7.034-5.492H68.343v8.537h-1.2V91.619H64.628V90.582h6.233Zm5.49,6.116a1.476,1.476,0,0,0-.389-1.1,3.966,3.966,0,0,0-1.4-.743,6.088,6.088,0,0,1-1.549-.758,2.682,2.682,0,0,1-.8-.909,2.691,2.691,0,0,1,.494-3.044,2.732,2.732,0,0,1,1.989-.736,2.972,2.972,0,0,1,1.5.377,2.592,2.592,0,0,1,1.012,1.048,3.108,3.108,0,0,1,.355,1.472h-1.21a2.009,2.009,0,0,0-.427-1.373,1.547,1.547,0,0,0-1.229-.487,1.516,1.516,0,0,0-1.132.409,1.562,1.562,0,0,0-.4,1.144,1.332,1.332,0,0,0,.435,1.014,3.8,3.8,0,0,0,1.34.732,4.624,4.624,0,0,1,2.022,1.152,2.586,2.586,0,0,1,.609,1.791,2.417,2.417,0,0,1-.757,1.865,2.907,2.907,0,0,1-2.059.7,3.3,3.3,0,0,1-1.542-.366A2.787,2.787,0,0,1,72.1,98.9a2.858,2.858,0,0,1-.4-1.517h1.21a1.857,1.857,0,0,0,.5,1.38,1.828,1.828,0,0,0,1.35.494,1.608,1.608,0,0,0,1.2-.408,1.518,1.518,0,0,0,.4-1.111" fill="#2b2a29" fillRule="evenodd"/>
    <path id="Path_2984" data-name="Path 2984" d="M31.058,84.233a1.476,1.476,0,0,0-.389-1.1,3.983,3.983,0,0,0-1.4-.742,6.086,6.086,0,0,1-1.549-.759,2.682,2.682,0,0,1-.8-.909,2.69,2.69,0,0,1,.494-3.043,2.73,2.73,0,0,1,1.989-.737,2.97,2.97,0,0,1,1.5.377,2.6,2.6,0,0,1,1.012,1.048,3.109,3.109,0,0,1,.355,1.473h-1.21a2.012,2.012,0,0,0-.427-1.374,1.547,1.547,0,0,0-1.229-.487,1.514,1.514,0,0,0-1.132.409,1.562,1.562,0,0,0-.4,1.144A1.338,1.338,0,0,0,28.3,80.55a3.828,3.828,0,0,0,1.34.732,4.614,4.614,0,0,1,2.022,1.151,2.588,2.588,0,0,1,.609,1.791,2.417,2.417,0,0,1-.757,1.865,2.908,2.908,0,0,1-2.058.7,3.292,3.292,0,0,1-1.542-.365A2.783,2.783,0,0,1,26.807,85.4a2.854,2.854,0,0,1-.4-1.517h1.21a1.86,1.86,0,0,0,.5,1.38,1.829,1.829,0,0,0,1.351.494,1.611,1.611,0,0,0,1.2-.409A1.521,1.521,0,0,0,31.058,84.233Zm8.8-.624a3.558,3.558,0,0,1-.864,2.359,2.924,2.924,0,0,1-2.22.821,2.742,2.742,0,0,1-2.287-1.1,4.733,4.733,0,0,1-.848-2.972V80.986a4.583,4.583,0,0,1,.87-2.954,2.884,2.884,0,0,1,2.377-1.087,2.761,2.761,0,0,1,2.147.83,3.639,3.639,0,0,1,.825,2.377H38.64a2.947,2.947,0,0,0-.494-1.669,1.539,1.539,0,0,0-1.262-.5,1.72,1.72,0,0,0-1.506.766,3.977,3.977,0,0,0-.524,2.244v1.755a4.174,4.174,0,0,0,.489,2.229,1.585,1.585,0,0,0,1.429.777,1.73,1.73,0,0,0,1.356-.467,2.939,2.939,0,0,0,.512-1.677Zm2.887,3.045H41.538V77.08h1.205Zm6.7-4.416H46.055v3.38H50v1.036H44.852V77.08h5.084v1.037H46.055V81.2h3.387Zm8.347,4.416H56.58l-3.834-7.377v7.377H51.537V77.08h1.209l3.847,7.411V77.08h1.2Zm8.091-3.045a3.548,3.548,0,0,1-.864,2.359,2.923,2.923,0,0,1-2.22.821,2.743,2.743,0,0,1-2.287-1.1,4.739,4.739,0,0,1-.847-2.972V80.986a4.583,4.583,0,0,1,.87-2.954,2.884,2.884,0,0,1,2.377-1.087,2.76,2.76,0,0,1,2.146.83,3.634,3.634,0,0,1,.825,2.377H64.665a2.939,2.939,0,0,0-.5-1.669,1.538,1.538,0,0,0-1.261-.5,1.718,1.718,0,0,0-1.506.766,3.968,3.968,0,0,0-.526,2.244v1.755a4.174,4.174,0,0,0,.49,2.229,1.586,1.586,0,0,0,1.429.777,1.735,1.735,0,0,0,1.357-.467,2.954,2.954,0,0,0,.512-1.677Zm6.22-1.371H68.713v3.38h3.946v1.036H67.51V77.08h5.084v1.037H68.713V81.2H72.1ZM23.128,96.413v3.743h-1.2V90.582h3.053a2.767,2.767,0,0,1,2.1.8,2.964,2.964,0,0,1,.762,2.13,2.919,2.919,0,0,1-.727,2.128,2.811,2.811,0,0,1-2.047.775Zm0-1.037h1.85a1.559,1.559,0,0,0,1.23-.48,2.017,2.017,0,0,0,.426-1.376,2.06,2.06,0,0,0-.439-1.381,1.5,1.5,0,0,0-1.21-.52H23.128Zm9.158.915H30.6v3.865h-1.21V90.582h2.682a2.865,2.865,0,0,1,2.131.734,2.946,2.946,0,0,1,.724,2.15,3,3,0,0,1-.393,1.551,2.476,2.476,0,0,1-1.107,1l1.855,4.062v.078H33.99ZM30.6,95.255h1.458a1.564,1.564,0,0,0,1.208-.487,1.847,1.847,0,0,0,.449-1.3q0-1.845-1.67-1.845H30.6Zm12.167.956a4.782,4.782,0,0,1-.835,3.021,2.848,2.848,0,0,1-2.375,1.059,2.882,2.882,0,0,1-2.339-1.03,4.573,4.573,0,0,1-.891-2.911v-1.8a4.787,4.787,0,0,1,.849-3.011,2.835,2.835,0,0,1,2.367-1.089A2.866,2.866,0,0,1,41.9,91.491a4.708,4.708,0,0,1,.866,2.976Zm-1.206-1.677a4.086,4.086,0,0,0-.5-2.258,1.908,1.908,0,0,0-3.023.011,3.97,3.97,0,0,0-.516,2.209v1.715a4.046,4.046,0,0,0,.509,2.233,1.913,1.913,0,0,0,3.021.061,3.984,3.984,0,0,0,.505-2.175Zm6.365-3.952h1.21v6.782a3.09,3.09,0,0,1-.7,2.15,2.408,2.408,0,0,1-1.885.777,2.44,2.44,0,0,1-1.892-.736,2.889,2.889,0,0,1-.678-2.038h1.2a2.019,2.019,0,0,0,.361,1.277,1.2,1.2,0,0,0,1.006.46,1.19,1.19,0,0,0,1-.5,2.3,2.3,0,0,0,.374-1.4Zm7.8,5.157H52.34v3.38h3.946v1.037H51.137V90.582H56.22v1.037H52.34V94.7h3.387Zm8.1,1.372a3.55,3.55,0,0,1-.865,2.358,2.921,2.921,0,0,1-2.219.822,2.747,2.747,0,0,1-2.288-1.1,4.743,4.743,0,0,1-.847-2.972V94.487a4.587,4.587,0,0,1,.87-2.954,2.883,2.883,0,0,1,2.377-1.086,2.757,2.757,0,0,1,2.146.83,3.632,3.632,0,0,1,.826,2.377H62.611a2.951,2.951,0,0,0-.494-1.67,1.544,1.544,0,0,0-1.262-.5,1.721,1.721,0,0,0-1.506.765,3.975,3.975,0,0,0-.524,2.245v1.755a4.189,4.189,0,0,0,.488,2.229,1.587,1.587,0,0,0,1.43.776,1.73,1.73,0,0,0,1.356-.467,2.948,2.948,0,0,0,.512-1.676Zm7.034-5.492H68.343v8.537h-1.2V91.619H64.628V90.582h6.233Zm5.49,6.116a1.476,1.476,0,0,0-.389-1.1,3.966,3.966,0,0,0-1.4-.743,6.088,6.088,0,0,1-1.549-.758,2.682,2.682,0,0,1-.8-.909,2.691,2.691,0,0,1,.494-3.044,2.732,2.732,0,0,1,1.989-.736,2.972,2.972,0,0,1,1.5.377,2.592,2.592,0,0,1,1.012,1.048,3.108,3.108,0,0,1,.355,1.472h-1.21a2.009,2.009,0,0,0-.427-1.373,1.547,1.547,0,0,0-1.229-.487,1.516,1.516,0,0,0-1.132.409,1.562,1.562,0,0,0-.4,1.144,1.332,1.332,0,0,0,.435,1.014,3.8,3.8,0,0,0,1.34.732,4.624,4.624,0,0,1,2.022,1.152,2.586,2.586,0,0,1,.609,1.791,2.417,2.417,0,0,1-.757,1.865,2.907,2.907,0,0,1-2.059.7,3.3,3.3,0,0,1-1.542-.366A2.787,2.787,0,0,1,72.1,98.9a2.858,2.858,0,0,1-.4-1.517h1.21a1.857,1.857,0,0,0,.5,1.38,1.828,1.828,0,0,0,1.35.494,1.608,1.608,0,0,0,1.2-.408A1.518,1.518,0,0,0,76.351,97.735Z" fill="none" stroke="#000" strokeMiterlimit="10" strokeWidth="0.5"/>
    <path id="Path_2985" data-name="Path 2985" d="M47.314,38.229a1.015,1.015,0,1,1,1.016-1.016,1.017,1.017,0,0,1-1.016,1.016m0-3.814a2.8,2.8,0,1,0,2.8,2.8,2.8,2.8,0,0,0-2.8-2.8" fill="#fff" fillRule="evenodd"/>
    <path id="Path_2986" data-name="Path 2986" d="M47.314,38.229a1.015,1.015,0,1,1,1.016-1.016A1.017,1.017,0,0,1,47.314,38.229Zm0-3.814a2.8,2.8,0,1,0,2.8,2.8A2.8,2.8,0,0,0,47.314,34.415Z" fill="none" stroke="#fff" strokeMiterlimit="22.926" strokeWidth="0.5"/>
    <path id="Path_2987" data-name="Path 2987" d="M27.208,62.209l10.6-18.359,18.995.029,11.03,19.106a1.631,1.631,0,0,1-1.413,2.446H29.069a2.147,2.147,0,0,1-1.861-3.222m16.666-28.8a.886.886,0,0,0,.12-.447V25.365H50.6v7.594a.9.9,0,0,0,.119.447l5.015,8.688-16.86-.026ZM41.992,22.281a1.3,1.3,0,0,1,1.3-1.3H51.3a1.3,1.3,0,1,1,0,2.6H43.293a1.3,1.3,0,0,1-1.3-1.3M25.664,65.248a3.893,3.893,0,0,0,3.405,1.966h37.35a3.413,3.413,0,0,0,2.957-5.12L58.088,42.541a.907.907,0,0,0-.253-.27.879.879,0,0,0-.257-.548l-5.2-9V25.167A3.082,3.082,0,0,0,51.3,19.2H43.293a3.081,3.081,0,0,0-1.081,5.967v7.556l-5.2,9a.878.878,0,0,0-.254.53.9.9,0,0,0-.239.26l-10.858,18.8a3.9,3.9,0,0,0,0,3.932" fill="#fff" fillRule="evenodd"/>
    <path id="Path_2988" data-name="Path 2988" d="M27.208,62.209l10.6-18.359,18.995.029,11.03,19.106a1.631,1.631,0,0,1-1.413,2.446H29.069a2.147,2.147,0,0,1-1.861-3.222Zm16.666-28.8a.886.886,0,0,0,.12-.447V25.365H50.6v7.594a.9.9,0,0,0,.119.447l5.015,8.688-16.86-.026ZM41.992,22.281a1.3,1.3,0,0,1,1.3-1.3H51.3a1.3,1.3,0,1,1,0,2.6H43.293A1.3,1.3,0,0,1,41.992,22.281ZM25.664,65.248a3.893,3.893,0,0,0,3.405,1.966h37.35a3.413,3.413,0,0,0,2.957-5.12L58.088,42.541a.907.907,0,0,0-.253-.27.879.879,0,0,0-.257-.548l-5.2-9V25.167A3.082,3.082,0,0,0,51.3,19.2H43.293a3.081,3.081,0,0,0-1.081,5.967v7.556l-5.2,9a.878.878,0,0,0-.254.53.9.9,0,0,0-.239.26l-10.858,18.8A3.9,3.9,0,0,0,25.664,65.248Z" fill="none" stroke="#fff" strokeMiterlimit="22.926" strokeWidth="0.5"/>
    <path id="Path_2989" data-name="Path 2989" d="M43.215,51.551a1.014,1.014,0,1,1,1.015-1.015,1.016,1.016,0,0,1-1.015,1.015m0-3.813a2.8,2.8,0,1,0,2.8,2.8,2.8,2.8,0,0,0-2.8-2.8" fill="#fff" fillRule="evenodd"/>
    <path id="Path_2990" data-name="Path 2990" d="M43.215,51.551a1.014,1.014,0,1,1,1.015-1.015A1.016,1.016,0,0,1,43.215,51.551Zm0-3.813a2.8,2.8,0,1,0,2.8,2.8A2.8,2.8,0,0,0,43.215,47.738Z" fill="none" stroke="#fff" strokeMiterlimit="22.926" strokeWidth="0.5"/>
    <path id="Path_2991" data-name="Path 2991" d="M51.3,52.909a1.483,1.483,0,1,1-1.483-1.481A1.485,1.485,0,0,1,51.3,52.909m-4.748,0a3.265,3.265,0,1,0,3.265-3.264,3.27,3.27,0,0,0-3.265,3.264" fill="#fff" fillRule="evenodd"/>
    <path id="Path_2992" data-name="Path 2992" d="M51.3,52.909a1.483,1.483,0,1,1-1.483-1.481A1.485,1.485,0,0,1,51.3,52.909Zm-4.748,0a3.265,3.265,0,1,0,3.265-3.264A3.27,3.27,0,0,0,46.553,52.909Z" fill="none" stroke="#fff" strokeMiterlimit="22.926" strokeWidth="0.5"/>
  </g>
</svg>
