<svg id="Group_2421" data-name="Group 2421" xmlns="http://www.w3.org/2000/svg" xmlns:xlink="http://www.w3.org/1999/xlink" width="96.06" height="117.061" viewBox="0 0 96.06 117.061">
  <defs>
    <clipPath id="clip-path">
      <rect id="Rectangle_1549" data-name="Rectangle 1549" width="96.06" height="117.06" fill="none"/>
    </clipPath>
  </defs>
  <g id="Group_2420" data-name="Group 2420" clipPath="url(#clip-path)">
    <path id="Path_2876" data-name="Path 2876" d="M5.916,0H73.142L96,22.507v88.638a5.933,5.933,0,0,1-5.915,5.915H5.916A5.933,5.933,0,0,1,0,111.145V5.916A5.933,5.933,0,0,1,5.916,0" fill="#d68581" fillRule="evenodd"/>
    <path id="Path_2877" data-name="Path 2877" d="M96.06,22.546l-18.335.024a4.6,4.6,0,0,1-4.586-4.586V0Z" fill="#fff" fillRule="evenodd"/>
    <path id="Path_2878" data-name="Path 2878" d="M30.474,78.918H27.956v8.538h-1.2V78.918H24.242V77.882h6.232Zm6,4.121H33.091v3.38h3.946v1.037H31.888V77.882h5.083v1.036h-3.88V82h3.387Zm6.561,1.912H39.8l-.742,2.505H37.825l3.084-9.574h1.029l3.091,9.574H43.795Zm-2.92-1.037h2.61l-1.308-4.349Zm12.146.5a3.546,3.546,0,0,1-.864,2.359,2.923,2.923,0,0,1-2.22.822,2.743,2.743,0,0,1-2.287-1.1,4.745,4.745,0,0,1-.848-2.972V81.787a4.587,4.587,0,0,1,.871-2.954,2.884,2.884,0,0,1,2.377-1.087,2.76,2.76,0,0,1,2.146.831,3.632,3.632,0,0,1,.825,2.377H51.048a2.933,2.933,0,0,0-.493-1.67,1.541,1.541,0,0,0-1.261-.5,1.717,1.717,0,0,0-1.506.766,3.964,3.964,0,0,0-.526,2.244v1.756a4.181,4.181,0,0,0,.49,2.228,1.583,1.583,0,0,0,1.429.777,1.735,1.735,0,0,0,1.357-.467,2.94,2.94,0,0,0,.51-1.677Zm7.894,3.046H58.95V83.039H55.1v4.417H53.892V77.882H55.1V82H58.95v-4.12h1.209Zm6.678-4.417H63.45v3.38h3.945v1.037H62.247V77.882H67.33v1.036H63.45V82h3.387Zm4.991.552H70.144v3.865h-1.21V77.882h2.683a2.861,2.861,0,0,1,2.13.734,2.941,2.941,0,0,1,.724,2.149,3,3,0,0,1-.392,1.551,2.469,2.469,0,0,1-1.107,1l1.854,4.063v.078H73.532Zm-1.684-1.037H71.6a1.566,1.566,0,0,0,1.208-.487,1.843,1.843,0,0,0,.448-1.3q0-1.845-1.67-1.845H70.144ZM24.561,91.383l2.5,7.813,2.5-7.813H31.11v9.575h-1.2V97.23l.112-3.737-2.506,7.465h-.92L24.1,93.52l.113,3.71v3.728h-1.2V91.383Zm13.2,7.07H34.529l-.743,2.5H32.551l3.084-9.575h1.031l3.091,9.575H38.521Zm-2.92-1.037h2.611l-1.309-4.35Zm12.465,3.542H46.1L42.267,93.58v7.378h-1.21V91.383h1.21l3.847,7.411V91.383h1.2Zm7.8-9.575V98.19a3.1,3.1,0,0,1-5.122,2.149,2.949,2.949,0,0,1-.763-2.149V91.383h1.2v6.754a2.156,2.156,0,0,0,.413,1.442,2.084,2.084,0,0,0,2.654,0,2.162,2.162,0,0,0,.411-1.442V91.383Zm6.172,7.07H58.044l-.744,2.5H56.066l3.084-9.575h1.03l3.091,9.575H62.036Zm-2.92-1.037h2.61l-1.308-4.35Zm7.425,2.5H69.54v1.037H64.575V91.383h1.21Zm9.37-1.385a1.476,1.476,0,0,0-.389-1.1,3.983,3.983,0,0,0-1.4-.742,6.085,6.085,0,0,1-1.549-.759,2.693,2.693,0,0,1-.8-.909,2.69,2.69,0,0,1,.494-3.043,2.73,2.73,0,0,1,1.989-.737,2.96,2.96,0,0,1,1.5.378,2.579,2.579,0,0,1,1.012,1.048,3.105,3.105,0,0,1,.355,1.472h-1.21a2.016,2.016,0,0,0-.426-1.374,1.55,1.55,0,0,0-1.23-.487,1.51,1.51,0,0,0-1.131.409,1.561,1.561,0,0,0-.4,1.145,1.339,1.339,0,0,0,.435,1.014,3.812,3.812,0,0,0,1.34.732,4.614,4.614,0,0,1,2.022,1.151,2.588,2.588,0,0,1,.609,1.791,2.416,2.416,0,0,1-.757,1.865,2.908,2.908,0,0,1-2.058.7,3.285,3.285,0,0,1-1.542-.367A2.774,2.774,0,0,1,70.9,99.7a2.849,2.849,0,0,1-.4-1.518H71.71a1.86,1.86,0,0,0,.5,1.381,1.833,1.833,0,0,0,1.351.494,1.607,1.607,0,0,0,1.2-.409,1.521,1.521,0,0,0,.4-1.111" fill="#2b2a29" fillRule="evenodd"/>
    <path id="Path_2879" data-name="Path 2879" d="M30.474,78.918H27.956v8.538h-1.2V78.918H24.242V77.882h6.232Zm6,4.121H33.091v3.38h3.946v1.037H31.888V77.882h5.083v1.036h-3.88V82h3.387Zm6.561,1.912H39.8l-.742,2.505H37.825l3.084-9.574h1.029l3.091,9.574H43.795Zm-2.92-1.037h2.61l-1.308-4.349Zm12.146.5a3.546,3.546,0,0,1-.864,2.359,2.923,2.923,0,0,1-2.22.822,2.743,2.743,0,0,1-2.287-1.1,4.745,4.745,0,0,1-.848-2.972V81.787a4.587,4.587,0,0,1,.871-2.954,2.884,2.884,0,0,1,2.377-1.087,2.76,2.76,0,0,1,2.146.831,3.632,3.632,0,0,1,.825,2.377H51.048a2.933,2.933,0,0,0-.493-1.67,1.541,1.541,0,0,0-1.261-.5,1.717,1.717,0,0,0-1.506.766,3.964,3.964,0,0,0-.526,2.244v1.756a4.181,4.181,0,0,0,.49,2.228,1.583,1.583,0,0,0,1.429.777,1.735,1.735,0,0,0,1.357-.467,2.94,2.94,0,0,0,.51-1.677Zm7.894,3.046H58.95V83.039H55.1v4.417H53.892V77.882H55.1V82H58.95v-4.12h1.209Zm6.678-4.417H63.45v3.38h3.945v1.037H62.247V77.882H67.33v1.036H63.45V82h3.387Zm4.991.552H70.144v3.865h-1.21V77.882h2.683a2.861,2.861,0,0,1,2.13.734,2.941,2.941,0,0,1,.724,2.149,3,3,0,0,1-.392,1.551,2.469,2.469,0,0,1-1.107,1l1.854,4.063v.078H73.532Zm-1.684-1.037H71.6a1.566,1.566,0,0,0,1.208-.487,1.843,1.843,0,0,0,.448-1.3q0-1.845-1.67-1.845H70.144ZM24.561,91.383l2.5,7.813,2.5-7.813H31.11v9.575h-1.2V97.23l.112-3.737-2.506,7.465h-.92L24.1,93.52l.113,3.71v3.728h-1.2V91.383Zm13.2,7.07H34.529l-.743,2.5H32.551l3.084-9.575h1.031l3.091,9.575H38.521Zm-2.92-1.037h2.611l-1.309-4.35Zm12.465,3.542H46.1L42.267,93.58v7.378h-1.21V91.383h1.21l3.847,7.411V91.383h1.2Zm7.8-9.575V98.19a3.1,3.1,0,0,1-5.122,2.149,2.949,2.949,0,0,1-.763-2.149V91.383h1.2v6.754a2.156,2.156,0,0,0,.413,1.442,2.084,2.084,0,0,0,2.654,0,2.162,2.162,0,0,0,.411-1.442V91.383Zm6.172,7.07H58.044l-.744,2.5H56.066l3.084-9.575h1.03l3.091,9.575H62.036Zm-2.92-1.037h2.61l-1.308-4.35Zm7.425,2.5H69.54v1.037H64.575V91.383h1.21Zm9.37-1.385a1.476,1.476,0,0,0-.389-1.1,3.983,3.983,0,0,0-1.4-.742,6.085,6.085,0,0,1-1.549-.759,2.693,2.693,0,0,1-.8-.909,2.69,2.69,0,0,1,.494-3.043,2.73,2.73,0,0,1,1.989-.737,2.96,2.96,0,0,1,1.5.378,2.579,2.579,0,0,1,1.012,1.048,3.105,3.105,0,0,1,.355,1.472h-1.21a2.016,2.016,0,0,0-.426-1.374,1.55,1.55,0,0,0-1.23-.487,1.51,1.51,0,0,0-1.131.409,1.561,1.561,0,0,0-.4,1.145,1.339,1.339,0,0,0,.435,1.014,3.812,3.812,0,0,0,1.34.732,4.614,4.614,0,0,1,2.022,1.151,2.588,2.588,0,0,1,.609,1.791,2.416,2.416,0,0,1-.757,1.865,2.908,2.908,0,0,1-2.058.7,3.285,3.285,0,0,1-1.542-.367A2.774,2.774,0,0,1,70.9,99.7a2.849,2.849,0,0,1-.4-1.518H71.71a1.86,1.86,0,0,0,.5,1.381,1.833,1.833,0,0,0,1.351.494,1.607,1.607,0,0,0,1.2-.409A1.521,1.521,0,0,0,75.155,98.536Z" fill="none" stroke="#000" strokeMiterlimit="10" strokeWidth="0.5"/>
    <path id="Path_2880" data-name="Path 2880" d="M47.92,26.771H68.171a1.352,1.352,0,0,0,0-2.7H47.92a1.352,1.352,0,0,0,0,2.7" fill="#fff" fillRule="evenodd"/>
    <path id="Path_2881" data-name="Path 2881" d="M68.171,29.411H58.118a1.352,1.352,0,0,0,0,2.7H68.171a1.352,1.352,0,0,0,0-2.7" fill="#fff" fillRule="evenodd"/>
    <path id="Path_2882" data-name="Path 2882" d="M68.171,34.75H56.841a1.352,1.352,0,0,0,0,2.7h11.33a1.352,1.352,0,0,0,0-2.7" fill="#fff" fillRule="evenodd"/>
    <path id="Path_2883" data-name="Path 2883" d="M68.171,40.089H51.743a1.352,1.352,0,0,0,0,2.7H68.171a1.352,1.352,0,0,0,0-2.7" fill="#fff" fillRule="evenodd"/>
    <path id="Path_2884" data-name="Path 2884" d="M15.906,40.066A6.5,6.5,0,0,1,22.2,33.4h6.5A6.05,6.05,0,0,1,32.881,35.1l8.143,7.734a1.777,1.777,0,0,1,.215,2.305,1.589,1.589,0,0,1-1.093.676,1.547,1.547,0,0,1-1.22-.363L32.384,39.89a1.213,1.213,0,0,0-1.35-.165,1.36,1.36,0,0,0-.722,1.217V63.571H26.374V51.1a1.277,1.277,0,1,0-2.55,0V63.571H19.7V49.059A1.314,1.314,0,0,0,18.43,47.71H15.906ZM25.1,20.379a4.523,4.523,0,0,1,0,9.032,4.523,4.523,0,0,1,0-9.032m19.222,1.805H70.711a.856.856,0,0,1,.831.877V43.795a.857.857,0,0,1-.831.878H44.322a.761.761,0,0,1-.241-.059,4.593,4.593,0,0,0-.259-2.088l8.115-7.433a1.4,1.4,0,0,0,.128-1.9,1.227,1.227,0,0,0-1.8-.137l-6.774,6.207v-16.2a.855.855,0,0,1,.83-.877M14.631,50.41h2.525V64.921a1.314,1.314,0,0,0,1.274,1.35H31.586a1.314,1.314,0,0,0,1.275-1.349V43.756l4.469,3.8a3.97,3.97,0,0,0,3.137.937A4.049,4.049,0,0,0,43,47.073a3.208,3.208,0,0,0,1.318.3H52.9l-8,16.9a1.389,1.389,0,0,0,.568,1.812,1.232,1.232,0,0,0,.569.142,1.268,1.268,0,0,0,1.144-.745l8.569-18.113h3.525l8.57,18.112a1.276,1.276,0,0,0,1.143.746,1.209,1.209,0,0,0,.57-.142,1.391,1.391,0,0,0,.568-1.812l-8-16.9h8.579a3.487,3.487,0,0,0,3.38-3.577V23.061a3.487,3.487,0,0,0-3.38-3.577H44.322a3.487,3.487,0,0,0-3.379,3.577V39.126l-6.359-6.041a8.529,8.529,0,0,0-5.5-2.364A7.332,7.332,0,0,0,31.914,24.9,7.03,7.03,0,0,0,25.1,17.68,7.032,7.032,0,0,0,18.284,24.9a7.334,7.334,0,0,0,2.887,5.876,9.2,9.2,0,0,0-7.815,9.3v8.993a1.314,1.314,0,0,0,1.275,1.351" fill="#fff" fillRule="evenodd"/>
  </g>
</svg>
