<svg id="Group_2458" data-name="Group 2458" xmlns="http://www.w3.org/2000/svg" xmlns:xlink="http://www.w3.org/1999/xlink" width="96.06" height="116.873" viewBox="0 0 96.06 116.873">
  <defs>
    <clipPath id="clip-path">
      <rect id="Rectangle_1569" data-name="Rectangle 1569" width="96.06" height="116.873" fill="none"/>
    </clipPath>
  </defs>
  <g id="Group_2457" data-name="Group 2457" clipPath="url(#clip-path)">
    <path id="Path_3018" data-name="Path 3018" d="M5.916,0H73.142L96,22.507v88.45a5.934,5.934,0,0,1-5.915,5.916H5.916A5.933,5.933,0,0,1,0,110.957V5.916A5.933,5.933,0,0,1,5.916,0" fill="#8994CA" fillRule="evenodd"/>
    <path id="Path_3019" data-name="Path 3019" d="M96.06,22.547l-18.335.023a4.6,4.6,0,0,1-4.585-4.585V0Z" fill="#fff" fillRule="evenodd"/>
    <path id="Path_3020" data-name="Path 3020" d="M45.27,78.449v6.806A3.1,3.1,0,0,1,40.149,87.4a2.95,2.95,0,0,1-.764-2.149V78.449h1.2V85.2a2.169,2.169,0,0,0,.413,1.442,2.086,2.086,0,0,0,2.655,0A2.163,2.163,0,0,0,44.06,85.2V78.449Zm3.995,5.162-.941,1.138v3.274h-1.2V78.449h1.2v4.623l.79-1.046,2.578-3.577h1.447l-3.111,4.215,3.353,5.359H51.942Zm10.982,3.224-.209.263a3.3,3.3,0,0,1-2.657,1.06,3.037,3.037,0,0,1-2.436-1.031,4.417,4.417,0,0,1-.9-2.911V82.333a4.741,4.741,0,0,1,.806-3.016,3.391,3.391,0,0,1,4.55-.242,3.18,3.18,0,0,1,.85,2.176h-1.2a2.416,2.416,0,0,0-.5-1.4,1.593,1.593,0,0,0-1.286-.5,1.728,1.728,0,0,0-1.511.674,3.86,3.86,0,0,0-.5,2.152v1.952a3.786,3.786,0,0,0,.552,2.22,1.831,1.831,0,0,0,1.585.773,2.092,2.092,0,0,0,1.478-.472l.178-.161v-2.2H57.3V83.255h2.951ZM21.33,97.66H19.647v3.865h-1.21V91.95h2.682a2.862,2.862,0,0,1,2.13.734,2.941,2.941,0,0,1,.725,2.149,2.994,2.994,0,0,1-.393,1.551,2.472,2.472,0,0,1-1.106,1l1.853,4.063v.079H23.033Zm-1.683-1.037h1.459a1.566,1.566,0,0,0,1.207-.488,1.848,1.848,0,0,0,.449-1.3q0-1.845-1.67-1.845H19.647Zm10.526.485H26.786v3.38h3.945v1.037H25.583V91.95h5.083v1.037h-3.88v3.084h3.387ZM36.45,99.1a1.478,1.478,0,0,0-.388-1.1,3.981,3.981,0,0,0-1.4-.743,6.02,6.02,0,0,1-1.549-.759,2.66,2.66,0,0,1-.8-.909,2.474,2.474,0,0,1-.268-1.167,2.5,2.5,0,0,1,.762-1.876,2.732,2.732,0,0,1,1.988-.736,2.964,2.964,0,0,1,1.5.377,2.594,2.594,0,0,1,1.013,1.048,3.117,3.117,0,0,1,.354,1.472H36.45a2.012,2.012,0,0,0-.426-1.373,1.55,1.55,0,0,0-1.23-.487,1.517,1.517,0,0,0-1.131.408,1.569,1.569,0,0,0-.4,1.146,1.335,1.335,0,0,0,.435,1.013,3.821,3.821,0,0,0,1.34.733A4.618,4.618,0,0,1,37.059,97.3a2.588,2.588,0,0,1,.608,1.79,2.418,2.418,0,0,1-.757,1.866,2.91,2.91,0,0,1-2.057.7,3.276,3.276,0,0,1-1.542-.367,2.773,2.773,0,0,1-1.112-1.028,2.856,2.856,0,0,1-.4-1.516h1.209a1.859,1.859,0,0,0,.5,1.379,1.831,1.831,0,0,0,1.352.5,1.6,1.6,0,0,0,1.2-.41,1.517,1.517,0,0,0,.4-1.11m9.026-1.524a4.794,4.794,0,0,1-.835,3.021,2.849,2.849,0,0,1-2.375,1.06,2.882,2.882,0,0,1-2.339-1.031,4.569,4.569,0,0,1-.891-2.911v-1.8a4.779,4.779,0,0,1,.849-3.011,2.83,2.83,0,0,1,2.367-1.089,2.862,2.862,0,0,1,2.356,1.044,4.7,4.7,0,0,1,.868,2.975ZM44.27,95.9a4.1,4.1,0,0,0-.5-2.258,1.907,1.907,0,0,0-3.023.012,3.947,3.947,0,0,0-.516,2.208v1.715a4.037,4.037,0,0,0,.509,2.233,1.913,1.913,0,0,0,3.021.061A3.984,3.984,0,0,0,44.27,97.7Zm8.773-3.952v6.807a2.947,2.947,0,1,1-5.884,0V91.95h1.2V98.7a2.165,2.165,0,0,0,.413,1.443,2.086,2.086,0,0,0,2.655,0,2.17,2.17,0,0,0,.411-1.443V91.95Zm4.747,5.71H56.108v3.865H54.9V91.95h2.681a2.862,2.862,0,0,1,2.13.734,2.938,2.938,0,0,1,.726,2.149,2.994,2.994,0,0,1-.393,1.551,2.469,2.469,0,0,1-1.107,1l1.854,4.063v.079h-1.3Zm-1.682-1.037h1.457a1.567,1.567,0,0,0,1.209-.488,1.848,1.848,0,0,0,.449-1.3q0-1.845-1.67-1.845H56.108Zm11.939,1.856a3.56,3.56,0,0,1-.863,2.358,2.927,2.927,0,0,1-2.22.823,2.743,2.743,0,0,1-2.287-1.1,4.735,4.735,0,0,1-.849-2.972V95.855A4.576,4.576,0,0,1,62.7,92.9a2.878,2.878,0,0,1,2.376-1.087,2.758,2.758,0,0,1,2.147.831,3.627,3.627,0,0,1,.825,2.376H66.831a2.954,2.954,0,0,0-.494-1.67,1.54,1.54,0,0,0-1.262-.5,1.722,1.722,0,0,0-1.506.765,3.983,3.983,0,0,0-.524,2.245v1.755a4.17,4.17,0,0,0,.489,2.228,1.585,1.585,0,0,0,1.43.778,1.732,1.732,0,0,0,1.355-.467,2.934,2.934,0,0,0,.512-1.677Zm6.22-1.371H70.88v3.38h3.945v1.037H69.677V91.95h5.084v1.037H70.88v3.084h3.387ZM80.544,99.1a1.478,1.478,0,0,0-.388-1.1,3.975,3.975,0,0,0-1.4-.743,6,6,0,0,1-1.549-.759,2.667,2.667,0,0,1-.8-.909,2.695,2.695,0,0,1,.494-3.043,2.733,2.733,0,0,1,1.989-.736,2.973,2.973,0,0,1,1.5.377A2.583,2.583,0,0,1,81.4,93.24a3.106,3.106,0,0,1,.355,1.472h-1.21a2.012,2.012,0,0,0-.426-1.373,1.55,1.55,0,0,0-1.23-.487,1.517,1.517,0,0,0-1.131.408,1.565,1.565,0,0,0-.4,1.146,1.335,1.335,0,0,0,.435,1.013,3.808,3.808,0,0,0,1.341.733A4.61,4.61,0,0,1,81.152,97.3a2.584,2.584,0,0,1,.609,1.79A2.417,2.417,0,0,1,81,100.959a2.913,2.913,0,0,1-2.059.7,3.285,3.285,0,0,1-1.542-.367,2.767,2.767,0,0,1-1.11-1.028,2.848,2.848,0,0,1-.4-1.516H77.1a1.863,1.863,0,0,0,.5,1.379,1.831,1.831,0,0,0,1.351.5,1.6,1.6,0,0,0,1.2-.41,1.513,1.513,0,0,0,.4-1.11" fill="#2b2a29" fillRule="evenodd"/>
    <path id="Path_3021" data-name="Path 3021" d="M45.27,78.449v6.806A3.1,3.1,0,0,1,40.149,87.4a2.95,2.95,0,0,1-.764-2.149V78.449h1.2V85.2a2.169,2.169,0,0,0,.413,1.442,2.086,2.086,0,0,0,2.655,0A2.163,2.163,0,0,0,44.06,85.2V78.449Zm3.995,5.162-.941,1.138v3.274h-1.2V78.449h1.2v4.623l.79-1.046,2.578-3.577h1.447l-3.111,4.215,3.353,5.359H51.942Zm10.982,3.224-.209.263a3.3,3.3,0,0,1-2.657,1.06,3.037,3.037,0,0,1-2.436-1.031,4.417,4.417,0,0,1-.9-2.911V82.333a4.741,4.741,0,0,1,.806-3.016,3.391,3.391,0,0,1,4.55-.242,3.18,3.18,0,0,1,.85,2.176h-1.2a2.416,2.416,0,0,0-.5-1.4,1.593,1.593,0,0,0-1.286-.5,1.728,1.728,0,0,0-1.511.674,3.86,3.86,0,0,0-.5,2.152v1.952a3.786,3.786,0,0,0,.552,2.22,1.831,1.831,0,0,0,1.585.773,2.092,2.092,0,0,0,1.478-.472l.178-.161v-2.2H57.3V83.255h2.951ZM21.33,97.66H19.647v3.865h-1.21V91.95h2.682a2.862,2.862,0,0,1,2.13.734,2.941,2.941,0,0,1,.725,2.149,2.994,2.994,0,0,1-.393,1.551,2.472,2.472,0,0,1-1.106,1l1.853,4.063v.079H23.033Zm-1.683-1.037h1.459a1.566,1.566,0,0,0,1.207-.488,1.848,1.848,0,0,0,.449-1.3q0-1.845-1.67-1.845H19.647Zm10.526.485H26.786v3.38h3.945v1.037H25.583V91.95h5.083v1.037h-3.88v3.084h3.387ZM36.45,99.1a1.478,1.478,0,0,0-.388-1.1,3.981,3.981,0,0,0-1.4-.743,6.02,6.02,0,0,1-1.549-.759,2.66,2.66,0,0,1-.8-.909,2.474,2.474,0,0,1-.268-1.167,2.5,2.5,0,0,1,.762-1.876,2.732,2.732,0,0,1,1.988-.736,2.964,2.964,0,0,1,1.5.377,2.594,2.594,0,0,1,1.013,1.048,3.117,3.117,0,0,1,.354,1.472H36.45a2.012,2.012,0,0,0-.426-1.373,1.55,1.55,0,0,0-1.23-.487,1.517,1.517,0,0,0-1.131.408,1.569,1.569,0,0,0-.4,1.146,1.335,1.335,0,0,0,.435,1.013,3.821,3.821,0,0,0,1.34.733A4.618,4.618,0,0,1,37.059,97.3a2.588,2.588,0,0,1,.608,1.79,2.418,2.418,0,0,1-.757,1.866,2.91,2.91,0,0,1-2.057.7,3.276,3.276,0,0,1-1.542-.367,2.773,2.773,0,0,1-1.112-1.028,2.856,2.856,0,0,1-.4-1.516h1.209a1.859,1.859,0,0,0,.5,1.379,1.831,1.831,0,0,0,1.352.5,1.6,1.6,0,0,0,1.2-.41A1.517,1.517,0,0,0,36.45,99.1Zm9.026-1.524a4.794,4.794,0,0,1-.835,3.021,2.849,2.849,0,0,1-2.375,1.06,2.882,2.882,0,0,1-2.339-1.031,4.569,4.569,0,0,1-.891-2.911v-1.8a4.779,4.779,0,0,1,.849-3.011,2.83,2.83,0,0,1,2.367-1.089,2.862,2.862,0,0,1,2.356,1.044,4.7,4.7,0,0,1,.868,2.975ZM44.27,95.9a4.1,4.1,0,0,0-.5-2.258,1.907,1.907,0,0,0-3.023.012,3.947,3.947,0,0,0-.516,2.208v1.715a4.037,4.037,0,0,0,.509,2.233,1.913,1.913,0,0,0,3.021.061A3.984,3.984,0,0,0,44.27,97.7Zm8.773-3.952v6.807a2.947,2.947,0,1,1-5.884,0V91.95h1.2V98.7a2.165,2.165,0,0,0,.413,1.443,2.086,2.086,0,0,0,2.655,0,2.17,2.17,0,0,0,.411-1.443V91.95Zm4.747,5.71H56.108v3.865H54.9V91.95h2.681a2.862,2.862,0,0,1,2.13.734,2.938,2.938,0,0,1,.726,2.149,2.994,2.994,0,0,1-.393,1.551,2.469,2.469,0,0,1-1.107,1l1.854,4.063v.079h-1.3Zm-1.682-1.037h1.457a1.567,1.567,0,0,0,1.209-.488,1.848,1.848,0,0,0,.449-1.3q0-1.845-1.67-1.845H56.108Zm11.939,1.856a3.56,3.56,0,0,1-.863,2.358,2.927,2.927,0,0,1-2.22.823,2.743,2.743,0,0,1-2.287-1.1,4.735,4.735,0,0,1-.849-2.972V95.855A4.576,4.576,0,0,1,62.7,92.9a2.878,2.878,0,0,1,2.376-1.087,2.758,2.758,0,0,1,2.147.831,3.627,3.627,0,0,1,.825,2.376H66.831a2.954,2.954,0,0,0-.494-1.67,1.54,1.54,0,0,0-1.262-.5,1.722,1.722,0,0,0-1.506.765,3.983,3.983,0,0,0-.524,2.245v1.755a4.17,4.17,0,0,0,.489,2.228,1.585,1.585,0,0,0,1.43.778,1.732,1.732,0,0,0,1.355-.467,2.934,2.934,0,0,0,.512-1.677Zm6.22-1.371H70.88v3.38h3.945v1.037H69.677V91.95h5.084v1.037H70.88v3.084h3.387ZM80.544,99.1a1.478,1.478,0,0,0-.388-1.1,3.975,3.975,0,0,0-1.4-.743,6,6,0,0,1-1.549-.759,2.667,2.667,0,0,1-.8-.909,2.695,2.695,0,0,1,.494-3.043,2.733,2.733,0,0,1,1.989-.736,2.973,2.973,0,0,1,1.5.377A2.583,2.583,0,0,1,81.4,93.24a3.106,3.106,0,0,1,.355,1.472h-1.21a2.012,2.012,0,0,0-.426-1.373,1.55,1.55,0,0,0-1.23-.487,1.517,1.517,0,0,0-1.131.408,1.565,1.565,0,0,0-.4,1.146,1.335,1.335,0,0,0,.435,1.013,3.808,3.808,0,0,0,1.341.733A4.61,4.61,0,0,1,81.152,97.3a2.584,2.584,0,0,1,.609,1.79A2.417,2.417,0,0,1,81,100.959a2.913,2.913,0,0,1-2.059.7,3.285,3.285,0,0,1-1.542-.367,2.767,2.767,0,0,1-1.11-1.028,2.848,2.848,0,0,1-.4-1.516H77.1a1.863,1.863,0,0,0,.5,1.379,1.831,1.831,0,0,0,1.351.5,1.6,1.6,0,0,0,1.2-.41A1.513,1.513,0,0,0,80.544,99.1Z" fill="none" stroke="#000" strokeMiterlimit="10" strokeWidth="0.5"/>
    <path id="Path_3022" data-name="Path 3022" d="M37.272,47.758c.444-.136.923-.257,1.415-.373l.625,5.562c-.724-.151-1.41-.321-2.04-.514-2.7-.824-3.658-1.748-3.658-2.337s.96-1.514,3.658-2.338m5.389-14.686-4.073.457L40.8,53.26l.419.039.327.029c.036,0,.071,0,.1,0a2.032,2.032,0,0,1,.473.057c1.094.1,2.006.163,2.839.2ZM39.5,28.854l1.233-.138,1.1,2.426-2.87.321ZM47.463,55.26c-5.56,0-10.779-.98-13.4-2.506l.008,12.676c.125.808,1.575,1.689,3.879,2.358a34.927,34.927,0,0,0,9.4,1.16,34.924,34.924,0,0,0,9.4-1.16c2.3-.669,3.753-1.55,3.879-2.355l.006-12.541c-2.709,1.464-7.72,2.368-13.16,2.368m0-8.777.065,0v7.22l-.065,0c-.346,0-.69-.007-1.033-.015l-.8-7.169c.606-.023,1.215-.039,1.837-.04m1.258-26.655a.885.885,0,0,1,.883-.884h8.154a.885.885,0,0,1,.884.884v6.107H55.355a.481.481,0,0,0-.377.166.531.531,0,0,0-.125.349.493.493,0,0,0,.5.517h3.289v2.1H55.355a.482.482,0,0,0-.377.167.532.532,0,0,0-.125.351.492.492,0,0,0,.5.515h3.289v2.1H55.355a.481.481,0,0,0-.377.166.534.534,0,0,0-.125.351.492.492,0,0,0,.5.515h3.289v2.1H52.981a.484.484,0,0,0-.379.166.541.541,0,0,0-.123.35.493.493,0,0,0,.5.515h5.662v2.1H55.355a.484.484,0,0,0-.377.165.538.538,0,0,0-.125.351.492.492,0,0,0,.5.515h3.289v2.1H55.355a.483.483,0,0,0-.377.164.535.535,0,0,0-.125.352.492.492,0,0,0,.5.514h3.289v2.1H55.355a.48.48,0,0,0-.377.164.54.54,0,0,0-.125.351.493.493,0,0,0,.5.516h3.289v2.1H52.981a.483.483,0,0,0-.379.165.541.541,0,0,0-.123.35.494.494,0,0,0,.5.516h5.662v2.1H55.355a.475.475,0,0,0-.377.166.527.527,0,0,0-.125.349.493.493,0,0,0,.5.516h3.289v.122c-.285.08-.566.167-.849.254a14.668,14.668,0,0,1-2.345.581,2.339,2.339,0,0,0-.632.172,44.185,44.185,0,0,1-6.1.514ZM59.836,48.617c1.057.556,1.478,1.09,1.478,1.479s-.421.922-1.478,1.478ZM32.528,66.328h.212c1.373,2.866,8.509,4.173,14.6,4.173s13.228-1.307,14.6-4.173h.233v-14.6a2.432,2.432,0,0,0,.69-1.631c0-1.288-1.171-2.347-3.032-3.163v-27.1a2.079,2.079,0,0,0-2.078-2.077H49.6a2.079,2.079,0,0,0-2.077,2.077v25.1h-.065c-.668,0-1.34.015-2.011.043L44,32.058a.9.9,0,0,0-.459-.7L40.3,24.221a.7.7,0,0,0-1.382.156l-1.574,7.661a.738.738,0,0,0-.151.174l-.018.027a.894.894,0,0,0-.125.6l1.46,13.013c-3.742.854-6.454,2.286-6.454,4.246a2.313,2.313,0,0,0,.446,1.326V65.556Z" fill="#fefefe" fillRule="evenodd"/>
    <path id="Path_3023" data-name="Path 3023" d="M37.272,47.758c.444-.136.923-.257,1.415-.373l.625,5.562c-.724-.151-1.41-.321-2.04-.514-2.7-.824-3.658-1.748-3.658-2.337S34.574,48.582,37.272,47.758Zm5.389-14.686-4.073.457L40.8,53.26l.419.039.327.029c.036,0,.071,0,.1,0a2.032,2.032,0,0,1,.473.057c1.094.1,2.006.163,2.839.2ZM39.5,28.854l1.233-.138,1.1,2.426-2.87.321ZM47.463,55.26c-5.56,0-10.779-.98-13.4-2.506l.008,12.676c.125.808,1.575,1.689,3.879,2.358a34.927,34.927,0,0,0,9.4,1.16,34.924,34.924,0,0,0,9.4-1.16c2.3-.669,3.753-1.55,3.879-2.355l.006-12.541C57.914,54.356,52.9,55.26,47.463,55.26Zm0-8.777.065,0v7.22l-.065,0c-.346,0-.69-.007-1.033-.015l-.8-7.169C46.232,46.5,46.841,46.484,47.463,46.483Zm1.258-26.655a.885.885,0,0,1,.883-.884h8.154a.885.885,0,0,1,.884.884v6.107H55.355a.481.481,0,0,0-.377.166.531.531,0,0,0-.125.349.493.493,0,0,0,.5.517h3.289v2.1H55.355a.482.482,0,0,0-.377.167.532.532,0,0,0-.125.351.492.492,0,0,0,.5.515h3.289v2.1H55.355a.481.481,0,0,0-.377.166.534.534,0,0,0-.125.351.492.492,0,0,0,.5.515h3.289v2.1H52.981a.484.484,0,0,0-.379.166.541.541,0,0,0-.123.35.493.493,0,0,0,.5.515h5.662v2.1H55.355a.484.484,0,0,0-.377.165.538.538,0,0,0-.125.351.492.492,0,0,0,.5.515h3.289v2.1H55.355a.483.483,0,0,0-.377.164.535.535,0,0,0-.125.352.492.492,0,0,0,.5.514h3.289v2.1H55.355a.48.48,0,0,0-.377.164.54.54,0,0,0-.125.351.493.493,0,0,0,.5.516h3.289v2.1H52.981a.483.483,0,0,0-.379.165.541.541,0,0,0-.123.35.494.494,0,0,0,.5.516h5.662v2.1H55.355a.475.475,0,0,0-.377.166.527.527,0,0,0-.125.349.493.493,0,0,0,.5.516h3.289v.122c-.285.08-.566.167-.849.254a14.668,14.668,0,0,1-2.345.581,2.339,2.339,0,0,0-.632.172,44.185,44.185,0,0,1-6.1.514ZM59.836,48.617c1.057.556,1.478,1.09,1.478,1.479s-.421.922-1.478,1.478ZM32.528,66.328h.212c1.373,2.866,8.509,4.173,14.6,4.173s13.228-1.307,14.6-4.173h.233v-14.6a2.432,2.432,0,0,0,.69-1.631c0-1.288-1.171-2.347-3.032-3.163v-27.1a2.079,2.079,0,0,0-2.078-2.077H49.6a2.079,2.079,0,0,0-2.077,2.077v25.1h-.065c-.668,0-1.34.015-2.011.043L44,32.058a.9.9,0,0,0-.459-.7L40.3,24.221a.7.7,0,0,0-1.382.156l-1.574,7.661a.738.738,0,0,0-.151.174l-.018.027a.894.894,0,0,0-.125.6l1.46,13.013c-3.742.854-6.454,2.286-6.454,4.246a2.313,2.313,0,0,0,.446,1.326V65.556Z" fill="none" stroke="#fefefe" strokeLinecap="round" strokeLinejoin="round" strokeWidth="0.2"/>
    <path id="Path_3024" data-name="Path 3024" d="M49.689,21.525a.467.467,0,1,1-.468.468.467.467,0,0,1,.468-.468m0,2a1.538,1.538,0,1,0-.6-.121,1.537,1.537,0,0,0,.6.121" fill="#fefefe" fillRule="evenodd"/>
    <path id="Path_3025" data-name="Path 3025" d="M49.689,21.525a.467.467,0,1,1-.468.468A.467.467,0,0,1,49.689,21.525Zm0,2a1.538,1.538,0,1,0-.6-.121A1.537,1.537,0,0,0,49.689,23.529Z" fill="none" stroke="#fefefe" strokeLinecap="round" strokeLinejoin="round" strokeWidth="0.2"/>
  </g>
</svg>
