<svg id="Group_2433" data-name="Group 2433" xmlns="http://www.w3.org/2000/svg" xmlns:xlink="http://www.w3.org/1999/xlink" width="96.06" height="116.76" viewBox="0 0 96.06 116.76">
  <defs>
    <clipPath id="clip-path">
      <rect id="Rectangle_1556" data-name="Rectangle 1556" width="96.06" height="116.76" transform="translate(0 0)" fill="none"/>
    </clipPath>
  </defs>
  <g id="Group_2432" data-name="Group 2432" clipPath="url(#clip-path)">
    <path id="Path_2939" data-name="Path 2939" d="M5.916,0H73.141L96,22.507v88.337a5.933,5.933,0,0,1-5.915,5.916H5.916A5.933,5.933,0,0,1,0,110.844V5.916A5.933,5.933,0,0,1,5.916,0" fill="#b286cc" fillRule="evenodd"/>
    <path id="Path_2940" data-name="Path 2940" d="M96.06,22.547l-18.335.024a4.6,4.6,0,0,1-4.586-4.585V0Z" fill="#fff" fillRule="evenodd"/>
    <path id="Path_2941" data-name="Path 2941" d="M32.88,84.514l2.189-7.728h1.322l-2.979,9.575H32.36l-2.972-9.575H30.7Zm6.062,1.847H37.737V76.786h1.205Zm6.292-2.421a1.478,1.478,0,0,0-.389-1.1,3.975,3.975,0,0,0-1.4-.743A6.036,6.036,0,0,1,41.9,81.34a2.653,2.653,0,0,1-.8-.909,2.69,2.69,0,0,1,.494-3.043,2.73,2.73,0,0,1,1.989-.737,2.957,2.957,0,0,1,1.5.378,2.585,2.585,0,0,1,1.012,1.048,3.117,3.117,0,0,1,.354,1.472H45.234a2.009,2.009,0,0,0-.427-1.373,1.546,1.546,0,0,0-1.229-.487,1.514,1.514,0,0,0-1.132.408,1.565,1.565,0,0,0-.4,1.145,1.334,1.334,0,0,0,.436,1.014,3.8,3.8,0,0,0,1.34.732,4.634,4.634,0,0,1,2.022,1.151,2.592,2.592,0,0,1,.608,1.791,2.415,2.415,0,0,1-.756,1.865,2.908,2.908,0,0,1-2.058.7,3.29,3.29,0,0,1-1.542-.366A2.777,2.777,0,0,1,40.983,85.1a2.849,2.849,0,0,1-.4-1.517h1.21a1.86,1.86,0,0,0,.5,1.38,1.828,1.828,0,0,0,1.351.494,1.6,1.6,0,0,0,1.2-.409,1.515,1.515,0,0,0,.4-1.11m8.5-7.154v6.807a3.1,3.1,0,0,1-5.122,2.149,2.953,2.953,0,0,1-.763-2.149V76.786h1.2V83.54a2.166,2.166,0,0,0,.413,1.443,2.089,2.089,0,0,0,2.655,0,2.166,2.166,0,0,0,.411-1.443V76.786Zm6.172,7.071H56.673l-.742,2.5H54.7l3.084-9.575h1.03L61.9,86.361H60.666Zm-2.92-1.038H59.6L58.292,78.47Zm7.424,2.5h3.755v1.037H63.205V76.786h1.209ZM12.387,96.844l.126,1.073.19-.947,1.533-6.682h1.006l1.485,6.682.191.971.137-1.1,1.172-6.549h1.2l-1.906,9.575H16.438l-1.6-6.978-.1-.566-.1.566-1.656,6.978H11.9l-1.9-9.575h1.2Zm14.66-.927a4.78,4.78,0,0,1-.835,3.021A2.845,2.845,0,0,1,23.838,100a2.881,2.881,0,0,1-2.339-1.03,4.568,4.568,0,0,1-.891-2.911v-1.8a4.794,4.794,0,0,1,.848-3.012,2.836,2.836,0,0,1,2.368-1.089A2.865,2.865,0,0,1,26.181,91.2a4.7,4.7,0,0,1,.866,2.976ZM25.842,94.24a4.1,4.1,0,0,0-.5-2.258,1.907,1.907,0,0,0-3.023.012,3.938,3.938,0,0,0-.516,2.208v1.715a4.035,4.035,0,0,0,.509,2.233,1.913,1.913,0,0,0,3.021.061,3.984,3.984,0,0,0,.5-2.175ZM31.8,96H30.118v3.865h-1.21V90.288H31.59a2.865,2.865,0,0,1,2.13.734,2.94,2.94,0,0,1,.725,2.15,3,3,0,0,1-.393,1.551,2.489,2.489,0,0,1-1.106,1L34.8,99.784v.079H33.5Zm-1.683-1.037h1.458a1.566,1.566,0,0,0,1.208-.487,1.844,1.844,0,0,0,.449-1.3q0-1.845-1.67-1.845H30.118Zm8.08.489-.941,1.138v3.275h-1.2V90.288h1.2v4.623l.79-1.045,2.576-3.578h1.448L38.96,94.5l3.354,5.36H40.875Zm12.46,1.991a1.479,1.479,0,0,0-.388-1.1,4,4,0,0,0-1.4-.742,6.069,6.069,0,0,1-1.549-.759,2.686,2.686,0,0,1-.8-.909,2.688,2.688,0,0,1,.495-3.043A2.727,2.727,0,0,1,49,90.153a2.967,2.967,0,0,1,1.5.377,2.594,2.594,0,0,1,1.013,1.048,3.121,3.121,0,0,1,.354,1.473h-1.21a2.011,2.011,0,0,0-.426-1.374A1.55,1.55,0,0,0,49,91.19a1.514,1.514,0,0,0-1.131.409,1.559,1.559,0,0,0-.4,1.145,1.335,1.335,0,0,0,.436,1.014,3.828,3.828,0,0,0,1.34.732,4.61,4.61,0,0,1,2.021,1.151,2.586,2.586,0,0,1,.609,1.791,2.42,2.42,0,0,1-.756,1.865,2.908,2.908,0,0,1-2.059.7,3.284,3.284,0,0,1-1.542-.366,2.765,2.765,0,0,1-1.11-1.027,2.854,2.854,0,0,1-.4-1.517h1.209a1.86,1.86,0,0,0,.5,1.38,1.833,1.833,0,0,0,1.351.494,1.61,1.61,0,0,0,1.2-.409,1.517,1.517,0,0,0,.4-1.111m9.059,2.422h-1.21V95.446H54.656v4.417h-1.2V90.288h1.2v4.121h3.851V90.288h1.21Zm6.677-4.417H63.007v3.38h3.946v1.037H61.8V90.288h5.084v1.037H63.007v3.084h3.387Zm6.686,0H69.693v3.38h3.946v1.037H68.49V90.288h5.084v1.037H69.693v3.084H73.08ZM80.9,91.325H78.386v8.538h-1.2V91.325H74.671V90.288H80.9Zm5.49,6.116a1.476,1.476,0,0,0-.389-1.1,3.983,3.983,0,0,0-1.4-.742,6.086,6.086,0,0,1-1.549-.759,2.693,2.693,0,0,1-.8-.909,2.69,2.69,0,0,1,.494-3.043,2.73,2.73,0,0,1,1.989-.737,2.967,2.967,0,0,1,1.5.377,2.591,2.591,0,0,1,1.012,1.048,3.109,3.109,0,0,1,.354,1.473H86.394a2.017,2.017,0,0,0-.426-1.374,1.551,1.551,0,0,0-1.23-.487,1.514,1.514,0,0,0-1.132.409,1.563,1.563,0,0,0-.4,1.145,1.334,1.334,0,0,0,.435,1.014,3.828,3.828,0,0,0,1.34.732A4.614,4.614,0,0,1,87,95.641a2.586,2.586,0,0,1,.608,1.791,2.416,2.416,0,0,1-.756,1.865,2.907,2.907,0,0,1-2.058.7,3.278,3.278,0,0,1-1.542-.366A2.767,2.767,0,0,1,82.143,98.6a2.854,2.854,0,0,1-.4-1.517h1.21a1.86,1.86,0,0,0,.5,1.38,1.832,1.832,0,0,0,1.351.494,1.607,1.607,0,0,0,1.2-.409,1.518,1.518,0,0,0,.4-1.111" fill="#2b2a29" fillRule="evenodd"/>
    <path id="Path_2942" data-name="Path 2942" d="M32.88,84.514l2.189-7.728h1.322l-2.979,9.575H32.36l-2.972-9.575H30.7Zm6.062,1.847H37.737V76.786h1.205Zm6.292-2.421a1.478,1.478,0,0,0-.389-1.1,3.975,3.975,0,0,0-1.4-.743A6.036,6.036,0,0,1,41.9,81.34a2.653,2.653,0,0,1-.8-.909,2.69,2.69,0,0,1,.494-3.043,2.73,2.73,0,0,1,1.989-.737,2.957,2.957,0,0,1,1.5.378,2.585,2.585,0,0,1,1.012,1.048,3.117,3.117,0,0,1,.354,1.472H45.234a2.009,2.009,0,0,0-.427-1.373,1.546,1.546,0,0,0-1.229-.487,1.514,1.514,0,0,0-1.132.408,1.565,1.565,0,0,0-.4,1.145,1.334,1.334,0,0,0,.436,1.014,3.8,3.8,0,0,0,1.34.732,4.634,4.634,0,0,1,2.022,1.151,2.592,2.592,0,0,1,.608,1.791,2.415,2.415,0,0,1-.756,1.865,2.908,2.908,0,0,1-2.058.7,3.29,3.29,0,0,1-1.542-.366A2.777,2.777,0,0,1,40.983,85.1a2.849,2.849,0,0,1-.4-1.517h1.21a1.86,1.86,0,0,0,.5,1.38,1.828,1.828,0,0,0,1.351.494,1.6,1.6,0,0,0,1.2-.409A1.515,1.515,0,0,0,45.234,83.94Zm8.5-7.154v6.807a3.1,3.1,0,0,1-5.122,2.149,2.953,2.953,0,0,1-.763-2.149V76.786h1.2V83.54a2.166,2.166,0,0,0,.413,1.443,2.089,2.089,0,0,0,2.655,0,2.166,2.166,0,0,0,.411-1.443V76.786Zm6.172,7.071H56.673l-.742,2.5H54.7l3.084-9.575h1.03L61.9,86.361H60.666Zm-2.92-1.038H59.6L58.292,78.47Zm7.424,2.5h3.755v1.037H63.205V76.786h1.209ZM12.387,96.844l.126,1.073.19-.947,1.533-6.682h1.006l1.485,6.682.191.971.137-1.1,1.172-6.549h1.2l-1.906,9.575H16.438l-1.6-6.978-.1-.566-.1.566-1.656,6.978H11.9l-1.9-9.575h1.2Zm14.66-.927a4.78,4.78,0,0,1-.835,3.021A2.845,2.845,0,0,1,23.838,100a2.881,2.881,0,0,1-2.339-1.03,4.568,4.568,0,0,1-.891-2.911v-1.8a4.794,4.794,0,0,1,.848-3.012,2.836,2.836,0,0,1,2.368-1.089A2.865,2.865,0,0,1,26.181,91.2a4.7,4.7,0,0,1,.866,2.976ZM25.842,94.24a4.1,4.1,0,0,0-.5-2.258,1.907,1.907,0,0,0-3.023.012,3.938,3.938,0,0,0-.516,2.208v1.715a4.035,4.035,0,0,0,.509,2.233,1.913,1.913,0,0,0,3.021.061,3.984,3.984,0,0,0,.5-2.175ZM31.8,96H30.118v3.865h-1.21V90.288H31.59a2.865,2.865,0,0,1,2.13.734,2.94,2.94,0,0,1,.725,2.15,3,3,0,0,1-.393,1.551,2.489,2.489,0,0,1-1.106,1L34.8,99.784v.079H33.5Zm-1.683-1.037h1.458a1.566,1.566,0,0,0,1.208-.487,1.844,1.844,0,0,0,.449-1.3q0-1.845-1.67-1.845H30.118Zm8.08.489-.941,1.138v3.275h-1.2V90.288h1.2v4.623l.79-1.045,2.576-3.578h1.448L38.96,94.5l3.354,5.36H40.875Zm12.46,1.991a1.479,1.479,0,0,0-.388-1.1,4,4,0,0,0-1.4-.742,6.069,6.069,0,0,1-1.549-.759,2.686,2.686,0,0,1-.8-.909,2.688,2.688,0,0,1,.495-3.043A2.727,2.727,0,0,1,49,90.153a2.967,2.967,0,0,1,1.5.377,2.594,2.594,0,0,1,1.013,1.048,3.121,3.121,0,0,1,.354,1.473h-1.21a2.011,2.011,0,0,0-.426-1.374A1.55,1.55,0,0,0,49,91.19a1.514,1.514,0,0,0-1.131.409,1.559,1.559,0,0,0-.4,1.145,1.335,1.335,0,0,0,.436,1.014,3.828,3.828,0,0,0,1.34.732,4.61,4.61,0,0,1,2.021,1.151,2.586,2.586,0,0,1,.609,1.791,2.42,2.42,0,0,1-.756,1.865,2.908,2.908,0,0,1-2.059.7,3.284,3.284,0,0,1-1.542-.366,2.765,2.765,0,0,1-1.11-1.027,2.854,2.854,0,0,1-.4-1.517h1.209a1.86,1.86,0,0,0,.5,1.38,1.833,1.833,0,0,0,1.351.494,1.61,1.61,0,0,0,1.2-.409A1.517,1.517,0,0,0,50.658,97.441Zm9.059,2.422h-1.21V95.446H54.656v4.417h-1.2V90.288h1.2v4.121h3.851V90.288h1.21Zm6.677-4.417H63.007v3.38h3.946v1.037H61.8V90.288h5.084v1.037H63.007v3.084h3.387Zm6.686,0H69.693v3.38h3.946v1.037H68.49V90.288h5.084v1.037H69.693v3.084H73.08ZM80.9,91.325H78.386v8.538h-1.2V91.325H74.671V90.288H80.9Zm5.49,6.116a1.476,1.476,0,0,0-.389-1.1,3.983,3.983,0,0,0-1.4-.742,6.086,6.086,0,0,1-1.549-.759,2.693,2.693,0,0,1-.8-.909,2.69,2.69,0,0,1,.494-3.043,2.73,2.73,0,0,1,1.989-.737,2.967,2.967,0,0,1,1.5.377,2.591,2.591,0,0,1,1.012,1.048,3.109,3.109,0,0,1,.354,1.473H86.394a2.017,2.017,0,0,0-.426-1.374,1.551,1.551,0,0,0-1.23-.487,1.514,1.514,0,0,0-1.132.409,1.563,1.563,0,0,0-.4,1.145,1.334,1.334,0,0,0,.435,1.014,3.828,3.828,0,0,0,1.34.732A4.614,4.614,0,0,1,87,95.641a2.586,2.586,0,0,1,.608,1.791,2.416,2.416,0,0,1-.756,1.865,2.907,2.907,0,0,1-2.058.7,3.278,3.278,0,0,1-1.542-.366A2.767,2.767,0,0,1,82.143,98.6a2.854,2.854,0,0,1-.4-1.517h1.21a1.86,1.86,0,0,0,.5,1.38,1.832,1.832,0,0,0,1.351.494,1.607,1.607,0,0,0,1.2-.409A1.518,1.518,0,0,0,86.394,97.441Z" fill="none" stroke="#000" strokeMiterlimit="10" strokeWidth="0.5"/>
    <rect id="Rectangle_1555" data-name="Rectangle 1555" width="33.271" height="45.734" transform="translate(25.493 20.505)" fill="none" stroke="#fff" strokeLinecap="round" strokeLinejoin="round" strokeWidth="2"/>
    <path id="Path_2943" data-name="Path 2943" d="M62.449,20.505h6.394V66.239H62.449" fill="none" stroke="#fff" strokeLinecap="round" strokeLinejoin="round" strokeWidth="2"/>
    <line id="Line_143" data-name="Line 143" x2="3.143" transform="translate(62.016 36.653)" fill="none" stroke="#fff" strokeLinecap="round" strokeLinejoin="round" strokeWidth="1.5"/>
    <line id="Line_144" data-name="Line 144" x2="3.143" transform="translate(62.016 42.506)" fill="none" stroke="#fff" strokeLinecap="round" strokeLinejoin="round" strokeWidth="1.5"/>
    <line id="Line_145" data-name="Line 145" x2="3.143" transform="translate(62.016 48.358)" fill="none" stroke="#fff" strokeLinecap="round" strokeLinejoin="round" strokeWidth="1.5"/>
    <line id="Line_146" data-name="Line 146" x2="3.143" transform="translate(62.016 54.21)" fill="none" stroke="#fff" strokeLinecap="round" strokeLinejoin="round" strokeWidth="1.5"/>
    <line id="Line_147" data-name="Line 147" x2="3.143" transform="translate(62.016 60.063)" fill="none" stroke="#fff" strokeLinecap="round" strokeLinejoin="round" strokeWidth="1.5"/>
    <line id="Line_148" data-name="Line 148" x2="26.01" transform="translate(29.503 36.653)" fill="none" stroke="#fff" strokeLinecap="round" strokeLinejoin="round" strokeWidth="1.5"/>
    <line id="Line_149" data-name="Line 149" x2="26.01" transform="translate(29.503 42.506)" fill="none" stroke="#fff" strokeLinecap="round" strokeLinejoin="round" strokeWidth="1.5"/>
    <line id="Line_150" data-name="Line 150" x2="26.01" transform="translate(29.503 48.358)" fill="none" stroke="#fff" strokeLinecap="round" strokeLinejoin="round" strokeWidth="1.5"/>
    <line id="Line_151" data-name="Line 151" x2="26.01" transform="translate(29.503 54.21)" fill="none" stroke="#fff" strokeLinecap="round" strokeLinejoin="round" strokeWidth="1.5"/>
    <line id="Line_152" data-name="Line 152" x2="26.01" transform="translate(29.503 60.063)" fill="none" stroke="#fff" strokeLinecap="round" strokeLinejoin="round" strokeWidth="1.5"/>
    <path id="Path_2944" data-name="Path 2944" d="M35.148,31.889H32.4l-.4,1.3H29.521l2.959-7.862h2.659l2.946,7.862H35.541Zm-.514-1.7-.858-2.826-.863,2.826Z" fill="#fff" fillRule="evenodd"/>
    <path id="Path_2945" data-name="Path 2945" d="M37.668,26.737h2.053V24.673h1.735v2.064H43.52v1.735H41.456v2.053H39.721V28.472H37.668Z" fill="#fff" fillRule="evenodd"/>
  </g>
</svg>
