<svg xmlns="http://www.w3.org/2000/svg" width="434.442" height="422.35" viewBox="0 0 434.442 422.35">
  <g id="Group_1728" data-name="Group 1728" transform="translate(-4667.249 -7636)">
    <path id="Path_9" data-name="Path 9" d="M450.8,68.824H188.78a56,56,0,0,0-56,56v249.76a56,56,0,0,0,56,56H193.2v4.59a56,56,0,0,0,56,56h262.02a56,56,0,0,0,56-56V185.414a56,56,0,0,0-56-56H506.8v-4.59a56,56,0,0,0-56-56Zm-261.86,22.4H450.8a33.6,33.6,0,0,1,33.6,33.6v4.594l-235.2,0a56,56,0,0,0-56,56v143.98H155.175V124.824a33.6,33.6,0,0,1,33.6-33.6Zm355.88,298.76H444.69l-57.68-71.121,84-58.406,73.809,54.039Zm-128.8,0H215.6v-78.4l90.832-56Zm-227.25,18.2a33.6,33.6,0,0,1-33.6-33.6V351.79h38.023v56.391Zm322.45,60.594H249.2a33.6,33.6,0,0,1-33.6-33.6V412.38h329.22v22.793a33.6,33.6,0,0,1-33.6,33.6Zm33.6-283.36v101.3l-67.2-49.055a11.2,11.2,0,0,0-12.992,0l-91.785,63.785L317.8,233.57a11.2,11.2,0,0,0-14.562-2.461L215.6,285.093V185.409a33.6,33.6,0,0,1,33.6-33.6h262.02a33.6,33.6,0,0,1,33.6,33.6Z" transform="translate(4534.469 7567.176)"/>
  </g>
</svg>
