<svg id="Group_8667" data-name="Group 8667" xmlns="http://www.w3.org/2000/svg" width="17.001" height="17.001" viewBox="0 0 17.001 17.001">
  <path id="Path_3355" data-name="Path 3355" d="M0,0H17V17H0Z" fill="none"/>
  <path id="Path_3356" data-name="Path 3356" d="M16.167,12.627a4.252,4.252,0,0,1-3.339,4.151l-.452-1.356a2.836,2.836,0,0,0,1.995-1.38H12.626a1.417,1.417,0,0,1-1.417-1.417V9.792a1.417,1.417,0,0,1,1.417-1.417h2.081a5.668,5.668,0,0,0-11.246,0H5.542A1.417,1.417,0,0,1,6.959,9.792v2.833a1.417,1.417,0,0,1-1.417,1.417H3.417A1.417,1.417,0,0,1,2,12.626V9.084a7.084,7.084,0,0,1,14.167,0Zm-1.417,0V9.792H12.626v2.833ZM3.417,9.792v2.833H5.542V9.792Z" transform="translate(-0.583 -0.583)" fill="currentColor"/>
</svg>
