<svg id="Group_8662" data-name="Group 8662" xmlns="http://www.w3.org/2000/svg" width="17.001" height="17.001" viewBox="0 0 17.001 17.001">
  <path id="Path_3345" data-name="Path 3345" d="M0,0H17V17H0Z" fill="none"/>
  <path id="Path_3346" data-name="Path 3346" d="M4,15.751l-.014.014-.015-.014H2.7a.7.7,0,0,1-.7-.7V3.7A.708.708,0,0,1,2.7,3H15.465a.7.7,0,0,1,.7.7V15.047a.708.708,0,0,1-.7.7ZM14.751,11.5V4.417H3.417v9.917L10.5,7.25Zm0,2L10.5,9.254l-5.08,5.08h9.331ZM6.25,8.667A1.417,1.417,0,1,1,7.667,7.25,1.417,1.417,0,0,1,6.25,8.667Z" transform="translate(-0.583 -0.875)" fill="currentColor"/>
</svg>
