<svg id="Group_8660" data-name="Group 8660" xmlns="http://www.w3.org/2000/svg" width="17.001" height="17.001" viewBox="0 0 17.001 17.001">
  <path id="Path_3341" data-name="Path 3341" d="M0,0H17V17H0Z" fill="none"/>
  <path id="Path_3342" data-name="Path 3342" d="M6.4,12.3a5.667,5.667,0,1,1,6.532,0l1.476,3.372a.354.354,0,0,1-.325.5H5.25a.354.354,0,0,1-.325-.5L6.4,12.3Zm4.771-.491.944-.667a4.25,4.25,0,1,0-4.9,0l.943.667L6.875,14.751h5.585l-1.287-2.943ZM6.918,8.354l1.374-.344a1.417,1.417,0,0,0,2.75,0l1.374.344a2.835,2.835,0,0,1-5.5,0Z" transform="translate(-1.166 -0.584)" fill="currentColor"/>
</svg>
