<svg id="Group_8661" data-name="Group 8661" xmlns="http://www.w3.org/2000/svg" width="17.001" height="17.001" viewBox="0 0 17.001 17.001">
  <path id="Path_3343" data-name="Path 3343" d="M0,0H17V17H0Z" fill="none"/>
  <path id="Path_3344" data-name="Path 3344" d="M4,15.876a5.667,5.667,0,0,1,11.334,0Zm6.375-4.191v2.775h3.3A4.257,4.257,0,0,0,10.375,11.684ZM8.959,14.459V11.684a4.257,4.257,0,0,0-3.3,2.775ZM9.667,9.5a4.25,4.25,0,1,1,4.25-4.25A4.249,4.249,0,0,1,9.667,9.5Zm0-1.417A2.833,2.833,0,1,0,6.833,5.25,2.833,2.833,0,0,0,9.667,8.084Z" transform="translate(-1.167 -0.292)" fill="currentColor"/>
</svg>
