<svg id="Group_361" data-name="Group 361" xmlns="http://www.w3.org/2000/svg" width="20" height="20" viewBox="0 0 20 20">
  <path id="Path_369" data-name="Path 369" d="M0,0H20V20H0Z" fill="none"/>
  <path id="Path_370" data-name="Path 370" d="M10.2,3a9.17,9.17,0,0,1,9.016,7.5,9.169,9.169,0,0,1-18.032,0A9.17,9.17,0,0,1,10.2,3Zm0,13.333A7.5,7.5,0,0,0,17.511,10.5a7.5,7.5,0,0,0-14.628,0A7.5,7.5,0,0,0,10.2,16.333Zm0-2.083a3.75,3.75,0,1,1,3.75-3.75A3.75,3.75,0,0,1,10.2,14.25Zm0-1.667A2.083,2.083,0,1,0,8.113,10.5,2.083,2.083,0,0,0,10.2,12.583Z" transform="translate(-0.197 -0.5)" fill="#707070"/>
</svg>
