<svg xmlns="http://www.w3.org/2000/svg" width="21.419" height="21.418" viewBox="0 0 21.419 21.418">
  <g id="ZoomOut" transform="translate(-3167.581 -996.291)">
    <path id="Path_1" data-name="Path 1" d="M113.414,35a8.414,8.414,0,1,0,8.414,8.414A8.418,8.418,0,0,0,113.414,35Zm0,1.53a6.884,6.884,0,1,1-6.884,6.884A6.888,6.888,0,0,1,113.414,36.53Z" transform="translate(3062.581 961.291)" fillRule="evenodd"/>
    <path id="Path_2" data-name="Path 2" d="M455.268,386.314l4.59,4.59a.765.765,0,1,0,1.082-1.082l-4.59-4.59a.765.765,0,0,0-1.082,1.082Z" transform="translate(2727.837 626.582)" fillRule="evenodd"/>
    <path id="Path_3" data-name="Path 3" d="M193.265,211.53h7.649a.765.765,0,1,0,0-1.53h-7.649a.765.765,0,0,0,0,1.53Z" transform="translate(2978.905 793.94)" fillRule="evenodd"/>
  </g>
</svg>
