<svg id="Group_245" data-name="Group 245" xmlns="http://www.w3.org/2000/svg" width="22" height="22" viewBox="0 0 22 22">
  <path id="Path_334" data-name="Path 334" d="M0,0H22V22H0Z" fill="none"/>
  <path id="Path_335" data-name="Path 335" d="M5.667,17.583H2.917A.917.917,0,0,1,2,16.667V7.5a.917.917,0,0,1,.917-.917h2.75V2.917A.917.917,0,0,1,6.583,2H15.75a.917.917,0,0,1,.917.917V6.583h2.75a.917.917,0,0,1,.917.917v9.167a.917.917,0,0,1-.917.917h-2.75v1.833a.917.917,0,0,1-.917.917H6.583a.917.917,0,0,1-.917-.917Zm0-1.833v-.917a.917.917,0,0,1,.917-.917H15.75a.917.917,0,0,1,.917.917v.917H18.5V8.417H3.833V15.75ZM7.5,3.833v2.75h7.333V3.833Zm0,11.917V18.5h7.333V15.75ZM4.75,9.333H7.5v1.833H4.75Z" transform="translate(-0.167 -0.167)"/>
</svg>
