<svg id="Group_10226" data-name="Group 10226" xmlns="http://www.w3.org/2000/svg" width="17" height="17" viewBox="0 0 17 17">
  <path id="Path_4003" data-name="Path 4003" d="M0,0H17V17H0Z" fill="none"/>
  <path id="Path_4004" data-name="Path 4004" d="M12.625,4.833h3.542V6.25H14.75v9.208a.708.708,0,0,1-.708.708H4.125a.708.708,0,0,1-.708-.708V6.25H2V4.833H5.542V2.708A.708.708,0,0,1,6.25,2h5.667a.708.708,0,0,1,.708.708Zm.708,1.417h-8.5v8.5h8.5ZM10.085,10.5l1.252,1.252-1,1L9.083,11.5,7.831,12.754l-1-1L8.082,10.5,6.829,9.248l1-1L9.083,9.5l1.252-1.252,1,1ZM6.958,3.417V4.833h4.25V3.417Z" transform="translate(-0.583 -0.583)" fill="#ff8080"/>
</svg>
