<svg id="Group_8666" data-name="Group 8666" xmlns="http://www.w3.org/2000/svg" width="17.001" height="17.001" viewBox="0 0 17.001 17.001">
  <path id="Path_3353" data-name="Path 3353" d="M0,0H17V17H0Z" fill="none"/>
  <path id="Path_3354" data-name="Path 3354" d="M9.084,16.167a7.084,7.084,0,1,1,7.084-7.084A7.084,7.084,0,0,1,9.084,16.167Zm0-1.417A5.667,5.667,0,1,0,3.417,9.084,5.667,5.667,0,0,0,9.084,14.751Zm-.708-3.542H9.792v1.417H8.375Zm1.417-1.165V10.5H8.375V9.438a.708.708,0,0,1,.708-.708A1.063,1.063,0,1,0,8.042,7.459L6.652,7.18a2.48,2.48,0,1,1,3.14,2.863Z" transform="translate(-0.583 -0.583)" fill="currentColor"/>
</svg>
