<svg id="Group_10236" data-name="Group 10236" xmlns="http://www.w3.org/2000/svg" width="17.001" height="17.001" viewBox="0 0 17.001 17.001">
  <path id="Path_4005" data-name="Path 4005" d="M0,0H17V17H0Z" fill="none"/>
  <path id="Path_4006" data-name="Path 4006" d="M14.459,5.125h2.125V6.542h-.708v7.792h.708v1.417H1V14.334h.708V6.542H1V5.125H3.125V3.708A.708.708,0,0,1,3.833,3h9.917a.708.708,0,0,1,.708.708Zm0,1.417H3.125v7.792H5.25V9.375H6.667v4.959H8.084V9.375H9.5v4.959h1.417V9.375h1.417v4.959h2.125ZM4.542,4.417v.708h8.5V4.417Z" transform="translate(-0.292 -0.875)" fill="currentColor"/>
</svg>
