<svg id="Group_8663" data-name="Group 8663" xmlns="http://www.w3.org/2000/svg" width="17.001" height="17.001" viewBox="0 0 17.001 17.001">
  <path id="Path_3347" data-name="Path 3347" d="M0,0H17V17H0Z" fill="none"/>
  <path id="Path_3348" data-name="Path 3348" d="M14.042,16.167H4.125A2.125,2.125,0,0,1,2,14.042V2.708A.708.708,0,0,1,2.708,2h9.917a.708.708,0,0,1,.708.708v8.5h2.833v2.833A2.125,2.125,0,0,1,14.042,16.167Zm-.708-3.542v1.417a.708.708,0,0,0,1.417,0V12.626Zm-1.417,2.125V3.417h-8.5V14.042a.708.708,0,0,0,.708.708ZM4.833,5.542H10.5V6.959H4.833Zm0,2.833H10.5V9.792H4.833Zm0,2.833H8.375v1.417H4.833Z" transform="translate(-0.583 -0.583)" fill="currentColor"/>
</svg>
