<?xml version="1.0" encoding="UTF-8"?><svg id="uuid-c0b2ef58-ece8-4891-b4bd-3c885572970b" xmlns="http://www.w3.org/2000/svg" viewBox="0 0 96.06 116.76"><g id="uuid-74f7b56e-d6ee-4872-8798-81f7cc9f73bb"><g><g><path d="M5.92,0H73.14l22.86,22.51V110.84c0,3.25-2.66,5.92-5.92,5.92H5.92c-3.25,0-5.92-2.66-5.92-5.92V5.92C0,2.66,2.66,0,5.92,0Z" style="fill:#B3B3B3; fill-rule:evenodd;"/><path d="M96.06,22.55l-18.33,.02c-2.52,0-4.59-2.06-4.59-4.59V0l22.92,22.55Z" style="fill:#fff; fill-rule:evenodd;"/></g>
<path d="M57.41,98.72v-2.02c.37,0,.65-.13,.84-.38,.19-.26,.29-.6,.29-1.03,0-.96-.37-1.44-1.12-1.44h0v-1.62h.02c.97,0,1.72,.25,2.24,.75,.53,.5,.79,1.22,.79,2.14,0,1.27-.46,2.17-1.39,2.67l1.68,3.91v.09h-2.08l-1.27-3.08h0Zm0-10.29v-1.59c.52-.08,.78-.43,.78-1.05,0-.39-.1-.69-.3-.88-.11-.11-.27-.22-.48-.34v-1.93l.05,.02c.93,.34,1.61,.75,2.04,1.24,.42,.49,.64,1.12,.64,1.88,0,.83-.27,1.48-.8,1.95-.48,.43-1.13,.66-1.93,.7h0Zm0-8.22v-1.61c.48,.03,.91,.15,1.3,.36,.46,.25,.81,.6,1.06,1.05,.25,.45,.37,.96,.37,1.54h-1.93c0-.45-.09-.79-.29-1.02-.13-.16-.31-.27-.52-.32h0Zm8.05,5.58c0-.39-.1-.69-.3-.88-.2-.2-.56-.41-1.09-.62-.96-.36-1.65-.79-2.07-1.28-.42-.49-.63-1.07-.63-1.73,0-.81,.29-1.45,.86-1.94,.57-.49,1.3-.73,2.18-.73,.59,0,1.11,.12,1.57,.37,.46,.25,.81,.6,1.06,1.05,.25,.45,.37,.96,.37,1.54h-1.93c0-.45-.09-.79-.29-1.02-.19-.24-.47-.35-.83-.35-.34,0-.6,.1-.79,.3-.19,.2-.28,.47-.28,.81,0,.26,.11,.5,.32,.71,.21,.21,.58,.43,1.12,.66,.93,.34,1.61,.75,2.04,1.24,.42,.49,.64,1.12,.64,1.88,0,.83-.27,1.48-.8,1.95-.53,.47-1.25,.7-2.16,.7-.62,0-1.18-.13-1.69-.38-.51-.26-.91-.62-1.19-1.1-.29-.47-.43-1.03-.43-1.68h1.94c0,.55,.11,.95,.32,1.2,.22,.25,.57,.38,1.05,.38,.68,0,1.01-.36,1.01-1.07h0Zm2.82,12.83c-.05,1.09-.35,1.92-.92,2.48-.57,.56-1.36,.84-2.39,.84-1.08,0-1.91-.36-2.49-1.07-.58-.71-.86-1.73-.86-3.05v-1.61c0-1.32,.3-2.33,.89-3.04,.6-.71,1.43-1.07,2.49-1.07s1.84,.29,2.38,.87c.54,.58,.85,1.42,.92,2.51h-1.94c-.02-.68-.12-1.14-.31-1.4-.19-.26-.54-.38-1.05-.38s-.88,.18-1.1,.54c-.21,.36-.33,.96-.34,1.79v1.81c0,.95,.11,1.61,.32,1.96,.21,.36,.58,.53,1.1,.53s.86-.12,1.05-.37c.19-.25,.3-.7,.33-1.34h1.93Zm6.14-.95h-3.01v2.53h3.56v1.6h-5.5v-9.57h5.48v1.62h-3.55v2.26h3.01v1.56h0Zm5.71,1.62c0-.39-.1-.69-.3-.88-.2-.2-.56-.41-1.09-.62-.96-.36-1.65-.79-2.07-1.28-.42-.49-.63-1.07-.63-1.74,0-.81,.29-1.45,.86-1.94,.57-.49,1.3-.73,2.18-.73,.59,0,1.11,.12,1.57,.37,.46,.25,.81,.6,1.06,1.05,.25,.45,.37,.96,.37,1.54h-1.93c0-.45-.09-.79-.29-1.02-.19-.24-.47-.35-.83-.35-.34,0-.6,.1-.79,.3-.19,.2-.28,.47-.28,.81,0,.26,.11,.5,.32,.71,.21,.21,.58,.43,1.12,.66,.93,.34,1.61,.75,2.04,1.24,.42,.49,.64,1.12,.64,1.88,0,.83-.27,1.48-.8,1.95-.53,.47-1.25,.71-2.16,.71-.62,0-1.18-.13-1.69-.38-.51-.26-.91-.62-1.19-1.09-.29-.47-.43-1.03-.43-1.68h1.94c0,.55,.11,.95,.32,1.2,.22,.25,.57,.38,1.05,.38,.68,0,1.01-.36,1.01-1.07Zm-22.72-20.69v1.61c-.09-.02-.2-.03-.31-.03-.34,0-.6,.1-.79,.3-.19,.2-.28,.47-.28,.81,0,.26,.11,.5,.32,.71,.2,.2,.56,.42,1.06,.64v1.93c-.17-.09-.37-.19-.61-.28-.96-.36-1.65-.79-2.07-1.28-.42-.49-.63-1.07-.63-1.73,0-.81,.29-1.45,.86-1.94,.57-.49,1.3-.73,2.18-.73,.09,0,.18,0,.27,0h0Zm0,8.24v1.59c-.08,0-.16,0-.24,0-.62,0-1.18-.13-1.69-.38-.51-.26-.91-.62-1.19-1.1-.29-.47-.43-1.03-.43-1.68h1.94c0,.55,.11,.95,.32,1.2,.22,.25,.57,.38,1.05,.38,.08,0,.16,0,.24-.02h0Zm0,5.38v1.62h-1.13v2.86h1.13v2.02l-.17-.41h-.96v3.49h-1.93v-9.57h3.06Zm-8.06,9.7v-1.62c.11,.02,.24,.03,.38,.03,.46,0,.78-.11,.95-.35,.17-.23,.26-.61,.26-1.14v-6.62h1.93v6.63c0,1-.28,1.76-.82,2.29-.54,.53-1.31,.79-2.32,.79-.13,0-.26,0-.38-.01h0Zm0-15.58v-1.62h.89l-.89-3.42h0s0-2.59,0-2.59h.89l3.01,9.57h-2.06l-.51-1.95h-1.32Zm0-7.62v2.59l-.89,3.41h.89v1.62h-1.31l-.51,1.95h-2.04l2.99-9.57h.88Zm0,21.58v1.62c-.84-.06-1.5-.32-1.97-.79-.54-.53-.81-1.31-.81-2.32v-6.58h1.95v6.59c0,.54,.09,.93,.26,1.17,.12,.16,.31,.27,.57,.32h0Zm-7.54,1.63v-1.62h.02c.5,0,.88-.19,1.12-.58s.37-.99,.37-1.81v-1.67c0-.86-.12-1.51-.37-1.93-.24-.42-.63-.63-1.14-.63h0v-1.62h0c1.07,0,1.91,.36,2.52,1.09,.62,.73,.92,1.75,.93,3.06v1.64c0,1.29-.3,2.28-.91,2.99-.61,.71-1.45,1.07-2.53,1.07h-.02Zm0-13.64v-1.6h3.05v1.6h-3.05Zm-3.47-3.18c-.05,1.09-.35,1.92-.92,2.48-.57,.56-1.36,.84-2.39,.84-1.08,0-1.91-.36-2.49-1.07-.58-.71-.86-1.73-.86-3.05v-1.61c0-1.31,.3-2.33,.89-3.04,.6-.71,1.43-1.07,2.49-1.07s1.84,.29,2.38,.87c.54,.58,.85,1.42,.92,2.51h-1.94c-.02-.68-.12-1.14-.31-1.4-.19-.26-.54-.38-1.05-.38s-.88,.18-1.1,.54c-.21,.36-.33,.96-.34,1.79v1.81c0,.95,.11,1.61,.32,1.96,.21,.36,.58,.53,1.1,.53s.86-.12,1.05-.37c.19-.25,.3-.7,.33-1.34h1.93Zm3.47,1.58v1.6h-2.27v-9.57h1.93v7.97h.34Zm0,5.39v1.62c-.51,0-.89,.2-1.13,.61-.24,.41-.37,1.02-.38,1.85v1.7c0,.84,.13,1.46,.37,1.85,.25,.39,.63,.59,1.14,.59v1.62c-1.07,0-1.91-.36-2.52-1.06-.61-.7-.92-1.69-.93-2.96v-1.64c0-1.32,.31-2.35,.91-3.08,.61-.74,1.46-1.11,2.54-1.11h0Zm-21.55,6.63v-2.02c.37,0,.65-.13,.84-.38,.19-.26,.29-.6,.29-1.03,0-.96-.37-1.44-1.12-1.44h0v-1.62h.02c.97,0,1.72,.25,2.24,.75,.53,.5,.79,1.22,.79,2.14,0,1.27-.46,2.17-1.39,2.67l1.68,3.91v.09h-2.08l-1.27-3.08h0Zm9.33-1.05h-3.01v2.53h3.56v1.6h-5.5v-9.57h5.48v1.62h-3.55v2.26h3.01v1.56h0Zm5.71,1.62c0-.39-.1-.69-.3-.88-.2-.2-.56-.41-1.09-.62-.96-.36-1.65-.79-2.07-1.28-.42-.49-.63-1.07-.63-1.74,0-.81,.29-1.45,.86-1.94,.57-.49,1.3-.73,2.18-.73,.59,0,1.11,.12,1.57,.37,.46,.25,.81,.6,1.06,1.05,.25,.45,.37,.96,.37,1.54h-1.93c0-.45-.09-.79-.29-1.02-.19-.24-.47-.35-.83-.35-.34,0-.6,.1-.79,.3-.19,.2-.28,.47-.28,.81,0,.26,.11,.5,.32,.71,.21,.21,.58,.43,1.12,.66,.93,.34,1.61,.75,2.04,1.24,.42,.49,.64,1.12,.64,1.88,0,.83-.27,1.48-.8,1.95-.53,.47-1.25,.71-2.16,.71-.62,0-1.18-.13-1.69-.38-.51-.26-.91-.62-1.19-1.09-.29-.47-.43-1.03-.43-1.68h1.94c0,.55,.11,.95,.32,1.2,.22,.25,.57,.38,1.05,.38,.68,0,1.01-.36,1.01-1.07Zm-15.04-7.06v1.62h-1.13v2.86h1.13v2.02l-.17-.41h-.96v3.49h-1.93v-9.57h3.06Z" style="fill:#2b2a29; fill-rule:evenodd;"/>
<path d="M35.23,64.68h-3.47V24.13l-10.2,4.56v-3.55l13.09-5.71h.58v45.26h0Zm22.66,0h-3.47V24.13l-10.2,4.56v-3.55l13.09-5.71h.58v45.26Z" style="fill:#fff; fill-rule:evenodd;"/><path d="M63.98,19.16v1.41h.88v.77h-.88v3.61c0,.23,.04,.4,.11,.52,.08,.12,.2,.18,.39,.18,.12,0,.25-.02,.38-.06v.81c-.23,.07-.45,.11-.67,.11-.38,0-.66-.13-.86-.4-.2-.27-.3-.65-.3-1.14v-3.61h-.89v-.77h.89v-1.41h.95Zm2.96,2.01c.36-.47,.82-.71,1.39-.71,1.03,0,1.55,.69,1.57,2.06v3.87h-.95v-3.82c0-.46-.08-.78-.23-.97-.15-.19-.38-.29-.69-.29-.24,0-.45,.08-.64,.24-.19,.16-.34,.36-.45,.62v4.23h-.95v-8.26h.95v3.04Z" style="fill:#fff; fill-rule:evenodd; stroke:#fff; stroke-miterlimit:22.93; stroke-width:.22px;"/></g></g></svg>