<svg id="Group_2359" data-name="Group 2359" xmlns="http://www.w3.org/2000/svg" xmlns:xlink="http://www.w3.org/1999/xlink" width="96.059" height="117.061" viewBox="0 0 96.059 117.061">
  <defs>
    <clipPath id="clip-path">
      <rect id="Rectangle_1508" data-name="Rectangle 1508" width="96.059" height="117.06" fill="none"/>
    </clipPath>
  </defs>
  <g id="Group_2358" data-name="Group 2358" clipPath="url(#clip-path)">
    <path id="Path_2727" data-name="Path 2727" d="M5.915,0H73.141L96,22.507v88.638a5.933,5.933,0,0,1-5.915,5.915H5.915A5.933,5.933,0,0,1,0,111.145V5.915A5.933,5.933,0,0,1,5.915,0" fill="#c38f68" fillRule="evenodd"/>
    <path id="Path_2728" data-name="Path 2728" d="M96.06,22.546l-18.335.024a4.6,4.6,0,0,1-4.587-4.586V0Z" fill="#fff" fillRule="evenodd"/>
    <path id="Path_2729" data-name="Path 2729" d="M29.626,90.959H26.389l-.743,2.5H24.412L27.5,83.889h1.03l3.09,9.574H30.382Zm-2.92-1.037h2.61l-1.308-4.35Zm12.147.5a3.56,3.56,0,0,1-.865,2.359,2.924,2.924,0,0,1-2.219.821,2.743,2.743,0,0,1-2.287-1.1,4.737,4.737,0,0,1-.848-2.972V87.794a4.582,4.582,0,0,1,.87-2.953,2.881,2.881,0,0,1,2.377-1.087,2.757,2.757,0,0,1,2.146.83,3.638,3.638,0,0,1,.826,2.377H37.636a2.935,2.935,0,0,0-.494-1.67,1.539,1.539,0,0,0-1.261-.5,1.72,1.72,0,0,0-1.506.765A3.973,3.973,0,0,0,33.85,87.8v1.756a4.16,4.16,0,0,0,.49,2.228,1.583,1.583,0,0,0,1.429.777,1.733,1.733,0,0,0,1.356-.467,2.939,2.939,0,0,0,.511-1.676Zm7.034-5.493H43.369v8.538h-1.2V84.925H39.654V83.889h6.233Zm2.671,8.538H47.352V83.889h1.206ZM53.4,91.616l2.188-7.727h1.322l-2.979,9.574H52.883l-2.972-9.574h1.315Zm6.062,1.847h-1.2V83.889h1.2Zm7.514-8.538H64.462v8.538h-1.2V84.925H60.747V83.889H66.98ZM70.991,88.7l1.959-4.807h1.363l-2.723,6v3.571h-1.2V89.892l-2.722-6h1.367Z" fill="#2b2a29" fillRule="evenodd"/>
    <path id="Path_2730" data-name="Path 2730" d="M29.626,90.959H26.389l-.743,2.5H24.412L27.5,83.889h1.03l3.09,9.574H30.382Zm-2.92-1.037h2.61l-1.308-4.35Zm12.147.5a3.56,3.56,0,0,1-.865,2.359,2.924,2.924,0,0,1-2.219.821,2.743,2.743,0,0,1-2.287-1.1,4.737,4.737,0,0,1-.848-2.972V87.794a4.582,4.582,0,0,1,.87-2.953,2.881,2.881,0,0,1,2.377-1.087,2.757,2.757,0,0,1,2.146.83,3.638,3.638,0,0,1,.826,2.377H37.636a2.935,2.935,0,0,0-.494-1.67,1.539,1.539,0,0,0-1.261-.5,1.72,1.72,0,0,0-1.506.765A3.973,3.973,0,0,0,33.85,87.8v1.756a4.16,4.16,0,0,0,.49,2.228,1.583,1.583,0,0,0,1.429.777,1.733,1.733,0,0,0,1.356-.467,2.939,2.939,0,0,0,.511-1.676Zm7.034-5.493H43.369v8.538h-1.2V84.925H39.654V83.889h6.233Zm2.671,8.538H47.352V83.889h1.206ZM53.4,91.616l2.188-7.727h1.322l-2.979,9.574H52.883l-2.972-9.574h1.315Zm6.062,1.847h-1.2V83.889h1.2Zm7.514-8.538H64.462v8.538h-1.2V84.925H60.747V83.889H66.98ZM70.991,88.7l1.959-4.807h1.363l-2.723,6v3.571h-1.2V89.892l-2.722-6h1.367Z" fill="none" stroke="#000" strokeMiterlimit="10" strokeWidth="0.5"/>
    <path id="Path_2731" data-name="Path 2731" d="M48.541,64.441H30.378a2.191,2.191,0,0,1-2.184-2.184V20.77a2.19,2.19,0,0,1,2.184-2.184h33.15a2.189,2.189,0,0,1,2.184,2.184V37.444" fill="none" stroke="#fff" strokeLinecap="round" strokeLinejoin="round" strokeWidth="2.5"/>
    <path id="Path_2732" data-name="Path 2732" d="M33.157,42.208,40.7,33.672l8.536,7.742L59.856,29.6H51.718" fill="none" stroke="#fff" strokeLinecap="round" strokeLinejoin="round" strokeWidth="2.5"/>
    <line id="Line_102" data-name="Line 102" y2="8.337" transform="translate(59.856 29.603)" fill="none" stroke="#fff" strokeLinecap="round" strokeLinejoin="round" strokeWidth="2.5"/>
    <line id="Line_103" data-name="Line 103" x2="21.935" transform="translate(32.958 48.958)" fill="none" stroke="#fff" strokeLinecap="round" strokeLinejoin="round" strokeWidth="2.5"/>
    <path id="Path_2733" data-name="Path 2733" d="M52.4,68.986l.026-4.562L52.4,59.862l3.938,2.3L60.3,64.424,56.34,66.682Z" fill="none" stroke="#fff" strokeLinecap="round" strokeLinejoin="round" strokeWidth="2.5"/>
    <path id="Path_2734" data-name="Path 2734" d="M71,46.5,61.3,63.306a1.463,1.463,0,0,1-1.993.534l-5.73-3.309a1.463,1.463,0,0,1-.534-1.993l9.7-16.8a1.464,1.464,0,0,1,1.994-.534l5.73,3.308A1.465,1.465,0,0,1,71,46.5Z" fill="none" stroke="#fff" strokeLinecap="round" strokeLinejoin="round" strokeWidth="2.5"/>
    <line id="Line_104" data-name="Line 104" x1="8.161" y1="4.711" transform="translate(60.993 44.994)" fill="none" stroke="#fff" strokeLinecap="round" strokeLinejoin="round" strokeWidth="2.5"/>
  </g>
</svg>
