<svg id="Group_2375" data-name="Group 2375" xmlns="http://www.w3.org/2000/svg" xmlns:xlink="http://www.w3.org/1999/xlink" width="96.06" height="117.061" viewBox="0 0 96.06 117.061">
  <defs>
    <clipPath id="clip-path">
      <rect id="Rectangle_1514" data-name="Rectangle 1514" width="96.06" height="117.061" transform="translate(0 0)" fill="none"/>
    </clipPath>
    <clipPath id="clip-path-2">
      <path id="Path_2755" data-name="Path 2755" d="M23.35,37.513c-.451.239-.928.417-.928.928v26.9c0,.51.449,1.1.928.928a28.9,28.9,0,0,1,21.072,0c.476.183.928-.418.928-.928v-26.9c0-.511-.495-.657-.928-.928a18.743,18.743,0,0,0-10.107-3.054A23.409,23.409,0,0,0,23.35,37.513" fill="none"/>
    </clipPath>
  </defs>
  <g id="Group_2370" data-name="Group 2370">
    <g id="Group_2369" data-name="Group 2369" clipPath="url(#clip-path)">
      <path id="Path_2749" data-name="Path 2749" d="M5.915,0H73.141L96,22.508v88.637a5.934,5.934,0,0,1-5.915,5.916H5.915A5.934,5.934,0,0,1,0,111.145V5.916A5.933,5.933,0,0,1,5.915,0" fill="#59add2" fillRule="evenodd"/>
      <path id="Path_2750" data-name="Path 2750" d="M96.06,22.547l-18.335.023a4.6,4.6,0,0,1-4.586-4.585V0Z" fill="#fff" fillRule="evenodd"/>
      <path id="Path_2751" data-name="Path 2751" d="M34.6,96.313a3.558,3.558,0,0,1-.864,2.359,2.928,2.928,0,0,1-2.22.822,2.741,2.741,0,0,1-2.287-1.1,4.743,4.743,0,0,1-.848-2.972V93.69a4.579,4.579,0,0,1,.871-2.954,2.88,2.88,0,0,1,2.376-1.086,2.753,2.753,0,0,1,2.146.83,3.638,3.638,0,0,1,.826,2.377H33.387a2.941,2.941,0,0,0-.493-1.67,1.54,1.54,0,0,0-1.262-.5,1.719,1.719,0,0,0-1.506.766A3.971,3.971,0,0,0,29.6,93.7v1.756a4.172,4.172,0,0,0,.49,2.228,1.583,1.583,0,0,0,1.429.777,1.731,1.731,0,0,0,1.356-.467,2.932,2.932,0,0,0,.511-1.677Zm7.86-.9a4.78,4.78,0,0,1-.835,3.021,2.846,2.846,0,0,1-2.374,1.06,2.882,2.882,0,0,1-2.339-1.031,4.565,4.565,0,0,1-.891-2.911v-1.8a4.788,4.788,0,0,1,.848-3.012,2.835,2.835,0,0,1,2.368-1.088A2.866,2.866,0,0,1,41.6,90.693a4.7,4.7,0,0,1,.866,2.976Zm-1.205-1.676a4.091,4.091,0,0,0-.5-2.258,1.908,1.908,0,0,0-3.023.011,3.958,3.958,0,0,0-.517,2.209v1.714a4.042,4.042,0,0,0,.51,2.234,1.914,1.914,0,0,0,3.021.06,3.981,3.981,0,0,0,.5-2.175Zm4.614-3.952,2.5,7.812,2.5-7.812h1.551v9.574h-1.2V95.63l.112-3.736-2.505,7.465h-.92L45.413,91.92l.113,3.71v3.729h-1.2V89.785Zm9.878,9.574H54.545V89.785h1.206Zm8.114-3.046A3.558,3.558,0,0,1,63,98.672a2.928,2.928,0,0,1-2.22.822,2.741,2.741,0,0,1-2.287-1.1,4.737,4.737,0,0,1-.848-2.972V93.69a4.585,4.585,0,0,1,.87-2.954,2.883,2.883,0,0,1,2.377-1.086,2.753,2.753,0,0,1,2.146.83,3.638,3.638,0,0,1,.826,2.377H62.649a2.948,2.948,0,0,0-.494-1.67,1.539,1.539,0,0,0-1.262-.5,1.719,1.719,0,0,0-1.506.766,3.971,3.971,0,0,0-.525,2.244v1.756a4.182,4.182,0,0,0,.489,2.228,1.586,1.586,0,0,0,1.43.777,1.731,1.731,0,0,0,1.356-.467,2.947,2.947,0,0,0,.512-1.677Zm5.811.624a1.476,1.476,0,0,0-.389-1.1,3.983,3.983,0,0,0-1.4-.742,6.036,6.036,0,0,1-1.549-.759,2.684,2.684,0,0,1-.8-.909,2.69,2.69,0,0,1,.494-3.043,2.729,2.729,0,0,1,1.989-.736,2.959,2.959,0,0,1,1.5.377,2.585,2.585,0,0,1,1.012,1.048,3.117,3.117,0,0,1,.355,1.472h-1.21a2.013,2.013,0,0,0-.427-1.374,1.549,1.549,0,0,0-1.229-.487,1.514,1.514,0,0,0-1.132.409,1.566,1.566,0,0,0-.4,1.145,1.336,1.336,0,0,0,.435,1.014,3.812,3.812,0,0,0,1.34.732,4.614,4.614,0,0,1,2.022,1.151,2.592,2.592,0,0,1,.608,1.791,2.419,2.419,0,0,1-.756,1.866,2.91,2.91,0,0,1-2.058.7,3.29,3.29,0,0,1-1.542-.366A2.77,2.77,0,0,1,65.425,98.1a2.859,2.859,0,0,1-.4-1.518h1.21a1.86,1.86,0,0,0,.5,1.381,1.833,1.833,0,0,0,1.351.494,1.6,1.6,0,0,0,1.2-.409,1.516,1.516,0,0,0,.4-1.111" fill="#2b2a29" fillRule="evenodd"/>
      <path id="Path_2752" data-name="Path 2752" d="M34.6,96.313a3.558,3.558,0,0,1-.864,2.359,2.928,2.928,0,0,1-2.22.822,2.741,2.741,0,0,1-2.287-1.1,4.743,4.743,0,0,1-.848-2.972V93.69a4.579,4.579,0,0,1,.871-2.954,2.88,2.88,0,0,1,2.376-1.086,2.753,2.753,0,0,1,2.146.83,3.638,3.638,0,0,1,.826,2.377H33.387a2.941,2.941,0,0,0-.493-1.67,1.54,1.54,0,0,0-1.262-.5,1.719,1.719,0,0,0-1.506.766A3.971,3.971,0,0,0,29.6,93.7v1.756a4.172,4.172,0,0,0,.49,2.228,1.583,1.583,0,0,0,1.429.777,1.731,1.731,0,0,0,1.356-.467,2.932,2.932,0,0,0,.511-1.677Zm7.86-.9a4.78,4.78,0,0,1-.835,3.021,2.846,2.846,0,0,1-2.374,1.06,2.882,2.882,0,0,1-2.339-1.031,4.565,4.565,0,0,1-.891-2.911v-1.8a4.788,4.788,0,0,1,.848-3.012,2.835,2.835,0,0,1,2.368-1.088A2.866,2.866,0,0,1,41.6,90.693a4.7,4.7,0,0,1,.866,2.976Zm-1.205-1.676a4.091,4.091,0,0,0-.5-2.258,1.908,1.908,0,0,0-3.023.011,3.958,3.958,0,0,0-.517,2.209v1.714a4.042,4.042,0,0,0,.51,2.234,1.914,1.914,0,0,0,3.021.06,3.981,3.981,0,0,0,.5-2.175Zm4.614-3.952,2.5,7.812,2.5-7.812h1.551v9.574h-1.2V95.63l.112-3.736-2.505,7.465h-.92L45.413,91.92l.113,3.71v3.729h-1.2V89.785Zm9.878,9.574H54.545V89.785h1.206Zm8.114-3.046A3.558,3.558,0,0,1,63,98.672a2.928,2.928,0,0,1-2.22.822,2.741,2.741,0,0,1-2.287-1.1,4.737,4.737,0,0,1-.848-2.972V93.69a4.585,4.585,0,0,1,.87-2.954,2.883,2.883,0,0,1,2.377-1.086,2.753,2.753,0,0,1,2.146.83,3.638,3.638,0,0,1,.826,2.377H62.649a2.948,2.948,0,0,0-.494-1.67,1.539,1.539,0,0,0-1.262-.5,1.719,1.719,0,0,0-1.506.766,3.971,3.971,0,0,0-.525,2.244v1.756a4.182,4.182,0,0,0,.489,2.228,1.586,1.586,0,0,0,1.43.777,1.731,1.731,0,0,0,1.356-.467,2.947,2.947,0,0,0,.512-1.677Zm5.811.624a1.476,1.476,0,0,0-.389-1.1,3.983,3.983,0,0,0-1.4-.742,6.036,6.036,0,0,1-1.549-.759,2.684,2.684,0,0,1-.8-.909,2.69,2.69,0,0,1,.494-3.043,2.729,2.729,0,0,1,1.989-.736,2.959,2.959,0,0,1,1.5.377,2.585,2.585,0,0,1,1.012,1.048,3.117,3.117,0,0,1,.355,1.472h-1.21a2.013,2.013,0,0,0-.427-1.374,1.549,1.549,0,0,0-1.229-.487,1.514,1.514,0,0,0-1.132.409,1.566,1.566,0,0,0-.4,1.145,1.336,1.336,0,0,0,.435,1.014,3.812,3.812,0,0,0,1.34.732,4.614,4.614,0,0,1,2.022,1.151,2.592,2.592,0,0,1,.608,1.791,2.419,2.419,0,0,1-.756,1.866,2.91,2.91,0,0,1-2.058.7,3.29,3.29,0,0,1-1.542-.366A2.77,2.77,0,0,1,65.425,98.1a2.859,2.859,0,0,1-.4-1.518h1.21a1.86,1.86,0,0,0,.5,1.381,1.833,1.833,0,0,0,1.351.494,1.6,1.6,0,0,0,1.2-.409A1.516,1.516,0,0,0,69.676,96.937Z" fill="none" stroke="#000" strokeMiterlimit="10" strokeWidth="0.5"/>
      <path id="Path_2753" data-name="Path 2753" d="M19.353,32.631c9.689-5.148,19.378-6.064,29.066,0,.6.373,1.279.576,1.279,1.279V71.02c0,.7-.622,1.532-1.279,1.279a39.884,39.884,0,0,0-29.066,0c-.66.245-1.28-.575-1.28-1.279V33.91C18.073,33.207,18.731,32.961,19.353,32.631Z" fill="none" stroke="#fff" strokeLinecap="round" strokeLinejoin="round" strokeWidth="2"/>
    </g>
  </g>
  <g id="Group_2372" data-name="Group 2372">
    <g id="Group_2371" data-name="Group 2371" clipPath="url(#clip-path-2)">
      <path id="Path_2754" data-name="Path 2754" d="M43.68,54.106l.931,6.929,6.881,1.228-6.3,3.027.958,6.923-4.826-5.056-6.289,3.05,3.318-6.152-4.844-5.039,6.876,1.255Z" fill="none" stroke="#fff" strokeLinecap="round" strokeLinejoin="round" strokeWidth="2"/>
    </g>
  </g>
  <g id="Group_2374" data-name="Group 2374">
    <g id="Group_2373" data-name="Group 2373" clipPath="url(#clip-path)">
      <path id="Path_2756" data-name="Path 2756" d="M23.35,37.513c7.024-3.732,14.048-4.4,21.073,0,.432.27.928.417.928.928v26.9c0,.51-.452,1.11-.928.928a28.913,28.913,0,0,0-21.073,0c-.479.176-.928-.418-.928-.928v-26.9C22.422,37.93,22.9,37.752,23.35,37.513Z" fill="none" stroke="#fff" strokeLinecap="round" strokeLinejoin="round" strokeWidth="2"/>
      <line id="Line_121" data-name="Line 121" y1="3.473" x2="22.485" transform="translate(22.826 48.535)" fill="none" stroke="#fff" strokeLinecap="round" strokeLinejoin="round" strokeWidth="2"/>
      <line id="Line_122" data-name="Line 122" y2="15.355" transform="translate(34.16 34.459)" fill="none" stroke="#fff" strokeLinecap="round" strokeLinejoin="round" strokeWidth="2"/>
      <path id="Path_2757" data-name="Path 2757" d="M80.044,32.631c-9.688-5.148-19.377-6.064-29.066,0-.6.373-1.28.576-1.28,1.279V71.02c0,.7.623,1.532,1.28,1.279a39.884,39.884,0,0,1,29.066,0c.66.245,1.279-.575,1.279-1.279V33.91C81.323,33.207,80.666,32.961,80.044,32.631Z" fill="none" stroke="#fff" strokeLinecap="round" strokeLinejoin="round" strokeWidth="2"/>
      <path id="Path_2758" data-name="Path 2758" d="M76.047,37.513c-7.024-3.732-14.048-4.4-21.073,0-.432.27-.928.417-.928.928v26.9c0,.51.452,1.11.928.928a28.913,28.913,0,0,1,21.073,0c.479.176.928-.418.928-.928v-26.9C76.975,37.93,76.5,37.752,76.047,37.513Z" fill="none" stroke="#fff" strokeLinecap="round" strokeLinejoin="round" strokeWidth="2"/>
      <line id="Line_123" data-name="Line 123" x1="22.485" y2="3.474" transform="translate(54.451 46.616)" fill="none" stroke="#fff" strokeLinecap="round" strokeLinejoin="round" strokeWidth="2"/>
      <line id="Line_124" data-name="Line 124" y1="15.355" transform="translate(65.603 48.81)" fill="none" stroke="#fff" strokeLinecap="round" strokeLinejoin="round" strokeWidth="2"/>
      <path id="Path_2759" data-name="Path 2759" d="M63.176,44.286a3.427,3.427,0,1,0-3.428-3.428A3.434,3.434,0,0,0,63.176,44.286Z" fill="none" stroke="#fff" strokeLinecap="round" strokeLinejoin="round" strokeWidth="2"/>
      <path id="Path_2760" data-name="Path 2760" d="M59.393,49.26a4.8,4.8,0,0,1,9.269-1.495" fill="none" stroke="#fff" strokeLinecap="round" strokeLinejoin="round" strokeWidth="2"/>
      <path id="Path_2761" data-name="Path 2761" d="M31.094,50.991a5.256,5.256,0,0,1-8.333,6.1" fill="none" stroke="#fff" strokeLinecap="round" strokeLinejoin="round" strokeWidth="2"/>
    </g>
  </g>
</svg>
