<?xml version="1.0" encoding="UTF-8"?><svg id="uuid-7c58bbae-e6b3-4b85-8946-766d954499a9" xmlns="http://www.w3.org/2000/svg"  width="99.838" height="120.54" viewBox="0 0 96.06 116.69"><g id="uuid-76a05d02-18b5-4b25-b503-06d8068e1e74"><g><g><path d="M5.92,0H73.14l22.86,22.51V110.77c0,3.25-2.66,5.92-5.92,5.92H5.92c-3.25,0-5.92-2.66-5.92-5.92V5.92C0,2.66,2.66,0,5.92,0Z" style="fill:#74b8aa; fill-rule:evenodd;"/><path d="M96.06,22.55l-18.34,.02c-2.52,0-4.59-2.06-4.59-4.59V0l22.92,22.55Z" style="fill:#fff; fill-rule:evenodd;"/></g>
<path d="M55.54,103.82v-1.62h.02c.5,0,.88-.19,1.12-.58,.24-.39,.37-.99,.38-1.81v-1.67c0-.86-.12-1.51-.37-1.93-.24-.42-.63-.63-1.14-.63h0v-1.62h0c1.07,0,1.91,.36,2.52,1.09,.62,.73,.92,1.75,.93,3.06v1.64c0,1.29-.3,2.28-.91,2.99-.61,.71-1.45,1.07-2.53,1.07h-.02Zm0-13.64v-9.57h4.7v1.62h-3.37v2.45h3.01v1.6h-3.01v3.91h-1.33Zm12.14-7.96h-2.37v7.96h-1.94v-7.96h-2.33v-1.62h6.63v1.62h0Zm-.61,21.46h-1.93l-2.83-6.28v6.28h-1.93v-9.57h1.93l2.83,6.29v-6.29h1.93v9.57h0Zm5.6-2.51c0-.39-.1-.69-.3-.88-.2-.2-.56-.41-1.09-.62-.96-.36-1.65-.79-2.07-1.28-.42-.49-.63-1.07-.63-1.73,0-.81,.29-1.45,.86-1.94,.57-.49,1.3-.73,2.18-.73,.59,0,1.11,.12,1.57,.37,.46,.25,.81,.6,1.06,1.05,.25,.45,.37,.96,.37,1.54h-1.93c0-.45-.09-.79-.29-1.02-.19-.24-.47-.35-.83-.35-.34,0-.6,.1-.79,.3-.19,.2-.28,.47-.28,.81,0,.26,.11,.5,.32,.71,.21,.21,.58,.43,1.12,.66,.93,.34,1.61,.75,2.04,1.24,.42,.49,.64,1.12,.64,1.88,0,.83-.27,1.48-.8,1.95-.53,.47-1.25,.7-2.16,.7-.62,0-1.18-.13-1.69-.38-.51-.26-.91-.62-1.19-1.1-.29-.47-.43-1.03-.43-1.68h1.94c0,.55,.11,.95,.32,1.2,.22,.25,.57,.38,1.05,.38,.68,0,1.01-.36,1.01-1.07Zm-17.13-20.56v9.57h-.6v-9.57h.6Zm0,13.37v1.62c-.51,0-.89,.2-1.13,.61-.24,.41-.37,1.02-.38,1.85v1.7c0,.84,.13,1.46,.37,1.85,.25,.39,.63,.59,1.14,.59v1.62c-1.07,0-1.91-.36-2.51-1.06-.61-.7-.93-1.69-.93-2.96v-1.64c0-1.32,.31-2.35,.91-3.08,.61-.74,1.46-1.11,2.54-1.11h0Zm-5.39,9.16v-4.05c.07,.06,.13,.13,.19,.2,.42,.49,.64,1.12,.64,1.88,0,.83-.27,1.48-.8,1.95l-.03,.02h0Zm0-6.2v-2.15c.18,.18,.33,.38,.46,.61,.25,.45,.37,.96,.37,1.54h-.83Zm0-8.71v-1.62h.89l-.89-3.42h0s0-2.59,0-2.59h.89l3.01,9.57h-2.06l-.51-1.95h-1.32Zm0-7.62v2.59l-.89,3.41h.89v1.62h-1.31l-.51,1.95h-2.04l2.99-9.57h.88Zm0,14.18v2.15h-1.1c0-.45-.09-.79-.29-1.02-.19-.24-.47-.35-.83-.35-.34,0-.6,.1-.79,.3-.19,.2-.28,.47-.28,.81,0,.26,.11,.5,.32,.71,.21,.21,.58,.43,1.12,.66,.81,.29,1.42,.64,1.85,1.05v4.05c-.53,.45-1.24,.68-2.14,.68-.62,0-1.18-.13-1.69-.38-.51-.26-.91-.62-1.19-1.1-.29-.47-.43-1.03-.43-1.68h1.94c0,.55,.11,.95,.32,1.2,.22,.25,.57,.38,1.05,.38,.68,0,1.01-.36,1.01-1.07,0-.39-.1-.69-.3-.88-.2-.2-.56-.41-1.09-.62-.96-.36-1.65-.79-2.07-1.28-.42-.49-.63-1.07-.63-1.73,0-.81,.29-1.45,.86-1.94,.57-.49,1.3-.73,2.18-.73,.59,0,1.11,.12,1.57,.37,.23,.12,.43,.27,.6,.44h0Zm-7.63,8.61v-4.61c.22,.16,.4,.32,.55,.5,.42,.49,.64,1.12,.64,1.88,0,.83-.27,1.48-.8,1.95-.12,.11-.25,.2-.39,.28h0Zm0-6.46v-2.44c.34,.23,.62,.54,.82,.9,.25,.45,.37,.96,.37,1.54h-1.19Zm0-9.84v-2.02c.37,0,.65-.13,.84-.38,.19-.26,.29-.6,.29-1.03,0-.96-.37-1.44-1.12-1.44h0v-1.62h.02c.97,0,1.72,.25,2.24,.75,.53,.5,.79,1.22,.79,2.14,0,1.27-.46,2.17-1.39,2.68l1.68,3.91v.09h-2.08l-1.27-3.08Zm-4.26-.1c-.05,1.09-.35,1.92-.92,2.48-.57,.56-1.36,.84-2.39,.84-1.08,0-1.91-.36-2.49-1.07-.58-.71-.86-1.73-.86-3.05v-1.61c0-1.31,.3-2.33,.89-3.04,.6-.71,1.43-1.07,2.49-1.07s1.84,.29,2.38,.87c.54,.58,.85,1.42,.92,2.51h-1.94c-.02-.68-.12-1.14-.31-1.4-.19-.26-.54-.38-1.05-.38s-.88,.18-1.1,.54c-.21,.36-.33,.96-.34,1.79v1.81c0,.95,.11,1.61,.32,1.96,.21,.36,.58,.53,1.1,.53s.86-.12,1.05-.37c.19-.25,.3-.7,.33-1.34h1.93Zm4.26-6.39v1.62h-1.13v2.85h1.13v2.02l-.17-.41h-.96v3.49h-1.93v-9.57h3.06Zm0,13.89v2.44h-.74c0-.45-.09-.79-.29-1.02-.19-.24-.47-.35-.83-.35-.34,0-.6,.1-.79,.3-.19,.2-.28,.47-.28,.81,0,.26,.11,.5,.32,.71,.21,.21,.58,.43,1.12,.66,.6,.22,1.1,.47,1.49,.75v4.61c-.48,.28-1.07,.42-1.78,.42-.62,0-1.18-.13-1.69-.38-.51-.26-.91-.62-1.19-1.1-.29-.47-.43-1.03-.43-1.68h1.94c0,.55,.11,.95,.32,1.2,.22,.25,.57,.38,1.05,.38,.68,0,1.01-.36,1.01-1.07,0-.39-.1-.69-.3-.88-.2-.2-.56-.41-1.09-.62-.96-.36-1.65-.79-2.07-1.28-.42-.49-.63-1.07-.63-1.73,0-.81,.29-1.45,.86-1.94,.57-.49,1.3-.73,2.18-.73,.59,0,1.11,.12,1.57,.37,.08,.05,.17,.09,.24,.15h0Zm-15.92,7.59h3.39v1.6h-5.33v-9.57h1.93v7.97h0Zm9.46-2.53h-3.01v2.53h3.56v1.6h-5.5v-9.57h5.48v1.62h-3.55v2.26h3.01v1.56Z" style="fill:#2b2a29; fill-rule:evenodd;"/>
<g><polygon points="56.68 51.22 70.43 41.33 20.27 18.43 34.74 64.48 46.07 57.73 56.68 66.9 56.68 51.22" style="fill:none; fill-rule:evenodd; stroke:#fff; stroke-linecap:round; stroke-linejoin:round; stroke-width:2px;"/><line x1="20.27" y1="18.55" x2="56.8" y2="51.34" style="fill:none; stroke:#fff; stroke-linecap:round; stroke-linejoin:round; stroke-width:2px;"/><polyline points="56.32 66.77 50.41 54.72 44.75 58.58" style="fill:none; fill-rule:evenodd; stroke:#fff; stroke-linecap:round; stroke-linejoin:round; stroke-width:2px;"/><line x1="50.29" y1="54.72" x2="20.99" y2="18.91" style="fill:none; stroke:#fff; stroke-linecap:round; stroke-linejoin:round; stroke-width:2px;"/></g></g></g></svg>