<?xml version="1.0" encoding="UTF-8"?><svg id="uuid-fd0f569c-a12b-4c2c-aeb2-ef7a50277781" xmlns="http://www.w3.org/2000/svg" viewBox="0 0 96.06 117.06"><g id="uuid-cd9dcb2c-9db7-4403-8fbf-a2f2fbc60d54"><g><path d="M5.91,0H73.14l22.86,22.51V111.14c0,3.25-2.66,5.92-5.92,5.92H5.91c-3.25,0-5.91-2.66-5.91-5.92V5.92C0,2.66,2.66,0,5.91,0Z" style="fill:#71b677; fill-rule:evenodd;"/><path d="M96.06,22.55l-18.34,.02c-2.52,0-4.58-2.06-4.58-4.59V0l22.92,22.55Z" style="fill:white; fill-rule:evenodd;"/><path d="M70.41,94.41v-2.02c.37,0,.65-.13,.84-.38,.19-.26,.29-.6,.29-1.03,0-.96-.37-1.44-1.12-1.44h0v-1.62h.02c.97,0,1.72,.25,2.24,.75,.53,.5,.79,1.22,.79,2.14,0,1.28-.46,2.17-1.39,2.68l1.68,3.91v.09h-2.08l-1.27-3.08h0Zm6.96-2.19l1.44-4.3h2.1l-2.57,6.1v3.47h-1.96v-3.47l-2.57-6.1h2.1l1.45,4.3Zm-6.96-4.3v1.62h-1.13v2.86h1.13s0,2.02,0,2.02l-.17-.41h-.96v3.49h-1.93v-9.57h3.06Zm-22.16,9.71v-1.62h.02c.5,0,.88-.19,1.12-.58,.25-.39,.37-.99,.37-1.81v-1.67c0-.86-.12-1.51-.37-1.93-.24-.42-.63-.63-1.14-.63h0v-1.62h0c1.07,0,1.91,.36,2.52,1.09,.61,.73,.92,1.75,.93,3.06v1.64c0,1.29-.3,2.28-.91,2.99-.61,.71-1.45,1.07-2.53,1.07h-.02Zm7.81-2.77l1.61-6.94h2.16l-2.76,9.57h-2.01l-2.74-9.57h2.14l1.6,6.94h0Zm9.62-1.5h-3.01v2.53h3.56v1.6h-5.5v-9.57h5.48v1.62h-3.55v2.26h3.01v1.56Zm-43.81-5.41c.85,.1,1.55,.45,2.1,1.03,.66,.71,1,1.68,1.01,2.92v1.55c0,1.26-.33,2.25-.99,2.96-.54,.58-1.25,.93-2.12,1.04v-1.62c.34-.08,.59-.23,.76-.45,.26-.34,.4-.92,.41-1.76v-1.66c0-.9-.13-1.52-.37-1.87-.18-.25-.45-.42-.8-.5v-1.64h0Zm26.38-.17v1.62c-.51,0-.89,.2-1.13,.61-.25,.41-.37,1.02-.38,1.85v1.7c0,.84,.13,1.46,.37,1.85,.25,.39,.63,.59,1.14,.59v1.62c-1.07,0-1.9-.36-2.51-1.06-.61-.7-.93-1.69-.93-2.96v-1.64c0-1.32,.31-2.35,.91-3.08,.61-.74,1.45-1.11,2.53-1.11h0Zm-19.86,9.71h-1.93v-9.57h1.93v9.57h0Zm5.67-2.51c0-.39-.1-.69-.3-.88-.2-.2-.56-.41-1.09-.62-.96-.36-1.65-.79-2.07-1.28-.42-.49-.63-1.07-.63-1.74,0-.81,.29-1.45,.86-1.94,.57-.49,1.3-.73,2.18-.73,.59,0,1.11,.12,1.57,.37,.46,.25,.81,.6,1.06,1.05,.25,.45,.37,.97,.37,1.54h-1.93c0-.45-.09-.79-.29-1.02-.19-.24-.47-.35-.83-.35-.34,0-.6,.1-.79,.3-.19,.2-.28,.47-.28,.81,0,.26,.11,.5,.32,.71,.21,.21,.58,.43,1.12,.66,.93,.34,1.61,.75,2.04,1.24,.42,.49,.64,1.12,.64,1.88,0,.83-.27,1.48-.8,1.95-.53,.47-1.25,.71-2.16,.71-.62,0-1.18-.13-1.69-.38-.51-.26-.91-.62-1.19-1.09-.29-.47-.43-1.03-.43-1.68h1.94c0,.55,.11,.95,.32,1.2,.22,.25,.57,.38,1.05,.38,.68,0,1.01-.36,1.01-1.07h0Zm9.72-.67c-.05,1.09-.35,1.92-.92,2.48-.57,.56-1.36,.84-2.39,.84-1.08,0-1.91-.36-2.49-1.07-.58-.71-.86-1.73-.86-3.05v-1.61c0-1.32,.3-2.33,.89-3.04,.6-.71,1.42-1.07,2.49-1.07s1.84,.29,2.38,.87c.54,.58,.85,1.42,.92,2.51h-1.94c-.02-.68-.12-1.14-.31-1.4-.19-.26-.54-.38-1.05-.38s-.88,.18-1.1,.54c-.21,.36-.33,.96-.34,1.79v1.81c0,.95,.11,1.61,.32,1.96,.21,.36,.58,.53,1.1,.53s.86-.12,1.05-.37c.19-.25,.3-.7,.33-1.34h1.93Zm-25.01,3.18v-9.57h2.53c.2,0,.39,.01,.58,.03v1.64c-.14-.03-.3-.05-.47-.06h-.7v6.36h.58c.22,0,.42-.02,.6-.06v1.62c-.2,.03-.41,.04-.63,.04h-2.48Z" style="fill:#1a1a18; fill-rule:evenodd;"/><path d="M32.52,32.31c5.78-5.78,15.15-5.78,20.93,0,5.78,5.78,5.78,15.15,0,20.93-5.78,5.78-15.15,5.78-20.93,0-5.78-5.78-5.78-15.15,0-20.93Z" style="fill:none; fill-rule:evenodd; stroke:#fff; stroke-linecap:round; stroke-linejoin:round; stroke-width:2px;"/><path d="M29.2,28.99c7.61-7.61,19.96-7.61,27.57,0,7.61,7.61,7.61,19.96,0,27.57-7.61,7.61-19.96,7.61-27.57,0-7.61-7.61-7.61-19.95,0-27.57Z" style="fill:none; fill-rule:evenodd; stroke:#fff; stroke-linecap:round; stroke-linejoin:round; stroke-width:2px;"/><path d="M59.07,53.78l4.95,4.95-4.59,4.59-4.87-4.87c.77-.57,1.51-1.2,2.21-1.9,.87-.87,1.63-1.8,2.3-2.77Z" style="fill:none; fill-rule:evenodd; stroke:#fff; stroke-linecap:round; stroke-linejoin:round; stroke-width:2px;"/><path d="M71.76,74.45l3.39-3.38c.86-.87,.86-2.28,0-3.14l-9.55-9.55c-.33-.33-.88-.33-1.21,0l-5.32,5.32c-.33,.33-.33,.88,0,1.21l9.55,9.55c.86,.86,2.28,.86,3.14,0Z" style="fill:none; fill-rule:evenodd; stroke:#fff; stroke-linecap:round; stroke-linejoin:round; stroke-width:2px;"/><polygon points="40.75 40.54 51.02 34.73 45.22 45.01 34.94 50.81 40.75 40.54" style="fill:none; fill-rule:evenodd; stroke:#fff; stroke-linecap:round; stroke-linejoin:round; stroke-width:2px;"/><line x1="40.75" y1="40.54" x2="45.22" y2="45.01" style="fill:none; stroke:#fff; stroke-linecap:round; stroke-linejoin:round; stroke-width:2px;"/><line x1="22.13" y1="21.91" x2="25.03" y2="24.82" style="fill:none; stroke:#fff; stroke-linecap:round; stroke-linejoin:round; stroke-width:2px;"/><line x1="43.01" y1="13.33" x2="43.01" y2="17.44" style="fill:none; stroke:#fff; stroke-linecap:round; stroke-linejoin:round; stroke-width:2px;"/><line x1="63.84" y1="22.04" x2="60.94" y2="24.94" style="fill:none; stroke:#fff; stroke-linecap:round; stroke-linejoin:round; stroke-width:2px;"/><line x1="72.42" y1="42.92" x2="68.32" y2="42.92" style="fill:none; stroke:#fff; stroke-linecap:round; stroke-linejoin:round; stroke-width:2px;"/><line x1="42.84" y1="72.33" x2="42.84" y2="68.23" style="fill:none; stroke:#fff; stroke-linecap:round; stroke-linejoin:round; stroke-width:2px;"/><line x1="22" y1="63.63" x2="24.91" y2="60.73" style="fill:none; stroke:#fff; stroke-linecap:round; stroke-linejoin:round; stroke-width:2px;"/><line x1="13.43" y1="42.75" x2="17.53" y2="42.75" style="fill:none; stroke:#fff; stroke-linecap:round; stroke-linejoin:round; stroke-width:2px;"/></g></g></svg>