<?xml version="1.0" encoding="UTF-8"?><svg id="uuid-12a14ca3-49ee-4e6b-930f-41e8dc5dc660" xmlns="http://www.w3.org/2000/svg" viewBox="0 0 96.06 116.76"><g id="uuid-8e1eebeb-b935-4051-9df7-e14abc6a2fae"><g><path d="M5.92,0H73.14l22.86,22.51V110.84c0,3.25-2.66,5.91-5.92,5.91H5.92c-3.25,0-5.92-2.66-5.92-5.91V5.92C0,2.66,2.66,0,5.92,0Z" style="fill:#71b677; fill-rule:evenodd;"/><path d="M96.06,22.55l-18.33,.02c-2.52,0-4.58-2.06-4.58-4.59V0l22.92,22.55Z" style="fill:#fff; fill-rule:evenodd;"/><path d="M60.06,105.36v-6.06c.13-.32,.3-.6,.51-.84,.6-.71,1.42-1.07,2.49-1.07s1.84,.29,2.38,.87c.54,.58,.85,1.42,.92,2.51h-1.94c-.02-.68-.12-1.14-.31-1.4-.19-.26-.54-.38-1.05-.38s-.88,.18-1.1,.54c-.21,.36-.33,.96-.34,1.79v1.81c0,.95,.11,1.61,.32,1.96,.21,.36,.58,.53,1.1,.53s.86-.12,1.05-.37c.19-.25,.3-.7,.33-1.34h1.93c-.05,1.09-.35,1.92-.92,2.48-.57,.56-1.36,.84-2.39,.84-1.08,0-1.91-.36-2.49-1.07-.19-.24-.35-.51-.48-.81h0Zm0-14.29v-1.53c.33,0,.65-.12,.94-.34l-.94-1.33v-3.02l.28-.21c.18-.14,.31-.29,.39-.44,.08-.15,.12-.35,.12-.61,0-.23-.06-.42-.19-.58-.12-.16-.28-.24-.45-.24-.05,0-.1,0-.15,.02v-1.55c.05,0,.1,0,.16,0,.63,0,1.14,.22,1.55,.65,.41,.43,.61,.96,.61,1.59,0,.83-.35,1.53-1.05,2.08l-.53,.43,1.23,1.72c.15-.45,.23-.94,.23-1.46h1.57c0,1.23-.24,2.22-.72,2.97l1.24,1.73h-2.11l-.35-.5c-.53,.39-1.14,.6-1.82,.63h0Zm12.42,11.9h-3.01v2.53h3.56v1.6h-5.5v-9.57h5.48v1.62h-3.55v2.26h3.01v1.56Zm-30.77-13.11c-.37,.4-.83,.71-1.37,.91-.54,.2-1.13,.3-1.78,.3-1.1,0-1.96-.34-2.57-1.02-.61-.68-.92-1.67-.94-2.98v-1.72c0-1.32,.29-2.34,.87-3.05,.58-.71,1.42-1.07,2.52-1.07,1.04,0,1.82,.26,2.35,.77,.53,.51,.83,1.32,.92,2.42h-1.88c-.05-.61-.18-1.03-.38-1.25-.2-.22-.52-.33-.94-.33-.52,0-.9,.19-1.14,.57-.24,.38-.36,.99-.37,1.82v1.74c0,.87,.13,1.51,.39,1.91,.26,.4,.69,.6,1.29,.6,.38,0,.69-.08,.93-.23l.17-.12v-1.76h-1.35v-1.45h3.29v3.95h0Zm18.35-8.62v1.55c-.12,.04-.23,.12-.31,.24-.11,.17-.17,.41-.17,.69,0,.31,.15,.7,.45,1.15l.03-.03v3.02l-.57-.81-.04,.03c-.22,.34-.33,.73-.33,1.17,0,.37,.09,.68,.26,.92,.17,.24,.39,.37,.64,.37h.04v1.53s-.09,0-.14,0c-.81,0-1.45-.25-1.94-.74-.49-.5-.73-1.15-.73-1.97,0-.45,.1-.86,.31-1.23,.2-.37,.59-.78,1.15-1.24-.24-.38-.43-.74-.57-1.08-.14-.34-.21-.69-.21-1.05,0-.75,.21-1.36,.62-1.83,.38-.43,.89-.66,1.51-.7h0Zm0,18.07v6.06c-.26-.61-.39-1.36-.39-2.24v-1.61c0-.86,.13-1.6,.39-2.2h0Zm-16.92-9.31c0-.3,.1-.54,.3-.74,.2-.19,.46-.29,.78-.29s.57,.1,.77,.29c.21,.19,.31,.44,.31,.74s-.1,.55-.31,.74c-.21,.19-.47,.28-.77,.28s-.57-.09-.77-.28c-.2-.19-.31-.44-.31-.74h0Zm6.55-2.74l-.76,.96v2.74h-1.93v-9.57h1.93v4.17l.61-1.03,1.78-3.14h2.37l-2.74,4.21,2.79,5.37h-2.29l-1.75-3.7h0Zm-19.24,17.35c0-.39-.1-.69-.3-.88-.2-.2-.56-.41-1.09-.62-.96-.36-1.65-.79-2.07-1.28-.42-.49-.63-1.07-.63-1.73,0-.81,.29-1.45,.86-1.94,.57-.49,1.3-.73,2.18-.73,.59,0,1.11,.12,1.57,.37,.46,.25,.81,.6,1.06,1.05,.25,.45,.37,.96,.37,1.54h-1.93c0-.45-.09-.79-.29-1.02-.19-.24-.47-.35-.83-.35-.34,0-.6,.1-.79,.3-.19,.2-.28,.47-.28,.81,0,.26,.11,.5,.32,.71,.21,.21,.58,.43,1.12,.66,.93,.34,1.61,.75,2.04,1.24,.42,.49,.64,1.12,.64,1.88,0,.83-.27,1.48-.8,1.95-.53,.47-1.25,.7-2.16,.7-.62,0-1.18-.13-1.69-.38-.51-.26-.91-.62-1.19-1.1-.29-.47-.43-1.03-.43-1.68h1.94c0,.55,.11,.95,.32,1.2,.22,.25,.57,.38,1.05,.38,.68,0,1.01-.36,1.01-1.07h0Zm9.72-.67c-.05,1.09-.35,1.92-.92,2.48-.57,.56-1.36,.84-2.39,.84-1.08,0-1.91-.36-2.49-1.07-.58-.71-.86-1.73-.86-3.05v-1.61c0-1.32,.3-2.33,.89-3.04,.6-.71,1.42-1.07,2.49-1.07s1.84,.29,2.38,.87c.54,.58,.85,1.42,.92,2.51h-1.94c-.02-.68-.12-1.14-.31-1.4-.19-.26-.54-.38-1.05-.38s-.88,.18-1.1,.54c-.21,.36-.33,.96-.34,1.79v1.81c0,.95,.11,1.61,.32,1.96,.21,.36,.58,.53,1.1,.53s.86-.12,1.05-.37c.19-.25,.3-.7,.33-1.34h1.93Zm3.21,3.18h-1.93v-9.57h1.93v9.57h0Zm6.57-4.13h-3.01v2.53h3.56v1.6h-5.5v-9.57h5.48v1.62h-3.55v2.26h3.01v1.56h0Zm8.35,4.13h-1.93l-2.83-6.28v6.28h-1.93v-9.57h1.93l2.83,6.29v-6.29h1.93v9.57Z" style="fill:#1a1a18; fill-rule:evenodd;"/><path d="M69.75,37.44c.01,.45,0,.89-.04,1.32-.05,.52-.14,1.04-.26,1.53-.56,2.24-1.83,4.23-3.53,6.02-1.16,1.22-2.35,2.42-3.55,3.61v2.97l1.14-1.15c.39,.52,.59,1.1,.28,1.88-.25,.64-.81,1.07-1.42,1.21v7.72c.13-.12,.27-.25,.41-.39,1.38-1.44,1.91-3.04,.36-5.01-.01-.01-.41-.53-.39-.53,1.1,.03,1.97-.67,2.45-1.29,1.28-1.65,1.2-3.39-.17-5.1,.6-.61,1.21-1.2,1.81-1.81,.9-.91,1.73-1.89,2.44-2.96,1.73-2.59,2.61-5.15,2.66-7.64l5.57-5.57-14.69-14.7-.44,.44v2.55l.89-.89,12.15,12.15-5.65,5.65Zm-7.39,12.48c-1.08,1.07-2.17,2.14-3.25,3.22v2.98l.15-.15c.53,.53,1.07,1.07,1.6,1.6,1.03,1.03,1.2,2,.57,2.86-.61,.84-1.46,1.08-2.32,.71v2.25c1.26,.23,2.24,.03,3.25-.85v-7.72c-.42,.09-.88,.04-1.29-.18-.1-.06-.19-.12-.29-.18,.53-.52,1.05-1.05,1.58-1.57v-2.97h0Zm-3.25-26.13l.25-.25,3-3v-2.55l-3.25,3.25v2.55Zm0,29.35l-.29,.29c-1.58,1.58-3.16,3.16-4.74,4.74v2.86c.27-.26,.54-.53,.81-.79,.07,.07,.15,.15,.22,.22,1.15,1.15,1.3,2.08,.51,3.01-.47,.55-.97,.82-1.54,.75v2.05c1.45,.05,2.76-.9,4.2-3.05,.01-.01,.03-.02,.04-.02,.27,.08,.54,.14,.79,.19v-2.25c-.32-.14-.65-.37-.97-.68-.58-.57-1.15-1.15-1.72-1.72,.9-.88,1.79-1.74,2.69-2.62v-2.98h0Zm-5.03-.62c.7-.66,1.93-1.74,1.08-2.53-.33-.31-.71-.28-1.08-.1v2.63h0Zm0-28.76c2.18-.09,4.05,1.02,4.05,1.02l.98-.98v-2.55l-1.38,1.38c-.26-.04-.51-.06-.76-.08-.74-.3-1.73-.57-2.89-.57v1.78Zm0,34.42c-.91,.9-1.82,1.81-2.73,2.71-.43,.42-1.05,1.1-1.93,1.17-.64,.05-1.08-.2-1.52-.61-.39-.37-.51-1.29-.36-1.86,.16-.62,.71-1.19,1.2-1.68,1.13-1.16,2.29-2.3,3.43-3.45,.56-.56,1.11-1.12,1.66-1.69,.07-.07,.16-.15,.25-.24v-2.63c-.63,.31-1.25,1.06-1.58,1.39-.56,.56-1.12,1.12-1.68,1.67-1.72,1.68-3.43,3.38-5.16,5.05v4.02c.25,.4,.5,.7,1.1,1.05,.38,.22,.78,.38,1.19,.49-.07,.27-.18,.52-.34,.67-.43,.41-.87,.66-1.52,.61-.15-.01-.3-.04-.43-.08v1.73c1.05,.13,2.13-.07,3.09-.62,.85-.48,.99-.88,1.42-1.57,1.48,1.24,2.74,1.94,3.91,1.98v-2.05c-.45-.05-.93-.32-1.47-.81-.19-.18-.37-.35-.56-.53,.27-.18,.52-.38,.76-.6,.43-.41,.85-.83,1.28-1.24v-2.86h0Zm-8.43-5.76v-3.03l2.24-2.24c.52-.53,.88-.84,1.7-.72,.49,.07,.66,.49,.6,.96-.08,.64-.44,.91-.86,1.33l-3.69,3.69h0Zm0-8.67c.41-.49,.6-1.02,.02-1.57l-.02-.02v1.59h0Zm0-8.54l.53-.54,1.87,1.88c.64,.64,1.47,.96,2.31,.96,.83,0,1.66-.32,2.3-.95l.36-.36c.62-.61,.96-1.43,.96-2.3,0-.82-.31-1.59-.85-2.19l-4.14-4.19-.81-.82,1.11-1.11c1.71-1.3,3.24-1.76,4.5-1.83,.1,0,.2-.02,.29-.02v-1.78c-1.67,0-3.71,.52-5.94,2.23l-.09,.08-1.24,1.25c-.39-.27-.78-.5-1.16-.69v2.09c.22,.14,.44,.3,.67,.47l5.44,5.46c.27,.27,.42,.64,.42,1.03,0,.39-.15,.76-.43,1.03l-.36,.36c-.57,.57-1.5,.56-2.06,0l-3.68-3.7v3.63Zm0,22.79c-.91,.88-1.83,1.76-2.76,2.62-1.22,1.13-2.18,1.05-3.01,.06-.79-.93-.64-1.86,.51-3.01,1.75-1.76,3.51-3.51,5.26-5.26v-3.03c-2.76,2.77-5.53,5.53-8.29,8.29-1.15,1.15-2.44,1.12-3.29-.03-.63-.86-.46-1.83,.57-2.86,3.56-3.58,7.13-7.14,10.71-10.7,.11-.11,.21-.22,.3-.33v-1.59c-.67-.61-1.26-.05-1.77,.47-2.74,2.75-5.49,5.5-8.25,8.25-.37,.36-.75,.74-1.2,.98-1.01,.56-2.29,.05-2.71-1.02-.44-1.1,.13-1.79,.82-2.49,4.38-4.37,8.76-8.74,13.11-13.14v-3.63l-1.88-1.89-1.35,.95,1.5,1.76,.65,.66c-.64,.64-1.28,1.28-1.92,1.92-.16,.16-.25,.33-.3,.51-.03,.03-.06,.07-.09,.1-3.74,3.75-7.49,7.48-11.22,11.23-.74,.75-1.24,1.51-1.48,2.27-1.69-1.79-2.96-3.76-3.51-5.99-.12-.5-.21-1.01-.26-1.54-.04-.43-.05-.87-.04-1.31l-5.65-5.65,12.15-12.15,3.89,3.89,.26,.26-.02,.04,1.88,.16,.12-.31c.7-.48,3.49-2.03,7.26,.45v-2.09c-4.13-2.16-7.33-.47-8.29,.17l-4.66-4.66-14.7,14.7,5.57,5.57c.04,2.5,.93,5.06,2.66,7.64,.71,1.07,1.54,2.05,2.44,2.96,1.15,1.16,2.31,2.31,3.47,3.47-1.25,1.83-.72,3.34,.59,4.7,1.36,1.41,2.6,1.58,4.44,1.04,.01,0,.03,0,.04,.02,1.32,1.97,2.54,2.93,3.85,3.04,.54,.53,1.08,1.07,1.63,1.59,.83,.8,1.87,1.28,2.96,1.41v-1.73c-.66-.21-1.14-.73-1.5-1.09-.26-.26-.52-.52-.79-.78,.62-.33,1.27-.79,1.97-1.38,.12,.19,.22,.36,.32,.52v-4.02Z" style="fill:#fff; fill-rule:evenodd;"/></g></g></svg>