<?xml version="1.0" encoding="UTF-8"?><svg id="uuid-aed2bf12-04e7-4f59-9fd0-bbaf499c079b" xmlns="http://www.w3.org/2000/svg" viewBox="0 0 96.06 117.06"><g id="uuid-283c1e34-326f-4c62-bfee-7e60765b36bb"><g><path d="M5.92,0H73.14l22.86,22.51V111.14c0,3.25-2.66,5.92-5.91,5.92H5.92c-3.25,0-5.92-2.66-5.92-5.92V5.92C0,2.66,2.66,0,5.92,0Z" style="fill:#d4bb46; fill-rule:evenodd;"/><path d="M96.06,22.55l-18.34,.02c-2.52,0-4.59-2.06-4.59-4.59V0l22.92,22.55Z" style="fill:white; fill-rule:evenodd;"/><path d="M68.96,94.12v-1.62h.08c.37,0,.65-.12,.85-.36,.2-.24,.3-.59,.3-1.05s-.1-.85-.31-1.14c-.21-.28-.48-.42-.83-.43h-.11v-1.62h.08c.95,0,1.7,.29,2.27,.88,.56,.59,.84,1.35,.84,2.29s-.28,1.68-.83,2.22c-.56,.54-1.33,.81-2.31,.81h-.05Zm8.53,.86c0-.39-.1-.69-.3-.88-.2-.2-.56-.41-1.09-.62-.96-.36-1.65-.79-2.07-1.28-.42-.49-.63-1.07-.63-1.74,0-.81,.29-1.45,.86-1.94,.57-.49,1.3-.73,2.18-.73,.59,0,1.11,.12,1.57,.37,.46,.25,.81,.6,1.06,1.05,.25,.45,.37,.97,.37,1.54h-1.93c0-.45-.09-.79-.29-1.02-.19-.24-.47-.35-.83-.35-.34,0-.6,.1-.79,.3-.19,.2-.28,.47-.28,.81,0,.26,.11,.5,.32,.71,.21,.21,.58,.43,1.12,.66,.93,.34,1.61,.75,2.04,1.24,.42,.49,.64,1.12,.64,1.88,0,.83-.27,1.48-.8,1.95-.53,.47-1.25,.71-2.16,.71-.62,0-1.18-.13-1.69-.38-.51-.26-.91-.62-1.19-1.09-.29-.47-.43-1.03-.43-1.68h1.94c0,.55,.11,.95,.32,1.2,.22,.25,.57,.38,1.05,.38,.68,0,1.01-.36,1.01-1.07Zm-8.53-7.06v1.62h-1.24v2.98h1.24v1.62h-1.24v3.37h-1.93v-9.57h3.18Zm-31.85,7.62v-1.62h.89l-.89-3.42h0s0-2.59,0-2.59h.89l3.01,9.57h-2.06l-.51-1.95h-1.32Zm7.32-7.62l1.81,6.92,1.8-6.92h2.53v9.57h-1.94v-2.59l.18-3.99-1.91,6.58h-1.32l-1.91-6.58,.18,3.99v2.59h-1.93v-9.57h2.53Zm16.59,1.62h-2.37v7.96h-1.94v-7.96h-2.33v-1.62h6.63v1.62h0Zm3.13,7.96h-1.93v-9.57h1.93v9.57Zm-39.49-4.13h-3.01v2.53h3.56v1.6h-5.5v-9.57h5.48v1.62h-3.55v2.26h3.01v1.56h0Zm12.44-5.44v2.59l-.89,3.41h.89v1.62h-1.31l-.51,1.95h-2.04l2.99-9.57h.88Zm-7.78,3.29l1.29-3.29h2.21l-2.25,4.75,2.3,4.83h-2.24l-1.32-3.35-1.31,3.35h-2.24l2.3-4.83-2.26-4.75h2.22l1.29,3.29Z" style="fill:#1a1a18; fill-rule:evenodd;"/><path d="M51.23,74.44h10.32c.61-.36,.83-.27,1.25-.85,.72-1,.45-4.41,.45-6.06,0-5.92,.11-47.02-.03-48.01-.19-1.33-1.2-1.85-2.49-1.86-2.91-.02-5.84,0-8.75,0-.19-1.06-.11-1.43-.74-1.55v8.59c.38-.51,.61-1.19,.71-2.05h6.29c.21,2.88,.02,6.52,.02,9.47v9.61c0,7.06,.85,11.74-4.1,15-1.04,.69-2.03,1.03-2.92,1.2v1.77c.11-.02,.22-.04,.33-.06,3.68-.76,4.5-2.43,5.9-3.39-.28,1.83-2.05,4.74-3.2,6.21l-2.29,2.4c-.27,.21-.47,.39-.74,.61v2.18c5.2-3.57,8.67-9.55,8.77-16.55,.14-9.45-.04-19.2,0-28.73,0-2.06-1.39-1.5-3.28-1.5h-4.82v-1.48c1.43,0,8.74-.22,9.43,.12,.34,.31,.12,43.11,.14,51.51,0,.27,.01,.57,0,.83,0,.14,0,.28-.04,.41-.08,.26-.05,.15-.18,.28-.14,.11-4.59,.16-10.05,.17v1.72Zm-9.9,0h9.9v-1.72c-3.18,0-6.69,0-9.9,0v1.73h0Zm9.9-58.34c-.4-.08-1.1-.06-2.35-.06h-4.71c-1.01-1.42-1.48-1.19-2.3-1.62h-.55v1.77h.04c1,.04,1.1,.58,1.52,1.17,.44,.61,1.21,.44,2.12,.44,1.69,0,3.46-.05,5.15,.01,0,1.29,0,2.59,0,3.88,0,1.32,0,2.3-1.29,2.43-2.08,.2-5.31,.01-7.54,0v1.76h6.85c1.46,0,2.45-.38,3.05-1.19v-8.59h0Zm0,41.84c-2.43,.46-4.14-.37-4.3,1.04-.2,1.73,.14,2.56-.45,4.38-.41,1.28-1.01,2.22-1.76,3.05-1.17,1.3-2.33,2.03-3.4,2.44v2.29l.48-.05c3.46-.34,6.68-1.56,9.42-3.44v-2.18l-.1,.08c-.54,.43-1.16,.87-1.81,1.24-1.09,.63-2.92,1.61-4.32,1.87,.4-.52,.98-.97,1.5-1.64,1.58-2.02,2.17-4.4,2.17-7.12,.86-.13,1.65-.07,2.55-.21v-1.77Zm-30.14,16.5h20.24v-1.73c-4.65-.01-8.65-.03-10.03-.03-1.3,0-9.47,.23-9.92-.14-.35-.31-.21-.6-.21-1.5V32.82c0-1.67-.19-12.71,.14-13.27,.35-.35,3.36,.35,2.54-1.43-.39-.84-2.75-.56-3.5-.11-1.02,.61-.95,1.81-.95,3.32v50.53c0,1.95,.73,1.99,1.68,2.58h0ZM41.32,14.41v1.77c-.89-.02-1.15,.49-1.48,1.04-.44,.73-1.07,.57-2.11,.57-1.52,0-3.82-.13-5.25,.04,0,1.25,0,2.49,0,3.74,0,1.24-.08,2.37,1.17,2.54l7.59,.02h.07v1.76h-6.99c-2.36,0-3.35-1.03-3.63-3.24l-6.3,.02v46.74c1.07,.13,5.92,.04,7.6,.04,.78,0,1.62-.08,1.76,.67,.28,1.47-2.14,1.08-3.99,1.08-8.24,0-7.12,.52-7.12-2.98V22.85c0-.76-.18-1.7,.62-1.92l7.47-.05v-1.48c-.91,0-1.82,0-2.73,0-.85,0-1.69,.04-1.67-.89,.02-.96,.94-.88,1.79-.87,.85,0,1.7,0,2.55,0,.37-1.75-.12-1.62,3.08-1.62h4.72c1.48-1.71,.68-.76,2.22-1.62h.63Zm0,54.44v2.29c-1.69,.17-6.23,.56-5.04-1.32,.49-.78,2.51,.01,5.04-.97Z" style="fill:#fff; fill-rule:evenodd;"/><path d="M68.81,74.44h.36c1.49-1.04,2.72-4.15,2.92-6.56,.24-2.93,.05-6.61,.05-9.62v-9.61c0-.83-.19-1.51,.3-1.98,.81-.78,.89-3.65-.68-3.18-.73,.22-.51,1.04-.6,1.86h-2.36s0,1.76,0,1.76h1.58s0,1.48,0,1.48h-1.58v1.82h1.52s0,15.98,0,15.98h-1.52s0,1.77,0,1.77h1.46c-.04,1.29-.8,3.13-1.42,4l-.04-.06v2.34h0Zm0-45.14c.17,0,.35,.01,.54,.05,1.51,.31,1.86,1.56,1.86,2.88v7.15c0,.82-.04,1.58,.79,1.66,1.34,.13,.97-2.09,.97-3.89,0-1.56,0-3.13,0-4.69,0-3.66-2.09-4.98-4.15-4.89v1.72Zm-.32,45.14h.32v-2.34c-.58-.78-1.4-2.78-1.38-3.96h1.38s0-1.76,0-1.76h-1.52s0-15.96,0-15.96h1.52v-1.83h-1.06s-.46-.01-.46-.01v-1.47h1.52v-1.76h-2.31c-.06-.84-.13-13.22,.02-14.11,.18-1.06,1.1-1.92,2.28-1.93v-1.72c-1.41,.06-2.8,.8-3.46,1.89-1.04,1.72-.62,6.47-.62,8.86,0,.99-.23,7.32,.24,8.07,.31,.51,.41,.23,.57,.72v15.12c0,2.21-.17,5.15,.29,7.19,.24,1.03,.59,1.92,1,2.75,.54,1.1,.83,1.56,1.66,2.24Z" style="fill:#fff; fill-rule:evenodd;"/><path d="M36.58,29.2c-.93-.23-2.89-.26-4.78-.25v1.87l3.03,.03-2.6,2.57c-.13-.09-.27-.24-.43-.4v2.43c.33,.16,.7,.18,1.08-.09,.72-.53,1.29-1.46,2.09-2.01v3.74h-3.17s0,1.79,0,1.79c1.44,.04,3.1,.08,4.07-.04,1-.13,.86-1.09,.86-2.01,0-.98,0-1.95,0-2.93,0-2.86-.43-1.96,1.67-4.03,.23-.22,.51-.46,.54-.9,.07-.94-1.1-1.59-2.36,.26Zm-4.78-.25c-1.35,0-2.66,.04-3.56,.03-1.29,0-1.47,.18-1.46,1.49,0,1.92,0,3.83,0,5.75,0,2.97-.28,2.61,3.34,2.61,.47,0,1.05,.02,1.68,.03v-1.8h-3.17v-6.28l3.17,.03v-1.87h0Zm0,4.06v2.43c-.54-.26-1-.9-1.32-1.22-.27-.27-.8-.73-.99-1.01-.38-.54-.24-1.24,.33-1.41,.73-.22,1.43,.62,1.98,1.2Z" style="fill:#fff; fill-rule:evenodd;"/><path d="M36.54,40.53c-.43-.14-.43-.22-1.03-.22h-3.77v1.78l3.17,.02-2.69,2.64c-.12-.12-.29-.31-.48-.52v2.52c1.14,.78,1.87-1.3,3.21-2.09l-.03,3.75h-3.18v1.76h3.77c1.57,0,1.21-.94,1.21-3.16,0-.83-.18-3.82,.12-4.3,.34-.57,2.01-1.69,2.1-2.39,.13-1-1.13-1.65-2.39,.22Zm-4.79-.22h-3.74c-.86,0-1.23,.31-1.23,1.19v7.5c0,.97,.29,1.16,1.23,1.16h3.74v-1.76h-3.2v-.46s-.01-5.88-.01-5.88l3.21,.02v-1.78h0Zm0,3.91v2.52c-.08-.05-.15-.12-.23-.19l-2.05-2.06c-.38-.53-.11-1.17,.35-1.33,.66-.24,1.4,.49,1.93,1.06Z" style="fill:#fff; fill-rule:evenodd;"/><path d="M36.61,51.86c-.5-.14-.5-.22-1.1-.22h-3.73v1.76h3.08c-.25,.58-2.25,2.49-2.63,2.67-.14-.08-.29-.22-.45-.38v2.42c.34,.17,.69,.2,1.03-.08,.66-.55,1.27-1.46,1.99-1.96,.31,.54,.09,2.8,.13,3.62h-3.14v1.84c5.79,.08,4.94,.08,4.94-3.26,0-.74-.14-3.84,.13-4.29,.36-.58,2.04-1.68,2.09-2.4,.06-.95-1.03-1.62-2.33,.28Zm-4.83-.22h-3.77c-.94,0-1.23,.29-1.23,1.23v7.39c0,.97,.3,1.23,1.23,1.23,1.5,0,2.74,.02,3.77,.03v-1.84h-3.18v-6.28h3.18v-1.76h0Zm0,4.05v2.42c-.58-.29-1.11-1-1.39-1.28-.23-.23-.84-.78-.97-1.03-.3-.56-.08-1.17,.42-1.33,.68-.22,1.37,.65,1.94,1.23Z" style="fill:#fff; fill-rule:evenodd;"/><path d="M39.52,53.3c-.58,.16-.94,.75-.52,1.34,.35,.5,1.17,.37,1.91,.37,2.33,0,12.81,.15,13.59-.04,.59-.15,.89-.95,.41-1.46-.37-.39-1.29-.26-1.93-.26-2.22,0-12.79-.13-13.46,.05Z" style="fill:#fff; fill-rule:evenodd;"/><path d="M39.41,30.69c-.53,.26-.82,.84-.34,1.37,.39,.43,1.3,.3,1.95,.29,2.08,0,13.04,.1,13.54-.07,.55-.19,.83-.99,.3-1.47-.48-.44-5.75-.22-6.57-.22-1.14,0-8.45-.12-8.88,.09Z" style="fill:#fff; fill-rule:evenodd;"/><path d="M39.96,43.68h14.07c1.5,0,1.57-1.76-.12-1.76h-13.83c-.72,0-1.23,.17-1.24,.87-.01,.7,.42,.89,1.13,.89Z" style="fill:#fff; fill-rule:evenodd;"/><path d="M34.61,20.96c-.52,.2-.86,.67-.5,1.3,.28,.49,1.07,.39,1.75,.38,1.88,0,11.81,.09,12.25-.08,.5-.19,.71-.85,.38-1.32-.32-.47-1.06-.36-1.73-.36-1.86,0-11.74-.09-12.16,.07Z" style="fill:#fff; fill-rule:evenodd;"/><path d="M39.51,45.21c-1.01,.26-1.02,1.69,.56,1.72,1.66,.03,10.77,.07,11.23-.07,.77-.22,1.08-1.69-.67-1.7-1.79-.01-10.59-.09-11.13,.05Z" style="fill:#fff; fill-rule:evenodd;"/><path d="M68.63,32.46c-.99,.37-.67,1.52-.67,2.7,0,1-.08,7.69,.07,8.16,.13,.41,.63,.68,1.18,.46,.77-.31,.51-1.87,.51-2.75v-6.57c0-.9,.1-2.44-1.08-2Z" style="fill:#fff; fill-rule:evenodd;"/><path d="M40.08,35.59h5.71c1.72,0,1.69-1.76,.03-1.76h-5.74c-1.69,0-1.75,1.76,0,1.76Z" style="fill:#fff; fill-rule:evenodd;"/><path d="M39.38,56.58c-.47,.22-.78,.76-.35,1.31,.35,.45,1.09,.36,1.75,.35,.72,0,3.67,.1,4.12-.09,.47-.2,.7-.81,.33-1.3-.34-.46-1.09-.37-1.76-.36-.75,0-3.64-.12-4.1,.09Z" style="fill:#fff; fill-rule:evenodd;"/><path d="M70.33,66.39s.04-.1,.05-.08l.07-1.83c0-1.97,.1-13.38-.05-14.13-.39-.09-2.76-.24-3.11,.08l3.04-.03v16Z" style="fill:#fff; fill-rule:evenodd;"/><path d="M28.63,37.05v-6.27l6.2,.06s.03-.06,.03-.04l-.16-.11c-1.16,0-5.36-.14-6.16,.07-.04,.4-.19,5.84,.1,6.3Z" style="fill:#fff; fill-rule:evenodd;"/><path d="M34.8,56.06c.31,.54,.09,2.8,.13,3.62h-6.33v-6.28c-.26,.52-.15,5.89-.06,6.33,.62,.15,5.91,.16,6.44-.02l-.17-3.65Z" style="fill:#fff; fill-rule:evenodd;"/></g></g></svg>