<?xml version="1.0" encoding="UTF-8"?>
<svg id="uuid-b10d73f9-09be-4253-b3f6-6dd11b6b7169"
    xmlns="http://www.w3.org/2000/svg" viewBox="0 0 96.06 117.06">
    <g id="uuid-3acb4d41-b49b-4633-abf1-2e680225e701">
        <g>
            <path d="M5.91,0H73.14l22.86,22.51V111.14c0,3.25-2.66,5.92-5.91,5.92H5.91c-3.25,0-5.91-2.66-5.91-5.92V5.92C0,2.66,2.66,0,5.91,0Z" style="fill:#d98446; fill-rule:evenodd;"/>
            <path d="M96.06,22.55l-18.34,.02c-2.52,0-4.59-2.06-4.59-4.59V0l22.92,22.55Z" style="fill:white; fill-rule:evenodd;"/>
            <path d="M43.54,97.49v-.52l.16,.52h-.16Zm0-7.96h2.16v7.96h1.94v-7.96h2.37v-1.62h-6.47v1.62h0Zm12.22,6.36h3.39v1.6h-5.33v-9.57h1.93v7.97h0Zm6.53,1.6h-1.93v-9.57h1.93v9.57h0Zm4.74-2.63l1.61-6.94h2.16l-2.76,9.57h-2.01l-2.74-9.57h2.14l1.6,6.94h0Zm9.62-1.5h-3.01v2.53h3.56v1.6h-5.5v-9.57h5.48v1.62h-3.55v2.26h3.01v1.56h0Zm5.71,1.62c0-.39-.1-.69-.3-.88-.2-.2-.56-.41-1.09-.62-.96-.36-1.65-.79-2.07-1.28-.42-.49-.63-1.07-.63-1.74,0-.81,.29-1.45,.86-1.94,.57-.49,1.3-.73,2.18-.73,.59,0,1.11,.12,1.57,.37,.46,.25,.81,.6,1.06,1.05,.25,.45,.37,.97,.37,1.54h-1.93c0-.45-.09-.79-.29-1.02-.19-.24-.47-.35-.83-.35-.34,0-.6,.1-.79,.3-.19,.2-.28,.47-.28,.81,0,.26,.11,.5,.32,.71,.21,.21,.58,.43,1.12,.66,.93,.34,1.61,.75,2.04,1.24,.42,.49,.64,1.12,.64,1.88,0,.83-.27,1.48-.8,1.95-.53,.47-1.25,.71-2.16,.71-.62,0-1.18-.13-1.69-.38-.51-.26-.91-.62-1.19-1.09-.29-.47-.43-1.03-.43-1.68h1.94c0,.55,.11,.95,.32,1.2,.22,.25,.57,.38,1.05,.38,.68,0,1.01-.36,1.01-1.07Zm-38.81-7.06v1.62h-.17v-1.62h.17Zm0,9.05l-2.85-9.05h-.89v2.59h0s.89,3.41,.89,3.41h-.89v1.62h1.32l.51,1.95h1.9v-.52Zm-3.73-9.05v2.59l-.89,3.41h.89v1.62h-1.31l-.51,1.95h-2.04l2.99-9.57h.88Zm-14.24,6.49v-2.02c.37,0,.65-.13,.84-.38,.19-.26,.29-.6,.29-1.03,0-.96-.37-1.44-1.12-1.44h0v-1.62h.02c.97,0,1.72,.25,2.24,.75,.53,.5,.79,1.22,.79,2.14,0,1.28-.46,2.17-1.39,2.68l1.68,3.91v.09h-2.08l-1.27-3.08h0Zm9.33-1.05h-3.01v2.53h3.56v1.6h-5.5v-9.57h5.48v1.62h-3.55v2.26h3.01v1.56Zm-13.77,3.05c-.37,.4-.83,.71-1.37,.91-.54,.2-1.13,.31-1.78,.31-1.1,0-1.96-.34-2.57-1.02-.61-.68-.92-1.67-.94-2.98v-1.72c0-1.32,.29-2.34,.87-3.05,.58-.71,1.42-1.07,2.52-1.07,1.04,0,1.82,.26,2.35,.77,.53,.51,.83,1.32,.92,2.41h-1.88c-.05-.61-.18-1.03-.38-1.25-.2-.22-.52-.33-.94-.33-.52,0-.9,.19-1.14,.57-.24,.38-.36,.99-.37,1.82v1.74c0,.87,.13,1.51,.39,1.91,.26,.4,.69,.6,1.29,.6,.38,0,.69-.08,.93-.23l.17-.12v-1.76h-1.35v-1.46h3.29v3.96h0Zm4.44-8.49v1.62h-1.13v2.86h1.13s0,2.02,0,2.02l-.17-.41h-.96v3.49h-1.93v-9.57h3.06Z" style="fill:#1a1a18; fill-rule:evenodd;"/>
            <path d="M24.17,34.5s12.86-1.18,23.86-13.78c0,0,9.39,11.63,23.7,13.68,0,0,2.97,27.6-24.29,39.68,0,0-22.69-6.2-23.27-39.59Z" style="fill:none; fill-rule:evenodd; stroke:#fff; stroke-linecap:round; stroke-linejoin:round; stroke-width:2.5px;"/>
            <path d="M48,52.05c3.35,0,6.08-2.73,6.08-6.08s-2.73-6.08-6.08-6.08-6.08,2.73-6.08,6.08,2.73,6.08,6.08,6.08Z" style="fill:none; fill-rule:evenodd; stroke:#fff; stroke-linecap:round; stroke-linejoin:round; stroke-width:2.5px;"/>
            <path d="M39.39,61.84v-1.63c0-2.96,2.42-5.39,5.39-5.39h6.45c2.96,0,5.39,2.42,5.39,5.39v1.63" style="fill:none; fill-rule:evenodd; stroke:#fff; stroke-linecap:round; stroke-linejoin:round; stroke-width:2.5px;"/>
        </g>
    </g>
</svg>