<?xml version="1.0" encoding="UTF-8"?><svg id="uuid-e3a6c86b-35f6-4ca9-a3c6-8368ed750613" xmlns="http://www.w3.org/2000/svg" viewBox="0 0 96.06 117.06"><g id="uuid-6d78b3ee-9dce-49d6-ac5a-a71e8830a4ef"><g><path d="M5.91,0H73.14l22.86,22.51V111.14c0,3.25-2.66,5.92-5.92,5.92H5.91c-3.25,0-5.91-2.66-5.91-5.92V5.92C0,2.66,2.66,0,5.91,0Z" style="fill:#c38d63; fill-rule:evenodd;"/><path d="M96.06,22.55l-18.34,.02c-2.52,0-4.59-2.06-4.59-4.59V0l22.92,22.55Z" style="fill:white; fill-rule:evenodd;"/><path d="M70.22,99.49v-1.62h.02c.5,0,.88-.19,1.12-.58,.24-.39,.37-.99,.37-1.81v-1.66c0-.86-.12-1.51-.37-1.93-.24-.42-.63-.63-1.14-.63h0v-1.62h0c1.07,0,1.91,.36,2.52,1.09,.61,.73,.92,1.75,.93,3.06v1.64c0,1.29-.3,2.28-.91,2.99-.61,.71-1.45,1.07-2.53,1.07h-.02Zm7.69-6.42l1.29-3.29h2.22l-2.25,4.75,2.3,4.83h-2.24l-1.31-3.35-1.31,3.35h-2.24l2.3-4.83-2.26-4.75h2.22l1.29,3.29Zm-7.69-3.42v1.62c-.51,0-.89,.2-1.13,.61-.24,.41-.37,1.02-.38,1.85v1.7c0,.84,.13,1.46,.37,1.85,.25,.39,.63,.59,1.14,.59v1.62c-1.07,0-1.91-.36-2.52-1.06-.61-.7-.92-1.69-.93-2.96v-1.64c0-1.32,.31-2.34,.91-3.08,.61-.74,1.45-1.11,2.54-1.11h0Zm-7.76,9.71v-1.6h.09c.35,0,.61-.11,.79-.32,.18-.21,.27-.52,.27-.91,0-.86-.31-1.3-.93-1.32h-.22v-1.42c.66-.05,1-.44,1-1.17,0-.43-.09-.74-.26-.93-.16-.17-.4-.26-.73-.28v-1.62c.94,.02,1.66,.24,2.16,.67,.52,.44,.78,1.1,.78,1.96,0,.49-.11,.91-.32,1.26-.22,.35-.51,.61-.88,.77,.43,.12,.76,.37,.99,.74,.23,.37,.35,.83,.35,1.37,0,.93-.26,1.63-.77,2.11-.51,.47-1.25,.71-2.22,.71h-.09Zm-42.42-1.6h3.39v1.6h-5.33v-9.58h1.93v7.97h0Zm42.42-7.97v1.62s-.08,0-.12,0h-1.03v2.38h1.01s.1,0,.14,0v1.42h-1.15v2.56h1.15v1.6h-3.08v-9.58h3.08Zm-31.85,0v6.63c0,1-.28,1.76-.82,2.29-.54,.53-1.31,.79-2.32,.79s-1.81-.27-2.35-.8c-.54-.53-.81-1.31-.81-2.32v-6.58h1.95v6.59c0,.54,.09,.93,.26,1.16,.18,.23,.49,.35,.95,.35s.78-.12,.95-.35c.17-.23,.26-.61,.26-1.13v-6.63h1.93Zm8.16,9.58h-1.93l-2.83-6.28v6.28h-1.93v-9.58h1.93l2.83,6.29v-6.29h1.93v9.58h0Zm8.04-3.19c-.05,1.09-.35,1.92-.92,2.48-.57,.56-1.36,.84-2.39,.84-1.08,0-1.91-.36-2.49-1.07-.58-.71-.86-1.73-.86-3.05v-1.61c0-1.32,.3-2.33,.89-3.04,.6-.71,1.43-1.07,2.49-1.07s1.84,.29,2.38,.87c.54,.58,.85,1.42,.92,2.51h-1.94c-.02-.68-.12-1.14-.31-1.4-.19-.26-.54-.38-1.05-.38s-.88,.18-1.1,.54c-.21,.36-.33,.96-.34,1.79v1.81c0,.95,.11,1.61,.32,1.96,.21,.36,.58,.54,1.1,.54s.86-.12,1.05-.37c.19-.25,.3-.7,.33-1.34h1.93Zm7.91,3.19h-1.93v-4.09h-2.85v4.09h-1.93v-9.58h1.93v3.88h2.85v-3.88h1.93v9.58Z" style="fill:#1a1a18; fill-rule:evenodd;"/><path d="M49.3,73.79h11.69c3.33,0,8.27,.41,11.1-.75,2.69-1.11,4.85-3.48,5.95-6.26,1.22-3.08,1.06-7.49,1.83-10.92,1.45-.19,4.79,.69,4.84-1.29,.05-2.14-3.44-1.18-4.87-1.41-.94-6.71-.61-14.1-7.67-17.14-2.81-1.21-7.66-.81-11.01-.81h-11.87v2.52c8.7-.05,19.56-.05,20.99,.34,6.23,1.7,6.64,8.83,7.14,15.15h-28.13s0,2.61,0,2.61h4.32c-.36,3.26-1.42,2.53-4.32,2.53v2.59c1.9,0,3.74,.31,5.07-.84,1.29-1.11,1.12-2.3,1.79-4.29h21.23c-.04,1.74-.94,8.4-1.48,9.81-.98,2.57-2.97,4.6-5.73,5.35-1.29,.35-12.15,.35-20.89,.3v2.52Zm-30.55-20.64c-1.42,.23-4.71-.7-4.86,1.25-.17,2.18,3.38,1.26,4.83,1.46,.75,3.36,.63,7.79,1.78,10.79,3.22,8.4,10.57,7.15,16.93,7.15h11.87v-2.52c-4.88-.03-9.11-.06-10.63-.06-6.34,0-13.43,1.55-16.04-5.73-.45-1.27-1.43-8.18-1.42-9.67l21.22,.04c1.55,4.51,.49,5.09,6.86,5.09h0v-2.59h0c-2.9,0-3.96,.73-4.32-2.54h4.32s0-2.61,0-2.61H21.16c.19-2.17,.85-8.04,1.55-9.84,2.78-7.15,9.65-5.57,16.13-5.57,1.56,0,5.68-.04,10.45-.07v-2.52h0c-4.71,0-19.4-.62-22.75,.76-7.19,2.96-6.86,10.47-7.8,17.2Z" style="fill:#fff; fill-rule:evenodd;"/><path d="M58.55,19.97c-6.69,1.71-5.54,12.2,.85,12.65,2.11,.15,2.32-2.23,.52-2.55-6.38-1.16-3.01-9.64,1.46-7.37,.97,.49,2.15,1.9,2.07,3.5-.04,.84-.52,1.37-1.34,1.26-1-.14-.76-.7-1.09-1.68-.48-1.41-2.64-1.19-2.2,1.25,.61,3.37,4.67,4.03,6.37,1.45,2.07-3.13-1.05-9.94-6.64-8.5Z" style="fill:#fff; fill-rule:evenodd;"/><path d="M46.17,17.29c-2.04,.44-4.3,2.41-3.93,5.23,.19,1.46,1.96,1.5,2.3,.08,.35-1.48,.49-2.49,1.94-2.75,3.02-.54,3.64,3.99,1.29,4.89-1.61,.62-1.87-.21-3.27,1.27-.79,.84-1.36,2-1.02,3.63,.69,3.32,5.07,4.01,4.59,1.43-.31-1.66-2.35-.37-2.28-2.34,.05-1.58,1.73-1.09,2.93-1.59,5.11-2.13,2.97-11.04-2.55-9.85Z" style="fill:#fff; fill-rule:evenodd;"/><path d="M35.59,25.06c-2.68,.68-3.83,4.05-1.89,6.37,1.87,2.26,5.26,1.15,5.98-1.43,.44-1.56-.31-3.32-1.72-2.26-.64,.48-.3,1.08-.7,1.76-.33,.56-1.2,.71-1.71,.3-.4-.33-.59-1.16-.18-1.77,.43-.65,1.09-.4,1.62-.76,.99-.69,.65-2.73-1.4-2.2Z" style="fill:#fff; fill-rule:evenodd;"/></g></g></svg>