<svg id="Group_2431" data-name="Group 2431" xmlns="http://www.w3.org/2000/svg" xmlns:xlink="http://www.w3.org/1999/xlink" width="96.06" height="116.873" viewBox="0 0 96.06 116.873">
  <defs>
    <clipPath id="clip-path">
      <rect id="Rectangle_1554" data-name="Rectangle 1554" width="96.06" height="116.873" fill="none"/>
    </clipPath>
  </defs>
  <g id="Group_2430" data-name="Group 2430" clipPath="url(#clip-path)">
    <path id="Path_2933" data-name="Path 2933" d="M5.915,0H73.141L96,22.507v88.45a5.934,5.934,0,0,1-5.916,5.916H5.915A5.933,5.933,0,0,1,0,110.957V5.916A5.933,5.933,0,0,1,5.915,0" fill="#d68581" fillRule="evenodd"/>
    <path id="Path_2934" data-name="Path 2934" d="M96.06,22.547l-18.335.024a4.6,4.6,0,0,1-4.586-4.586V0Z" fill="#fff" fillRule="evenodd"/>
    <path id="Path_2935" data-name="Path 2935" d="M39.44,77.047l2.5,7.813,2.5-7.813h1.551v9.575h-1.2V82.893l.112-3.736-2.5,7.465h-.92L38.98,79.184l.112,3.709v3.729h-1.2V77.047Zm13.2,7.07H49.407l-.743,2.505H47.43l3.084-9.575h1.03l3.09,9.575H53.4Zm-2.92-1.037h2.61l-1.308-4.35Zm7.415-.2v3.744h-1.2V77.047h3.053a2.762,2.762,0,0,1,2.1.8,2.956,2.956,0,0,1,.763,2.129,2.919,2.919,0,0,1-.727,2.128,2.811,2.811,0,0,1-2.047.775Zm0-1.037h1.85a1.559,1.559,0,0,0,1.23-.48,2.02,2.02,0,0,0,.426-1.376,2.06,2.06,0,0,0-.44-1.381,1.5,1.5,0,0,0-1.21-.52H57.139ZM24.978,96.38v3.743h-1.2V90.549h3.053a2.76,2.76,0,0,1,2.1.8,2.952,2.952,0,0,1,.763,2.129,2.921,2.921,0,0,1-.727,2.128,2.811,2.811,0,0,1-2.047.775Zm0-1.037h1.849a1.556,1.556,0,0,0,1.23-.481,2.019,2.019,0,0,0,.426-1.375,2.065,2.065,0,0,0-.439-1.381,1.5,1.5,0,0,0-1.21-.52H24.978Zm12.492.835a4.782,4.782,0,0,1-.835,3.021,2.846,2.846,0,0,1-2.374,1.059,2.881,2.881,0,0,1-2.339-1.03,4.569,4.569,0,0,1-.891-2.911v-1.8a4.8,4.8,0,0,1,.848-3.013,2.835,2.835,0,0,1,2.368-1.088A2.866,2.866,0,0,1,36.6,91.457a4.7,4.7,0,0,1,.866,2.977ZM36.265,94.5a4.1,4.1,0,0,0-.5-2.258,1.908,1.908,0,0,0-3.023.011,3.944,3.944,0,0,0-.516,2.209v1.715a4.037,4.037,0,0,0,.509,2.233,1.913,1.913,0,0,0,3.021.06,3.977,3.977,0,0,0,.505-2.174Zm4.32,5.622h-1.2V90.548h1.2Zm8.361,0h-1.21L43.9,92.746v7.377H42.693V90.549H43.9L47.75,97.96V90.549h1.2Zm7.492-8.537H53.92v8.537h-1.2V91.586H50.205V90.549h6.233Zm2.67,8.537H57.9V90.548h1.205Zm8.361,0h-1.21l-3.833-7.377v7.377h-1.21V90.549h1.21l3.847,7.411V90.549h1.2Zm8.078-1.187-.208.263a3.307,3.307,0,0,1-2.658,1.059,3.035,3.035,0,0,1-2.435-1.03,4.408,4.408,0,0,1-.9-2.911V94.434a4.743,4.743,0,0,1,.806-3.017,3.392,3.392,0,0,1,4.549-.242,3.18,3.18,0,0,1,.851,2.177h-1.2a2.41,2.41,0,0,0-.5-1.4,1.59,1.59,0,0,0-1.286-.5,1.727,1.727,0,0,0-1.511.673,3.862,3.862,0,0,0-.5,2.152v1.953a3.789,3.789,0,0,0,.552,2.22,1.831,1.831,0,0,0,1.585.772,2.1,2.1,0,0,0,1.479-.471l.177-.162V96.393H72.6V95.356h2.951Z" fill="#2b2a29" fillRule="evenodd"/>
    <path id="Path_2936" data-name="Path 2936" d="M39.44,77.047l2.5,7.813,2.5-7.813h1.551v9.575h-1.2V82.893l.112-3.736-2.5,7.465h-.92L38.98,79.184l.112,3.709v3.729h-1.2V77.047Zm13.2,7.07H49.407l-.743,2.505H47.43l3.084-9.575h1.03l3.09,9.575H53.4Zm-2.92-1.037h2.61l-1.308-4.35Zm7.415-.2v3.744h-1.2V77.047h3.053a2.762,2.762,0,0,1,2.1.8,2.956,2.956,0,0,1,.763,2.129,2.919,2.919,0,0,1-.727,2.128,2.811,2.811,0,0,1-2.047.775Zm0-1.037h1.85a1.559,1.559,0,0,0,1.23-.48,2.02,2.02,0,0,0,.426-1.376,2.06,2.06,0,0,0-.44-1.381,1.5,1.5,0,0,0-1.21-.52H57.139ZM24.978,96.38v3.743h-1.2V90.549h3.053a2.76,2.76,0,0,1,2.1.8,2.952,2.952,0,0,1,.763,2.129,2.921,2.921,0,0,1-.727,2.128,2.811,2.811,0,0,1-2.047.775Zm0-1.037h1.849a1.556,1.556,0,0,0,1.23-.481,2.019,2.019,0,0,0,.426-1.375,2.065,2.065,0,0,0-.439-1.381,1.5,1.5,0,0,0-1.21-.52H24.978Zm12.492.835a4.782,4.782,0,0,1-.835,3.021,2.846,2.846,0,0,1-2.374,1.059,2.881,2.881,0,0,1-2.339-1.03,4.569,4.569,0,0,1-.891-2.911v-1.8a4.8,4.8,0,0,1,.848-3.013,2.835,2.835,0,0,1,2.368-1.088A2.866,2.866,0,0,1,36.6,91.457a4.7,4.7,0,0,1,.866,2.977ZM36.265,94.5a4.1,4.1,0,0,0-.5-2.258,1.908,1.908,0,0,0-3.023.011,3.944,3.944,0,0,0-.516,2.209v1.715a4.037,4.037,0,0,0,.509,2.233,1.913,1.913,0,0,0,3.021.06,3.977,3.977,0,0,0,.505-2.174Zm4.32,5.622h-1.2V90.548h1.2Zm8.361,0h-1.21L43.9,92.746v7.377H42.693V90.549H43.9L47.75,97.96V90.549h1.2Zm7.492-8.537H53.92v8.537h-1.2V91.586H50.205V90.549h6.233Zm2.67,8.537H57.9V90.548h1.205Zm8.361,0h-1.21l-3.833-7.377v7.377h-1.21V90.549h1.21l3.847,7.411V90.549h1.2Zm8.078-1.187-.208.263a3.307,3.307,0,0,1-2.658,1.059,3.035,3.035,0,0,1-2.435-1.03,4.408,4.408,0,0,1-.9-2.911V94.434a4.743,4.743,0,0,1,.806-3.017,3.392,3.392,0,0,1,4.549-.242,3.18,3.18,0,0,1,.851,2.177h-1.2a2.41,2.41,0,0,0-.5-1.4,1.59,1.59,0,0,0-1.286-.5,1.727,1.727,0,0,0-1.511.673,3.862,3.862,0,0,0-.5,2.152v1.953a3.789,3.789,0,0,0,.552,2.22,1.831,1.831,0,0,0,1.585.772,2.1,2.1,0,0,0,1.479-.471l.177-.162V96.393H72.6V95.356h2.951Z" fill="none" stroke="#000" strokeMiterlimit="10" strokeWidth="0.5"/>
    <path id="Path_2937" data-name="Path 2937" d="M51.376,51.694a18.442,18.442,0,0,0,5.4-8.315,26.785,26.785,0,0,0,7.781-3.5,15.533,15.533,0,0,1-13.184,11.81m-1.894.119c.136,0,.273-.005.408-.009a18.248,18.248,0,0,0,5.878-8.185,23,23,0,0,1-4.852.524,24.177,24.177,0,0,1-7.984-1.386A17.953,17.953,0,0,0,49.074,51.8c.136,0,.271.009.408.009M34.057,37.764a29.982,29.982,0,0,0,7.862,4.615,18.19,18.19,0,0,0,5.67,9.315,15.52,15.52,0,0,1-13.532-13.93m-.071-1.446c0,.072.005.144.006.217a29.375,29.375,0,0,0,7.714,4.8c-.066-.4-.124-.8-.164-1.2a23.017,23.017,0,0,1,1.687-10.523,26.258,26.258,0,0,1-5.953-2.828,15.516,15.516,0,0,0-3.29,9.54M48.15,20.884a38.008,38.008,0,0,0-4.585,7.895,25.426,25.426,0,0,1-5.716-2.69,15.43,15.43,0,0,1,10.3-5.2m1.332-.063c-.052,0-.1,0-.153.005a38.247,38.247,0,0,0-4.88,8.225,21.488,21.488,0,0,0,10.269.478,38.008,38.008,0,0,0-5.08-8.7c-.052,0-.1-.005-.156-.005m11.979,5.666c.068.084.133.171.2.256a21.652,21.652,0,0,1-6.037,2.576,37.693,37.693,0,0,0-4.808-8.435,15.453,15.453,0,0,1,10.645,5.6M56.536,40.043a21.8,21.8,0,0,0-1.487-9.669,21.148,21.148,0,0,1-4.41.462,23.374,23.374,0,0,1-6.528-.958,22.119,22.119,0,0,0-1.682,10.169,16.675,16.675,0,0,0,.255,1.67c.109.041.215.086.326.125a22.4,22.4,0,0,0,13.047.834,16.292,16.292,0,0,0,.479-2.633m8.443-3.725A15.535,15.535,0,0,0,62.2,27.461a22.716,22.716,0,0,1-6.249,2.7,22.672,22.672,0,0,1,1.476,9.968,17.172,17.172,0,0,1-.386,2.284A26.85,26.85,0,0,0,64.8,38.647a15.686,15.686,0,0,0,.175-2.329m1.782,0A17.279,17.279,0,1,0,49.482,53.6,17.306,17.306,0,0,0,66.761,36.318" fill="#fff" fillRule="evenodd"/>
    <path id="Path_2938" data-name="Path 2938" d="M47.034,61.677a.89.89,0,0,0,.891-.891V59.038a1.547,1.547,0,0,1,.494-1.133c.226.007.452.014.68.014.463,0,.932-.018,1.405-.047a1.546,1.546,0,0,1,.536,1.166v1.748a.892.892,0,0,0,.891.892H57.96a1.934,1.934,0,1,1,0,3.868H41.006a1.933,1.933,0,1,1,0-3.867ZM46.143,59.9H41.006a3.717,3.717,0,1,0,0,7.433H57.96a3.717,3.717,0,0,0,0-7.433H52.822v-.857a3.325,3.325,0,0,0-.294-1.364,32.138,32.138,0,0,0,6.085-1.5,1.114,1.114,0,0,0-.732-2.1,25.471,25.471,0,0,1-10.373,1.561c-9.556-.779-17.655-9.9-17.683-19.925a19.726,19.726,0,0,1,.526-4.676A16.868,16.868,0,0,1,33.619,24.4a16.289,16.289,0,0,1,5.865-4.625,1.114,1.114,0,1,0-.9-2.039,18.3,18.3,0,0,0-6.694,5.258,19.105,19.105,0,0,0-3.7,7.509,21.86,21.86,0,0,0-.589,5.206c.031,10.807,8.549,20.678,18.805,22.039a3.335,3.335,0,0,0-.26,1.29Z" fill="#fff" fillRule="evenodd"/>
  </g>
</svg>
