<svg id="Group_2427" data-name="Group 2427" xmlns="http://www.w3.org/2000/svg" xmlns:xlink="http://www.w3.org/1999/xlink" width="96.059" height="116.76" viewBox="0 0 96.059 116.76">
  <defs>
    <clipPath id="clip-path">
      <rect id="Rectangle_1552" data-name="Rectangle 1552" width="96.059" height="116.76" transform="translate(0 0)" fill="none"/>
    </clipPath>
  </defs>
  <g id="Group_2426" data-name="Group 2426" clipPath="url(#clip-path)">
    <path id="Path_2900" data-name="Path 2900" d="M5.915,0H73.141L96,22.507v88.338a5.933,5.933,0,0,1-5.915,5.915H5.915A5.932,5.932,0,0,1,0,110.845V5.916A5.932,5.932,0,0,1,5.915,0" fill="#8e9ade" fillRule="evenodd"/>
    <path id="Path_2901" data-name="Path 2901" d="M96.06,22.547l-18.337.023a4.6,4.6,0,0,1-4.585-4.585V0Z" fill="#fff" fillRule="evenodd"/>
    <path id="Path_2902" data-name="Path 2902" d="M30.408,74.749v3.744h-1.2V68.919h3.052a2.763,2.763,0,0,1,2.1.8,2.952,2.952,0,0,1,.763,2.129,2.921,2.921,0,0,1-.727,2.128,2.808,2.808,0,0,1-2.047.774Zm0-1.037h1.85a1.559,1.559,0,0,0,1.23-.48,2.02,2.02,0,0,0,.426-1.376,2.059,2.059,0,0,0-.44-1.38,1.5,1.5,0,0,0-1.21-.521H30.408Zm9.82,2.277.756,2.5h1.234l-3.09-9.574H38.1l-3.084,9.574h1.235l.742-2.5Zm-2.92-1.038,1.3-4.349,1.309,4.349Zm9.11-.323H44.735v3.865h-1.21V68.919h2.682a2.861,2.861,0,0,1,2.13.734,2.941,2.941,0,0,1,.725,2.149,3.006,3.006,0,0,1-.392,1.551,2.472,2.472,0,0,1-1.108,1l1.855,4.062v.079H48.122Zm-1.683-1.037h1.458A1.564,1.564,0,0,0,47.4,73.1a1.842,1.842,0,0,0,.449-1.3q0-1.845-1.67-1.845H44.735Zm10.525.485H51.874v3.38H55.82v1.037H50.671V68.919h5.084v1.036H51.874v3.084H55.26Zm8.348,4.417H62.4l-3.834-7.378v7.378H57.355V68.919h1.209l3.848,7.41v-7.41h1.2ZM71.1,69.955H68.582v8.538h-1.2V69.955H64.867V68.919H71.1Zm-40.244,13.5H28.337V92h-1.2V83.457H24.622V82.42h6.233Zm6,4.121H33.471v3.38h3.947V92H32.269V82.42h5.083v1.037H33.471v3.084h3.388ZM43.42,89.49H40.182L39.439,92H38.206l3.083-9.575h1.03L45.41,92H44.176ZM40.5,88.453h2.61L41.8,84.1Zm12.147.5a3.561,3.561,0,0,1-.864,2.359,2.926,2.926,0,0,1-2.22.822,2.741,2.741,0,0,1-2.287-1.1,4.74,4.74,0,0,1-.849-2.971V86.326a4.587,4.587,0,0,1,.872-2.954,2.883,2.883,0,0,1,2.377-1.087,2.753,2.753,0,0,1,2.145.831,3.635,3.635,0,0,1,.826,2.376H51.429a2.932,2.932,0,0,0-.494-1.669,1.538,1.538,0,0,0-1.26-.5,1.716,1.716,0,0,0-1.506.766,3.962,3.962,0,0,0-.526,2.244v1.755a4.164,4.164,0,0,0,.49,2.229,1.585,1.585,0,0,0,1.429.777,1.733,1.733,0,0,0,1.356-.467,2.94,2.94,0,0,0,.511-1.677ZM60.54,92H59.33V87.578H55.478V92H54.273V82.42h1.205v4.121H59.33V82.42h1.21Zm6.677-4.417H63.83v3.38h3.946V92H62.627V82.42h5.084v1.037H63.83v3.084h3.387Zm4.992.552H70.525V92h-1.21V82.42H72a2.866,2.866,0,0,1,2.13.734,2.944,2.944,0,0,1,.724,2.15,3.006,3.006,0,0,1-.392,1.551,2.48,2.48,0,0,1-1.107,1l1.854,4.062V92H73.912Zm-1.684-1.037h1.459a1.56,1.56,0,0,0,1.207-.487,1.844,1.844,0,0,0,.449-1.3q0-1.845-1.67-1.845H70.525Zm-45.331,15.9H21.958l-.743,2.5H19.98l3.084-9.574h1.03l3.091,9.574H25.951Zm-2.92-1.037h2.61l-1.308-4.35Zm12.147.5a3.555,3.555,0,0,1-.864,2.359,2.926,2.926,0,0,1-2.219.821,2.742,2.742,0,0,1-2.287-1.095,4.737,4.737,0,0,1-.849-2.972V99.828a4.582,4.582,0,0,1,.871-2.955,2.884,2.884,0,0,1,2.377-1.086,2.755,2.755,0,0,1,2.145.83,3.632,3.632,0,0,1,.826,2.377H33.205a2.954,2.954,0,0,0-.494-1.67,1.541,1.541,0,0,0-1.261-.5,1.722,1.722,0,0,0-1.507.765,3.975,3.975,0,0,0-.524,2.245v1.755a4.174,4.174,0,0,0,.489,2.229,1.585,1.585,0,0,0,1.43.776,1.725,1.725,0,0,0,1.355-.467,2.94,2.94,0,0,0,.512-1.676Zm7.034-5.492H38.937V105.5h-1.2V96.959H35.222V95.922h6.233Zm2.671,8.537h-1.2V95.922h1.2Zm4.846-1.846,2.188-7.728h1.322L49.5,105.5H48.451l-2.972-9.574h1.316Zm6.062,1.846H53.829V95.922h1.205Zm7.515-8.537H60.03V105.5h-1.2V96.959H56.316V95.922h6.233Zm2.67,8.537H64.014V95.922h1.205Zm6.7-4.417H68.532v3.381h3.946V105.5H67.329V95.922h5.084v1.037H68.532v3.084h3.387Zm6.278,2a1.48,1.48,0,0,0-.389-1.1,3.982,3.982,0,0,0-1.4-.743,6.071,6.071,0,0,1-1.549-.758,2.672,2.672,0,0,1-.8-.909,2.691,2.691,0,0,1,.493-3.043,2.732,2.732,0,0,1,1.99-.737,2.972,2.972,0,0,1,1.5.377,2.583,2.583,0,0,1,1.011,1.048,3.108,3.108,0,0,1,.355,1.472H78.2a2.011,2.011,0,0,0-.427-1.373,1.549,1.549,0,0,0-1.229-.487,1.514,1.514,0,0,0-1.132.409,1.562,1.562,0,0,0-.4,1.144,1.331,1.331,0,0,0,.435,1.014,3.787,3.787,0,0,0,1.34.732,4.62,4.62,0,0,1,2.021,1.152,2.586,2.586,0,0,1,.609,1.791,2.416,2.416,0,0,1-.756,1.865,2.908,2.908,0,0,1-2.059.7,3.3,3.3,0,0,1-1.542-.366,2.778,2.778,0,0,1-1.11-1.027,2.855,2.855,0,0,1-.4-1.518h1.21a1.856,1.856,0,0,0,.5,1.38,1.827,1.827,0,0,0,1.35.494,1.608,1.608,0,0,0,1.2-.408,1.518,1.518,0,0,0,.4-1.111" fill="#2b2a29" fillRule="evenodd"/>
    <path id="Path_2903" data-name="Path 2903" d="M30.408,74.749v3.744h-1.2V68.919h3.052a2.763,2.763,0,0,1,2.1.8,2.952,2.952,0,0,1,.763,2.129,2.921,2.921,0,0,1-.727,2.128,2.808,2.808,0,0,1-2.047.774Zm0-1.037h1.85a1.559,1.559,0,0,0,1.23-.48,2.02,2.02,0,0,0,.426-1.376,2.059,2.059,0,0,0-.44-1.38,1.5,1.5,0,0,0-1.21-.521H30.408Zm9.82,2.277.756,2.5h1.234l-3.09-9.574H38.1l-3.084,9.574h1.235l.742-2.5Zm-2.92-1.038,1.3-4.349,1.309,4.349Zm9.11-.323H44.735v3.865h-1.21V68.919h2.682a2.861,2.861,0,0,1,2.13.734,2.941,2.941,0,0,1,.725,2.149,3.006,3.006,0,0,1-.392,1.551,2.472,2.472,0,0,1-1.108,1l1.855,4.062v.079H48.122Zm-1.683-1.037h1.458A1.564,1.564,0,0,0,47.4,73.1a1.842,1.842,0,0,0,.449-1.3q0-1.845-1.67-1.845H44.735Zm10.525.485H51.874v3.38H55.82v1.037H50.671V68.919h5.084v1.036H51.874v3.084H55.26Zm8.348,4.417H62.4l-3.834-7.378v7.378H57.355V68.919h1.209l3.848,7.41v-7.41h1.2ZM71.1,69.955H68.582v8.538h-1.2V69.955H64.867V68.919H71.1Zm-40.244,13.5H28.337V92h-1.2V83.457H24.622V82.42h6.233Zm6,4.121H33.471v3.38h3.947V92H32.269V82.42h5.083v1.037H33.471v3.084h3.388ZM43.42,89.49H40.182L39.439,92H38.206l3.083-9.575h1.03L45.41,92H44.176ZM40.5,88.453h2.61L41.8,84.1Zm12.147.5a3.561,3.561,0,0,1-.864,2.359,2.926,2.926,0,0,1-2.22.822,2.741,2.741,0,0,1-2.287-1.1,4.74,4.74,0,0,1-.849-2.971V86.326a4.587,4.587,0,0,1,.872-2.954,2.883,2.883,0,0,1,2.377-1.087,2.753,2.753,0,0,1,2.145.831,3.635,3.635,0,0,1,.826,2.376H51.429a2.932,2.932,0,0,0-.494-1.669,1.538,1.538,0,0,0-1.26-.5,1.716,1.716,0,0,0-1.506.766,3.962,3.962,0,0,0-.526,2.244v1.755a4.164,4.164,0,0,0,.49,2.229,1.585,1.585,0,0,0,1.429.777,1.733,1.733,0,0,0,1.356-.467,2.94,2.94,0,0,0,.511-1.677ZM60.54,92H59.33V87.578H55.478V92H54.273V82.42h1.205v4.121H59.33V82.42h1.21Zm6.677-4.417H63.83v3.38h3.946V92H62.627V82.42h5.084v1.037H63.83v3.084h3.387Zm4.992.552H70.525V92h-1.21V82.42H72a2.866,2.866,0,0,1,2.13.734,2.944,2.944,0,0,1,.724,2.15,3.006,3.006,0,0,1-.392,1.551,2.48,2.48,0,0,1-1.107,1l1.854,4.062V92H73.912Zm-1.684-1.037h1.459a1.56,1.56,0,0,0,1.207-.487,1.844,1.844,0,0,0,.449-1.3q0-1.845-1.67-1.845H70.525Zm-45.331,15.9H21.958l-.743,2.5H19.98l3.084-9.574h1.03l3.091,9.574H25.951Zm-2.92-1.037h2.61l-1.308-4.35Zm12.147.5a3.555,3.555,0,0,1-.864,2.359,2.926,2.926,0,0,1-2.219.821,2.742,2.742,0,0,1-2.287-1.095,4.737,4.737,0,0,1-.849-2.972V99.828a4.582,4.582,0,0,1,.871-2.955,2.884,2.884,0,0,1,2.377-1.086,2.755,2.755,0,0,1,2.145.83,3.632,3.632,0,0,1,.826,2.377H33.205a2.954,2.954,0,0,0-.494-1.67,1.541,1.541,0,0,0-1.261-.5,1.722,1.722,0,0,0-1.507.765,3.975,3.975,0,0,0-.524,2.245v1.755a4.174,4.174,0,0,0,.489,2.229,1.585,1.585,0,0,0,1.43.776,1.725,1.725,0,0,0,1.355-.467,2.94,2.94,0,0,0,.512-1.676Zm7.034-5.492H38.937V105.5h-1.2V96.959H35.222V95.922h6.233Zm2.671,8.537h-1.2V95.922h1.2Zm4.846-1.846,2.188-7.728h1.322L49.5,105.5H48.451l-2.972-9.574h1.316Zm6.062,1.846H53.829V95.922h1.205Zm7.515-8.537H60.03V105.5h-1.2V96.959H56.316V95.922h6.233Zm2.67,8.537H64.014V95.922h1.205Zm6.7-4.417H68.532v3.381h3.946V105.5H67.329V95.922h5.084v1.037H68.532v3.084h3.387Zm6.278,2a1.48,1.48,0,0,0-.389-1.1,3.982,3.982,0,0,0-1.4-.743,6.071,6.071,0,0,1-1.549-.758,2.672,2.672,0,0,1-.8-.909,2.691,2.691,0,0,1,.493-3.043,2.732,2.732,0,0,1,1.99-.737,2.972,2.972,0,0,1,1.5.377,2.583,2.583,0,0,1,1.011,1.048,3.108,3.108,0,0,1,.355,1.472H78.2a2.011,2.011,0,0,0-.427-1.373,1.549,1.549,0,0,0-1.229-.487,1.514,1.514,0,0,0-1.132.409,1.562,1.562,0,0,0-.4,1.144,1.331,1.331,0,0,0,.435,1.014,3.787,3.787,0,0,0,1.34.732,4.62,4.62,0,0,1,2.021,1.152,2.586,2.586,0,0,1,.609,1.791,2.416,2.416,0,0,1-.756,1.865,2.908,2.908,0,0,1-2.059.7,3.3,3.3,0,0,1-1.542-.366,2.778,2.778,0,0,1-1.11-1.027,2.855,2.855,0,0,1-.4-1.518h1.21a1.856,1.856,0,0,0,.5,1.38,1.827,1.827,0,0,0,1.35.494,1.608,1.608,0,0,0,1.2-.408A1.518,1.518,0,0,0,78.2,103.075Z" fill="none" stroke="#000" strokeMiterlimit="10" strokeWidth="0.5"/>
    <path id="Path_2904" data-name="Path 2904" d="M44.153,42.155a5.533,5.533,0,0,1-5.524,5.527h0a5.526,5.526,0,1,1,5.526-5.527M36.815,27.137l5.306,8.2.107.169a7.57,7.57,0,0,1,3.961,6.642c0,.222-.014.438-.033.656l6.11,0c-.018-.213-.032-.429-.033-.647a7.509,7.509,0,0,1,2.217-5.346c.07-.07.146-.131.218-.2a8.39,8.39,0,0,0-.753-1.011,9.615,9.615,0,0,1-7.291,1.1,8.581,8.581,0,0,1-.925-.332,8.393,8.393,0,0,1-1.069-.558l-.081-.079L43.28,33.777l-4.933-7.628a.933.933,0,0,0-1.261-.271.91.91,0,0,0-.271,1.259M55.888,38.252a5.523,5.523,0,1,1,3.91,9.43h0a5.523,5.523,0,0,1-3.908-9.43M45.117,21.846a5.516,5.516,0,1,1-1.618,3.9,5.486,5.486,0,0,1,1.618-3.9M33.281,36.813a7.558,7.558,0,0,0,5.346,12.9h0a7.562,7.562,0,0,0,7.055-4.859l7.058,0A7.564,7.564,0,0,0,59.8,49.717h0a7.561,7.561,0,1,0-3.45-14.287,9.759,9.759,0,0,0-1.594-1.89,1.022,1.022,0,0,0-1.316-.058c-.04.031-4.206,3.132-8.177.3l-2.1-3.242a7.552,7.552,0,0,0,5.853,2.778h0a7.595,7.595,0,1,0-6.754-4.168l-2.522-3.9a2.575,2.575,0,1,0-4.326,2.8l4.293,6.641a7.432,7.432,0,0,0-6.431,2.131" fill="#fff" fillRule="evenodd"/>
    <path id="Path_2905" data-name="Path 2905" d="M33.958,52.043a8.96,8.96,0,0,0,9.579-.021c2.008,2.282,2.485,5.577,2.6,7.2h-15a12.6,12.6,0,0,1,2.821-7.183M29.346,60.96a1.025,1.025,0,0,0,.725.3l17.111-.005a1.019,1.019,0,0,0,1.018-.984c.008-.269.171-6.647-3.841-10.321a1.025,1.025,0,0,0-1.306-.06c-.18.14-4.488,3.334-8.567.013a1.018,1.018,0,0,0-1.311.02,14.251,14.251,0,0,0-4.122,10.3,1.027,1.027,0,0,0,.293.73" fill="#fff" fillRule="evenodd"/>
    <path id="Path_2906" data-name="Path 2906" d="M67.3,59.224l-15,0a12.61,12.61,0,0,1,2.821-7.183,8.958,8.958,0,0,0,9.579-.022c2.007,2.283,2.485,5.577,2.6,7.2m-3.079-9.33c-.181.14-4.489,3.334-8.568.013a1.018,1.018,0,0,0-1.311.02,14.248,14.248,0,0,0-4.123,10.3,1.021,1.021,0,0,0,1.02,1.035l17.111-.005a1.018,1.018,0,0,0,1.016-.984c.009-.269.171-6.647-3.84-10.321a1.024,1.024,0,0,0-1.305-.06" fill="#fff" fillRule="evenodd"/>
  </g>
</svg>
