<svg id="Group_2425" data-name="Group 2425" xmlns="http://www.w3.org/2000/svg" xmlns:xlink="http://www.w3.org/1999/xlink" width="96.06" height="116.461" viewBox="0 0 96.06 116.461">
  <defs>
    <clipPath id="clip-path">
      <rect id="Rectangle_1551" data-name="Rectangle 1551" width="96.06" height="116.46" transform="translate(0 0)" fill="none"/>
    </clipPath>
  </defs>
  <g id="Group_2424" data-name="Group 2424" clipPath="url(#clip-path)">
    <path id="Path_2892" data-name="Path 2892" d="M5.915,0H73.141L96,22.507v88.037a5.933,5.933,0,0,1-5.916,5.916H5.915A5.933,5.933,0,0,1,0,110.544V5.915A5.933,5.933,0,0,1,5.915,0" fill="#b286cc" fillRule="evenodd"/>
    <path id="Path_2893" data-name="Path 2893" d="M96.06,22.546l-18.335.024a4.6,4.6,0,0,1-4.586-4.585V0Z" fill="#fff" fillRule="evenodd"/>
    <path id="Path_2894" data-name="Path 2894" d="M30.7,91.638H29.016V95.5H27.807V85.928h2.682a2.861,2.861,0,0,1,2.129.734,2.938,2.938,0,0,1,.725,2.15,2.989,2.989,0,0,1-.393,1.551,2.473,2.473,0,0,1-1.106,1L33.7,95.424V95.5H32.4ZM29.016,90.6h1.459a1.562,1.562,0,0,0,1.207-.487,1.846,1.846,0,0,0,.449-1.3q0-1.845-1.67-1.845H29.016Zm12.2,4.9h-1.21V91.086H36.156V95.5H34.95V85.928h1.206v4.121h3.851V85.928h1.21Zm4.4-4.767,1.959-4.807h1.362l-2.723,6V95.5h-1.2v-3.57l-2.723-6h1.367Zm6.12-4.807,2.5,7.813,2.5-7.813h1.551V95.5h-1.2V91.774l.113-3.736L54.686,95.5h-.92l-2.494-7.438.112,3.71V95.5h-1.2V85.928Zm13.211,5.158H61.556v3.38H65.5V95.5H60.353V85.928h5.084v1.037H61.556v3.084h3.387Zm6.278,2a1.48,1.48,0,0,0-.389-1.1,3.982,3.982,0,0,0-1.4-.743,6.038,6.038,0,0,1-1.549-.758,2.672,2.672,0,0,1-.8-.909,2.69,2.69,0,0,1,.494-3.043,2.726,2.726,0,0,1,1.988-.737,2.973,2.973,0,0,1,1.5.377,2.592,2.592,0,0,1,1.012,1.048,3.119,3.119,0,0,1,.354,1.472H71.221a2.016,2.016,0,0,0-.427-1.373,1.55,1.55,0,0,0-1.23-.487,1.515,1.515,0,0,0-1.131.409,1.562,1.562,0,0,0-.4,1.144,1.332,1.332,0,0,0,.435,1.014,3.8,3.8,0,0,0,1.34.732,4.62,4.62,0,0,1,2.021,1.152,2.584,2.584,0,0,1,.609,1.791,2.414,2.414,0,0,1-.757,1.865,2.9,2.9,0,0,1-2.058.7,3.3,3.3,0,0,1-1.542-.366,2.774,2.774,0,0,1-1.111-1.027,2.871,2.871,0,0,1-.4-1.517h1.21a1.856,1.856,0,0,0,.5,1.379,1.827,1.827,0,0,0,1.35.495,1.608,1.608,0,0,0,1.2-.409,1.518,1.518,0,0,0,.4-1.111" fill="#2b2a29" fillRule="evenodd"/>
    <path id="Path_2895" data-name="Path 2895" d="M30.7,91.638H29.016V95.5H27.807V85.928h2.682a2.861,2.861,0,0,1,2.129.734,2.938,2.938,0,0,1,.725,2.15,2.989,2.989,0,0,1-.393,1.551,2.473,2.473,0,0,1-1.106,1L33.7,95.424V95.5H32.4ZM29.016,90.6h1.459a1.562,1.562,0,0,0,1.207-.487,1.846,1.846,0,0,0,.449-1.3q0-1.845-1.67-1.845H29.016Zm12.2,4.9h-1.21V91.086H36.156V95.5H34.95V85.928h1.206v4.121h3.851V85.928h1.21Zm4.4-4.767,1.959-4.807h1.362l-2.723,6V95.5h-1.2v-3.57l-2.723-6h1.367Zm6.12-4.807,2.5,7.813,2.5-7.813h1.551V95.5h-1.2V91.774l.113-3.736L54.686,95.5h-.92l-2.494-7.438.112,3.71V95.5h-1.2V85.928Zm13.211,5.158H61.556v3.38H65.5V95.5H60.353V85.928h5.084v1.037H61.556v3.084h3.387Zm6.278,2a1.48,1.48,0,0,0-.389-1.1,3.982,3.982,0,0,0-1.4-.743,6.038,6.038,0,0,1-1.549-.758,2.672,2.672,0,0,1-.8-.909,2.69,2.69,0,0,1,.494-3.043,2.726,2.726,0,0,1,1.988-.737,2.973,2.973,0,0,1,1.5.377,2.592,2.592,0,0,1,1.012,1.048,3.119,3.119,0,0,1,.354,1.472H71.221a2.016,2.016,0,0,0-.427-1.373,1.55,1.55,0,0,0-1.23-.487,1.515,1.515,0,0,0-1.131.409,1.562,1.562,0,0,0-.4,1.144,1.332,1.332,0,0,0,.435,1.014,3.8,3.8,0,0,0,1.34.732,4.62,4.62,0,0,1,2.021,1.152,2.584,2.584,0,0,1,.609,1.791,2.414,2.414,0,0,1-.757,1.865,2.9,2.9,0,0,1-2.058.7,3.3,3.3,0,0,1-1.542-.366,2.774,2.774,0,0,1-1.111-1.027,2.871,2.871,0,0,1-.4-1.517h1.21a1.856,1.856,0,0,0,.5,1.379,1.827,1.827,0,0,0,1.35.495,1.608,1.608,0,0,0,1.2-.409A1.518,1.518,0,0,0,71.221,93.081Z" fill="none" stroke="#000" strokeMiterlimit="10" strokeWidth="0.5"/>
    <path id="Path_2896" data-name="Path 2896" d="M53.667,51.864a.917.917,0,0,0-.008.13c.016,2.194-2.366,4.758-5.661,6.1a10.255,10.255,0,0,1-5.621.738A3.507,3.507,0,0,1,39.5,56.84c-.805-2.219,1.721-5.4,5.519-6.937a9.8,9.8,0,0,1,6.171-.611.972.972,0,0,0,.876-.18,1.084,1.084,0,0,0,.392-.844V34.987a1.09,1.09,0,0,0-.365-.821.972.972,0,0,0-.832-.223L31.311,38.012a1.047,1.047,0,0,0-.816,1.042V57.87c0,.04,0,.082,0,.124.067,2.175-2.367,4.827-5.663,6.166a10.249,10.249,0,0,1-5.621.737,3.511,3.511,0,0,1-2.875-1.99c-.8-2.221,1.721-5.4,5.519-6.941a11.289,11.289,0,0,1,4.173-.867,7.212,7.212,0,0,1,2,.262.964.964,0,0,0,.874-.18,1.086,1.086,0,0,0,.394-.844V26.423l24.373-4.969Zm1.642-32.515a.956.956,0,0,0-.83-.225L28.1,24.506a1.047,1.047,0,0,0-.813,1.043v27.5a12.547,12.547,0,0,0-6.152.931c-4.981,2.021-7.913,6.276-6.676,9.682a5.432,5.432,0,0,0,4.4,3.321,9.747,9.747,0,0,0,1.807.164,13.169,13.169,0,0,0,4.891-1.01c4.147-1.685,6.987-5.01,6.952-8.118,0-.023,0-.044,0-.067V39.93l17.947-3.658V46.986a12.551,12.551,0,0,0-6.151.932c-4.981,2.021-7.912,6.275-6.673,9.684a5.423,5.423,0,0,0,4.392,3.316,12.162,12.162,0,0,0,6.7-.843c4.057-1.65,6.892-4.908,6.95-7.966q.006-.068.006-.132V20.168a1.09,1.09,0,0,0-.33-.786.352.352,0,0,0-.037-.033" fill="#fefefe" fillRule="evenodd"/>
    <path id="Path_2897" data-name="Path 2897" d="M53.667,51.864a.917.917,0,0,0-.008.13c.016,2.194-2.366,4.758-5.661,6.1a10.255,10.255,0,0,1-5.621.738A3.507,3.507,0,0,1,39.5,56.84c-.805-2.219,1.721-5.4,5.519-6.937a9.8,9.8,0,0,1,6.171-.611.972.972,0,0,0,.876-.18,1.084,1.084,0,0,0,.392-.844V34.987a1.09,1.09,0,0,0-.365-.821.972.972,0,0,0-.832-.223L31.311,38.012a1.047,1.047,0,0,0-.816,1.042V57.87c0,.04,0,.082,0,.124.067,2.175-2.367,4.827-5.663,6.166a10.249,10.249,0,0,1-5.621.737,3.511,3.511,0,0,1-2.875-1.99c-.8-2.221,1.721-5.4,5.519-6.941a11.289,11.289,0,0,1,4.173-.867,7.212,7.212,0,0,1,2,.262.964.964,0,0,0,.874-.18,1.086,1.086,0,0,0,.394-.844V26.423l24.373-4.969Zm1.642-32.515a.956.956,0,0,0-.83-.225L28.1,24.506a1.047,1.047,0,0,0-.813,1.043v27.5a12.547,12.547,0,0,0-6.152.931c-4.981,2.021-7.913,6.276-6.676,9.682a5.432,5.432,0,0,0,4.4,3.321,9.747,9.747,0,0,0,1.807.164,13.169,13.169,0,0,0,4.891-1.01c4.147-1.685,6.987-5.01,6.952-8.118,0-.023,0-.044,0-.067V39.93l17.947-3.658V46.986a12.551,12.551,0,0,0-6.151.932c-4.981,2.021-7.912,6.275-6.673,9.684a5.423,5.423,0,0,0,4.392,3.316,12.162,12.162,0,0,0,6.7-.843c4.057-1.65,6.892-4.908,6.95-7.966q.006-.068.006-.132V20.168a1.09,1.09,0,0,0-.33-.786A.352.352,0,0,0,55.309,19.349Z" fill="none" stroke="#fefefe" strokeMiterlimit="22.926" strokeWidth="0.5"/>
    <path id="Path_2898" data-name="Path 2898" d="M75.514,40.722a.258.258,0,0,0-.017.049c-.215.855-1.4,1.582-2.812,1.731a4.127,4.127,0,0,1-2.258-.345,1.468,1.468,0,0,1-.916-1.1c-.089-.952,1.213-1.9,2.843-2.075a3.976,3.976,0,0,1,2.458.457.385.385,0,0,0,.358.029.421.421,0,0,0,.237-.283l1.338-5.159a.452.452,0,0,0-.059-.36.4.4,0,0,0-.3-.18l-8.16-.664a.408.408,0,0,0-.422.313l-1.894,7.309a.336.336,0,0,0-.013.048c-.194.852-1.406,1.608-2.821,1.757a4.13,4.13,0,0,1-2.257-.345,1.473,1.473,0,0,1-.916-1.1c-.09-.953,1.211-1.9,2.842-2.076a4.517,4.517,0,0,1,1.707.133,2.937,2.937,0,0,1,.75.326.391.391,0,0,0,.359.029.422.422,0,0,0,.237-.284L68.608,28.1l9.967.811Zm3.911-12.445a.4.4,0,0,0-.3-.18L68.337,27.22a.407.407,0,0,0-.421.314L65.147,38.216a5.063,5.063,0,0,0-2.484-.33c-2.137.225-3.7,1.548-3.567,3.011a2.278,2.278,0,0,0,1.373,1.784,4.062,4.062,0,0,0,.685.267,5.278,5.278,0,0,0,2,.157c1.781-.188,3.219-1.16,3.518-2.371a.257.257,0,0,0,.008-.026l1.815-7,7.338.6-1.078,4.162a5.038,5.038,0,0,0-2.482-.33c-2.139.225-3.705,1.548-3.568,3.011a2.274,2.274,0,0,0,1.372,1.781,4.909,4.909,0,0,0,2.687.427c1.741-.185,3.171-1.132,3.5-2.313a.5.5,0,0,0,.016-.051l3.2-12.355a.45.45,0,0,0-.049-.342l-.011-.017" fill="#fefefe" fillRule="evenodd"/>
    <path id="Path_2899" data-name="Path 2899" d="M75.514,40.722a.258.258,0,0,0-.017.049c-.215.855-1.4,1.582-2.812,1.731a4.127,4.127,0,0,1-2.258-.345,1.468,1.468,0,0,1-.916-1.1c-.089-.952,1.213-1.9,2.843-2.075a3.976,3.976,0,0,1,2.458.457.385.385,0,0,0,.358.029.421.421,0,0,0,.237-.283l1.338-5.159a.452.452,0,0,0-.059-.36.4.4,0,0,0-.3-.18l-8.16-.664a.408.408,0,0,0-.422.313l-1.894,7.309a.336.336,0,0,0-.013.048c-.194.852-1.406,1.608-2.821,1.757a4.13,4.13,0,0,1-2.257-.345,1.473,1.473,0,0,1-.916-1.1c-.09-.953,1.211-1.9,2.842-2.076a4.517,4.517,0,0,1,1.707.133,2.937,2.937,0,0,1,.75.326.391.391,0,0,0,.359.029.422.422,0,0,0,.237-.284L68.608,28.1l9.967.811Zm3.911-12.445a.4.4,0,0,0-.3-.18L68.337,27.22a.407.407,0,0,0-.421.314L65.147,38.216a5.063,5.063,0,0,0-2.484-.33c-2.137.225-3.7,1.548-3.567,3.011a2.278,2.278,0,0,0,1.373,1.784,4.062,4.062,0,0,0,.685.267,5.278,5.278,0,0,0,2,.157c1.781-.188,3.219-1.16,3.518-2.371a.257.257,0,0,0,.008-.026l1.815-7,7.338.6-1.078,4.162a5.038,5.038,0,0,0-2.482-.33c-2.139.225-3.705,1.548-3.568,3.011a2.274,2.274,0,0,0,1.372,1.781,4.909,4.909,0,0,0,2.687.427c1.741-.185,3.171-1.132,3.5-2.313a.5.5,0,0,0,.016-.051l3.2-12.355a.45.45,0,0,0-.049-.342Z" fill="none" stroke="#fefefe" strokeMiterlimit="22.926" strokeWidth="1"/>
  </g>
</svg>
