<?xml version="1.0" encoding="UTF-8"?><svg id="uuid-1cf85d4c-a926-4ecb-b652-a3acca779fef" xmlns="http://www.w3.org/2000/svg" viewBox="0 0 96.06 116.76"><g id="uuid-65040534-cdd2-402e-a713-8052a0fa07d4"><g><path d="M5.92,0H73.14l22.86,22.51V110.84c0,3.25-2.66,5.92-5.92,5.92H5.92c-3.25,0-5.92-2.66-5.92-5.92V5.92C0,2.66,2.66,0,5.92,0Z" style="fill:#a781b9; fill-rule:evenodd;"/><path d="M96.06,22.55l-18.33,.02c-2.52,0-4.58-2.06-4.58-4.59V0l22.92,22.55Z" style="fill:#fff; fill-rule:evenodd;"/><path d="M75.36,89.24v-1.53c.33,0,.65-.12,.94-.34l-.94-1.33v-3.02l.28-.21c.18-.14,.31-.29,.39-.44,.08-.15,.12-.35,.12-.61,0-.23-.06-.42-.19-.58-.13-.16-.28-.24-.45-.24-.05,0-.1,0-.15,.02v-1.55c.05,0,.1,0,.16,0,.63,0,1.14,.22,1.55,.65,.41,.43,.61,.96,.61,1.59,0,.83-.35,1.53-1.05,2.08l-.53,.43,1.23,1.72c.15-.45,.23-.94,.23-1.46h1.57c0,1.23-.24,2.22-.72,2.97l1.24,1.73h-2.11l-.36-.5c-.53,.39-1.14,.6-1.82,.63Zm0-9.84v1.55c-.12,.04-.23,.12-.31,.24-.11,.17-.17,.41-.17,.69,0,.31,.15,.7,.45,1.15l.03-.03v3.02l-.57-.81-.04,.03c-.22,.34-.33,.73-.33,1.17,0,.37,.08,.68,.26,.92,.17,.24,.39,.37,.64,.37h.04v1.53s-.09,0-.14,0c-.81,0-1.45-.25-1.94-.74-.49-.5-.73-1.15-.73-1.97,0-.45,.1-.86,.3-1.23,.2-.37,.59-.78,1.15-1.24-.24-.38-.43-.74-.57-1.08-.14-.34-.21-.69-.21-1.05,0-.75,.21-1.36,.62-1.83,.38-.43,.89-.66,1.51-.7h0Zm-26.65,25.83v-1.62c.34-.08,.59-.23,.76-.45,.26-.34,.4-.92,.41-1.76v-1.66c0-.9-.13-1.52-.37-1.87-.18-.25-.45-.42-.8-.5v-1.64c.85,.1,1.55,.45,2.09,1.03,.67,.71,1,1.68,1.01,2.92v1.55c0,1.26-.33,2.25-.99,2.96-.54,.58-1.24,.93-2.12,1.04h0Zm2.64-17.73h3.39v1.6h-5.33v-9.57h1.93v7.97h0Zm9.46-2.53h-3.01v2.53h3.56v1.6h-5.5v-9.57h5.48v1.62h-3.55v2.26h3.01v1.56h0Zm5.71,1.62c0-.39-.1-.69-.3-.88-.2-.2-.56-.41-1.09-.62-.96-.36-1.65-.79-2.07-1.28-.42-.49-.63-1.07-.63-1.73,0-.81,.29-1.45,.86-1.94,.57-.49,1.3-.73,2.18-.73,.59,0,1.11,.12,1.57,.37,.46,.25,.82,.6,1.06,1.05,.25,.45,.37,.96,.37,1.54h-1.92c0-.45-.09-.79-.29-1.02-.19-.24-.47-.35-.83-.35-.34,0-.6,.1-.79,.3-.19,.2-.28,.47-.28,.81,0,.26,.11,.5,.32,.71,.21,.21,.58,.43,1.12,.66,.93,.34,1.61,.75,2.04,1.24,.42,.49,.63,1.12,.63,1.88,0,.83-.27,1.48-.8,1.95-.53,.47-1.25,.71-2.16,.71-.62,0-1.18-.13-1.69-.38-.51-.26-.91-.62-1.19-1.1-.29-.47-.43-1.03-.43-1.68h1.94c0,.55,.11,.95,.32,1.2,.21,.25,.57,.38,1.05,.38,.68,0,1.01-.36,1.01-1.07h0Zm-11.37,17.07h3.39v1.6h-5.33v-9.57h1.93v7.97h0Zm9.46-2.53h-3.01v2.53h3.56v1.6h-5.5v-9.57h5.48v1.62h-3.55v2.26h3.01v1.56h0Zm5.71,1.62c0-.39-.1-.69-.3-.88-.2-.2-.56-.41-1.09-.62-.96-.36-1.65-.79-2.07-1.28-.42-.49-.63-1.07-.63-1.74,0-.81,.29-1.45,.86-1.94,.57-.49,1.3-.73,2.18-.73,.59,0,1.11,.12,1.57,.37,.46,.25,.81,.6,1.06,1.05,.25,.45,.37,.97,.37,1.54h-1.93c0-.45-.09-.79-.29-1.02-.19-.24-.47-.35-.83-.35-.34,0-.6,.1-.79,.3-.19,.2-.28,.47-.28,.81,0,.26,.11,.5,.32,.71,.21,.21,.58,.43,1.12,.66,.93,.34,1.61,.75,2.04,1.24,.42,.49,.64,1.12,.64,1.88,0,.83-.27,1.48-.8,1.95-.53,.47-1.25,.7-2.16,.7-.62,0-1.18-.13-1.69-.38-.51-.26-.91-.62-1.19-1.1-.29-.47-.43-1.03-.43-1.68h1.94c0,.55,.11,.95,.32,1.2,.22,.25,.57,.38,1.05,.38,.68,0,1.01-.36,1.01-1.07Zm-21.59-7.03v1.64c-.14-.03-.3-.05-.47-.06h-.71v6.36h.58c.22,0,.42-.02,.6-.06v1.62c-.2,.03-.41,.04-.63,.04h-2.48v-9.57h2.53c.2,0,.39,.01,.58,.03h0Zm-7.61,9.5v-1.62c.34-.08,.59-.23,.76-.45,.26-.34,.4-.92,.41-1.76v-1.66c0-.9-.12-1.52-.37-1.87-.18-.25-.45-.42-.8-.5v-1.64c.85,.1,1.55,.45,2.09,1.03,.67,.71,1,1.68,1.01,2.92v1.55c0,1.26-.33,2.25-.99,2.96-.54,.58-1.24,.93-2.12,1.04h0Zm3.18-17.73h3.95v1.6h-6.21v-1.16l3.91-6.8h-3.95v-1.62h6.17v1.14l-3.87,6.83Zm-3.18,8.22v1.64c-.14-.03-.3-.05-.47-.06h-.71v6.36h.58c.22,0,.42-.02,.6-.06v1.62c-.2,.03-.41,.04-.63,.04h-2.48v-9.57h2.53c.2,0,.39,.01,.58,.03h0Zm-11.14,6.46v-2.02c.37,0,.65-.13,.84-.38,.19-.26,.29-.6,.29-1.03,0-.96-.37-1.44-1.12-1.44h0v-1.62h.02c.97,0,1.72,.25,2.24,.75,.53,.5,.79,1.22,.79,2.14,0,1.27-.46,2.17-1.39,2.68l1.68,3.91v.09h-2.08l-1.27-3.08h0Zm0-12.97v-1.65c.15,.05,.34,.08,.56,.08,.46,0,.78-.11,.95-.35,.17-.23,.26-.61,.26-1.14v-6.62h1.93v6.63c0,1-.28,1.76-.82,2.29-.54,.53-1.31,.79-2.32,.79-.2,0-.38,0-.56-.03h0Zm7.18-1.71h3.95v1.6h-6.21v-1.16l3.91-6.8h-3.95v-1.62h6.17v1.14l-3.87,6.83h0Zm-.77,17.76h-1.93v-9.57h1.93v9.57Zm-13.41-25.74h.08c.95,0,1.7,.29,2.27,.88,.56,.59,.84,1.35,.84,2.29s-.28,1.68-.83,2.22c-.56,.54-1.33,.82-2.31,.82h-.05v-1.62h.08c.37,0,.65-.12,.86-.36,.2-.24,.3-.59,.3-1.05s-.1-.86-.31-1.14c-.2-.28-.48-.42-.83-.43h-.1v-1.62h0Zm7,8.03v1.65c-.75-.08-1.35-.34-1.79-.77-.54-.53-.81-1.31-.81-2.32v-6.58h1.95v6.59c0,.54,.09,.93,.26,1.17,.09,.12,.22,.21,.39,.27h0Zm0,8.13v1.62h-1.13v2.85h1.13v2.02l-.17-.41h-.96v3.49h-1.93v-9.57h3.06Zm-8.25-9.95v3.37h-1.93v-9.57h3.18v1.62h-1.24v2.98h1.24v1.62h-1.24Z" style="fill:#1a1a18; fill-rule:evenodd;"/><path d="M48.04,19.86c12.98,0,23.51,9.39,23.51,20.98,0,8.5-5.67,15.83-13.82,19.12l-.81,7-7.94-5.16c-.31,.01-.63,.02-.94,.02-12.98,0-23.51-9.39-23.51-20.98s10.52-20.98,23.51-20.98Z" style="fill:none; fill-rule:evenodd; stroke:#fff; stroke-linecap:round; stroke-linejoin:round; stroke-width:2.5px;"/><path d="M46.57,48.59c-.01-.45-.02-.78-.02-1,0-1.32,.18-2.45,.56-3.4,.27-.73,.71-1.45,1.32-2.18,.45-.53,1.25-1.31,2.41-2.33,1.16-1.03,1.92-1.84,2.27-2.45,.35-.62,.52-1.28,.52-2,0-1.31-.51-2.46-1.53-3.46-1.02-.99-2.27-1.49-3.74-1.49s-2.62,.45-3.58,1.35c-.96,.9-1.58,2.31-1.88,4.23l-3.44-.42c.31-2.55,1.23-4.51,2.76-5.87,1.53-1.36,3.56-2.04,6.08-2.04,2.67,0,4.79,.73,6.38,2.18,1.58,1.46,2.38,3.22,2.38,5.29,0,1.2-.28,2.3-.84,3.3-.56,1.01-1.66,2.23-3.28,3.68-1.09,.97-1.81,1.68-2.14,2.14-.34,.46-.59,.99-.75,1.58-.16,.59-.25,1.56-.28,2.9h-3.21Zm-.61,6.72v-3.82h3.82v3.82h-3.82Z" style="fill:#fff; fill-rule:evenodd;"/></g></g></svg>