<?xml version="1.0" encoding="UTF-8"?><svg id="uuid-57dc3a52-3ec7-44f3-bd47-66ed43f09e63" xmlns="http://www.w3.org/2000/svg" viewBox="0 0 96.06 117.06"><g id="uuid-e93c77ae-38f0-4305-8137-752a7219c24e"><g><path d="M5.92,0H73.14l22.86,22.51V111.14c0,3.25-2.66,5.92-5.92,5.92H5.92c-3.25,0-5.92-2.66-5.92-5.92V5.92C0,2.66,2.66,0,5.92,0Z" style="fill:#8994ca; fill-rule:evenodd;"/><path d="M96.06,22.55l-18.33,.02c-2.52,0-4.59-2.06-4.59-4.59V0l22.92,22.55Z" style="fill:white; fill-rule:evenodd;"/><path d="M39.2,97.41v-1.62h.89l-.89-3.42h0s0-2.59,0-2.59h.89l3.01,9.58h-2.06l-.51-1.95h-1.32Zm9.73-1.95h-3.01v3.91h-1.93v-9.58h5.3v1.62h-3.37v2.45h3.01v1.6h0Zm6.41-.23h-3.01v2.53h3.56v1.6h-5.5v-9.58h5.48v1.62h-3.55v2.26h3.01v1.56h0Zm7.99-3.82h-2.37v7.96h-1.94v-7.96h-2.33v-1.62h6.63v1.62h0Zm4.1,2.68l1.44-4.3h2.1l-2.57,6.1v3.47h-1.96v-3.47l-2.57-6.1h2.1l1.45,4.3Zm-34.72,2.76c0-.39-.1-.69-.3-.88-.2-.2-.56-.41-1.09-.62-.96-.36-1.65-.79-2.07-1.28-.42-.49-.63-1.07-.63-1.74,0-.81,.29-1.45,.86-1.94,.57-.49,1.3-.73,2.18-.73,.59,0,1.11,.12,1.57,.37s.81,.6,1.06,1.05c.25,.45,.37,.97,.37,1.54h-1.93c0-.45-.09-.79-.29-1.02-.19-.24-.47-.35-.83-.35-.34,0-.6,.1-.79,.3-.19,.2-.28,.47-.28,.81,0,.26,.11,.5,.32,.71,.21,.21,.58,.43,1.12,.66,.93,.34,1.61,.75,2.04,1.24,.42,.49,.64,1.12,.64,1.88,0,.83-.27,1.48-.8,1.95-.53,.47-1.25,.71-2.16,.71-.62,0-1.18-.13-1.69-.38-.51-.26-.91-.62-1.19-1.1-.29-.47-.43-1.03-.43-1.68h1.94c0,.55,.11,.95,.32,1.2,.22,.25,.57,.38,1.05,.38,.68,0,1.01-.36,1.01-1.07h0Zm6.48-7.06v2.59l-.89,3.41h.89v1.62h-1.31l-.51,1.95h-2.04l2.99-9.58h.88Z" style="fill:#1a1a18; fill-rule:evenodd;"/><g><path d="M47.98,74.96c7.69,.04,15.53-3.17,21.29-10.3,3.87-4.79,6.83-12.62,5.42-21.07-2.02-12.12-12.59-22.88-26.71-22.69v1.27c7.22-.04,14.29,3.44,17.61,7.07-.85,1.55-2.75,2.21-3.4,3.94l.5,.62c1.8-.7,2.45-2.62,4-3.46,9.07,8.39,9.8,25.47-.5,35.77-5.05,5.05-11.73,7.44-18.21,7.51v1.34Zm-4.09-53.7c-15.18,2.42-25,16.37-22.57,31,2.35,14.16,14.31,22.63,26.66,22.7v-1.34c-6.76,.07-13.31-2.39-17.56-7.01,1-1.83,3.83-3.22,4.55-5.09l-.51-.62c-1.93,.79-3.31,3.61-5.14,4.61-3.72-3.41-7.28-10.75-7.06-18.16,.42-13.83,11.35-24.76,25.17-25.17,.18,0,.37,0,.55,0v-1.27c-1.33,.02-2.7,.13-4.09,.35Z" style="fill:#fff; fill-rule:evenodd;"/><path d="M43.89,21.26c-15.18,2.42-25,16.37-22.57,31,3.82,22.97,32.93,30.98,47.95,12.4,3.87-4.79,6.83-12.62,5.42-21.07-2.21-13.26-14.66-24.91-30.8-22.33h0Zm-14.57,44.25c1.83-1,3.21-3.82,5.14-4.61l.51,.62c-.72,1.87-3.56,3.26-4.55,5.09,8.32,9.04,25.45,9.83,35.77-.5,10.3-10.3,9.57-27.38,.5-35.77-1.55,.84-2.21,2.76-4,3.46l-.5-.62c.65-1.74,2.55-2.39,3.4-3.94-3.41-3.72-10.76-7.28-18.16-7.06-13.82,.41-24.75,11.34-25.17,25.17-.22,7.41,3.34,14.75,7.06,18.16Z" style="fill:none; fill-rule:evenodd; stroke:#fff; stroke-linecap:round; stroke-linejoin:round; stroke-width:.75px;"/></g><path d="M44.61,30.28c-1.16-.58-2.49-.7-3.61,.15-1.64,1.25-1.11,5.39-1.11,8.44v2.42c-6.67-2.44-5.2,5.44-5.19,12.3,0,7.28,6.11,4.68,6.1,11.61,0,.77-.06,2.25,1.02,1.26,.66-.6,.54-4.23-1.43-6.38-4.42-4.85-4.36,.07-4.35-14.42,0-1.5-.17-2.76,1.01-3.34,3.95-1.94,2.7,5.74,2.91,7.42l1.15,.07c.48-3.1-.36-16.41,.3-17.84,.65-1.42,2.47-.96,2.92,.08,.33,.76,.16,9.33,.14,11.06-.03,2.19,.12,1.85,.71,2.11,1-.48,.62,.09,.61-3.82,0-1.51,0-3.02,0-4.53,0-2.07-.86-6.99,1.66-7,2.61,0,1.66,7.16,1.66,11.25l.05,3.39c.29,.87-.21,.34,.55,.72,.96-.42,.71,.81,.69-3.54,0-1.41,0-2.83,0-4.25,0-2.16-.85-6.55,1.85-6.3,2.29,.22,1.42,5.01,1.42,6.86,0,2.81-.06,5.67,.02,8.48,1.81,0,1.32,.41,1.32-5.93,0-1.68-.52-4.96,.37-6.16,1.11-1.78,2.87-.69,2.87,1.63v18.4c0,6.37-2.96,3.29-2.87,10.49l.2,1.5s.04,.14,.08,.2h.85c.82-1.38-.54-3.67,1.18-6.19,1.21-1.77,1.92-2.47,1.92-5.43v-19.25c0-3.14-1.85-3.8-4.63-3.12-.34-2.48-2.32-3.54-4.7-2.35-.81-.88-1.06-1.71-2.83-1.71-1.76,0-2.02,.85-2.83,1.7Z" style="fill:#fff; fill-rule:evenodd; stroke:#fff; stroke-linecap:round; stroke-linejoin:round; stroke-width:.75px;"/></g></g></svg>