<svg id="Group_2429" data-name="Group 2429" xmlns="http://www.w3.org/2000/svg" xmlns:xlink="http://www.w3.org/1999/xlink" width="96.06" height="117.061" viewBox="0 0 96.06 117.061">
  <defs>
    <clipPath id="clip-path">
      <rect id="Rectangle_1553" data-name="Rectangle 1553" width="96.06" height="117.06" fill="none"/>
    </clipPath>
  </defs>
  <g id="Group_2428" data-name="Group 2428" clipPath="url(#clip-path)">
    <path id="Path_2907" data-name="Path 2907" d="M5.915,0H73.141L96,22.507v88.637a5.933,5.933,0,0,1-5.915,5.916H5.915A5.933,5.933,0,0,1,0,111.144V5.915A5.933,5.933,0,0,1,5.915,0" fill="#d4bb4e" fillRule="evenodd"/>
    <path id="Path_2908" data-name="Path 2908" d="M96.06,22.546l-18.335.024a4.6,4.6,0,0,1-4.586-4.586V0Z" fill="#fff" fillRule="evenodd"/>
    <path id="Path_2909" data-name="Path 2909" d="M30.3,85.795a1.479,1.479,0,0,0-.388-1.1,4,4,0,0,0-1.4-.742,6.1,6.1,0,0,1-1.549-.759,2.672,2.672,0,0,1-.8-.909,2.691,2.691,0,0,1,.493-3.043,2.731,2.731,0,0,1,1.989-.737,2.967,2.967,0,0,1,1.5.377,2.581,2.581,0,0,1,1.012,1.049,3.1,3.1,0,0,1,.355,1.472H30.3a2.011,2.011,0,0,0-.426-1.374,1.55,1.55,0,0,0-1.23-.487,1.514,1.514,0,0,0-1.131.409,1.563,1.563,0,0,0-.4,1.145,1.331,1.331,0,0,0,.436,1.013,3.8,3.8,0,0,0,1.339.733A4.612,4.612,0,0,1,30.912,84a2.59,2.59,0,0,1,.608,1.791,2.414,2.414,0,0,1-.757,1.865,2.9,2.9,0,0,1-2.058.7,3.3,3.3,0,0,1-1.542-.366,2.774,2.774,0,0,1-1.111-1.027,2.863,2.863,0,0,1-.4-1.518h1.209a1.857,1.857,0,0,0,.5,1.38,1.826,1.826,0,0,0,1.351.5,1.608,1.608,0,0,0,1.2-.409,1.517,1.517,0,0,0,.4-1.111m8.5-7.153v6.807a2.947,2.947,0,1,1-5.885,0V78.642h1.2V85.4a2.167,2.167,0,0,0,.413,1.442,2.086,2.086,0,0,0,2.655,0A2.162,2.162,0,0,0,37.6,85.4V78.642Zm1.851,9.575V78.642h2.729a2.738,2.738,0,0,1,1.969.637,2.536,2.536,0,0,1,.662,1.913,2.109,2.109,0,0,1-.337,1.183,2.249,2.249,0,0,1-.906.794,1.817,1.817,0,0,1,1.041.808,2.7,2.7,0,0,1,.386,1.474,2.813,2.813,0,0,1-.707,2.03,2.665,2.665,0,0,1-2.015.736Zm1.2-4.485V87.18h1.646a1.381,1.381,0,0,0,1.084-.451,1.844,1.844,0,0,0,.4-1.266q0-1.731-1.461-1.731Zm0-1.01h1.547a1.3,1.3,0,0,0,1.008-.419,1.928,1.928,0,0,0,.035-2.265,1.415,1.415,0,0,0-1.064-.359H41.862Zm9.442-4.08h1.21v6.782a3.093,3.093,0,0,1-.7,2.151,2.411,2.411,0,0,1-1.885.776,2.443,2.443,0,0,1-1.893-.736,2.893,2.893,0,0,1-.677-2.038h1.2a2.024,2.024,0,0,0,.361,1.278,1.21,1.21,0,0,0,1.006.46,1.188,1.188,0,0,0,1-.5,2.294,2.294,0,0,0,.374-1.4ZM59.1,83.8H55.715v3.38h3.946v1.037H54.512V78.642H59.6v1.037h-3.88v3.084H59.1Zm8.1,1.371a3.558,3.558,0,0,1-.864,2.359,2.928,2.928,0,0,1-2.22.821,2.742,2.742,0,0,1-2.287-1.1,4.735,4.735,0,0,1-.848-2.972V82.547a4.586,4.586,0,0,1,.87-2.953,2.884,2.884,0,0,1,2.377-1.087,2.757,2.757,0,0,1,2.146.83,3.64,3.64,0,0,1,.826,2.377H65.985a2.938,2.938,0,0,0-.494-1.67,1.538,1.538,0,0,0-1.261-.5,1.718,1.718,0,0,0-1.506.766,3.969,3.969,0,0,0-.525,2.244v1.755a4.184,4.184,0,0,0,.489,2.229,1.588,1.588,0,0,0,1.43.777,1.731,1.731,0,0,0,1.356-.467,2.94,2.94,0,0,0,.511-1.677Zm7.034-5.492H71.718v8.538h-1.2V79.679H68V78.642h6.233Zm-47.323,18.3v3.743h-1.2V92.144h3.053a2.763,2.763,0,0,1,2.1.8,2.96,2.96,0,0,1,.763,2.13A2.919,2.919,0,0,1,30.9,97.2a2.811,2.811,0,0,1-2.047.775Zm0-1.037h1.85a1.564,1.564,0,0,0,1.23-.48,2.022,2.022,0,0,0,.426-1.376,2.06,2.06,0,0,0-.44-1.381,1.5,1.5,0,0,0-1.21-.52H26.913Zm12.493.835a4.788,4.788,0,0,1-.835,3.021,2.846,2.846,0,0,1-2.374,1.059,2.881,2.881,0,0,1-2.339-1.03,4.564,4.564,0,0,1-.891-2.911v-1.8a4.787,4.787,0,0,1,.848-3.011,3.149,3.149,0,0,1,4.724-.045,4.694,4.694,0,0,1,.867,2.975ZM38.2,96.1a4.1,4.1,0,0,0-.5-2.258,1.908,1.908,0,0,0-3.023.011,3.961,3.961,0,0,0-.516,2.209v1.715a4.028,4.028,0,0,0,.51,2.233,1.913,1.913,0,0,0,3.021.061,3.985,3.985,0,0,0,.5-2.175Zm7.246,3.2a1.476,1.476,0,0,0-.389-1.1,3.984,3.984,0,0,0-1.4-.743,6.071,6.071,0,0,1-1.549-.758,2.672,2.672,0,0,1-.8-.909,2.691,2.691,0,0,1,.494-3.044,2.727,2.727,0,0,1,1.988-.736,2.967,2.967,0,0,1,1.5.377A2.588,2.588,0,0,1,46.3,93.434a3.117,3.117,0,0,1,.355,1.472h-1.21a2.009,2.009,0,0,0-.427-1.373,1.55,1.55,0,0,0-1.23-.487,1.514,1.514,0,0,0-1.131.409,1.562,1.562,0,0,0-.4,1.144,1.333,1.333,0,0,0,.436,1.014,3.8,3.8,0,0,0,1.34.732A4.624,4.624,0,0,1,46.054,97.5a2.589,2.589,0,0,1,.608,1.791,2.416,2.416,0,0,1-.756,1.865,2.908,2.908,0,0,1-2.059.7,3.3,3.3,0,0,1-1.542-.366,2.774,2.774,0,0,1-1.11-1.028,2.858,2.858,0,0,1-.4-1.517H42a1.856,1.856,0,0,0,.5,1.38,1.832,1.832,0,0,0,1.351.494,1.608,1.608,0,0,0,1.2-.408,1.518,1.518,0,0,0,.4-1.111m8.389-6.116H51.317v8.537h-1.2V93.181H47.6V92.144h6.232Zm6,4.12H56.452v3.381H60.4v1.036H55.249V92.144h5.084v1.037H56.452v3.084h3.387Zm4.991.553H63.147v3.864H61.938V92.144h2.681a2.865,2.865,0,0,1,2.131.733,2.946,2.946,0,0,1,.724,2.151,3,3,0,0,1-.392,1.551,2.481,2.481,0,0,1-1.107,1l1.854,4.062v.078h-1.3Zm-1.683-1.037h1.459a1.566,1.566,0,0,0,1.208-.487,1.847,1.847,0,0,0,.448-1.3q0-1.847-1.669-1.845H63.147ZM73.265,99.3a1.479,1.479,0,0,0-.388-1.1,3.981,3.981,0,0,0-1.4-.743,6.088,6.088,0,0,1-1.549-.758,2.682,2.682,0,0,1-.8-.909,2.691,2.691,0,0,1,.494-3.044,2.729,2.729,0,0,1,1.989-.736,2.967,2.967,0,0,1,1.5.377,2.579,2.579,0,0,1,1.012,1.048,3.106,3.106,0,0,1,.355,1.472h-1.21a2.014,2.014,0,0,0-.426-1.373,1.551,1.551,0,0,0-1.23-.487,1.516,1.516,0,0,0-1.132.409,1.562,1.562,0,0,0-.4,1.144,1.336,1.336,0,0,0,.435,1.014,3.8,3.8,0,0,0,1.34.732A4.618,4.618,0,0,1,73.873,97.5a2.584,2.584,0,0,1,.609,1.791,2.417,2.417,0,0,1-.757,1.865,2.907,2.907,0,0,1-2.058.7,3.293,3.293,0,0,1-1.542-.366,2.777,2.777,0,0,1-1.111-1.028,2.858,2.858,0,0,1-.4-1.517h1.21a1.856,1.856,0,0,0,.5,1.38,1.829,1.829,0,0,0,1.351.494,1.611,1.611,0,0,0,1.2-.408,1.517,1.517,0,0,0,.4-1.111" fill="#2b2a29" fillRule="evenodd"/>
    <path id="Path_2910" data-name="Path 2910" d="M30.3,85.795a1.479,1.479,0,0,0-.388-1.1,4,4,0,0,0-1.4-.742,6.1,6.1,0,0,1-1.549-.759,2.672,2.672,0,0,1-.8-.909,2.691,2.691,0,0,1,.493-3.043,2.731,2.731,0,0,1,1.989-.737,2.967,2.967,0,0,1,1.5.377,2.581,2.581,0,0,1,1.012,1.049,3.1,3.1,0,0,1,.355,1.472H30.3a2.011,2.011,0,0,0-.426-1.374,1.55,1.55,0,0,0-1.23-.487,1.514,1.514,0,0,0-1.131.409,1.563,1.563,0,0,0-.4,1.145,1.331,1.331,0,0,0,.436,1.013,3.8,3.8,0,0,0,1.339.733A4.612,4.612,0,0,1,30.912,84a2.59,2.59,0,0,1,.608,1.791,2.414,2.414,0,0,1-.757,1.865,2.9,2.9,0,0,1-2.058.7,3.3,3.3,0,0,1-1.542-.366,2.774,2.774,0,0,1-1.111-1.027,2.863,2.863,0,0,1-.4-1.518h1.209a1.857,1.857,0,0,0,.5,1.38,1.826,1.826,0,0,0,1.351.5,1.608,1.608,0,0,0,1.2-.409A1.517,1.517,0,0,0,30.3,85.795Zm8.5-7.153v6.807a2.947,2.947,0,1,1-5.885,0V78.642h1.2V85.4a2.167,2.167,0,0,0,.413,1.442,2.086,2.086,0,0,0,2.655,0A2.162,2.162,0,0,0,37.6,85.4V78.642Zm1.851,9.575V78.642h2.729a2.738,2.738,0,0,1,1.969.637,2.536,2.536,0,0,1,.662,1.913,2.109,2.109,0,0,1-.337,1.183,2.249,2.249,0,0,1-.906.794,1.817,1.817,0,0,1,1.041.808,2.7,2.7,0,0,1,.386,1.474,2.813,2.813,0,0,1-.707,2.03,2.665,2.665,0,0,1-2.015.736Zm1.2-4.485V87.18h1.646a1.381,1.381,0,0,0,1.084-.451,1.844,1.844,0,0,0,.4-1.266q0-1.731-1.461-1.731Zm0-1.01h1.547a1.3,1.3,0,0,0,1.008-.419,1.928,1.928,0,0,0,.035-2.265,1.415,1.415,0,0,0-1.064-.359H41.862Zm9.442-4.08h1.21v6.782a3.093,3.093,0,0,1-.7,2.151,2.411,2.411,0,0,1-1.885.776,2.443,2.443,0,0,1-1.893-.736,2.893,2.893,0,0,1-.677-2.038h1.2a2.024,2.024,0,0,0,.361,1.278,1.21,1.21,0,0,0,1.006.46,1.188,1.188,0,0,0,1-.5,2.294,2.294,0,0,0,.374-1.4ZM59.1,83.8H55.715v3.38h3.946v1.037H54.512V78.642H59.6v1.037h-3.88v3.084H59.1Zm8.1,1.371a3.558,3.558,0,0,1-.864,2.359,2.928,2.928,0,0,1-2.22.821,2.742,2.742,0,0,1-2.287-1.1,4.735,4.735,0,0,1-.848-2.972V82.547a4.586,4.586,0,0,1,.87-2.953,2.884,2.884,0,0,1,2.377-1.087,2.757,2.757,0,0,1,2.146.83,3.64,3.64,0,0,1,.826,2.377H65.985a2.938,2.938,0,0,0-.494-1.67,1.538,1.538,0,0,0-1.261-.5,1.718,1.718,0,0,0-1.506.766,3.969,3.969,0,0,0-.525,2.244v1.755a4.184,4.184,0,0,0,.489,2.229,1.588,1.588,0,0,0,1.43.777,1.731,1.731,0,0,0,1.356-.467,2.94,2.94,0,0,0,.511-1.677Zm7.034-5.492H71.718v8.538h-1.2V79.679H68V78.642h6.233Zm-47.323,18.3v3.743h-1.2V92.144h3.053a2.763,2.763,0,0,1,2.1.8,2.96,2.96,0,0,1,.763,2.13A2.919,2.919,0,0,1,30.9,97.2a2.811,2.811,0,0,1-2.047.775Zm0-1.037h1.85a1.564,1.564,0,0,0,1.23-.48,2.022,2.022,0,0,0,.426-1.376,2.06,2.06,0,0,0-.44-1.381,1.5,1.5,0,0,0-1.21-.52H26.913Zm12.493.835a4.788,4.788,0,0,1-.835,3.021,2.846,2.846,0,0,1-2.374,1.059,2.881,2.881,0,0,1-2.339-1.03,4.564,4.564,0,0,1-.891-2.911v-1.8a4.787,4.787,0,0,1,.848-3.011,3.149,3.149,0,0,1,4.724-.045,4.694,4.694,0,0,1,.867,2.975ZM38.2,96.1a4.1,4.1,0,0,0-.5-2.258,1.908,1.908,0,0,0-3.023.011,3.961,3.961,0,0,0-.516,2.209v1.715a4.028,4.028,0,0,0,.51,2.233,1.913,1.913,0,0,0,3.021.061,3.985,3.985,0,0,0,.5-2.175Zm7.246,3.2a1.476,1.476,0,0,0-.389-1.1,3.984,3.984,0,0,0-1.4-.743,6.071,6.071,0,0,1-1.549-.758,2.672,2.672,0,0,1-.8-.909,2.691,2.691,0,0,1,.494-3.044,2.727,2.727,0,0,1,1.988-.736,2.967,2.967,0,0,1,1.5.377A2.588,2.588,0,0,1,46.3,93.434a3.117,3.117,0,0,1,.355,1.472h-1.21a2.009,2.009,0,0,0-.427-1.373,1.55,1.55,0,0,0-1.23-.487,1.514,1.514,0,0,0-1.131.409,1.562,1.562,0,0,0-.4,1.144,1.333,1.333,0,0,0,.436,1.014,3.8,3.8,0,0,0,1.34.732A4.624,4.624,0,0,1,46.054,97.5a2.589,2.589,0,0,1,.608,1.791,2.416,2.416,0,0,1-.756,1.865,2.908,2.908,0,0,1-2.059.7,3.3,3.3,0,0,1-1.542-.366,2.774,2.774,0,0,1-1.11-1.028,2.858,2.858,0,0,1-.4-1.517H42a1.856,1.856,0,0,0,.5,1.38,1.832,1.832,0,0,0,1.351.494,1.608,1.608,0,0,0,1.2-.408A1.518,1.518,0,0,0,45.446,99.3Zm8.389-6.116H51.317v8.537h-1.2V93.181H47.6V92.144h6.232Zm6,4.12H56.452v3.381H60.4v1.036H55.249V92.144h5.084v1.037H56.452v3.084h3.387Zm4.991.553H63.147v3.864H61.938V92.144h2.681a2.865,2.865,0,0,1,2.131.733,2.946,2.946,0,0,1,.724,2.151,3,3,0,0,1-.392,1.551,2.481,2.481,0,0,1-1.107,1l1.854,4.062v.078h-1.3Zm-1.683-1.037h1.459a1.566,1.566,0,0,0,1.208-.487,1.847,1.847,0,0,0,.448-1.3q0-1.847-1.669-1.845H63.147ZM73.265,99.3a1.479,1.479,0,0,0-.388-1.1,3.981,3.981,0,0,0-1.4-.743,6.088,6.088,0,0,1-1.549-.758,2.682,2.682,0,0,1-.8-.909,2.691,2.691,0,0,1,.494-3.044,2.729,2.729,0,0,1,1.989-.736,2.967,2.967,0,0,1,1.5.377,2.579,2.579,0,0,1,1.012,1.048,3.106,3.106,0,0,1,.355,1.472h-1.21a2.014,2.014,0,0,0-.426-1.373,1.551,1.551,0,0,0-1.23-.487,1.516,1.516,0,0,0-1.132.409,1.562,1.562,0,0,0-.4,1.144,1.336,1.336,0,0,0,.435,1.014,3.8,3.8,0,0,0,1.34.732A4.618,4.618,0,0,1,73.873,97.5a2.584,2.584,0,0,1,.609,1.791,2.417,2.417,0,0,1-.757,1.865,2.907,2.907,0,0,1-2.058.7,3.293,3.293,0,0,1-1.542-.366,2.777,2.777,0,0,1-1.111-1.028,2.858,2.858,0,0,1-.4-1.517h1.21a1.856,1.856,0,0,0,.5,1.38,1.829,1.829,0,0,0,1.351.494,1.611,1.611,0,0,0,1.2-.408A1.517,1.517,0,0,0,73.265,99.3Z" fill="none" stroke="#000" strokeMiterlimit="10" strokeWidth="0.5"/>
    <path id="Path_2911" data-name="Path 2911" d="M59.09,35.8H32.57a.825.825,0,0,0,0,1.649H59.09a.825.825,0,0,0,0-1.649" fill="#fff" fillRule="evenodd"/>
    <path id="Path_2912" data-name="Path 2912" d="M59.09,35.8H32.57a.825.825,0,0,0,0,1.649H59.09A.825.825,0,0,0,59.09,35.8Z" fill="none" stroke="#fff" strokeMiterlimit="22.926" strokeWidth="0.5"/>
    <path id="Path_2913" data-name="Path 2913" d="M59.09,43.318H32.57a.824.824,0,0,0,0,1.648H59.09a.825.825,0,0,0,0-1.649" fill="#fff" fillRule="evenodd"/>
    <path id="Path_2914" data-name="Path 2914" d="M59.09,43.318H32.57a.824.824,0,0,0,0,1.648H59.09A.825.825,0,0,0,59.09,43.318Z" fill="none" stroke="#fff" strokeMiterlimit="22.926" strokeWidth="0.5"/>
    <path id="Path_2915" data-name="Path 2915" d="M59.09,50.84H32.57a.824.824,0,0,0,0,1.648H59.09a.824.824,0,0,0,0-1.648" fill="#fff" fillRule="evenodd"/>
    <path id="Path_2916" data-name="Path 2916" d="M59.09,50.84H32.57a.824.824,0,0,0,0,1.648H59.09A.824.824,0,0,0,59.09,50.84Z" fill="none" stroke="#fff" strokeMiterlimit="22.926" strokeWidth="0.5"/>
    <path id="Path_2917" data-name="Path 2917" d="M59.09,58.359H32.57a.825.825,0,0,0,0,1.65H59.09a.826.826,0,0,0,0-1.65" fill="#fff" fillRule="evenodd"/>
    <path id="Path_2918" data-name="Path 2918" d="M59.09,58.359H32.57a.825.825,0,0,0,0,1.65H59.09A.826.826,0,0,0,59.09,58.359Z" fill="none" stroke="#fff" strokeMiterlimit="22.926" strokeWidth="0.5"/>
    <path id="Path_2919" data-name="Path 2919" d="M32.014,29.1a1.239,1.239,0,1,1,1.237,1.237A1.24,1.24,0,0,1,32.014,29.1m3.356,0a2.117,2.117,0,1,0-2.119,2.117A2.123,2.123,0,0,0,35.37,29.1" fill="#fff" fillRule="evenodd"/>
    <path id="Path_2920" data-name="Path 2920" d="M32.014,29.1a1.239,1.239,0,1,1,1.237,1.237A1.24,1.24,0,0,1,32.014,29.1Zm3.356,0a2.117,2.117,0,1,0-2.119,2.117A2.123,2.123,0,0,0,35.37,29.1Z" fill="none" stroke="#fff" strokeMiterlimit="22.926" strokeWidth="0.5"/>
    <path id="Path_2921" data-name="Path 2921" d="M39.542,27.863A1.239,1.239,0,1,1,38.3,29.1a1.244,1.244,0,0,1,1.245-1.239m0,3.356A2.118,2.118,0,1,0,37.416,29.1a2.119,2.119,0,0,0,2.126,2.117" fill="#fff" fillRule="evenodd"/>
    <path id="Path_2922" data-name="Path 2922" d="M39.542,27.863A1.239,1.239,0,1,1,38.3,29.1,1.244,1.244,0,0,1,39.542,27.863Zm0,3.356A2.118,2.118,0,1,0,37.416,29.1,2.119,2.119,0,0,0,39.542,31.219Z" fill="none" stroke="#fff" strokeMiterlimit="22.926" strokeWidth="0.5"/>
    <path id="Path_2923" data-name="Path 2923" d="M45.835,27.863A1.239,1.239,0,1,1,44.59,29.1a1.232,1.232,0,0,1,1.245-1.239m0,3.356A2.118,2.118,0,1,0,43.709,29.1a2.119,2.119,0,0,0,2.126,2.117" fill="#fff" fillRule="evenodd"/>
    <path id="Path_2924" data-name="Path 2924" d="M45.835,27.863A1.239,1.239,0,1,1,44.59,29.1,1.232,1.232,0,0,1,45.835,27.863Zm0,3.356A2.118,2.118,0,1,0,43.709,29.1,2.119,2.119,0,0,0,45.835,31.219Z" fill="none" stroke="#fff" strokeMiterlimit="22.926" strokeWidth="0.5"/>
    <path id="Path_2925" data-name="Path 2925" d="M52.127,27.863A1.239,1.239,0,1,1,50.882,29.1a1.241,1.241,0,0,1,1.245-1.239m0,3.356A2.118,2.118,0,1,0,50,29.1a2.119,2.119,0,0,0,2.126,2.117" fill="#fff" fillRule="evenodd"/>
    <path id="Path_2926" data-name="Path 2926" d="M52.127,27.863A1.239,1.239,0,1,1,50.882,29.1,1.241,1.241,0,0,1,52.127,27.863Zm0,3.356A2.118,2.118,0,1,0,50,29.1,2.119,2.119,0,0,0,52.127,31.219Z" fill="none" stroke="#fff" strokeMiterlimit="22.926" strokeWidth="0.5"/>
    <path id="Path_2927" data-name="Path 2927" d="M58.4,27.863A1.238,1.238,0,1,1,57.174,29.1,1.244,1.244,0,0,1,58.4,27.863M56.294,29.1a2.118,2.118,0,1,0,2.11-2.119,2.118,2.118,0,0,0-2.11,2.119" fill="#fff" fillRule="evenodd"/>
    <path id="Path_2928" data-name="Path 2928" d="M58.4,27.863A1.238,1.238,0,1,1,57.174,29.1,1.244,1.244,0,0,1,58.4,27.863ZM56.294,29.1a2.118,2.118,0,1,0,2.11-2.119A2.118,2.118,0,0,0,56.294,29.1Z" fill="none" stroke="#fff" strokeMiterlimit="22.926" strokeWidth="0.5"/>
    <path id="Path_2929" data-name="Path 2929" d="M67.955,27.913c-5.355.109-9.634-2.054-11.438-5.766a5.04,5.04,0,0,1-.349-.944l-.056-.191-.168-.089a5.548,5.548,0,0,1-1.776-1.391c-1.467-1.751-1.2-3.826-.741-5.624a.3.3,0,0,1,.308-.256.444.444,0,0,1,.125.017.374.374,0,0,1,.308.461c-.391,1.544-.657,2.937.2,4.352a4.587,4.587,0,0,0,.825,1l.713.658.028-.975a4.424,4.424,0,0,1,1.356-3.494,2.751,2.751,0,0,1,2.433-.356,2.369,2.369,0,0,1,2,2.465,3.8,3.8,0,0,1-2.8,3.581,3.923,3.923,0,0,1-1.146.081l-.783-.053.364.7c2.488,4.7,8.249,5.1,10.612,5.055h.014a.326.326,0,0,1,.335.359.372.372,0,0,1-.363.411M65.2,66.181V28.638c-4.391-.575-7.83-2.747-9.466-6.09H27.483V66.181Zm0-43.633H58.684A9.615,9.615,0,0,0,65.2,26.084Zm2.754,3.715c-.391.009-.88,0-1.426-.033v-5H61.006A4.9,4.9,0,0,0,62.6,17.789a3.271,3.271,0,0,0-2.671-3.327,3.612,3.612,0,0,0-3.174.511,4.783,4.783,0,0,0-1.622,3.1c0-.013-.014-.024-.014-.035-.671-1.128-.461-2.288-.1-3.687a1.249,1.249,0,0,0-.937-1.53,1.2,1.2,0,0,0-1.51.877c-.476,1.9-.811,4.337.923,6.4a6.659,6.659,0,0,0,1.245,1.13H26.165V67.5H66.529V28.764c.35.02.7.031,1.063.031l.377,0A1.246,1.246,0,0,0,69.2,27.486a1.209,1.209,0,0,0-1.245-1.223" fill="#fff" fillRule="evenodd"/>
    <path id="Path_2930" data-name="Path 2930" d="M67.955,27.913c-5.355.109-9.634-2.054-11.438-5.766a5.04,5.04,0,0,1-.349-.944l-.056-.191-.168-.089a5.548,5.548,0,0,1-1.776-1.391c-1.467-1.751-1.2-3.826-.741-5.624a.3.3,0,0,1,.308-.256.444.444,0,0,1,.125.017.374.374,0,0,1,.308.461c-.391,1.544-.657,2.937.2,4.352a4.587,4.587,0,0,0,.825,1l.713.658.028-.975a4.424,4.424,0,0,1,1.356-3.494,2.751,2.751,0,0,1,2.433-.356,2.369,2.369,0,0,1,2,2.465,3.8,3.8,0,0,1-2.8,3.581,3.923,3.923,0,0,1-1.146.081l-.783-.053.364.7c2.488,4.7,8.249,5.1,10.612,5.055h.014a.326.326,0,0,1,.335.359A.372.372,0,0,1,67.955,27.913ZM65.2,66.181V28.638c-4.391-.575-7.83-2.747-9.466-6.09H27.483V66.181Zm0-43.633H58.684A9.615,9.615,0,0,0,65.2,26.084Zm2.754,3.715c-.391.009-.88,0-1.426-.033v-5H61.006A4.9,4.9,0,0,0,62.6,17.789a3.271,3.271,0,0,0-2.671-3.327,3.612,3.612,0,0,0-3.174.511,4.783,4.783,0,0,0-1.622,3.1c0-.013-.014-.024-.014-.035-.671-1.128-.461-2.288-.1-3.687a1.249,1.249,0,0,0-.937-1.53,1.2,1.2,0,0,0-1.51.877c-.476,1.9-.811,4.337.923,6.4a6.659,6.659,0,0,0,1.245,1.13H26.165V67.5H66.529V28.764c.35.02.7.031,1.063.031l.377,0A1.246,1.246,0,0,0,69.2,27.486,1.209,1.209,0,0,0,67.955,26.263Z" fill="none" stroke="#fff" strokeMiterlimit="22.926" strokeWidth="0.5"/>
    <path id="Path_2931" data-name="Path 2931" d="M57.427,19.74a3.028,3.028,0,0,1,.1-1.567A1.366,1.366,0,0,1,60.139,18c.126.487-.182,1.011-.881,1.471a2.267,2.267,0,0,1-1.831.265m2.321.47c1.454-.962,1.342-2.027,1.229-2.441a2.234,2.234,0,0,0-4.278.1,3.936,3.936,0,0,0-.07,2.323l.056.24.238.077a3.567,3.567,0,0,0,1.147.192,3.067,3.067,0,0,0,1.678-.49" fill="#fff" fillRule="evenodd"/>
    <path id="Path_2932" data-name="Path 2932" d="M57.427,19.74a3.028,3.028,0,0,1,.1-1.567A1.366,1.366,0,0,1,60.139,18c.126.487-.182,1.011-.881,1.471A2.267,2.267,0,0,1,57.427,19.74Zm2.321.47c1.454-.962,1.342-2.027,1.229-2.441a2.234,2.234,0,0,0-4.278.1,3.936,3.936,0,0,0-.07,2.323l.056.24.238.077a3.567,3.567,0,0,0,1.147.192A3.067,3.067,0,0,0,59.748,20.21Z" fill="none" stroke="#fff" strokeMiterlimit="22.926" strokeWidth="0.5"/>
  </g>
</svg>
