<svg xmlns="http://www.w3.org/2000/svg" width="448" height="448.008" viewBox="0 0 448 448.008">
  <path id="noun-resize-1466015" d="M178.25,70H378a14,14,0,0,1,14,14V308a14,14,0,0,1-14,14H154a14,14,0,0,1-14-14V108.25A28,28,0,1,1,178.254,70ZM168,108.254V294H364V98H178.246a28.119,28.119,0,0,1-10.254,10.254ZM553,434a7,7,0,1,1,7-7A7,7,0,0,1,553,434Zm0-42a7,7,0,1,1,7-7A7,7,0,0,1,553,392Zm0-42a7,7,0,1,1,7-7A7,7,0,0,1,553,350Zm0-42a7,7,0,1,1,7-7A7,7,0,0,1,553,308Zm0-42a7,7,0,1,1,7-7A7,7,0,0,1,553,266Zm0-42a7,7,0,1,1,7-7A7,7,0,0,1,553,224Zm0-42a7,7,0,1,1,7-7A7,7,0,0,1,553,182Zm0-42a7,7,0,1,1,7-7A7,7,0,0,1,553,140ZM497,84a7,7,0,1,1,7-7A7,7,0,0,1,497,84Zm-42,0a7,7,0,1,1,7-7A7,7,0,0,1,455,84Zm-42,0a7,7,0,1,1,7-7A7,7,0,0,1,413,84Zm84,406a7,7,0,1,1,7-7A7,7,0,0,1,497,490Zm-42,0a7,7,0,1,1,7-7A7,7,0,0,1,455,490Zm-42,0a7,7,0,1,1,7-7A7,7,0,0,1,413,490Zm-42,0a7,7,0,1,1,7-7A7,7,0,0,1,371,490Zm-42,0a7,7,0,1,1,7-7A7,7,0,0,1,329,490Zm-42,0a7,7,0,1,1,7-7A7,7,0,0,1,287,490Zm-42,0a7,7,0,1,1,7-7A7,7,0,0,1,245,490Zm-42,0a7,7,0,1,1,7-7A7,7,0,0,1,203,490Zm-56-56a7,7,0,1,1,7-7A7,7,0,0,1,147,434Zm0-42a7,7,0,1,1,7-7A7,7,0,0,1,147,392Zm0-42a7,7,0,1,1,7-7A7,7,0,0,1,147,350ZM546,504a28,28,0,1,1,28-28A28,28,0,0,1,546,504Zm0-14a14,14,0,1,0-14-14A14,14,0,0,0,546,490ZM154,504a28,28,0,1,1,28-28A28,28,0,0,1,154,504Zm0-14a14,14,0,1,0-14-14A14,14,0,0,0,154,490ZM546,112a28,28,0,1,1,28-28A28,28,0,0,1,546,112Zm0-14a14,14,0,1,0-14-14A14,14,0,0,0,546,98ZM154,98a14,14,0,1,0-14-14A14,14,0,0,0,154,98ZM466.1,406l-65.051-65.051a7,7,0,0,1,9.9-9.9l65.051,65.051V343a7,7,0,1,1,14,0v70a7,7,0,0,1-7,7h-70a7,7,0,0,1,0-14Z" transform="translate(-125.996 -55.996)" fillRule="evenodd"/>
</svg>
