<svg xmlns="http://www.w3.org/2000/svg" width="465.936" height="476.876" viewBox="0 0 465.936 476.876">
  <g id="Group_1727" data-name="Group 1727" transform="translate(-4011.923 -6619)">
    <path id="Path_8" data-name="Path 8" d="M572.03,41.562H127.97A10.97,10.97,0,0,0,117.032,52.5v455a10.97,10.97,0,0,0,10.938,10.938H572.03A10.97,10.97,0,0,0,582.968,507.5V52.5A10.97,10.97,0,0,0,572.03,41.562Zm-232.97,455H138.9V177.182H339.06Zm0-341.25H138.9V63.437H339.06Zm222.03,341.25H360.93V290.942H561.09Zm0-227.5H360.93V63.442H561.09Z" transform="translate(3894.891 6577.438)"/>
  </g>
</svg>
