<svg xmlns="http://www.w3.org/2000/svg" width="48" height="48" viewBox="0 0 48 48">
  <g id="Group_171" data-name="Group 171" transform="translate(-566 -573)">
    <path id="Path_157" data-name="Path 157" d="M323.48,419.332h0a24,24,0,0,1,24-24h0a24,24,0,0,1,24,24h0a24,24,0,0,1-24,24h0a24,24,0,0,1-24-24Z" transform="translate(242.52 177.668)" fill="#71af47" fillRule="evenodd"/>
    <g id="Group_170" data-name="Group 170" transform="translate(578 585)">
      <path id="Path_166" data-name="Path 166" d="M0,0H24V24H0Z" fill="none"/>
      <path id="Path_167" data-name="Path 167" d="M7.05,14.121,4.93,16.243l2.828,2.828L19.071,7.757,16.243,4.93,14.12,7.05l1.415,1.414L14.12,9.88,12.706,8.465,11.292,9.88l1.414,1.414-1.414,1.414L9.878,11.294,8.463,12.708l1.415,1.414L8.463,15.537,7.05,14.12Zm9.9-11.313L21.192,7.05a1,1,0,0,1,0,1.414L8.464,21.192a1,1,0,0,1-1.414,0L2.808,16.95a1,1,0,0,1,0-1.414L15.536,2.808A1,1,0,0,1,16.95,2.808ZM14.12,18.363l1.415-1.414,2.242,2.243h1.414V17.778l-2.242-2.243,1.414-1.414L21,16.757V21H16.758l-2.637-2.637ZM5.636,9.878,2.807,7.05a1,1,0,0,1,0-1.415L5.636,2.807a1,1,0,0,1,1.414,0L9.88,5.635,8.464,7.05,6.343,4.928,4.929,6.343,7.05,8.463,5.636,9.878Z" fill="#fff"/>
    </g>
  </g>
</svg>
