<svg id="Group_140" data-name="Group 140" xmlns="http://www.w3.org/2000/svg" width="18" height="18" viewBox="0 0 18 18">
  <path id="Path_100" data-name="Path 100" d="M0,0H18V18H0Z" fill="none"/>
  <path id="Path_101" data-name="Path 101" d="M9,2.455A2.094,2.094,0,0,0,7.006,4.636V7.545A2.094,2.094,0,0,0,9,9.727a2.094,2.094,0,0,0,1.994-2.182V4.636A2.094,2.094,0,0,0,9,2.455ZM9,1a3.49,3.49,0,0,1,3.323,3.636V7.545A3.49,3.49,0,0,1,9,11.182,3.49,3.49,0,0,1,5.677,7.545V4.636A3.49,3.49,0,0,1,9,1ZM3.055,8.273H4.394A4.81,4.81,0,0,0,9,12.632,4.81,4.81,0,0,0,13.6,8.273h1.34a6.288,6.288,0,0,1-5.28,5.778V17H8.335V14.051a6.288,6.288,0,0,1-5.28-5.778Z"/>
</svg>
