<svg id="Group_9578" data-name="Group 9578" xmlns="http://www.w3.org/2000/svg" xmlns:xlink="http://www.w3.org/1999/xlink" width="17" height="17" viewBox="0 0 17 17">
  <defs>
    <linearGradient id="linear-gradient" x1="0.5" x2="0.5" y2="1" gradientUnits="objectBoundingBox">
      <stop offset="0" stop-color="#335089"/>
      <stop offset="1" stop-color="#5888ea"/>
    </linearGradient>
  </defs>
  <path id="Path_3779" data-name="Path 3779" d="M0,0H17V17H0Z" fill="none"/>
  <path id="Path_3780" data-name="Path 3780" d="M2.093,10.237a7.042,7.042,0,0,1,0-2.309A1.785,1.785,0,0,0,3.847,6.914a1.783,1.783,0,0,0-.524-1.957A7.042,7.042,0,0,1,4.957,3.323a1.785,1.785,0,0,0,1.958.524A1.783,1.783,0,0,0,7.927,2.093a7.042,7.042,0,0,1,2.311,0,1.784,1.784,0,0,0,1.013,1.755,1.783,1.783,0,0,0,1.957-.524,7.042,7.042,0,0,1,1.634,1.633,1.785,1.785,0,0,0-.524,1.958,1.783,1.783,0,0,0,1.755,1.013,7.042,7.042,0,0,1,0,2.311,1.784,1.784,0,0,0-1.755,1.013,1.783,1.783,0,0,0,.524,1.957,7.042,7.042,0,0,1-1.633,1.634,1.785,1.785,0,0,0-1.958-.524,1.783,1.783,0,0,0-1.013,1.755,7.042,7.042,0,0,1-2.311,0,1.784,1.784,0,0,0-1.013-1.755,1.783,1.783,0,0,0-1.957.524,7.042,7.042,0,0,1-1.634-1.633,1.785,1.785,0,0,0,.524-1.958,1.783,1.783,0,0,0-1.755-1.013Zm6.99.97A2.125,2.125,0,1,0,6.958,9.083,2.125,2.125,0,0,0,9.083,11.208Z" transform="translate(-0.583 -0.583)" fill="url(#linear-gradient)"/>
</svg>
