<svg id="Group_10193" data-name="Group 10193" xmlns="http://www.w3.org/2000/svg" width="19" height="19" viewBox="0 0 19 19">
  <path id="Path_3957" data-name="Path 3957" d="M0,0H19V19H0Z" fill="none"/>
  <path id="Path_3958" data-name="Path 3958" d="M2.68,2.5l9.951-1.421a.4.4,0,0,1,.452.392v16.5a.4.4,0,0,1-.451.392L2.679,16.947A.792.792,0,0,1,2,16.163V3.286a.792.792,0,0,1,.68-.784Zm.9,1.471v11.5L11.5,16.607V2.842ZM13.875,15.266H16.25V4.183H13.875V2.6h3.167a.792.792,0,0,1,.792.792V16.058a.792.792,0,0,1-.792.792H13.875ZM8.491,9.724l2.217,3.167h-1.9l-1.267-1.81-1.267,1.81h-1.9L6.591,9.724,4.375,6.558h1.9l1.267,1.81,1.267-1.81h1.9Z" transform="translate(-0.416 -0.224)"/>
</svg>
