<svg id="Group_248" data-name="Group 248" xmlns="http://www.w3.org/2000/svg" width="22" height="22" viewBox="0 0 22 22">
  <path id="Path_340" data-name="Path 340" d="M0,0H22V22H0Z" fill="none"/>
  <path id="Path_341" data-name="Path 341" d="M12,12.083V17.2l1.676-1.676,1.3,1.3-3.889,3.889L7.193,16.824l1.3-1.3L10.166,17.2v-5.12ZM11.083,2a6.418,6.418,0,0,1,6.374,5.678,5.042,5.042,0,0,1-.874,9.886V15.717a3.208,3.208,0,1,0-1.019-6.335,4.583,4.583,0,1,0-8.962,0A3.208,3.208,0,0,0,5.418,15.69l.165.028v1.846a5.042,5.042,0,0,1-.874-9.885A6.417,6.417,0,0,1,11.083,2Z" transform="translate(-0.083 -0.167)"/>
</svg>
