<svg xmlns="http://www.w3.org/2000/svg" width="22" height="22" viewBox="0 0 48 53.485">
  <path id="noun-music-5354268" d="M193.83,60.617c0-3.408-1.166-5.941-3.511-7.237a9.509,9.509,0,0,0-6.923-.444l-14.96,3.852a7.764,7.764,0,0,0-6.148,7.681v23A10.286,10.286,0,1,0,166.4,95.7V73.99l23.315-5.829V81.983a10.285,10.285,0,1,0,4.016,9.651,2.057,2.057,0,0,0,.1-.628Zm-4.114,3.3v-3.3c0-2.484-.788-3.305-1.386-3.636a5.569,5.569,0,0,0-3.907-.061l-14.962,3.853a3.664,3.664,0,0,0-3.059,3.7v5.28Zm-33.6,25.606a6.171,6.171,0,1,1-6.171,6.171A6.171,6.171,0,0,1,156.116,89.526Zm33.6.686a6.171,6.171,0,1,0-6.171,6.171A6.172,6.172,0,0,0,189.716,90.212Z" transform="translate(-145.83 -52.498)" fillRule="evenodd" fill="currentColor"/>
</svg>
