<svg xmlns="http://www.w3.org/2000/svg" width="1173.769" height="342.246" viewBox="0 0 1173.769 342.246">
  <g id="Cashfree-Payments" transform="translate(-92 -170.989)">
    <g id="Group_1077" data-name="Group 1077" transform="translate(326.328 170.989)">
      <path id="Path_40263" data-name="Path 40263" d="M276.721,250.237c-8.67-7.225-20.471-10.837-35.884-10.837H189.3V373.543h26.491V334.769h18.544a63.4,63.4,0,0,0,24.083-4.094,46.435,46.435,0,0,0,16.858-11.8,45.83,45.83,0,0,0,9.874-16.858,56.92,56.92,0,0,0,3.131-19.989C289,268.059,284.91,257.462,276.721,250.237Zm-17.34,47.444A26.24,26.24,0,0,1,250.23,309a29.65,29.65,0,0,1-16.376,4.094h-18.3V262.038h24.565a24.682,24.682,0,0,1,15.895,4.576c4.094,3.131,6.262,8.188,6.262,15.413A31.378,31.378,0,0,1,259.382,297.681Z" transform="translate(-189.3 -74.646)" fill="#1f074f"/>
      <path id="Path_40264" data-name="Path 40264" d="M326.368,328.866V295.15a56.677,56.677,0,0,0-3.612-21.916,30.605,30.605,0,0,0-10.115-13.246,33.279,33.279,0,0,0-15.413-6.262A85.054,85.054,0,0,0,278.2,251.8a99.6,99.6,0,0,0-16.858,1.445,79.411,79.411,0,0,0-14.931,3.612V277.81h1.927a51.38,51.38,0,0,1,11.8-3.612,101.222,101.222,0,0,1,14.931-1.927,41.919,41.919,0,0,1,14.45,1.927,14.407,14.407,0,0,1,8.67,6.262,30.133,30.133,0,0,1,3.131,14.45v1.927l-5.539-1.445a69.368,69.368,0,0,0-14.209-1.445,74.843,74.843,0,0,0-23.12,3.612,32.45,32.45,0,0,0-15.413,10.6,27.745,27.745,0,0,0-5.3,18.3c0,11.319,4.094,19.507,11.8,25.046,7.707,5.057,19.507,7.707,34.92,7.707,4.576,0,9.633-.482,14.691-.963a101.89,101.89,0,0,0,14.932-2.649c5.057-1.445,9.633-2.649,13.727-4.094l.482-1.445a38.086,38.086,0,0,1-.963-9.151A49.831,49.831,0,0,1,326.368,328.866Zm-30.1,10.356a70.38,70.38,0,0,1-12.282.963c-7.225,0-12.764-.963-16.377-3.131a11.973,11.973,0,0,1-5.78-10.837c0-5.539,1.927-9.152,5.78-11.319s10.115-3.131,18.3-3.131a86.058,86.058,0,0,1,11.319.963c1.445.482,2.649.482,4.094.963v14.932c0,1.927.482,3.612.482,5.539a11.346,11.346,0,0,0,.963,4.094A37.611,37.611,0,0,0,296.264,339.222Z" transform="translate(-121.181 -57.183)" fill="#1f074f"/>
      <path id="Path_40265" data-name="Path 40265" d="M332.6,324.327,309,252.8H281.3v2.167L319.833,357.08l-16.376,39.015v1.927h26.01L385.1,254.967V252.8H358.607Z" transform="translate(-59.736 -55.775)" fill="#1f074f"/>
      <path id="Path_40266" data-name="Path 40266" d="M472.663,260.47a41.7,41.7,0,0,0-14.45-6.743,85,85,0,0,0-17.34-1.927,87.311,87.311,0,0,0-33.716,7.466,38.987,38.987,0,0,0-12.282-5.057,79.067,79.067,0,0,0-16.858-2.408,88.686,88.686,0,0,0-15.895,1.445c-5.539.963-10.837,1.927-15.895,3.131-5.057,1.445-9.633,2.649-13.246,4.094l-.482,1.445a56.058,56.058,0,0,1,.963,9.152,88.992,88.992,0,0,1,.482,11.319V355.6h26.01V288.165a78.034,78.034,0,0,0-.482-10.6,7.032,7.032,0,0,0-.482-2.167q2.168-.723,5.057-1.445a44.2,44.2,0,0,1,11.319-1.445,28.761,28.761,0,0,1,11.8,2.408,15.083,15.083,0,0,1,8.188,7.707,34.034,34.034,0,0,1,3.131,15.413v57.8H424.5V297.076a55.035,55.035,0,0,0-3.612-21.434c2.167-.722,4.576-1.445,6.743-1.927a43.6,43.6,0,0,1,9.633-.963,33.376,33.376,0,0,1,12.764,2.408,15.083,15.083,0,0,1,8.188,7.707,30.786,30.786,0,0,1,2.649,15.413v57.8h26.01V296.835A60.34,60.34,0,0,0,483.26,274.2,41.333,41.333,0,0,0,472.663,260.47Z" transform="translate(12.369 -57.183)" fill="#1f074f"/>
      <path id="Path_40267" data-name="Path 40267" d="M485.5,259.135a51.3,51.3,0,0,0-27.7-7.225,53.714,53.714,0,0,0-26.491,6.262,44.664,44.664,0,0,0-17.34,18.062,59.625,59.625,0,0,0-6.262,28.177,60.215,60.215,0,0,0,4.094,23.6,39.778,39.778,0,0,0,11.8,16.376,53.534,53.534,0,0,0,18.785,9.633,80.381,80.381,0,0,0,25.046,3.131,111.172,111.172,0,0,0,17.822-1.445,59.282,59.282,0,0,0,12.764-3.612V331.144H496.1a66.3,66.3,0,0,1-10.837,4.094,89.528,89.528,0,0,1-15.895,1.927,57.838,57.838,0,0,1-18.062-2.89,27.164,27.164,0,0,1-12.282-9.151,24.883,24.883,0,0,1-4.094-12.282h70.082v-6.262a65.811,65.811,0,0,0-4.094-28.177A37.024,37.024,0,0,0,485.5,259.135ZM479,295.983H434.447a39.946,39.946,0,0,1,2.649-11.8,22.615,22.615,0,0,1,8.188-9.633,27.339,27.339,0,0,1,12.282-3.131c7.225,0,12.764,1.927,15.895,6.021,3.612,4.094,5.539,9.633,5.539,17.34Z" transform="translate(118.258 -57.053)" fill="#1f074f"/>
      <path id="Path_40268" data-name="Path 40268" d="M538.092,260.952a46.3,46.3,0,0,0-15.413-6.743,92.949,92.949,0,0,0-18.062-2.408,88.682,88.682,0,0,0-15.895,1.445c-5.539.963-10.837,1.927-15.895,3.131a97.192,97.192,0,0,0-13.246,4.094l-.482,1.445a56.058,56.058,0,0,1,.963,9.152,88.992,88.992,0,0,1,.482,11.319V355.6h26.01V288.165a78.034,78.034,0,0,0-.482-10.6,7.032,7.032,0,0,0-.482-2.167q2.167-.723,5.057-1.445a44.2,44.2,0,0,1,11.319-1.445,35.821,35.821,0,0,1,13.246,2.408,18,18,0,0,1,8.67,7.707,34.034,34.034,0,0,1,3.131,15.413v57.8h25.769V297.076a56.3,56.3,0,0,0-4.094-22.638A27.525,27.525,0,0,0,538.092,260.952Z" transform="translate(190.66 -57.183)" fill="#1f074f"/>
      <path id="Path_40269" data-name="Path 40269" d="M573.433,349.692a64.916,64.916,0,0,1-6.743.963c-6.5,0-11.078-1.445-13.727-4.094a19.043,19.043,0,0,1-4.576-13.727v-43.59h27.7V268.291h-27.7V241.8h-26.01v26.491H506v20.952h16.376V334.76a39.857,39.857,0,0,0,4.576,20.952,27.96,27.96,0,0,0,14.209,12.042,56.712,56.712,0,0,0,22.879,4.094,47.986,47.986,0,0,0,10.115-.963,40.491,40.491,0,0,0,7.707-2.167V347.765h-1.927A18.623,18.623,0,0,1,573.433,349.692Z" transform="translate(256.71 -71.266)" fill="#1f074f"/>
      <path id="Path_40270" data-name="Path 40270" d="M610.788,300.184a52.343,52.343,0,0,0-15.895-4.576l-8.67-1.445a59.283,59.283,0,0,1-12.764-3.612,6.828,6.828,0,0,1-4.094-6.743,8.533,8.533,0,0,1,6.021-8.67,42.525,42.525,0,0,1,16.376-2.649,131.472,131.472,0,0,1,13.727.963,98.9,98.9,0,0,1,13.727,4.094h1.445V256.112a49.759,49.759,0,0,0-13.246-2.649,97.111,97.111,0,0,0-14.45-.963c-11.319,0-20.952,1.445-27.7,4.576a31.108,31.108,0,0,0-15.413,11.8,30.507,30.507,0,0,0-5.057,16.376c0,8.67,2.649,14.932,8.188,19.026a59.419,59.419,0,0,0,22.879,9.151l8.67,1.445a43.383,43.383,0,0,1,13.246,3.612,7.282,7.282,0,0,1,4.094,7.225,8.528,8.528,0,0,1-2.408,6.262,8.665,8.665,0,0,1-5.539,3.131l-6.743,1.445h-6.743a58.871,58.871,0,0,1-18.3-2.408,88.745,88.745,0,0,1-15.413-5.057h-1.445V351.24A114.4,114.4,0,0,0,579,356.3c16.376,0,28.177-2.649,36.365-8.188s12.282-13.727,12.282-24.565a25.02,25.02,0,0,0-4.094-14.932A61.642,61.642,0,0,0,610.788,300.184Z" transform="translate(311.352 -56.197)" fill="#1f074f"/>
      <path id="Path_40271" data-name="Path 40271" d="M263.739,303.748c10.356,5.539,23.6,8.188,39.5,8.188a99.6,99.6,0,0,0,16.858-1.445,49.312,49.312,0,0,0,12.764-4.094V282.8h-1.686a70.342,70.342,0,0,1-11.8,4.576,73.514,73.514,0,0,1-14.45,1.445,52.942,52.942,0,0,1-25.046-5.539,36.6,36.6,0,0,1-15.413-15.413c-3.612-6.743-5.057-15.413-5.057-25.528a56.252,56.252,0,0,1,5.057-25.046A37.739,37.739,0,0,1,279.875,201.4a52.942,52.942,0,0,1,25.046-5.539,49.719,49.719,0,0,1,14.45,1.927,40.385,40.385,0,0,1,11.8,4.094H333.1V179.239a60.632,60.632,0,0,0-12.764-4.094,99.6,99.6,0,0,0-16.858-1.445c-15.413,0-28.659,2.649-39.5,8.67A60.965,60.965,0,0,0,239.9,206.453a76.606,76.606,0,0,0-8.188,36.365,79.8,79.8,0,0,0,8.188,37.329A57.74,57.74,0,0,0,263.739,303.748Z" transform="translate(-129.597 -167.172)" fill="#1f074f"/>
      <path id="Path_40272" data-name="Path 40272" d="M294.941,285.741c7.707,5.057,19.507,7.707,34.92,7.707,4.576,0,9.633-.482,14.45-.963a101.872,101.872,0,0,0,14.932-2.649c5.057-1.445,9.633-2.649,13.727-4.094l.482-1.445a38.086,38.086,0,0,1-.963-9.152c-.241-3.853-.482-7.707-.482-11.319V230.35a56.678,56.678,0,0,0-3.612-21.916,30.094,30.094,0,0,0-9.874-13.246,33.279,33.279,0,0,0-15.413-6.262A101.97,101.97,0,0,0,324.082,187a99.6,99.6,0,0,0-16.858,1.445,79.416,79.416,0,0,0-14.932,3.612V213.01h1.927a51.386,51.386,0,0,1,11.8-3.612,105.582,105.582,0,0,1,14.932-1.927A41.918,41.918,0,0,1,335.4,209.4a14.407,14.407,0,0,1,8.67,6.262,30.133,30.133,0,0,1,3.131,14.45v1.927l-5.539-1.445a69.371,69.371,0,0,0-14.209-1.445,74.843,74.843,0,0,0-23.12,3.612,33.742,33.742,0,0,0-15.413,10.356,29.16,29.16,0,0,0-5.3,18.3C283.141,272.736,287.235,280.924,294.941,285.741ZM313,249.375c4.094-2.167,9.874-3.131,18.062-3.131a86.052,86.052,0,0,1,11.319.963c1.445.482,2.649.482,4.094.963V263.1c0,1.927.482,3.612.482,5.539a11.346,11.346,0,0,0,.963,4.094c-1.927.482-3.612,1.445-5.539,1.927a70.374,70.374,0,0,1-12.282.963c-7.225,0-12.764-.963-16.376-3.131a12.709,12.709,0,0,1-6.021-10.837c0-6.262,1.686-9.874,5.3-12.282Z" transform="translate(-56.519 -148.441)" fill="#1f074f"/>
      <path id="Path_40273" data-name="Path 40273" d="M380.548,270.809l-6.743,1.445h-6.743a79.175,79.175,0,0,1-18.3-2.167,88.752,88.752,0,0,1-15.413-5.057H331.9v21.916a94.451,94.451,0,0,0,15.895,3.612A108.958,108.958,0,0,0,365.616,292c16.376,0,28.177-2.649,36.365-8.188s12.282-13.727,12.282-24.565a25.018,25.018,0,0,0-4.094-14.931,29.247,29.247,0,0,0-11.319-9.633,52.342,52.342,0,0,0-15.895-4.576l-8.67-1.445a59.287,59.287,0,0,1-12.764-3.612,6.828,6.828,0,0,1-4.094-6.743,8.533,8.533,0,0,1,6.021-8.67,42.524,42.524,0,0,1,16.376-2.649,131.467,131.467,0,0,1,13.727.963,98.916,98.916,0,0,1,13.727,4.094h1.445V190.612a49.758,49.758,0,0,0-13.246-2.649,97.108,97.108,0,0,0-14.45-.963c-11.319,0-20.952,1.445-27.7,4.576a31.107,31.107,0,0,0-15.413,11.8,30.508,30.508,0,0,0-5.057,16.376c0,8.67,2.649,14.931,8.188,19.026a56.229,56.229,0,0,0,22.638,9.152l8.67,1.445a43.382,43.382,0,0,1,13.246,3.612,7.282,7.282,0,0,1,4.094,7.225,9.432,9.432,0,0,1-2.167,6.262A16.3,16.3,0,0,1,380.548,270.809Z" transform="translate(11.524 -148.441)" fill="#1f074f"/>
      <path id="Path_40274" data-name="Path 40274" d="M469.5,313.39V254.627a59.38,59.38,0,0,0-3.131-21.434,38.944,38.944,0,0,0-9.151-14.209,32.289,32.289,0,0,0-13.727-7.707,49.96,49.96,0,0,0-16.858-2.167,50.509,50.509,0,0,0-15.895,1.927A31.518,31.518,0,0,0,404,213.2V171.3H376.782l-.482,1.445a38.086,38.086,0,0,1,.963,9.152,90.9,90.9,0,0,1,.482,11.319V312.908h26.01V233.193h.482c2.167-.482,5.057-1.445,7.707-1.927s5.539-.723,8.188-.963a35.672,35.672,0,0,1,12.282,2.167,15.082,15.082,0,0,1,8.188,7.707,34.034,34.034,0,0,1,3.131,15.413v57.318Z" transform="translate(74.053 -170.552)" fill="#1f074f"/>
      <path id="Path_40275" data-name="Path 40275" d="M482.6,171.015a50.95,50.95,0,0,0-23.12,4.576,33.1,33.1,0,0,0-14.45,13.727,46.509,46.509,0,0,0-5.057,22.638H423.6v20.952h16.376v80.919h26.01v-81.16H492V211.956h-26.01c0-7.225,1.445-12.282,4.094-15.413,2.649-3.612,7.707-5.057,14.209-5.057a20.777,20.777,0,0,1,6.743.963q2.89.722,5.057,1.445h1.927V173.423a35.477,35.477,0,0,0-6.743-1.927A55.312,55.312,0,0,0,482.6,171.015Z" transform="translate(140.666 -170.989)" fill="#1f074f"/>
      <path id="Path_40276" data-name="Path 40276" d="M460.7,216.2v74.657h26.01V222.943a75.952,75.952,0,0,0-.963-12.764c1.445-.482,2.649-.482,4.576-.963a97.427,97.427,0,0,1,11.8-.963,31.8,31.8,0,0,1,6.743.482,17.959,17.959,0,0,1,6.262.963h1.927V188.263c-2.649-.482-5.057-.482-7.707-.963h-7.225c-5.057,0-10.356.482-15.413.963a139.062,139.062,0,0,0-14.45,2.167c-4.576.963-8.67,2.167-12.282,3.131l-.482,1.445a38.083,38.083,0,0,1,.963,9.152C460.223,208.493,460.7,212.106,460.7,216.2Z" transform="translate(191.224 -148.019)" fill="#1f074f"/>
      <path id="Path_40277" data-name="Path 40277" d="M567.3,291.209a59.29,59.29,0,0,0,12.764-3.612V266.644h-1.927a66.3,66.3,0,0,1-10.837,4.094,89.537,89.537,0,0,1-15.895,1.927,59.093,59.093,0,0,1-18.3-2.649,29,29,0,0,1-12.282-9.152,24.883,24.883,0,0,1-4.094-12.282h70.082V242.32a65.809,65.809,0,0,0-4.094-28.177A39.849,39.849,0,0,0,567.3,194.635a51.3,51.3,0,0,0-27.7-7.225,53.714,53.714,0,0,0-26.491,6.262,43.808,43.808,0,0,0-17.34,18.3,59.624,59.624,0,0,0-6.262,28.177,60.215,60.215,0,0,0,4.094,23.6,38.281,38.281,0,0,0,11.8,16.376,53.534,53.534,0,0,0,18.785,9.633,88.011,88.011,0,0,0,25.046,2.89A116.457,116.457,0,0,0,567.3,291.209Zm-39.255-82.364a27.338,27.338,0,0,1,12.282-3.131c7.225,0,12.764,1.927,15.895,6.021,3.612,4.094,5.539,9.633,5.539,17.34v.963H517.211a39.944,39.944,0,0,1,2.649-11.8A18.522,18.522,0,0,1,528.048,208.845Z" transform="translate(233.458 -147.889)" fill="#1f074f"/>
      <path id="Path_40278" data-name="Path 40278" d="M632.076,213.643a38.547,38.547,0,0,0-15.413-19.507,51.3,51.3,0,0,0-27.7-7.225,53.714,53.714,0,0,0-26.491,6.262,45.681,45.681,0,0,0-17.1,18.062,59.624,59.624,0,0,0-6.261,28.177,60.217,60.217,0,0,0,4.094,23.6,39.778,39.778,0,0,0,11.8,16.376,54.572,54.572,0,0,0,18.544,9.633,80.385,80.385,0,0,0,25.047,3.131,111.163,111.163,0,0,0,17.821-1.445,59.286,59.286,0,0,0,12.764-3.612V266.144h-1.927a66.3,66.3,0,0,1-10.837,4.094,89.532,89.532,0,0,1-15.895,1.927,59.09,59.09,0,0,1-18.3-2.649,27.164,27.164,0,0,1-12.282-9.152,24.886,24.886,0,0,1-4.094-12.282h70.082V241.82A66.705,66.705,0,0,0,632.076,213.643Zm-21.434,17.34H566.088a39.944,39.944,0,0,1,2.649-11.8,22.615,22.615,0,0,1,8.188-9.633,27.338,27.338,0,0,1,12.282-3.131c7.225,0,12.764,1.927,15.895,6.021,3.612,4.094,5.539,9.633,5.539,17.34v1.2Z" transform="translate(303.31 -148.593)" fill="#1f074f"/>
    </g>
    <path id="Path_40279" data-name="Path 40279" d="M168.529,172.082A49.08,49.08,0,0,0,119.4,220.729H300.986A49.027,49.027,0,0,0,350.116,171.6H168.529v.482Z" transform="translate(38.588 0.86)" fill="#04ab61"/>
    <path id="Path_40280" data-name="Path 40280" d="M119.4,220.729A49.027,49.027,0,0,1,168.529,171.6h0V353.186A49.027,49.027,0,0,1,119.4,402.316h0Z" transform="translate(38.588 0.86)" fill="#04ab61"/>
    <path id="Path_40281" data-name="Path 40281" d="M146.2,198.8v49.129h56.836A49.027,49.027,0,0,0,252.165,198.8Z" transform="translate(76.33 39.166)" fill="#fbb016"/>
    <path id="Path_40282" data-name="Path 40282" d="M92,247.929A49.027,49.027,0,0,1,141.129,198.8h0V380.386A49.027,49.027,0,0,1,92,429.516h0Z" transform="translate(0 39.166)" fill="#fbb016"/>
  </g>
</svg>
