<svg xmlns="http://www.w3.org/2000/svg" width="1894.739" height="400.27" viewBox="0 0 1894.739 400.27">
  <g id="razorpay" transform="translate(-0.801 -0.48)">
    <path id="Path_40261" data-name="Path 40261" d="M122.63,105.7l-15.75,57.97,90.15-58.3L138.07,325.35l59.88.05L285.05.48" fill="#3395ff"/>
    <path id="Path_40262" data-name="Path 40262" d="M25.6,232.92.8,325.4H123.53l50.22-188.13L25.6,232.92M451.92,151.5q-4.5,16.725-17.4,24.57-12.9,7.83-36.25,7.84h-49.5l17.38-64.8h49.5c15.56,0,26.25,2.6,32.05,7.9s7.2,13.4,4.22,24.6m51.25-1.4q9.45-35.1-7.82-54-17.25-18.75-60.48-18.8H324.4l-66.5,248.1h53.67l26.8-100h35.2c7.9,0,14.12,1.3,18.66,3.8,4.55,2.6,7.22,7.1,8.04,13.6l9.58,82.6h57.5l-9.32-77q-2.85-25.8-23.6-30.3,26.445-7.65,44.3-25.4a92.6,92.6,0,0,0,24.44-42.5m130.46,86.4c-4.5,16.8-11.4,29.5-20.73,38.4a46.821,46.821,0,0,1-33.52,13.3c-13.26,0-22.25-4.3-27-13s-4.92-21.3-.5-37.8,11.47-29.4,21.17-38.7,21.04-13.95,34.06-13.95c13,0,21.9,4.5,26.4,13.43,4.6,8.97,4.7,21.8.2,38.5Zm23.52-87.8-6.72,25.1a39.769,39.769,0,0,0-16.85-21.6c-8.34-5.3-18.66-8-30.97-8a87.683,87.683,0,0,0-43.5,11.7q-20.85,11.7-36.5,33a145.14,145.14,0,0,0-22.9,48.4c-4.8,18.2-5.8,34.1-2.9,47.9,3,13.9,9.3,24.5,19,31.9,9.8,7.5,22.3,11.2,37.6,11.2a84.548,84.548,0,0,0,63.6-28.9l-7,26.16h51.9L709.3,149h-52Zm238.65,0H744.87l-10.55,39.4h87.82l-116.1,100.3-9.92,37h155.8l10.55-39.4h-94.1l117.88-101.8m142.4,52c-4.67,17.4-11.6,30.48-20.75,39q-13.725,12.9-33.24,12.9-40.8,0-26.86-51.9,6.9-25.8,20.86-38.84,13.95-13.11,33.82-13.1,19.5,0,26.3,13.05,6.78,13.05-.13,38.87m30.38-80.83q-17.925-11.16-45.8-11.16a123.309,123.309,0,0,0-52.3,11.1,113.09,113.09,0,0,0-41,32.06q-16.95,20.85-24.42,48.8-7.35,27.795-1.7,48.73a52.648,52.648,0,0,0,23.8,32c12.1,7.46,27.5,11.17,46.4,11.17a120.808,120.808,0,0,0,51.8-11.18,114.228,114.228,0,0,0,40.8-32.1q16.95-20.91,24.4-48.8,7.5-27.9,1.8-48.8c-3.8-13.9-11.7-24.6-23.6-32.05m185.1,40.8,13.3-48.1c-4.5-2.3-10.4-3.5-17.8-3.5a70.932,70.932,0,0,0-34.3,8.9,74.862,74.862,0,0,0-24.3,21.14l6.9-25.9-15.07.06h-37l-47.7,176.7h52.63l24.75-92.37c3.6-13.43,10.08-24,19.43-31.5,9.3-7.53,20.9-11.3,34.9-11.3a51.763,51.763,0,0,1,24.2,5.9m146.5,41.1c-4.5,16.5-11.3,29.1-20.6,37.8a47.237,47.237,0,0,1-33.5,13.1c-13,0-21.9-4.4-26.6-13.2-4.8-8.85-4.9-21.6-.4-38.36s11.4-29.6,20.9-38.5a47.385,47.385,0,0,1,33.7-13.45c12.8,0,21.4,4.6,26,13.9s4.7,22.2.28,38.7m36.8-81.4q-14.625-11.7-37.3-11.7a82.536,82.536,0,0,0-37.8,9.06,78.854,78.854,0,0,0-29.1,24.74l.18-1.2,8.83-28.1h-51.4l-13.1,48.9-.4,1.7-54,201.44h52.7l27.2-101.4a36.391,36.391,0,0,0,16.6,21.22q12.6,7.65,31.1,7.63a91.6,91.6,0,0,0,43.75-11.1c13.9-7.42,25.9-18.1,36.1-31.9a140.924,140.924,0,0,0,22.6-47.9c4.9-18.13,5.9-34.3,3.1-48.45q-4.275-21.255-18.9-32.9m174.65,80.65c-4.5,16.7-11.4,29.5-20.7,38.3a46.881,46.881,0,0,1-33.5,13.27c-13.3,0-22.3-4.3-27-13-4.8-8.7-4.9-21.3-.5-37.8s11.42-29.4,21.12-38.7,21.05-13.94,34.07-13.94c13,0,21.8,4.5,26.4,13.4q6.9,13.395.15,38.5Zm23.5-87.85-6.73,25.1a39.421,39.421,0,0,0-16.8-21.6c-8.4-5.34-18.7-8-31-8a88.1,88.1,0,0,0-43.6,11.7q-20.85,11.7-36.5,32.9a144.771,144.771,0,0,0-22.9,48.4c-4.85,18.17-5.8,34.1-2.9,47.96q4.4,20.7,19,31.9,14.61,11.1,37.6,11.14a83.154,83.154,0,0,0,35.2-7.7,82.3,82.3,0,0,0,28.33-21.23l-7,26.18h51.9l47.38-176.7h-51.9Zm269.87.06.03-.05h-31.9c-1.02,0-1.92.05-2.85.07h-16.55l-8.5,11.8-2.1,2.8-.9,1.4-67.25,93.68-13.9-109.7h-55.08l27.9,166.7-61.6,85.3h54.9l14.9-21.13c.42-.62.8-1.14,1.3-1.8l17.4-24.7.5-.7,77.93-110.5,65.7-93,.1-.06h-.03Z" fill="#072654"/>
  </g>
</svg>
