<svg id="Group_141" data-name="Group 141" xmlns="http://www.w3.org/2000/svg" width="18" height="18" viewBox="0 0 18 18">
  <path id="Path_102" data-name="Path 102" d="M0,0H18V18H0Z" fill="none"/>
  <path id="Path_103" data-name="Path 103" d="M7.48,4.333,6.08,5.667H3.4v8H14.6v-8H11.92l-1.4-1.333ZM6.9,3h4.2l1.4,1.333h2.8A.684.684,0,0,1,16,5v9.333a.684.684,0,0,1-.7.667H2.7a.684.684,0,0,1-.7-.667V5a.684.684,0,0,1,.7-.667H5.5ZM9,13A3.762,3.762,0,0,1,5.15,9.333,3.762,3.762,0,0,1,9,5.667a3.762,3.762,0,0,1,3.85,3.667A3.762,3.762,0,0,1,9,13Zm0-1.333a2.394,2.394,0,0,0,2.45-2.333A2.394,2.394,0,0,0,9,7,2.394,2.394,0,0,0,6.55,9.333,2.394,2.394,0,0,0,9,11.667Z"/>
</svg>
