<svg xmlns="http://www.w3.org/2000/svg" width="48" height="48" viewBox="0 0 48 48">
  <g id="Group_176" data-name="Group 176" transform="translate(-826 -580)">
    <path id="Path_163" data-name="Path 163" d="M708.88,421.314h0a24,24,0,0,1,24-24h0a24,24,0,0,1,24,24h0a24,24,0,0,1-24,24h0a24,24,0,0,1-24-24Z" transform="translate(117.12 182.686)" fill="#a46ee0" fillRule="evenodd"/>
    <g id="Group_175" data-name="Group 175" transform="translate(838 592)">
      <path id="Path_172" data-name="Path 172" d="M0,0H24V24H0Z" fill="none"/>
      <path id="Path_173" data-name="Path 173" d="M13.12,17.023l-4.2-2.29a4,4,0,1,1,0-5.465l4.2-2.29a4,4,0,1,1,.959,1.755l-4.2,2.29a4.008,4.008,0,0,1,0,1.954l4.2,2.29a4,4,0,1,1-.959,1.755ZM6,14a2,2,0,1,0-2-2A2,2,0,0,0,6,14ZM17,8a2,2,0,1,0-2-2A2,2,0,0,0,17,8Zm0,12a2,2,0,1,0-2-2A2,2,0,0,0,17,20Z" fill="#fff"/>
    </g>
  </g>
</svg>
